<?xml version="1.0" standalone="no"?>
<!DOCTYPE svg PUBLIC "-//W3C//DTD SVG 1.1//EN" "http://www.w3.org/Graphics/SVG/1.1/DTD/svg11.dtd" >
<svg xmlns="http://www.w3.org/2000/svg" xmlns:xlink="http://www.w3.org/1999/xlink" version="1.1">
<metadata>
Created by FontForge 20201107 at Mon Jan 20 12:11:53 2020
 By 
Copyright (c) 2020 by The Indian Type Foundry. All rights reserved.
</metadata>
<defs>
<font id="TatsamRobi-Semibold" horiz-adv-x="0" >
  <font-face 
    font-family="Tatsam Robi Semibold"
    font-weight="400"
    font-stretch="normal"
    units-per-em="1000"
    panose-1="0 0 5 0 0 0 0 0 0 0"
    ascent="800"
    descent="-200"
    x-height="660"
    cap-height="666"
    bbox="-933.062 -503 1645 1163"
    underline-thickness="50"
    underline-position="-100"
    unicode-range="U+000D-2265"
  />
<missing-glyph horiz-adv-x="570" 
 />
    <glyph glyph-name="bn_k_ba" unicode="K&#xa6;" horiz-adv-x="714" 
d="M739 648q12 -12 12 -33v-2q0 -21 -12 -33t-33 -12h-252v-44q68 -3 119.5 -29.5t79.5 -70t28 -98.5q0 -57 -26 -91t-74 -34q-30 0 -51 17.5t-21 47.5q0 29 17.5 46.5t45.5 17.5q8 0 11 -1q-4 39 -38.5 64.5t-90.5 29.5v-543q0 -67 -61 -67q-17 0 -35 5.5t-44 16.5
l-229 106q-43 20 -43 74q0 57 45 83q79 45 152 78l-156 86q-20 13 -30.5 30t-10.5 42q0 45 40 74q125 91 265 111v49h-361q-21 0 -33 12t-12 33v2q0 21 12 33t33 12h720q21 0 33 -12zM168 333l179 -98v177q-93 -22 -179 -79zM347 -67v176q-43 -19 -90.5 -42t-95.5 -49z" />
    <glyph glyph-name="bn_kh_ba" unicode="L&#xa6;" horiz-adv-x="662" 
 />
    <glyph glyph-name="bn_g_ba" unicode="M&#xa6;" horiz-adv-x="590" 
 />
    <glyph glyph-name="bn_c_ba" unicode="P&#xa6;" horiz-adv-x="509" 
 />
    <glyph glyph-name="bn_ch_ba" unicode="Q&#xa6;" horiz-adv-x="598" 
 />
    <glyph glyph-name="bn_j_ba" unicode="R&#xa6;" horiz-adv-x="798" 
d="M824 648q12 -12 12 -33v-2q0 -21 -12 -33t-33 -12h-286q17 -34 52 -51t80 -17l37 1q35 0 53.5 -20t18.5 -52q0 -19 -10 -49q-12 -39 -18.5 -80t-6.5 -115v-354q0 -29 -16.5 -44.5t-48.5 -15.5q-31 0 -76 21l-201 94q-42 19 -42 68q0 28 12 46t34 29q66 35 118 59t120 53
v57q0 67 8 121t19 88h-2q-94 0 -156 46t-88 115h-3q-35 -27 -59 -65t-24 -70q0 -43 51 -43q38 0 75 13q21 7 33 7q32 0 52.5 -37.5t20.5 -94.5q0 -51 -23 -94.5t-70.5 -70.5t-118.5 -27q-128 0 -206.5 85t-92.5 235q-3 25 11 41.5t42 17.5q43 0 50 -49q24 -229 197 -229
q57 0 85.5 26.5t28.5 67.5q0 18 -6 33q-42 -17 -93 -17q-69 0 -107.5 32t-38.5 96q0 78 60 143h-270q-21 0 -33 12t-12 33v2q0 21 12 33t33 12h805q21 0 33 -12zM611 -121v153q-67 -26 -167 -77z" />
    <glyph glyph-name="bn_tt_ba" unicode="U&#xa6;" horiz-adv-x="535" 
d="M560 648q12 -12 12 -33v-2q0 -21 -12 -33t-33 -12h-343v-245q0 -63 80 -63q59 0 95 32.5t36 80.5q0 43 -26 53q-3 -25 -20.5 -40.5t-43.5 -15.5q-29 0 -47.5 17.5t-18.5 46.5q0 42 30 64.5t75 22.5q68 0 107 -38t39 -114q0 -72 -44 -125v-274q0 -68 -63 -68q-30 0 -79 22
l-188 86q-33 16 -45.5 33t-12.5 50q0 29 13 48t40 33l31 17q-67 38 -67 132v245h-89q-22 0 -34 12t-12 33v2q0 21 12 33t34 12h399q3 21 3 41q0 73 -78 73q-22 0 -64 -4q-48 -4 -84 -4q-76 0 -114.5 33.5t-38.5 97.5q0 29 13.5 45.5t41.5 16.5q53 0 56 -53q1 -26 16 -36
t53 -10q19 0 41.5 1.5t33.5 1.5q48 4 80 4q72 0 111.5 -41.5t39.5 -114.5q0 -9 -1.5 -25.5t-2.5 -25.5h36q21 0 33 -12zM337 20v154q-88 -41 -165 -79z" />
    <glyph glyph-name="bn_dd_ba" unicode="W&#xa6;" horiz-adv-x="656" 
d="M681.5 648q11.5 -12 11.5 -33v-2q0 -21 -11.5 -33t-32.5 -12h-293v-111q0 -21 8 -30t26 -9t35.5 7.5t42.5 22.5q23 13 34.5 18.5t23.5 5.5q43 0 65.5 -47t22.5 -110q0 -48 -17.5 -92t-55.5 -76v-262q0 -35 -17.5 -53t-48.5 -18q-29 0 -74 20l-202 89q-34 15 -48 32.5
t-14 49.5q0 31 12.5 50.5t39.5 34.5t45 22q-92 36 -140 123t-52 200q-1 26 15 40.5t39 14.5t36.5 -12.5t15.5 -36.5q9 -120 62 -183.5t151 -63.5q70 0 109 33t39 85q0 34 -10 50q-29 -23 -61 -37t-70 -14q-55 0 -89.5 30t-34.5 90v137h-258q-21 0 -33 12t-12 33v2
q0 21 12 33t33 12h663q21 0 32.5 -12zM432 -64v155q-99 -44 -171 -80z" />
    <glyph glyph-name="bn_l_ba" unicode="j&#xa6;" horiz-adv-x="694" 
d="M719 648q12 -12 12 -33v-2q0 -21 -12 -33t-33 -12h-68v-629q0 -35 -17.5 -53t-47.5 -18q-27 0 -75 20l-198 87q-52 22 -52 81t50 89q145 80 233 121v69q0 44 -15.5 66.5t-42.5 22.5q-22 0 -35.5 -15.5t-19.5 -48.5q-6 -26 -16.5 -38.5t-35.5 -12.5q-24 0 -36 13t-19 38
q-15 64 -77 64q-34 0 -55.5 -21t-21.5 -64q0 -48 26 -71q7 21 24 34t41 13q30 0 50.5 -20t20.5 -51q0 -35 -25.5 -58t-71.5 -23q-45 0 -83.5 19.5t-61.5 59.5t-23 98q0 56 23.5 97.5t63.5 64t88 22.5q41 0 76 -18t55 -47q19 34 46.5 49.5t55.5 15.5q40 0 69 -26v70h-525
q-21 0 -33 12t-12 33v2q0 21 12 33t33 12h700q21 0 33 -12zM511 -11v159q-58 -30 -165 -88z" />
    <glyph glyph-name="bn_g_ra" unicode="M&#xd6;" horiz-adv-x="628" 
 />
    <glyph glyph-name="bn_gh_ra" unicode="N&#xd6;" horiz-adv-x="630" 
 />
    <glyph glyph-name="bn_j_ra" unicode="R&#xd6;" horiz-adv-x="800" 
d="M825.5 648q11.5 -12 11.5 -33v-2q0 -21 -11.5 -33t-32.5 -12h-269q14 -30 42.5 -42t74.5 -12l36 1q36 0 53.5 -20t17.5 -53q0 -16 -9 -52q-11 -41 -17.5 -86t-6.5 -119v-300q0 -28 -11.5 -42t-38.5 -14q-26 0 -36.5 10.5t-19.5 32.5q-8 19 -16 31t-28 20.5t-56 8.5
q-38 0 -77 -5t-48 -6q-92 -14 -158 -14q-74 0 -126.5 35t-64.5 113q-1 5 -1 13q0 24 14 38t38 15q22 1 35 -9.5t20 -33.5q9 -39 32.5 -54t68.5 -15q50 0 136 12q84 12 131 12q60 0 97 -29v194q0 137 31 223q-172 1 -225 147h-3q-34 -27 -58 -65.5t-24 -69.5q0 -43 49 -43
q35 0 76 13q23 7 36 7q31 0 51 -37.5t20 -91.5q0 -87 -52 -141.5t-159 -54.5q-128 0 -205 82t-91 230q-3 25 11.5 42t43.5 17q41 0 48 -49q23 -220 195 -220q57 0 85 27t28 67q0 21 -6 33q-20 -8 -45.5 -13t-47.5 -5q-70 0 -108.5 32t-38.5 96q0 80 59 144h-290
q-21 0 -33 12t-12 33v2q0 21 12 33t33 12h807q21 0 32.5 -12z" />
    <glyph glyph-name="bn_d_ra" unicode="`&#xab;" horiz-adv-x="620" 
d="M645 648q12 -12 12 -33v-2q0 -21 -12 -33t-33 -12h-337v-65q0 -58 -6 -98l3 -1q32 25 74 49t80 39q32 12 58 12q35 0 55 -19t20 -55q0 -10 -4 -38q-12 -67 -12 -162v-186q0 -28 -11 -42t-37 -14q-27 0 -37.5 11t-19.5 35q-10 26 -24.5 39.5t-50.5 13.5q-30 0 -71 -9
q-54 -10 -94 -10q-73 0 -119.5 39t-58.5 120l-1 11q0 25 15.5 40.5t40.5 15.5q41 0 52 -43q11 -45 29.5 -62.5t58.5 -17.5q33 0 74 9q44 8 67 8t41.5 -7.5t35.5 -25.5v89q0 82 13 140q-41 -22 -125 -83q-30 -20 -51 -27.5t-46 -7.5q-30 0 -48 17t-18 53v232h-171
q-21 0 -33 12t-12 33v2q0 21 12 33t33 12h625q21 0 33 -12z" />
    <glyph glyph-name="bn_dh_ra" unicode="a&#xd6;" horiz-adv-x="625" 
d="M650 648q12 -12 12 -33v-2q0 -21 -12 -33t-33 -12h-68v-621q0 -28 -11 -42t-38 -14q-26 0 -36.5 11.5t-18.5 35.5q-9 26 -22.5 39.5t-46.5 13.5q-29 0 -72 -9q-56 -10 -94 -10q-71 0 -119.5 38.5t-60.5 118.5q-1 4 -1 13q0 24 15 39.5t40 15.5q20 0 34 -12.5t19 -32.5
q9 -38 28.5 -57t54.5 -19q30 0 70 9q4 1 25 5t47 4q46 0 79 -33v69l-291 107q-23 9 -34.5 23.5t-11.5 39.5q0 23 10.5 38.5t32.5 27.5l37 20v4q-46 17 -68.5 49.5t-22.5 76.5q0 50 22.5 85.5t59.5 53.5t79 18q67 0 100.5 -28.5t33.5 -69.5q0 -29 -19 -48.5t-49 -19.5t-49 18
t-19 48v8q-25 -4 -41 -20.5t-16 -44.5q0 -36 23 -51.5t55 -15.5q39 0 91 25l77 39v102q0 21 12 33t33 12h131q21 0 33 -12zM246 309l195 -72v168z" />
    <glyph glyph-name="bn_n_ra" unicode="b&#xd6;" horiz-adv-x="614" 
d="M639 648q12 -12 12 -33v-2q0 -21 -12 -33t-32 -12h-69v-547q0 -28 -11 -42t-38 -14q-25 0 -36 11t-20 34q-10 26 -23.5 39.5t-48.5 13.5q-20 0 -70 -8q-58 -10 -95 -10q-71 0 -119.5 38t-59.5 118q-1 4 -1 13q0 25 15 40t40 15q43 0 53 -44q7 -38 26.5 -57t54.5 -19
q32 0 73 9q46 8 73 8q47 0 78 -32v67q0 86 -47 138.5t-131 52.5q-11 0 -16 -1q9 -15 9 -33q0 -31 -20 -50t-52 -19q-34 0 -57 22.5t-23 60.5q0 57 41 90t112 33q54 0 103.5 -19t84.5 -53l2 1q-10 58 -10 128v16h-439q-21 0 -33 12t-12 33v2q0 21 12 33t33 12h621
q20 0 32 -12z" />
    <glyph glyph-name="bn_p_ra" unicode="c&#xd6;" horiz-adv-x="711" 
d="M736.5 648q11.5 -12 11.5 -33v-2q0 -21 -11.5 -33t-32.5 -12h-69v-544q0 -28 -11 -42t-38 -14t-38.5 11t-20.5 34q-10 26 -25.5 40t-54.5 14q-48 0 -109 -9q-7 -1 -42 -5t-73 -4q-75 0 -126 37.5t-63 117.5q-1 4 -1 12q0 25 15 40.5t40 15.5q40 0 53 -44q9 -38 31 -57
t66 -19t96 9q6 1 37 5t69 4q26 0 46 -7t38 -24v286l-254 -197q-17 -14 -36 -14q-20 0 -36 16.5t-16 37.5q0 25 25 45l45 35q-23 37 -48 54t-61 17l-42 -1q-25 0 -42 20t-17 47q0 35 27 74q80 117 218 117q73 0 131 -31.5t100 -88.5l6 5v140q0 27 14 42t40 15h2q27 0 41 -15
t14 -42v-41h69q21 0 32.5 -12zM257.5 484q39.5 -24 73.5 -74l110 86q-34 43 -69.5 61.5t-76.5 18.5q-80 0 -129 -67q52 -1 91.5 -25z" />
    <glyph glyph-name="bn_b_ra" unicode="e&#xd6;" horiz-adv-x="598" 
d="M623.5 648q11.5 -12 11.5 -33v-2q0 -21 -11.5 -33t-32.5 -12h-69v-599q0 -28 -11 -42t-38 -14t-38 11.5t-20 35.5q-10 27 -24 40.5t-49 13.5q-29 0 -67 -9q-48 -10 -80 -10q-67 0 -114 38t-60 118q-1 4 -1 12q0 25 15.5 40t40.5 15q41 0 52 -43q9 -41 28 -57t51 -16
q26 0 62 9q4 1 25 5t42 4q46 0 77 -34v63l-260 125q-21 10 -30.5 27t-9.5 44q0 50 40 72q136 76 260 118v33h-427q-21 0 -33 12t-12 33v2q0 21 12 33t33 12h605q21 0 32.5 -12zM413 263v161q-96 -40 -170 -80z" />
    <glyph glyph-name="bn_sh_ra" unicode="L&#xd6;" horiz-adv-x="650" 
d="M676 648q12 -12 12 -33v-2q0 -21 -12 -33t-33 -12h-69v-548q0 -28 -11 -42t-38 -14t-38.5 11.5t-20.5 34.5q-11 27 -26 40.5t-52 13.5q-39 0 -91 -10q-5 -1 -30 -5t-57 -4q-75 0 -124 37t-62 114q-1 4 -1 12q0 25 15 40.5t40 15.5q41 0 53 -44q9 -37 29 -54t63 -17
q36 0 79 9q48 8 78 8q54 0 82 -29v431h-58q-55 0 -89 -47q49 -40 76 -84.5t27 -77.5q0 -28 -16 -44.5t-40 -16.5q-35 0 -69.5 37t-58.5 106h-4q-24 -69 -58.5 -106t-69.5 -37q-24 0 -39.5 15.5t-15.5 43.5q0 34 26.5 79t75.5 86q-17 23 -39 34.5t-56 11.5h-68q-21 0 -33 12
t-12 33v2q0 21 12 33t33 12h68q63 0 101 -21t75 -72q32 47 72 70t102 23h58v45q0 25 15 39t40 14h2q26 0 40.5 -14t14.5 -39v-45h69q21 0 33 -12z" />
    <glyph glyph-name="bn_ss_ra" unicode="l&#xd6;" horiz-adv-x="584" 
d="M609 648q12 -12 12 -33v-2q0 -21 -12 -33t-33 -12h-124q19 -22 29 -53q11 -35 11 -64q0 -52 -33 -93h45v-326q0 -28 -11 -42t-38 -14t-37.5 11.5t-18.5 35.5q-9 25 -22 38t-44 13q-18 0 -60 -8q-50 -10 -82 -10q-65 0 -113 39t-59 118q-1 5 -1 13q0 26 14.5 40.5
t39.5 14.5q43 0 53 -46q9 -39 26.5 -57t54.5 -18q23 0 61 9q40 8 58 8q41 0 70 -29v162q-12 -6 -19 -8q-37 -13 -67 -13q-53 0 -94 30.5t-59 85.5q-10 29 -10 57q0 63 53 106h-213q-21 0 -33 12t-12 33v2q0 21 12 33t33 12h590q21 0 33 -12zM402 453q0 24 -13 47
q-24 43 -68 43q-20 0 -44 -11l90 -103l12 -30q23 21 23 54zM316 375q21 0 43 11l-92 103l-10 28q-22 -22 -22 -52q0 -22 12 -45q25 -45 69 -45z" />
    <glyph glyph-name="bn_ss_tt_ra" unicode="&#xf3;&#xab;" horiz-adv-x="582" 
d="M607 648q12 -12 12 -33v-2q0 -21 -12 -33t-33 -12h-78q26 -40 26 -97q0 -65 -31 -108t-84 -64q-14 -7 -59 -25q-53 -21 -85.5 -37.5t-55 -40.5t-22.5 -56q0 -44 38 -64.5t94 -20.5q58 0 90.5 17.5t35.5 47.5q-17 -10 -37 -10q-29 0 -48 17.5t-19 47.5q0 34 25.5 55
t61.5 21q50 0 81.5 -36t31.5 -88q0 -50 -24 -89v-288q0 -28 -12 -42.5t-39 -14.5t-38 11t-20 34q-9 24 -22.5 37t-47.5 13q-24 0 -45 -4t-26 -5q-46 -10 -78 -10q-69 0 -117 40.5t-58 116.5q-1 4 -1 11q0 25 15 40.5t40 15.5q19 0 31.5 -11t20.5 -37q10 -37 29 -55t55 -18
q26 0 64 9q40 8 62 8q23 0 41.5 -6t36.5 -21v101q-42 -10 -86 -10q-115 0 -180 51t-65 137q0 106 106 165q-46 23 -71.5 64t-25.5 101q0 56 25 97h-123q-21 0 -33 12t-12 33v2q0 21 12 33t33 12h435q4 19 4 41q0 38 -19 55.5t-60 17.5q-20 0 -58 -4q-42 -4 -78 -4
q-76 0 -114.5 33.5t-38.5 97.5q0 29 13.5 45.5t41.5 16.5q27 0 41 -12.5t15 -40.5q1 -26 16 -36t53 -10q22 0 42.5 1.5t29.5 1.5q42 4 73 4q72 0 110.5 -41t38.5 -115q0 -31 -4 -51h47q21 0 33 -12zM415 471q0 47 -31 74t-82 27q-40 0 -69 -18l177 -119q5 18 5 36zM190 471
q0 -50 30.5 -76.5t81.5 -26.5q41 0 69 17l-176 119q-5 -17 -5 -33z" />
    <glyph glyph-name=".notdef" horiz-adv-x="570" 
 />
    <glyph glyph-name=".null" horiz-adv-x="420" 
 />
    <glyph glyph-name="nonmarkingreturn" horiz-adv-x="260" 
 />
    <glyph glyph-name="uni000D" unicode="&#xd;" horiz-adv-x="570" 
 />
    <glyph glyph-name="space" unicode=" " horiz-adv-x="283" 
 />
    <glyph glyph-name="exclam" unicode="!" horiz-adv-x="315" 
d="M119 242.5q-13 12.5 -14 36.5q-11 176 -11 338q0 29 16.5 45t45.5 16h4q30 0 46.5 -16t16.5 -45q0 -94 -3.5 -167.5t-9.5 -170.5q-1 -24 -14 -36.5t-37 -12.5h-3q-24 0 -37 12.5zM99.5 15.5q-23.5 23.5 -23.5 57.5q0 35 23 58.5t58 23.5t58.5 -23.5t23.5 -58.5t-23.5 -58
t-58.5 -23q-34 0 -57.5 23.5z" />
    <glyph glyph-name="quotedbl" unicode="&#x22;" horiz-adv-x="461" 
d="M105 486q-12 12 -13 34l-11 142q-1 29 14.5 45.5t44.5 16.5h4q29 0 44 -16.5t14 -45.5l-11 -142q-1 -22 -13 -34t-35 -12h-3q-23 0 -35 12zM281 486q-12 12 -13 34l-11 142q-1 29 14.5 45.5t44.5 16.5h4q29 0 44.5 -16.5t13.5 -45.5l-10 -142q-3 -46 -49 -46h-3
q-23 0 -35 12z" />
    <glyph glyph-name="numbersign" unicode="#" horiz-adv-x="625" 
d="M493 403l-26 -150h56q29 0 29 -28t-10 -42t-32 -14h-57l-21 -123q-9 -46 -53 -46h-3q-20 0 -30.5 9.5t-10.5 26.5q0 7 1 11l21 122h-137l-21 -123q-8 -46 -52 -46h-3q-20 0 -30.5 9.5t-10.5 26.5q0 7 1 11l21 122h-57q-17 0 -26.5 8.5t-9.5 23.5q0 26 13 39t37 13h58
l26 150h-58q-17 0 -26.5 8.5t-9.5 23.5q0 26 13 39t37 13h58l22 127q6 46 53 46h3q19 0 29.5 -9.5t10.5 -26.5l-1 -10l-22 -127h137l22 127q6 46 53 46h3q19 0 29.5 -9.5t10.5 -26.5q0 -6 -1 -10l-22 -127h50q35 0 35 -33q0 -25 -13 -38t-36 -13h-50zM398 403h-137l-26 -150
h137z" />
    <glyph glyph-name="dollar" unicode="$" horiz-adv-x="626" 
d="M560.5 413.5q41.5 -49.5 41.5 -134.5q0 -77 -29.5 -140t-89.5 -101t-146 -38q-90 0 -145 44.5t-55 128.5v166h-49q-22 0 -33.5 11.5t-11.5 33.5v2q0 21 11.5 32.5t33.5 11.5h49v58q0 39 -11.5 54t-39.5 18q-43 5 -43 49v2q0 25 16.5 38.5t46.5 13.5q72 0 108 -46.5
t36 -124.5v-62h16q21 0 32 -11.5t11 -32.5v-2q0 -22 -11 -33.5t-32 -11.5h-16v-166q0 -37 24 -54.5t63 -17.5q74 0 117 50.5t43 131.5q0 61 -27 77q-2 -31 -17.5 -48.5t-46.5 -17.5q-35 0 -54.5 19.5t-19.5 54.5q0 48 29 71.5t79 23.5q79 0 120.5 -49.5z" />
    <glyph glyph-name="percent" unicode="%" horiz-adv-x="857" 
d="M101 399q-47 44 -47 116q0 73 46.5 117.5t119.5 44.5q47 0 85.5 -20.5t60.5 -57t22 -84.5q0 -47 -22 -83.5t-60.5 -56.5t-85.5 -20q-72 0 -119 44zM143 19q-16 16 -16 33t14 32l510 556q16 16 32 16q17 0 33 -16t16 -33q0 -16 -15 -31l-510 -556q-15 -17 -32 -17
q-16 0 -32 16zM272 463.5q20 19.5 20 51.5t-20 52.5t-52 20.5t-52 -20.5t-20 -52.5t20 -51.5t52 -19.5t52 19.5zM518.5 25.5q-47.5 44.5 -47.5 116.5t47 116.5t120 44.5q72 0 119 -44.5t47 -116.5t-47 -116.5t-119 -44.5t-119.5 44.5zM690 90q20 20 20 52t-20 52t-52 20
t-52 -20t-20 -52t20 -52t52 -20t52 20z" />
    <glyph glyph-name="ampersand" unicode="&#x26;" 
d="M-221 -181q-19 15 -19 34q0 17 15 35q15 21 37 21q16 0 35 -14l158 -128q23 -18 23 -40q0 -15 -10 -28q-17 -23 -40 -23q-17 0 -33 12z" />
    <glyph glyph-name="quotesingle" unicode="'" horiz-adv-x="286" 
d="M92 520l-10 142q-2 28 14 45t45 17h6q29 0 45 -16.5t14 -45.5l-10 -142q-3 -46 -49 -46h-6q-46 0 -49 46z" />
    <glyph glyph-name="parenleft" unicode="(" horiz-adv-x="386" 
d="M245 -171q-75 98 -119 227t-44 271t44.5 271.5t119.5 226.5q16 22 40 22q23 0 40 -15t17 -38q0 -13 -12 -34q-66 -93 -101.5 -203.5t-35.5 -228.5q0 -120 35 -230.5t101 -202.5q12 -18 12 -34q0 -22 -16.5 -38t-40.5 -16t-40 22z" />
    <glyph glyph-name="parenright" unicode=")" horiz-adv-x="386" 
d="M59.5 -177q-16.5 16 -16.5 38q0 17 13 34q65 93 100 203.5t35 229.5q0 118 -35 228.5t-101 203.5q-12 18 -12 34q0 23 17 38t40 15q24 0 40 -22q75 -98 119.5 -227.5t44.5 -270.5q0 -142 -44.5 -271t-119.5 -227q-16 -22 -40 -22t-40.5 16z" />
    <glyph glyph-name="asterisk" unicode="*" horiz-adv-x="521" 
d="M146 453l-4 3q-22 17 -22 37q0 13 13 32q12 18 28 36.5t25 26.5q-20 3 -47 11t-47 19q-11 5 -17.5 14t-6.5 20t4 20l1 4q13 34 42 34q12 0 27 -5q20 -7 42 -16.5t32 -15.5q-6 38 -6 91q0 21 13.5 33.5t35.5 12.5h4q21 0 34.5 -12.5t13.5 -33.5q0 -59 -5 -91q8 5 33 15.5
t48 17.5q9 4 20 4q28 0 41 -33l1 -4q3 -7 3 -21q0 -20 -17 -30q-19 -12 -50 -21.5t-50 -12.5q8 -7 23.5 -26t30.5 -39q11 -14 11 -29q0 -22 -21 -37l-3 -3q-15 -12 -32 -12q-18 0 -37 22q-20 25 -46 72q-2 -4 -16.5 -29t-34.5 -48q-14 -18 -33 -18q-16 0 -31 12z" />
    <glyph glyph-name="plus" unicode="+" horiz-adv-x="549" 
d="M443 420.5q13 -12.5 13 -36.5v-108q0 -24 -13 -37t-37 -13h-24v-25q0 -25 -13 -38t-37 -13h-115q-24 0 -37 13t-13 38v25h-24q-24 0 -37 13t-13 37v108q0 24 13 36.5t37 12.5h24v26q0 24 13 37t37 13h115q24 0 37 -13t13 -37v-26h24q24 0 37 -12.5z" />
    <glyph glyph-name="comma" unicode="," horiz-adv-x="258" 
d="M186 133q25 -27 25 -76q0 -59 -33 -106.5t-82 -78.5q-9 -6 -22 -6q-14 0 -24 11t-10 26q0 12 14 24q22 17 36 37.5t15 40.5q-30 3 -47.5 22t-17.5 51q0 34 22 58t58 24q41 0 66 -27z" />
    <glyph glyph-name="hyphen" unicode="-" horiz-adv-x="432" 
d="M54.5 292q-12.5 13 -12.5 37v2q0 23 12.5 36t36.5 13h250q24 0 36.5 -13t12.5 -36v-2q0 -24 -12.5 -37t-36.5 -13h-250q-24 0 -36.5 13z" />
    <glyph glyph-name="period" unicode="." horiz-adv-x="268" 
d="M76.5 15.5q-23.5 23.5 -23.5 57.5q0 35 23 58.5t58 23.5t58.5 -23.5t23.5 -58.5t-23.5 -58t-58.5 -23q-34 0 -57.5 23.5z" />
    <glyph glyph-name="slash" unicode="/" horiz-adv-x="517" 
d="M55 -120.5q-16 12.5 -16 31.5q0 10 5 25l306 803q7 18 16.5 27t23.5 9q24 0 40.5 -12.5t16.5 -31.5q0 -10 -5 -25l-306 -803q-14 -36 -41 -36q-24 0 -40 12.5z" />
    <glyph glyph-name="zero" unicode="0" horiz-adv-x="628" 
d="M175.5 103q-60.5 33 -95 93t-34.5 138q0 77 34 136.5t95 92.5t137 33q77 0 137.5 -33t95 -92.5t34.5 -136.5q0 -78 -34.5 -138t-95.5 -93t-137 -33t-136.5 33zM421.5 223q41.5 42 41.5 111q0 68 -41.5 109.5t-109.5 41.5q-66 0 -108 -42t-42 -110t42 -110t108 -42
q68 0 109.5 42z" />
    <glyph glyph-name="one" unicode="1" horiz-adv-x="535" 
d="M258 556q24 -27 73 -66q48 -38 78.5 -69t52.5 -77.5t22 -108.5q0 -63 -25.5 -116.5t-80 -86t-136.5 -32.5q-63 0 -108.5 20t-68.5 52t-23 68q0 40 21 65t56 25q31 0 52 -21t21 -52q0 -20 -11 -34q26 -14 62 -14q61 0 94 35.5t33 93.5q0 37 -16.5 67.5t-41 54t-65.5 56.5
q-44 35 -70.5 61t-44.5 60.5t-18 77.5q0 26 14.5 41t41.5 15q52 0 59 -53q5 -35 29 -62z" />
    <glyph glyph-name="two" unicode="2" horiz-adv-x="486" 
d="M55 167q-30 21 -30 50q0 24 15.5 41.5t39.5 17.5q17 0 44 -9q42 -14 80 -14q54 0 86 25.5t32 74.5q0 32 -16 55t-39 39t-64 38q-43 23 -71 42t-45 46q-13 20 -13 41q0 25 15 40t39 15q17 0 28.5 -7t25.5 -24q17 -20 38.5 -35t61.5 -40q52 -32 82 -56t51.5 -62t21.5 -91
q0 -70 -42.5 -122t-132.5 -65l160 -106q30 -21 30 -45q0 -16 -10 -32q-15 -28 -44 -28q-19 0 -41 14z" />
    <glyph glyph-name="three" unicode="3" horiz-adv-x="748" 
d="M587.5 606.5q52.5 -34.5 80.5 -97.5t28 -146q0 -95 -30 -173.5t-98 -127t-176 -48.5q-117 0 -195 56.5t-115.5 154.5t-37.5 224q0 55 4 89.5t18.5 57.5t45.5 23q30 0 42.5 -14t12.5 -42q0 -14 -2 -46q-3 -27 -3 -64q0 -148 55 -238t176 -90q94 0 142 67t48 172
q0 74 -29 123.5t-84 49.5q-34 0 -55.5 -20t-26.5 -55q31 -1 51.5 -21.5t20.5 -51.5t-21.5 -51.5t-57.5 -20.5q-49 0 -77.5 36t-28.5 94q0 86 50.5 140t139.5 54q70 0 122.5 -34.5z" />
    <glyph glyph-name="four" unicode="4" horiz-adv-x="516" 
d="M452.5 268.5q32.5 -40.5 32.5 -96.5q0 -58 -30.5 -99t-81.5 -62t-113 -21q-63 0 -115.5 21t-83 62.5t-30.5 99.5t31 96.5t86 66.5q-47 23 -75.5 63.5t-28.5 88.5q0 57 29 97.5t77.5 61.5t106.5 21q59 0 108.5 -22t79 -62.5t29.5 -94.5q0 -56 -28 -93.5t-78 -65.5
q52 -21 84.5 -61.5zM181 422.5q26 -26.5 69 -40.5q56 24 84.5 48t28.5 61q0 35 -29.5 56.5t-75.5 21.5q-45 0 -74 -21t-29 -60t26 -65.5zM340 111.5q32 22.5 32 62.5q0 38 -30 65.5t-81 41.5q-57 -24 -86 -48t-29 -61q0 -40 32 -61.5t81 -21.5t81 22.5z" />
    <glyph glyph-name="five" unicode="5" horiz-adv-x="624" 
d="M166 81q-114 82 -114 233q0 118 67.5 204t188.5 129q41 12 64 12q24 0 40 -16t16 -38l-1 -21q-2 -14 -2 -22q0 -48 31.5 -71.5t88.5 -32.5q24 -4 35.5 -15.5t11.5 -32.5q0 -23 -10.5 -34t-29 -21.5t-27.5 -15.5q-72 -40 -72 -112q0 -37 16.5 -65.5t48.5 -53.5
q15 -12 22.5 -24t7.5 -28q0 -25 -13 -41t-45 -16q-210 0 -324 82zM356 175q-13 35 -13 70q0 101 91 162q-58 19 -82.5 49.5t-25.5 80.5q-78 -31 -119.5 -88t-41.5 -135q0 -91 61.5 -142.5t169.5 -62.5q-27 31 -40 66z" />
    <glyph glyph-name="six" unicode="6" horiz-adv-x="687" 
d="M643 260q0 -113 -66 -186.5t-206 -73.5q-102 0 -175.5 47t-114 131t-47.5 195q-2 29 13.5 45.5t45.5 16.5q50 0 54 -51q9 -137 66.5 -207t158.5 -70q77 0 120 41.5t43 110.5q0 37 -11 57q-76 -54 -148 -54q-53 0 -84.5 28.5t-31.5 87.5v133h-4q-32 0 -52 19.5t-20 52.5
q0 32 21 54.5t59 22.5q54 0 77.5 -40t23.5 -105v-106q0 -39 36 -39q31 0 78 28q5 4 18 13t24 13.5t22 4.5q45 0 73 -54q27 -48 27 -115z" />
    <glyph glyph-name="seven" unicode="7" horiz-adv-x="573" 
d="M531.5 126q20.5 -20 20.5 -51t-20 -54t-59 -23q-52 0 -78.5 40.5t-26.5 111.5v95q-53 -23 -112 -23q-94 0 -150.5 45t-56.5 135q0 69 33 128.5t90 95t126 35.5q84 0 131 -46.5t47 -133.5v-335h4q31 0 51.5 -20zM368 353v133q0 39 -18 57t-49 18q-38 0 -70.5 -22.5
t-52 -59.5t-19.5 -77q0 -79 100 -79q61 0 109 30z" />
    <glyph glyph-name="eight" unicode="8" horiz-adv-x="750" 
d="M728 456q-2 -64 -33.5 -97t-100.5 -33h-29q-30 0 -45 -15q6 -24 6 -52q0 -71 -29 -130t-84 -94t-130 -35q-85 0 -134.5 45t-49.5 129v339h-3q-31 0 -51.5 20t-20.5 51t20 53.5t59 22.5q52 0 78 -40.5t26 -110.5v-92q53 23 114 23q90 0 144 -41q22 32 80 32h15
q35 0 50 8.5t16 33.5q3 46 48 46q54 0 54 -63zM348.5 122q33.5 21 52.5 57t19 78q0 37 -27 57.5t-74 20.5q-61 0 -112 -31v-134q0 -37 17.5 -53t50.5 -16q40 0 73.5 21z" />
    <glyph glyph-name="nine" unicode="9" horiz-adv-x="641" 
d="M243.5 584.5q39.5 -23.5 108.5 -56.5q83 -40 133 -71.5t85.5 -84.5t35.5 -131t-37 -133.5t-93 -83.5t-112 -28q-39 0 -58 26q-11 16 -11 36q0 16 6 31.5t8 21.5q9 24 9 55q0 50 -26 76.5t-69 26.5q-44 0 -69.5 -28t-25.5 -77q0 -10 2 -24q12 2 19 2q33 0 53.5 -21
t20.5 -52t-20 -51.5t-54 -20.5h-1q-59 0 -93 47t-34 118q0 97 53.5 153.5t145.5 56.5q59 0 104.5 -25.5t71 -70t25.5 -100.5q0 -29 -6 -61q38 19 59 51.5t21 75.5q0 49 -28.5 83.5t-69.5 57.5t-111 54q-85 36 -133 65.5t-69 74.5q-11 24 -11 39q0 24 15.5 39t39.5 16
q17 0 29 -7.5t24 -23.5q23 -32 62.5 -55.5z" />
    <glyph glyph-name="colon" unicode=":" horiz-adv-x="268" 
d="M75 390q-23 23 -23 58t23 58.5t59 23.5q35 0 58 -23.5t23 -58.5t-23 -58t-58 -23q-36 0 -59 23zM75 47q-23 23 -23 58t23 58.5t59 23.5q35 0 58 -23.5t23 -58.5t-23 -58t-58 -23q-36 0 -59 23z" />
    <glyph glyph-name="semicolon" unicode=";" horiz-adv-x="269" 
d="M75 358q-23 23 -23 58t23 58.5t59 23.5q35 0 58 -23.5t23 -58.5t-23 -58t-58 -23q-36 0 -59 23zM196 128.5q25 -26.5 25 -75.5q0 -60 -32.5 -107t-81.5 -78q-12 -7 -22 -7q-15 0 -25 11.5t-10 26.5q0 12 15 23q47 37 50 79q-29 3 -47 22t-18 50q0 35 22.5 58.5t58.5 23.5
q40 0 65 -26.5z" />
    <glyph glyph-name="less" unicode="&#x3c;" horiz-adv-x="538" 
d="M411 121l-334 142q-24 10 -35 26t-11 40q0 26 11 42t35 26l333 142q28 11 45 11q21 0 36 -15t15 -43q0 -20 -15 -31.5t-44 -23.5l-128 -51q-44 -17 -89.5 -33t-59.5 -20v-4q14 -4 58 -19.5t91 -33.5l129 -53q28 -11 43 -23t15 -32q0 -28 -14.5 -43t-35.5 -15
q-18 0 -45 11z" />
    <glyph glyph-name="equal" unicode="=" horiz-adv-x="538" 
d="M44 406q-13 13 -13 36v2q0 24 13 37t37 13h376q24 0 36.5 -13t12.5 -37v-2q0 -23 -12.5 -36t-36.5 -13h-376q-24 0 -37 13zM44 178q-13 13 -13 37v2q0 24 13 36.5t37 12.5h376q49 0 49 -49v-2q0 -24 -12.5 -37t-36.5 -13h-376q-24 0 -37 13z" />
    <glyph glyph-name="greater" unicode="&#x3e;" horiz-adv-x="538" 
d="M45.5 125q-14.5 15 -14.5 43q0 21 15 33t43 23l129 52q46 18 90 33.5t58 19.5v4q-13 4 -59 20t-89 33l-129 52q-28 10 -43 22t-15 33q0 28 14.5 43t35.5 15q17 0 45 -11l334 -143q24 -10 34.5 -25.5t10.5 -41.5q0 -25 -11 -41t-34 -26l-334 -141q-27 -12 -45 -12
q-21 0 -35.5 15z" />
    <glyph glyph-name="question" unicode="?" horiz-adv-x="505" 
d="M182 269q0 41 18 70t53 66q31 33 45 54t14 50q0 32 -20.5 51t-57.5 19q-26 0 -54 -13q-6 -3 -23 -11t-30 -8q-22 0 -37 16.5t-15 39.5q0 38 50 60q23 12 52 18t58 6q55 0 99.5 -21t70 -60t25.5 -90q0 -57 -21.5 -93.5t-61.5 -75.5q-27 -27 -41 -46.5t-19 -44.5
q-4 -22 -16 -30t-36 -8q-53 0 -53 51zM177.5 15.5q-23.5 23.5 -23.5 57.5q0 35 23 58.5t58 23.5t58.5 -23.5t23.5 -58.5t-23.5 -58t-58.5 -23q-34 0 -57.5 23.5z" />
    <glyph glyph-name="at" unicode="@" horiz-adv-x="852" 
d="M621 625q81 -44 125.5 -124.5t44.5 -185.5q0 -75 -25 -141t-70.5 -113.5t-104.5 -68.5l-1 1q-2 -1 -8 -1q-21 0 -36 8l-263 151q-17 8 -26 18.5t-9 26.5q0 23 13.5 39.5t36.5 16.5q10 0 28 -4q30 -7 60 -7q51 0 80 21t29 71q0 39 -23 59.5t-58 20.5q-26 0 -41 -12
q14 -9 22.5 -23t8.5 -31q0 -27 -17.5 -45t-46.5 -18q-37 0 -59.5 23.5t-22.5 63.5q0 42 23 73t59.5 47.5t76.5 16.5q90 0 138.5 -45.5t48.5 -128.5q0 -61 -35.5 -105.5t-100.5 -59.5v-5q24 -18 98 -55l12 -8q51 37 80 92.5t29 117.5q0 78 -31.5 137.5t-88.5 92t-132 32.5
q-80 0 -140.5 -34t-94 -95.5t-33.5 -142.5q0 -87 42 -153t110 -86q21 -7 33.5 -21t12.5 -32q0 -23 -13 -36.5t-35 -13.5q-13 0 -24 4q-67 19 -120 68t-82.5 119t-29.5 151q0 109 46.5 192.5t131.5 129.5t196 46q105 0 186 -44z" />
    <glyph glyph-name="A" unicode="A" horiz-adv-x="828" 
d="M853 648q12 -12 12 -33v-2q0 -21 -12 -33t-33 -12h-68v-522q0 -26 -14 -40.5t-40 -14.5h-2q-26 0 -41 15t-15 41v30l-114 97q-30 -46 -82 -71t-119 -25q-101 0 -167.5 49.5t-97 129.5t-30.5 175q0 28 13 44t39 16q24 0 39 -12.5t15 -40.5q0 -127 48.5 -193.5t140.5 -66.5
q65 0 99.5 38.5t34.5 100.5q0 44 -18.5 70t-49.5 33q3 -18 3 -35q0 -42 -18.5 -67t-55.5 -25q-36 0 -58.5 24t-22.5 65q0 57 39 93q-45 56 -70 73.5t-26 18.5h-196q-21 0 -33 12t-12 33v2q0 21 12 33t33 12h834q21 0 33 -12zM640 568h-313q21 -30 33 -55q7 1 22 1
q56 0 98 -26t64.5 -71t22.5 -100q0 -25 -3 -46l76 -66v363z" />
    <glyph glyph-name="B" unicode="B" horiz-adv-x="456" 
d="M474 648q12 -12 12 -33v-2q0 -21 -12 -33t-33 -12h-295q19 -27 32 -56q19 3 40 3q56 0 100 -23t69 -65.5t25 -97.5q0 -75 -45 -127t-135 -64v-4q7 -2 33 -13.5t61 -30.5l47 -28q18 -10 26 -20.5t8 -27.5q0 -21 -13 -36.5t-34 -15.5q-17 0 -43 12l-239 133q-32 18 -32 52
q0 25 14 41.5t38 16.5q8 0 24 -2q22 -4 44 -4q62 0 99 27.5t37 89.5q0 43 -23 67t-67 24h-5q3 -16 3 -33q0 -42 -18.5 -66.5t-55.5 -24.5t-59 22.5t-22 61.5q0 58 41 94q-20 29 -42.5 54.5t-38.5 40.5h-29q-21 0 -33 12t-12 33v2q0 21 12 33t33 12h326q1 7 1 17
q0 38 -15.5 54.5t-51.5 16.5q-13 0 -37 -2q-28 -2 -52 -2q-71 0 -109.5 33t-38.5 96q0 62 56 62q53 0 56 -52q1 -26 16.5 -36t50.5 -10q14 0 44 2q28 2 43 2q145 0 145 -154l-1 -27h22q21 0 33 -12z" />
    <glyph glyph-name="C" unicode="C" horiz-adv-x="652" 
d="M677 648q12 -12 12 -33v-2q0 -21 -12 -33t-32 -12h-494q16 -26 28 -54h11q63 0 108.5 -41.5t60.5 -115.5l109 111q29 29 56 29q30 0 51 -20t21 -53q0 -8 -4 -38q-10 -67 -10 -131q0 -49 4.5 -82.5t13.5 -73.5q8 -30 8 -47q0 -20 -14 -32t-38 -12q-35 0 -45 35
q-34 104 -34 217q0 54 6 84l-127 -133q-15 -68 -56.5 -110t-111.5 -42q-40 0 -76 18.5t-64 52.5q-14 16 -14 35q0 20 15.5 35.5t37.5 15.5q18 0 32 -15q19 -22 33 -31.5t36 -9.5q43 0 61.5 37t18.5 94q0 46 -14 80t-46 37q1 -6 1 -18q0 -44 -20 -69.5t-57 -25.5
q-35 0 -56.5 24.5t-21.5 65.5q0 33 13 59.5t37 43.5q-34 46 -80 80h-38q-21 0 -33 12t-12 33v2q0 21 12 33t33 12h520q1 9 1 24q0 38 -22 56t-71 18q-29 0 -59.5 -3t-39.5 -4q-67 -9 -128 -9q-83 0 -124 34t-41 97q0 62 55 62q27 0 40.5 -12t15.5 -40q1 -26 18 -36.5
t57 -10.5q47 0 119 8t119 8q82 0 125 -42t43 -116q0 -10 -2 -34h33q20 0 32 -12z" />
    <glyph glyph-name="D" unicode="D" horiz-adv-x="663" 
d="M688.5 648q11.5 -12 11.5 -33v-2q0 -21 -11.5 -33t-32.5 -12h-300v-162q0 -39 37 -39q23 0 59 21l24 15q20 13 32.5 19t25.5 6q47 0 71.5 -54t24.5 -119q0 -68 -28 -125.5t-88 -93t-151 -35.5q-112 0 -186.5 56.5t-110 144t-36.5 182.5q0 26 15 39t37 13q23 0 37.5 -13
t15.5 -38q6 -128 63.5 -205t165.5 -77q82 0 122 46.5t40 109.5q0 39 -12 58q-65 -60 -140 -60q-59 0 -95 32.5t-36 93.5v185h-257q-21 0 -33 12t-12 33v2q0 21 12 33t33 12h525q3 20 3 34q0 38 -22.5 56t-71.5 18q-43 0 -102 -7q-6 -1 -46 -5t-88 -4q-82 0 -123.5 34
t-41.5 97q0 62 55 62q26 0 40.5 -12t15.5 -40q1 -26 18.5 -36.5t59.5 -10.5q39 0 115 8q80 8 129 8q82 0 125 -42t43 -116q0 -2 -3 -44h39q21 0 32.5 -12z" />
    <glyph glyph-name="E" unicode="E" horiz-adv-x="771" 
d="M796.5 648q11.5 -12 11.5 -33v-2q0 -21 -11.5 -33t-32.5 -12h-298v-164q0 -21 7.5 -30t25.5 -9q16 0 33.5 8t39.5 23q25 15 39.5 22t28.5 7q49 0 74 -51.5t25 -118.5q0 -72 -31 -128.5t-96.5 -90t-163.5 -33.5q-131 0 -223 51t-141 137t-56 190q-1 27 12 40.5t37 13.5
q22 0 33.5 -12t14.5 -38q9 -98 47 -168t97 -98q-81 88 -93 264q-2 26 10.5 39t36.5 13q38 0 45 -30q1 -4 3 -37q3 -122 51.5 -193.5t150.5 -71.5q53 0 88 22t52 57t17 75t-12 60q-1 -1 -18 -17t-49 -29.5t-67 -13.5q-59 0 -94.5 32.5t-35.5 93.5v185h-368q-21 0 -33 12
t-12 33v2q0 21 12 33t33 12h634q3 20 3 34q0 38 -21 56t-72 18q-47 0 -169 -8q-110 -9 -172 -9q-82 0 -124.5 34t-42.5 98q0 62 55 62q27 0 41.5 -12.5t15.5 -40.5q1 -25 19.5 -36t58.5 -11q51 0 110.5 4t73.5 5q114 8 158 8q93 0 134 -40.5t41 -117.5q0 -2 -3 -44h38
q21 0 32.5 -12z" />
    <glyph glyph-name="F" unicode="F" horiz-adv-x="829" 
d="M854 648q12 -12 12 -33v-2q0 -21 -12 -33t-33 -12h-61v-378q0 -72 -66 -72q-28 0 -66 18l-113 56v-146q0 -26 -14.5 -40.5t-39.5 -14.5h-2q-25 0 -39.5 14.5t-14.5 40.5v30l-311 144q-37 16 -37 65q0 51 40 72q69 36 220 109l-23 51q-20 -32 -52.5 -49.5t-73.5 -17.5
q-44 0 -76.5 18t-50 47.5t-17.5 63.5q0 36 16 61q10 15 26 23.5t35 8.5q31 0 52 -21t21 -51q0 -36 -29 -57q7 -7 20 -7q29 0 46.5 22.5t28.5 64.5q10 45 54 45q24 0 36.5 -11.5t21.5 -32.5l51 -119l5 3v198q0 25 13.5 38.5t38.5 13.5h2q25 0 39 -13.5t14 -38.5v-407l138 -69
v476q0 25 14 38.5t39 13.5h2q24 0 38 -13.5t14 -38.5v-46h61q21 0 33 -12zM408 182v211q-135 -59 -224 -105z" />
    <glyph glyph-name="G" unicode="G" horiz-adv-x="639" 
d="M516.5 622.5q46.5 -42.5 46.5 -124.5v-453q0 -54 -53 -54q-33 0 -43.5 13t-15.5 39q-4 20 -9.5 32t-21.5 20.5t-46 8.5q-27 0 -79 -8q-54 -8 -88 -8q-73 0 -123.5 38.5t-62.5 120.5q-1 5 -1 13q0 25 15 40t41 15q39 0 50 -44q10 -44 32 -62t64 -18q20 0 43 3t30 4
q40 7 67 7t48.5 -7t39.5 -26v326q0 36 -16 53t-49 17q-36 0 -66.5 -18t-48.5 -47t-18 -60q0 -17 6 -29q8 17 23.5 26t36.5 9q34 0 54 -21.5t20 -54.5q0 -35 -24.5 -58t-67.5 -23q-68 0 -108 41.5t-40 109.5q0 67 32.5 117.5t86 77.5t114.5 27q85 0 131.5 -42.5z" />
    <glyph glyph-name="H" unicode="H" horiz-adv-x="765" 
d="M746 392q-28 -54 -76 -87t-107 -42v-216q0 -54 -53 -54q-33 0 -43.5 12.5t-15.5 38.5q-4 20 -9.5 31.5t-21.5 20t-46 8.5q-27 0 -79 -8q-54 -8 -88 -8q-73 0 -123.5 38.5t-62.5 120.5q-1 5 -1 13q0 25 15 40t41 15q39 0 50 -44q10 -44 32 -62t64 -18q20 0 43 3t30 4
q40 7 67 7t48.5 -7t39.5 -26v326q0 36 -16 53t-49 17q-36 0 -66.5 -18t-48.5 -47t-18 -60q0 -17 6 -29q8 17 23.5 26t36.5 9q34 0 54 -21.5t20 -54.5q0 -35 -24.5 -58t-67.5 -23q-68 0 -108 41.5t-40 109.5q0 67 32.5 117.5t86 77.5t114.5 27q85 0 131.5 -42.5t46.5 -124.5
v-126q44 12 71.5 48t27.5 97q0 80 -51.5 125.5t-154.5 80.5l-58 18q-75 23 -118 41.5t-72 51.5t-29 84q0 36 14.5 56.5t42.5 20.5q34 0 48 -17t14 -48q0 -29 32.5 -46.5t113.5 -44.5l61 -20q88 -31 145 -66.5t90.5 -93t33.5 -144.5q0 -69 -28 -123z" />
    <glyph glyph-name="I" unicode="I" horiz-adv-x="636" 
d="M579 277.5q16 -33.5 16 -83.5q0 -54 -25.5 -98t-76.5 -70.5t-125 -26.5q-101 0 -174.5 48.5t-115 129.5t-49.5 180q-2 27 13.5 43t43.5 17q24 0 36 -12.5t16 -37.5q16 -130 74.5 -197t154.5 -67q67 0 95.5 30t28.5 71t-23 61q-24 -30 -64 -30q-36 0 -59.5 21.5
t-23.5 58.5t22.5 61t62.5 24q19 0 35 -9q17 16 27.5 40.5t10.5 49.5q0 43 -29.5 67t-77.5 24q-31 0 -55.5 -10t-37.5 -29q25 -6 40 -25t15 -45q0 -31 -20.5 -51t-55.5 -20q-41 0 -65.5 28.5t-24.5 74.5q0 50 25.5 88.5t72.5 60.5t108 22q96 0 153.5 -50t57.5 -136
q0 -39 -14.5 -74.5t-41.5 -62.5q34 -32 50 -65.5z" />
    <glyph glyph-name="J" unicode="J" horiz-adv-x="777" 
d="M727.5 352q-52.5 -66 -139.5 -99q7 -24 7 -58q0 -53 -25.5 -97.5t-77 -71.5t-124.5 -27q-101 0 -174.5 48.5t-115 129.5t-49.5 180q-2 27 13.5 43t43.5 17q24 0 36 -12.5t16 -37.5q16 -130 74.5 -197t154.5 -67q67 0 95.5 30t28.5 71t-23 61q-11 -15 -28 -22.5t-36 -7.5
q-36 0 -59.5 21.5t-23.5 58.5t22.5 61t62.5 24q22 0 36 -9q17 17 27 41.5t10 48.5q0 43 -29.5 67t-77.5 24q-31 0 -55.5 -10t-37.5 -29q25 -6 40 -25t15 -45q0 -31 -20.5 -51t-55.5 -20q-41 0 -65.5 28.5t-24.5 74.5q0 50 25.5 88.5t72.5 60.5t108 22q96 0 153.5 -50
t57.5 -136q0 -39 -14.5 -74.5t-41.5 -62.5l1 -1q62 17 100 61t38 114q0 82 -53 127.5t-158 78.5q-14 5 -42 13q-78 25 -123 44t-75 52.5t-30 85.5q0 36 15.5 56t44.5 20q32 0 45 -17t13 -48q0 -25 19.5 -42t51 -29.5t95.5 -32.5q9 -2 27 -8q85 -26 146 -61t98.5 -94
t37.5 -146q0 -98 -52.5 -164z" />
    <glyph glyph-name="K" unicode="K" horiz-adv-x="734" 
d="M759.5 648q11.5 -12 11.5 -33v-2q0 -21 -11.5 -33t-32.5 -12h-275v-53q72 -3 128.5 -32.5t88.5 -80t32 -113.5q0 -67 -31.5 -107t-82.5 -40q-35 0 -58 19t-23 55q0 33 19.5 52.5t51.5 19.5q14 0 25 -4v5q0 49 -42 85t-108 41v-366q0 -27 -15 -42.5t-42 -15.5h-2
q-26 0 -41.5 15.5t-15.5 42.5v25l-265 164q-39 24 -39 71t36 75q127 99 268 124v60h-350q-21 0 -33 12t-12 33v2q0 21 12 33t33 12h741q21 0 32.5 -12zM336 193v211q-98 -25 -187 -93z" />
    <glyph glyph-name="L" unicode="L" horiz-adv-x="660" 
d="M685.5 648q11.5 -12 11.5 -33v-2q0 -21 -11.5 -33t-32.5 -12h-69v-519q0 -27 -15 -42.5t-42 -15.5h-2q-26 0 -39.5 15.5t-13.5 42.5v28l-407 177q-34 15 -34 47q0 24 14 43t38 19q7 0 23 -2q24 -4 43 -4q80 0 115.5 32.5t35.5 83.5q0 27 -8 46q-33 -75 -118 -75
q-71 0 -109 38t-38 92q0 49 23.5 70.5t54.5 21.5h1q33 0 53.5 -20.5t20.5 -51.5q0 -35 -27 -56q10 -5 20 -5q25 0 37 16.5t23 48.5t22 47t34 15q37 0 68 -39q24 -28 37.5 -69t13.5 -80q0 -68 -38 -120.5t-132 -68.5v-4q0 1 39.5 -11.5t80.5 -31.5l110 -49v514q0 27 15.5 42
t41.5 15h2q27 0 42 -15t15 -42v-41h69q21 0 32.5 -12z" />
    <glyph glyph-name="M" unicode="M" horiz-adv-x="602" 
d="M628 648q12 -12 12 -33v-2q0 -21 -12 -33t-33 -12h-69v-519q0 -27 -15 -42.5t-42 -15.5h-2q-26 0 -39.5 15.5t-13.5 42.5v338q0 87 -42 135t-113 48q-33 0 -63 -12.5t-47 -35.5l2 -4q18 3 30 3q65 0 104.5 -37t39.5 -100q0 -49 -26 -102t-83 -105q-22 -20 -45 -20
q-22 0 -39 16t-17 38t20 41q41 38 61 71t20 58q0 46 -54 46q-19 0 -34 -5q-18 -4 -33 -4q-31 0 -51 20t-20 53q0 34 19 68q36 58 90 85.5t120 27.5q47 0 88 -16.5t69 -45.5v91q0 27 15.5 42t41.5 15h2q27 0 42 -15t15 -42v-41h69q21 0 33 -12z" />
    <glyph glyph-name="N" unicode="N" horiz-adv-x="595" 
d="M620 648q12 -12 12 -33v-2q0 -21 -12 -33t-33 -12h-68v-521q0 -26 -14.5 -41t-40.5 -15h-2q-26 0 -41 15t-15 41v29l-323 133q-40 17 -40 61q0 47 40 68l56 31v4q-97 29 -97 116q0 22 7.5 43.5t20.5 35.5h-84q-21 0 -33 12t-12 33v2q0 21 12 33t33 12h601q21 0 33 -12z
M406 568h-175q-31 0 -52.5 -19.5t-21.5 -53.5q0 -31 19 -47.5t50 -16.5q22 0 50 13q14 4 22 4q21 0 33 -15t12 -36q0 -16 -6 -26t-21 -18l-135 -73l225 -93v381z" />
    <glyph glyph-name="O" unicode="O" horiz-adv-x="687" 
d="M614.5 373.5q20.5 -21.5 32.5 -57.5t12 -76q0 -68 -30.5 -123.5t-93 -88t-155.5 -32.5q-117 0 -195 55.5t-115 141.5t-40 180q0 27 15.5 40.5t39.5 13.5q50 0 53 -53q10 -128 69 -203t173 -75q88 0 133 42t45 104q0 15 -2.5 26t-6.5 15q-21 -20 -70.5 -44t-104.5 -24
q-58 0 -95.5 31.5t-37.5 92.5v83q-87 44 -138 146h-117q-21 0 -33 12t-12 33v2q0 21 12 33t33 12h149q23 0 33 -10.5t25 -43.5q24 -52 48 -78v2q0 68 43 105t111 37q71 0 118.5 -37t47.5 -104t-52 -103.5t-136 -36.5q-13 0 -19 1v-41q0 -36 38 -36q25 0 47.5 9.5t49.5 27.5
l23 15q18 14 31.5 21t25.5 7q25 0 45.5 -21.5zM367.5 572.5q-13.5 -14.5 -13.5 -41.5v-51q6 -1 19 -1q38 0 61 15t23 44q0 23 -14.5 36t-37.5 13q-24 0 -37.5 -14.5z" />
    <glyph glyph-name="P" unicode="P" horiz-adv-x="511" 
d="M536 648q12 -12 12 -33v-2q0 -21 -12 -33t-33 -12h-318q1 -35 14.5 -57.5t54.5 -36.5l94 -32q54 -18 82.5 -39.5t38 -46.5t9.5 -62q0 -66 -33.5 -131.5t-93.5 -107.5t-135 -42q-63 0 -101.5 30t-38.5 92v433h-90q-21 0 -33 12t-12 33v2q0 21 12 33t33 12h517q21 0 33 -12
zM189 402v-246q0 -23 9.5 -33t28.5 -10q34 0 66.5 27.5t53.5 68t21 77.5q0 22 -9.5 36t-33.5 22l-74 25q-45 16 -62 33z" />
    <glyph glyph-name="Q" unicode="Q" horiz-adv-x="599" 
d="M624 648q12 -12 12 -33v-2q0 -21 -12 -33t-33 -12h-407q9 -20 33 -34t66 -26q48 -13 67 -24q20 2 27 2q89 0 137.5 -48t48.5 -136q0 -103 -67 -165t-194 -67v-4q10 -2 45.5 -13t72.5 -27l81 -36q21 -9 31 -18.5t10 -26.5q0 -21 -12 -37t-34 -16q-15 0 -39 8
q-81 35 -140.5 60.5l-101.5 43.5l-117 50q-33 15 -33 46q0 25 14 41t36 16q11 0 22.5 -1t17.5 -2q40 -5 71 -5q99 0 163.5 36.5t64.5 116.5q0 37 -16.5 58t-44.5 26q-6 -39 -29.5 -79t-67 -67t-102.5 -27q-56 0 -90 27.5t-34 86.5v241h-84q-21 0 -33 12t-12 33v2q0 21 12 33
t33 12h605q21 0 33 -12zM176 465v-130q0 -26 27 -26q21 0 41.5 14t33 34t12.5 37q0 15 -10 22t-26.5 12t-26.5 9q-40 16 -51 28z" />
    <glyph glyph-name="R" unicode="R" horiz-adv-x="857" 
d="M882 648q12 -12 12 -33v-2q0 -21 -12 -33t-33 -12h-294q30 -85 142 -88l25 1q7 1 24 1q33 0 52 -25q14 -18 14 -46q0 -18 -9 -52q-10 -40 -16 -83t-7 -118l-1 -147q-1 -24 -16.5 -37.5t-39.5 -13.5h-2q-24 0 -39.5 13.5t-15.5 37.5v150q0 154 38 227q-17 0 -28 1
q-86 7 -149 52.5t-88 126.5h-2q-41 -35 -70.5 -83.5t-29.5 -84.5q0 -49 60 -49q28 0 48 5t42 13q23 10 38 10q20 0 33 -14.5t25 -41.5q19 -39 19 -93q0 -57 -23.5 -107.5t-77 -82.5t-138.5 -32q-154 0 -236 102t-93 266q-2 28 12.5 44.5t42.5 16.5q46 0 51 -50
q9 -126 64.5 -202.5t158.5 -76.5q69 0 102 35t33 85q0 25 -9 47q-52 -23 -107 -23q-72 0 -114.5 35t-42.5 101q0 53 21.5 99t50.5 81h-311q-21 0 -33 12t-12 33v2q0 21 12 33t33 12h863q21 0 33 -12z" />
    <glyph glyph-name="S" unicode="S" horiz-adv-x="785" 
d="M811 648q12 -12 12 -33v-2q0 -21 -12 -33t-33 -12h-62v-375q0 -74 -67 -74q-20 0 -37.5 6.5t-39.5 19.5l-109 65v-164q0 -26 -14.5 -40.5t-39.5 -14.5h-2q-25 0 -39.5 14.5t-14.5 40.5v31l-282 159q-40 24 -40 70q0 49 37 75q84 58 150.5 87.5t134.5 50.5v49h-367
q-21 0 -33 12t-12 33v2q0 21 12 33t33 12h436q41 0 41 -39v-292l144 -88v464q0 25 14.5 39t39.5 14h2q25 0 39 -14t14 -39v-45h62q21 0 33 -12zM353 197v213q-41 -15 -94.5 -40.5t-104.5 -59.5z" />
    <glyph glyph-name="T" unicode="T" horiz-adv-x="891" 
d="M830 334q24 -34 24 -84q0 -68 -42.5 -108t-112.5 -40q-85 0 -142 59v-114q0 -54 -53 -54q-33 0 -44 13t-16 39q-4 20 -9.5 31.5t-21 19.5t-45.5 8q-27 0 -79 -8q-54 -8 -88 -8q-73 0 -123.5 38.5t-62.5 120.5q-1 5 -1 13q0 25 15 40t41 15q39 0 50 -44q9 -44 31.5 -62
t64.5 -18q20 0 43 3t30 4q40 7 67 7t48.5 -7t39.5 -26v326q0 36 -16 53t-49 17q-36 0 -66.5 -18t-48.5 -47t-18 -60q0 -17 6 -29q7 16 23 25.5t37 9.5q34 0 54 -21.5t20 -54.5q0 -35 -24.5 -58t-68.5 -23q-68 0 -108 42t-40 109t32.5 117.5t86.5 77.5t115 27q58 0 99 -20.5
t61 -60.5q26 33 64 52t84 19q68 0 114 -38t46 -106q0 -79 -74 -128q33 -15 57 -49zM728 219q16 18 16 46q0 31 -20 48t-56 17q-22 0 -37 12.5t-15 39.5t15 39t37 12q34 0 50.5 18t16.5 47q0 28 -16.5 43.5t-44.5 15.5q-49 0 -82.5 -45.5t-33.5 -129.5q0 -89 34 -135t87 -46
q33 0 49 18z" />
    <glyph glyph-name="U" unicode="U" horiz-adv-x="570" 
d="M595 648q12 -12 12 -33v-2q0 -21 -12 -33t-33 -12h-370v-409q0 -56 63 -56q50 0 88.5 29t59.5 74.5t21 92.5q0 25 -9 43.5t-24 23.5q-2 -30 -20.5 -49t-48.5 -19q-33 0 -54 19t-21 54q0 47 32.5 71.5t81.5 24.5q76 0 122 -45.5t46 -130.5q0 -69 -32 -135.5t-94.5 -109.5
t-149.5 -43q-79 0 -128 38.5t-49 116.5v410h-90q-21 0 -33 12t-12 33v2q0 21 12 33t33 12h439v11q0 38 -17.5 55t-56.5 17q-33 0 -77 -10q-44 -11 -85 -11q-70 0 -110 34.5t-40 96.5q0 29 14 45t42 16q26 0 40 -12t15 -40q0 -25 15.5 -35.5t48.5 -10.5q19 0 40.5 4t27.5 5
q52 12 89 12q73 0 115.5 -43t42.5 -116q0 -12 -1 -18h34q21 0 33 -12z" />
    <glyph glyph-name="V" unicode="V" horiz-adv-x="553" 
d="M578 648q12 -12 12 -33v-2q0 -21 -12 -33t-33 -12h-190l26 -38q72 -105 101.5 -171.5t29.5 -127.5q0 -105 -59 -168.5t-172 -63.5q-75 0 -131 31.5t-86.5 88t-30.5 127.5q0 30 11 46.5t36 18.5q96 10 139.5 54t43.5 111q0 46 -28 88l-3 4h-246q-21 0 -33 12t-12 33v2
q0 21 12 33t33 12h190q-55 102 -55 172q0 68 38.5 105.5t103.5 37.5q33 0 47.5 -12t14.5 -35q0 -34 -21 -42q-8 -3 -32 -4q-22 -2 -35.5 -15.5t-13.5 -40.5q0 -28 14.5 -68t39.5 -76l15 -22h253q21 0 33 -12zM391.5 321.5q-16.5 38.5 -53.5 100.5h-3q-2 -85 -50 -136.5
t-141 -65.5q4 -57 40 -89t95 -32q62 0 95.5 37.5t33.5 98.5q0 48 -16.5 86.5z" />
    <glyph glyph-name="W" unicode="W" horiz-adv-x="663" 
d="M688 648q12 -12 12 -33v-2q0 -21 -12 -33t-33 -12h-299v-163q0 -22 7.5 -31t24.5 -9q21 0 39 8.5t42 24.5q20 14 34 20.5t28 6.5q50 0 75 -52.5t25 -115.5q0 -68 -27.5 -126.5t-88 -95t-153.5 -36.5q-112 0 -186.5 56.5t-110 144.5t-36.5 183q0 26 15 39t37 13
q23 0 37 -12.5t16 -37.5q6 -129 62 -206.5t167 -77.5q85 0 124 45t39 114q0 33 -12 57q-28 -23 -60 -41.5t-81 -18.5q-60 0 -95 32.5t-35 93.5v185h-257q-21 0 -33 12t-12 33v2q0 21 12 33t33 12h669q21 0 33 -12z" />
    <glyph glyph-name="X" unicode="X" horiz-adv-x="568" 
d="M593.5 648q11.5 -12 11.5 -33v-2q0 -21 -11.5 -33t-32.5 -12h-369v-409q0 -30 16 -43t46 -13q50 0 89 29t60 74.5t21 92.5q0 27 -8.5 44.5t-24.5 21.5q-2 -30 -20.5 -48.5t-48.5 -18.5q-33 0 -54 19t-21 54q0 46 31.5 71t82.5 25q76 0 122 -47t46 -129q0 -69 -32 -135.5
t-94.5 -109.5t-149.5 -43q-79 0 -128 38.5t-49 116.5v410h-90q-21 0 -33 12t-12 33v2q0 21 12 33t33 12h575q21 0 32.5 -12z" />
    <glyph glyph-name="Y" unicode="Y" horiz-adv-x="601" 
d="M626 648q12 -12 12 -33v-2q0 -21 -12 -33t-33 -12h-68v-519q0 -27 -15.5 -42.5t-41.5 -15.5h-2q-27 0 -42 15.5t-15 42.5v341q0 92 -43 135t-103 43q-58 0 -92.5 -34t-34.5 -91q0 -70 51 -96q4 28 23.5 46t47.5 18q32 0 53 -21.5t21 -55.5q0 -42 -29.5 -68t-80.5 -26
q-54 0 -98.5 25t-70.5 71t-26 107q0 70 30.5 121t81 77.5t111.5 26.5q50 0 91.5 -17.5t67.5 -46.5v97q0 27 15 42t42 15h2q26 0 41.5 -15t15.5 -42v-41h68q21 0 33 -12z" />
    <glyph glyph-name="Z" unicode="Z" horiz-adv-x="653" 
d="M678 648q12 -12 12 -33v-2q0 -21 -12 -33t-33 -12h-659q-22 0 -34 12t-12 33v2q0 21 12 33t34 12h659q21 0 33 -12zM513 492.5q46 -27.5 72 -80.5t26 -128q0 -70 -25.5 -131t-83.5 -99.5t-150 -38.5q-106 0 -174.5 51t-100.5 137t-32 195q0 40 3.5 60t15.5 30.5t39 10.5
q51 0 51 -52l1 -67q2 -122 47.5 -193t145.5 -71q80 0 119 48.5t39 124.5q0 60 -26 94.5t-71 34.5q-33 0 -51 -20q25 -6 40.5 -26t15.5 -46q0 -31 -20 -51.5t-54 -20.5q-42 0 -68 30.5t-26 79.5q0 71 44 113.5t120 42.5q57 0 103 -27.5z" />
    <glyph glyph-name="bracketleft" unicode="[" horiz-adv-x="378" 
d="M109 -113v872q0 46 24 69.5t70 23.5h96q23 0 35.5 -12t12.5 -35v-2q0 -24 -12.5 -36.5t-35.5 -12.5h-82v-862h82q23 0 35.5 -12.5t12.5 -36.5v-2q0 -23 -12.5 -35.5t-35.5 -12.5h-96q-94 0 -94 94z" />
    <glyph glyph-name="backslash" unicode="\" horiz-adv-x="609" 
d="M163.5 6.5q-15.5 15.5 -15.5 42.5v542q0 27 15.5 42t41.5 15h2q27 0 42 -15t15 -42v-542q0 -27 -15 -42.5t-42 -15.5h-2q-26 0 -41.5 15.5zM432 6.5q-15 15.5 -15 42.5v542q0 27 15 42t42 15h2q26 0 41.5 -15t15.5 -42v-542q0 -27 -15.5 -42.5t-41.5 -15.5h-2
q-27 0 -42 15.5z" />
    <glyph glyph-name="bracketright" unicode="]" horiz-adv-x="378" 
d="M44.5 -194.5q-12.5 12.5 -12.5 35.5v2q0 24 12.5 36.5t35.5 12.5h81v862h-81q-23 0 -35.5 12.5t-12.5 36.5v2q0 23 12.5 35t35.5 12h95q46 0 70 -23.5t24 -69.5v-872q0 -94 -94 -94h-95q-23 0 -35.5 12.5z" />
    <glyph glyph-name="asciicircum" unicode="^" 
d="M-89 398q13 -14 13 -39v-434q0 -35 -15.5 -52t-49.5 -17q-35 0 -85 25l-199 100q-49 25 -49 77q0 54 48 82q120 71 238 120v99q0 25 17 39t46 14q23 0 36 -14zM-188 -24v168q-95 -45 -166 -84z" />
    <glyph glyph-name="underscore" unicode="_" horiz-adv-x="650" 
d="M675 648q12 -12 12 -33v-2q0 -21 -12 -33t-33 -12h-68v-519q0 -27 -14.5 -42.5t-40.5 -15.5h-2q-27 0 -41.5 15.5t-14.5 42.5v28l-386 170q-32 14 -32 44q0 26 13 43.5t38 17.5l23 -1q20 -2 42 -2q61 0 96.5 32.5t35.5 92.5q0 50 -23 74t-63 24q-24 0 -44 -10
q22 -8 35 -26t13 -41q0 -31 -19.5 -51t-54.5 -20q-42 0 -66 26t-24 70q0 41 20.5 75t58 53.5t84.5 19.5q89 0 140.5 -53.5t51.5 -138.5q0 -70 -34.5 -125.5t-123.5 -71.5v-4q10 -3 46 -15t80 -32l93 -41v514q0 27 14.5 42t41.5 15h2q26 0 40.5 -15t14.5 -42v-41h68
q21 0 33 -12z" />
    <glyph glyph-name="grave" unicode="`" horiz-adv-x="552" 
d="M577.5 648q11.5 -12 11.5 -33v-2q0 -21 -11.5 -33t-32.5 -12h-363v-88q0 -84 -7 -145l4 -2q43 46 109 90t109 51q5 1 15 1q30 0 51 -18q18 -16 24.5 -31.5t6.5 -33.5q0 -14 -5 -39q-7 -41 -10.5 -78.5t-3.5 -107.5v-121q0 -26 -14.5 -40.5t-39.5 -14.5h-2
q-25 0 -39.5 14.5t-14.5 40.5v124q0 128 17 181q-76 -43 -169 -139q-22 -22 -39.5 -32.5t-43.5 -10.5q-29 0 -46.5 16.5t-17.5 49.5v333h-80q-21 0 -33 12t-12 33v2q0 21 12 33t33 12h559q21 0 32.5 -12z" />
    <glyph glyph-name="a" unicode="a" horiz-adv-x="603" 
d="M629 648q12 -12 12 -33v-2q0 -21 -12 -33t-33 -12h-69l1 -521q0 -26 -14.5 -41t-40.5 -15h-2q-26 0 -40.5 15t-14.5 41v29l-309 125q-46 19 -46 64t41 65l50 25v4q-53 18 -80.5 56t-27.5 89q0 78 49 122t124 44q61 0 100.5 -29t39.5 -76q0 -31 -19.5 -51.5t-52.5 -20.5
q-32 0 -52.5 19t-20.5 51q0 8 1 11q-26 -5 -41 -23t-15 -50q0 -37 23 -58.5t59 -21.5q25 0 44 6.5t45 20.5l84 45v127q0 21 9 30.5t30 9.5h145q21 0 33 -12zM204 270l211 -86v196z" />
    <glyph glyph-name="b" unicode="b" horiz-adv-x="591" 
d="M616.5 648q11.5 -12 11.5 -33v-2q0 -21 -11.5 -33t-32.5 -12h-69v-521q0 -27 -13.5 -41.5t-38.5 -14.5t-39 13.5t-21 41.5q-27 128 -85.5 202t-137.5 74q-13 0 -20 -1q15 -18 15 -43q0 -32 -19.5 -51t-52.5 -19q-35 0 -58 22.5t-23 61.5q0 56 42 92.5t114 36.5
q73 0 133 -34t99 -103l3 2q-14 89 -14 181v101h-413q-21 0 -33 12t-12 33v2q0 21 12 33t33 12h598q21 0 32.5 -12z" />
    <glyph glyph-name="c" unicode="c" horiz-adv-x="699" 
d="M724.5 648q11.5 -12 11.5 -33v-2q0 -21 -11.5 -33t-32.5 -12h-69v-519q0 -27 -15 -42.5t-42 -15.5h-2q-26 0 -41.5 15.5t-15.5 42.5v374l-264 -209q-19 -14 -36 -14q-20 0 -36.5 16.5t-16.5 37.5q0 23 25 45l58 46q-24 39 -47 56t-59 17q-13 0 -20.5 -1t-15.5 -1
q-27 0 -46.5 21.5t-19.5 52.5q0 34 21 64q40 60 98 90t130 30q67 0 124.5 -31.5t99.5 -87.5l5 5v141q0 27 15.5 42t41.5 15h2q27 0 42 -15t15 -42v-41h69q21 0 32.5 -12zM243.5 483q37.5 -24 71.5 -76l110 87q-35 43 -70 61.5t-73 18.5q-43 0 -76.5 -18t-55.5 -49h4
q52 0 89.5 -24z" />
    <glyph glyph-name="d" unicode="d" horiz-adv-x="764" 
d="M790 648q12 -12 12 -33v-2q0 -21 -12 -33t-33 -12h-617l118 -88q17 -13 26 -28.5t9 -37.5q0 -24 -8 -40.5t-25 -29.5l-82 -65l189 -90v250q0 43 29 59t85 16q119 0 184.5 -58t65.5 -158q0 -64 -31 -104.5t-82 -40.5q-36 0 -60.5 20t-24.5 55q0 32 20 52t54 20q15 0 24 -4
v7q0 50 -32.5 80t-91.5 30q-10 0 -26 -2v-366q0 -24 -16.5 -39t-42.5 -15h-2q-25 0 -39 14.5t-14 39.5v31l-277 129q-39 19 -39 64q0 23 8.5 39t25.5 30l93 73l-100 71q-41 29 -41 80v6h-51q-21 0 -33 12t-12 33v2q0 21 12 33t33 12h771q21 0 33 -12z" />
    <glyph glyph-name="e" unicode="e" horiz-adv-x="539" 
d="M564 648q12 -12 12 -33v-2q0 -21 -12 -33t-33 -12h-68v-522q0 -26 -14.5 -40.5t-39.5 -14.5h-2q-25 0 -39.5 14.5t-14.5 40.5v31l-275 156q-43 24 -43 73q0 54 38 79q62 43 124 73t107 45.5t49 15.5v49h-367q-21 0 -33 12t-12 33v2q0 21 12 33t33 12h545q21 0 33 -12z
M353 198v215q-41 -15 -94.5 -42t-104.5 -61z" />
    <glyph glyph-name="f" unicode="f" horiz-adv-x="674" 
d="M699.5 648q11.5 -12 11.5 -33v-2q0 -21 -11.5 -33t-32.5 -12h-681q-21 0 -33 12t-12 33v2q0 21 12 33t33 12h681q21 0 32.5 -12zM581 435.5q18 -15.5 32 -45.5q13 -26 19.5 -56.5t6.5 -59.5q0 -73 -29 -134t-90 -97.5t-152 -36.5q-102 0 -178 49t-119 139t-49 209
q-1 26 15.5 40t38.5 14q51 0 55 -50q8 -148 71 -224.5t166 -76.5q61 0 99 25t54 63t16 78q0 19 -3.5 32.5t-7.5 19.5q-28 -41 -64 -62.5t-85 -21.5q-66 0 -109 42.5t-43 111.5q0 48 23.5 79t68.5 31q32 0 53.5 -21t21.5 -51q0 -27 -15.5 -46.5t-42.5 -23.5q13 -25 48 -25
q24 0 38 11t32 36q27 38 43.5 52.5t43.5 14.5q24 0 42 -15.5z" />
    <glyph glyph-name="g" unicode="g" horiz-adv-x="574" 
d="M599 648q12 -12 12 -33v-2q0 -21 -12 -33t-32 -12h-69v-522q0 -26 -13.5 -40.5t-38.5 -14.5h-2q-26 0 -42 15t-16 40v37q-69 95 -151 135q-40 -35 -92 -35q-47 0 -76 21t-29 62t27 66t72 25h1q21 0 47 -6q5 15 5 35q0 42 -30 71.5t-83 47.5q-21 8 -32.5 20.5t-11.5 42.5
h-47q-21 0 -33 12t-12 33v2q0 21 12 33t33 12h581q20 0 32 -12zM390 393v175h-213q56 -31 87.5 -80t31.5 -115q0 -33 -9 -65q68 -40 109 -89l4 2q-10 66 -10 172z" />
    <glyph glyph-name="h" unicode="h" horiz-adv-x="554" 
d="M579 648q12 -12 12 -33v-2q0 -21 -12 -33t-33 -12h-68v-523q0 -25 -15 -39.5t-40 -14.5h-2q-25 0 -40 14.5t-15 39.5v31l-274 128q-20 10 -29.5 25.5t-9.5 39.5t8 40.5t26 30.5l91 71l-101 71q-40 29 -40 80v6h-51q-21 0 -33 12t-12 33v2q0 21 12 33t33 12h560
q21 0 33 -12zM366 568h-228l122 -90q17 -13 25.5 -27.5t8.5 -36.5t-8 -38.5t-25 -29.5l-84 -67l189 -90v379z" />
    <glyph glyph-name="i" unicode="i" horiz-adv-x="540" 
d="M565.5 648q11.5 -12 11.5 -33v-2q0 -21 -11.5 -33t-32.5 -12h-69v-522q0 -26 -13.5 -40.5t-39.5 -14.5h-2q-25 0 -39.5 14.5t-14.5 40.5v31l-282 159q-20 12 -28.5 28.5t-8.5 41.5q0 51 33 75q62 44 125.5 75t109.5 47t51 16v49h-369q-21 0 -33 12t-12 33v2q0 21 12 33
t33 12h547q21 0 32.5 -12zM355 197v216q-42 -16 -95.5 -42.5t-103.5 -60.5zM197 103.5q20 -20.5 20 -49.5q0 -30 -19.5 -50t-51.5 -20t-51 20t-19 50q0 29 19.5 49.5t50.5 20.5t51 -20.5z" />
    <glyph glyph-name="j" unicode="j" horiz-adv-x="728" 
d="M753 648q12 -12 12 -33v-2q0 -21 -12 -33t-33 -12h-68v-521q0 -26 -14.5 -41t-40.5 -15h-2q-26 0 -41 15t-15 41v246q0 54 -16 81t-44 27q-24 0 -37.5 -17.5t-19.5 -52.5q-8 -28 -19.5 -41t-36.5 -13q-27 0 -39.5 14t-20.5 41q-8 36 -27.5 52.5t-51.5 16.5
q-38 0 -60 -26.5t-22 -76.5q0 -35 11.5 -58.5t32.5 -34.5q5 25 23.5 40t45.5 15q33 0 53.5 -20.5t20.5 -54.5q0 -36 -29 -60t-82 -24q-51 0 -93 23.5t-67 68.5t-25 106q0 96 53 146.5t133 50.5q43 0 80 -17.5t58 -47.5q20 34 49.5 49.5t59.5 15.5q20 0 38.5 -7t31.5 -20v99
h-553q-21 0 -33 12t-12 33v2q0 21 12 33t33 12h734q21 0 33 -12z" />
    <glyph glyph-name="k" unicode="k" horiz-adv-x="637" 
d="M662.5 648q11.5 -12 11.5 -33v-2q0 -21 -11.5 -33t-33.5 -12h-68v-523q0 -25 -15 -39.5t-40 -14.5h-2q-26 0 -41 14.5t-15 39.5v523h-68q-28 0 -51.5 -14t-37.5 -37q49 -40 75 -84t26 -78q0 -28 -16 -44.5t-40 -16.5q-34 0 -68.5 37t-59.5 107h-4q-24 -69 -58.5 -106.5
t-69.5 -37.5q-24 0 -39.5 15.5t-15.5 43.5q0 34 26.5 79.5t75.5 85.5q-12 23 -36 36.5t-58 13.5h-43q-21 0 -33 12t-12 33v2q0 21 12 33t33 12h43q62 0 100.5 -22.5t74.5 -73.5q33 48 73.5 72t100.5 24h70v45q0 25 15 39t41 14h2q25 0 40 -14t15 -39v-45h68q22 0 33.5 -12z
" />
    <glyph glyph-name="l" unicode="l" horiz-adv-x="565" 
d="M590 648q12 -12 12 -33v-2q0 -21 -12 -33t-33 -12h-68v-523q0 -25 -14 -39.5t-39 -14.5h-2q-25 0 -40.5 14t-15.5 39v29l-289 132q-40 18 -40 65q0 23 8.5 38.5t26.5 31.5l94 80l-99 63q-22 13 -32 32.5t-10 46.5v6h-51q-21 0 -33 12t-12 33v2q0 21 12 33t33 12h571
q21 0 33 -12zM381 568h-255l126 -79h0.5t0.5 -1l128 -79v159zM381 175v121l-114 71l-102 -89z" />
    <glyph glyph-name="m" unicode="m" horiz-adv-x="627" 
d="M652.5 648q11.5 -12 11.5 -33v-2q0 -21 -11.5 -33t-32.5 -12h-69v-522q0 -26 -14 -40.5t-39 -14.5h-2q-26 0 -41.5 15t-15.5 40v224q0 30 -8.5 43.5t-27.5 13.5q-21 0 -35 -17t-34 -56q-22 -41 -40 -66t-49 -43.5t-75 -18.5q-42 0 -77 17.5t-58 50.5q-12 16 -12 35
q0 23 15.5 37.5t37.5 14.5q13 0 22 -6t21 -19q11 -14 22.5 -21t26.5 -7q23 0 39 19.5t38 60.5l18 32q-23 52 -57 90t-70 59q-31 19 -42 34.5t-11 44.5h-97q-21 0 -33 12t-12 33v2q0 21 12 33t33 12h634q21 0 32.5 -12zM442 568h-240q41 -28 73 -64.5t59 -85.5q24 13 54 13
q20 0 34.5 -5.5t19.5 -10.5v153z" />
    <glyph glyph-name="n" unicode="n" horiz-adv-x="450" 
d="M475 648q12 -12 12 -33v-2q0 -21 -12 -33t-33 -12h-296q19 -25 33 -56q20 3 39 3q88 0 141.5 -51t53.5 -135q0 -76 -44 -127.5t-137 -63.5v-4q0 1 29.5 -11.5t64.5 -32.5l48 -29q18 -10 26.5 -20t8.5 -28q0 -21 -13.5 -36t-33.5 -15q-19 0 -43 12l-241 133q-32 18 -32 52
q0 25 15 41.5t39 16.5q6 0 22 -2q36 -3 53 -3q56 0 91.5 27.5t35.5 88.5q0 42 -23.5 66.5t-65.5 24.5h-4q2 -22 2 -33q0 -42 -19 -66.5t-57 -24.5q-36 0 -58 22.5t-22 61.5q0 58 41 94q-41 57 -81 95h-29q-21 0 -33 12t-12 33v2q0 21 12 33t33 12h456q21 0 33 -12z" />
    <glyph glyph-name="o" unicode="o" horiz-adv-x="663" 
d="M688 648q12 -12 12 -33v-2q0 -21 -12 -33t-33 -12h-299v-163q0 -22 7.5 -31t24.5 -9q21 0 39 8.5t42 24.5q20 14 34 20.5t28 6.5q50 0 75 -52.5t25 -115.5q0 -68 -27.5 -126.5t-88 -95t-153.5 -36.5q-112 0 -186.5 56.5t-110 144.5t-36.5 183q0 26 15 39t37 13
q23 0 37 -12.5t16 -37.5q6 -129 62 -206.5t167 -77.5q85 0 124 45t39 114q0 33 -12 57q-28 -23 -60 -41.5t-81 -18.5q-60 0 -95 32.5t-35 93.5v185h-257q-21 0 -33 12t-12 33v2q0 21 12 33t33 12h669q21 0 33 -12zM397 -84.5q21 -20.5 21 -50.5q0 -28 -21 -48t-51 -20
q-29 0 -49 19.5t-20 48.5q0 30 20 50.5t49 20.5q30 0 51 -20.5z" />
    <glyph glyph-name="p" unicode="p" horiz-adv-x="568" 
d="M593.5 648q11.5 -12 11.5 -33v-2q0 -21 -11.5 -33t-32.5 -12h-369v-409q0 -30 16 -43t46 -13q50 0 89 29t60 74.5t21 92.5q0 27 -8.5 44.5t-24.5 21.5q-2 -30 -20.5 -48.5t-48.5 -18.5q-33 0 -54 19t-21 54q0 46 31.5 71t82.5 25q76 0 122 -47t46 -129q0 -69 -32 -135.5
t-94.5 -109.5t-149.5 -43q-79 0 -128 38.5t-49 116.5v410h-90q-21 0 -33 12t-12 33v2q0 21 12 33t33 12h575q21 0 32.5 -12zM291 -79.5q21 -20.5 21 -50.5q0 -28 -21 -48t-51 -20q-29 0 -49 19.5t-20 48.5q0 30 20 50.5t49 20.5q30 0 51 -20.5z" />
    <glyph glyph-name="q" unicode="q" horiz-adv-x="554" 
d="M579 648q12 -12 12 -33v-2q0 -21 -12 -33t-33 -12h-68v-523q0 -25 -15 -39.5t-40 -14.5h-2q-25 0 -40 14.5t-15 39.5v31l-274 128q-20 10 -29.5 25.5t-9.5 39.5t8 40.5t26 30.5l91 71l-101 71q-40 29 -40 80v6h-51q-21 0 -33 12t-12 33v2q0 21 12 33t33 12h560
q21 0 33 -12zM366 568h-228l122 -90q17 -13 25.5 -28t8.5 -36q0 -22 -8 -38.5t-25 -29.5l-84 -67l189 -90v379zM207.5 74.5q19.5 -20.5 19.5 -50.5q0 -29 -19.5 -49t-51.5 -20q-31 0 -50.5 20t-19.5 49q0 30 19.5 50.5t50.5 20.5q32 0 51.5 -20.5z" />
    <glyph glyph-name="r" unicode="r" horiz-adv-x="534" 
d="M469.5 141q43.5 -37 43.5 -100q0 -27 -11.5 -42.5t-41.5 -15.5q-26 0 -38.5 10.5t-16.5 32.5q-4 25 -18.5 41t-38 27.5t-73.5 29.5l-19 7q-224 84 -224 274q0 115 61.5 183t169.5 68q84 0 137 -44.5t53 -118.5t-47 -114.5t-127 -40.5q-82 0 -135 44q8 -68 57.5 -106.5
t138.5 -68.5q86 -29 129.5 -66zM197.5 541.5q-27.5 -19.5 -41.5 -55.5q15 -28 45 -43t65 -15q38 0 60 18t22 49q0 29 -23.5 47.5t-60.5 18.5q-39 0 -66.5 -19.5z" />
    <glyph glyph-name="s" unicode="s" horiz-adv-x="435" 
d="M91 380.5q-45 43.5 -45 113.5t45 114t116 44t117 -44.5t46 -113.5t-46 -113t-117 -44t-116 43.5zM256 446q19 19 19 48t-19 48.5t-49 19.5t-48.5 -19.5t-18.5 -48.5t18.5 -48t48.5 -19t49 19zM305 3l-251 199q-19 14 -19 38q0 23 17 41t38 18q18 0 33 -12l241 -202
q22 -17 22 -38q0 -20 -16.5 -38t-34.5 -18q-17 2 -30 12z" />
    <glyph glyph-name="t" unicode="t" horiz-adv-x="437" 
d="M90 380.5q-45 43.5 -45 113.5t45 114t116 44t116.5 -44.5t45.5 -113.5t-45.5 -113t-116.5 -44t-116 43.5zM254.5 446q18.5 19 18.5 48t-18.5 48.5t-48.5 19.5t-48.5 -19.5t-18.5 -48.5t18.5 -48t48.5 -19t48.5 19zM90 21q-45 43 -45 113t45 114t116 44t116.5 -44.5
t45.5 -113.5t-45.5 -112.5t-116.5 -43.5t-116 43zM254.5 86.5q18.5 19.5 18.5 47.5q0 29 -18.5 48.5t-48.5 19.5t-48.5 -19.5t-18.5 -48.5q0 -28 18.5 -47.5t48.5 -19.5t48.5 19.5z" />
    <glyph glyph-name="u" unicode="u" 
d="M-174 999.5q-20 19.5 -20 48.5t20 49.5t49 20.5t49.5 -20.5t20.5 -49.5t-20.5 -48.5t-49.5 -19.5t-49 19.5zM-259.5 849.5q-56.5 32.5 -88.5 87.5q-8 18 -8 28q0 23 16.5 37t37.5 14q27 0 48 -32q44 -71 129 -71q84 0 130 71q11 17 22 24.5t25 7.5q22 0 38 -14t16 -37
q0 -14 -8 -28q-31 -54 -87.5 -87t-135.5 -33q-78 0 -134.5 32.5z" />
    <glyph glyph-name="v" unicode="v" horiz-adv-x="268" 
d="M91.5 6.5q-15.5 15.5 -15.5 42.5v436q0 41 -14.5 62t-48.5 21h-27q-21 0 -33.5 12t-12.5 33v2q0 21 12.5 33t33.5 12h28q32 0 50 -17t35 -56l5 2q-2 3 -6.5 17t-8.5 36t-4 46v19q0 24 13.5 37.5t38.5 13.5h3q25 0 38.5 -13.5t13.5 -37.5v-47h69q21 0 33.5 -12t12.5 -33
v-2q0 -21 -12.5 -33t-33.5 -12h-69v-519q0 -27 -15 -42.5t-42 -15.5h-2q-26 0 -41.5 15.5z" />
    <glyph glyph-name="w" unicode="w" horiz-adv-x="268" 
d="M633 825q0 -11 -6 -26q-12 -26 -39 -26q-13 0 -31 8q-78 39 -130 54.5t-100 15.5q-68 0 -101.5 -26t-33.5 -85v-80h69q20 0 32 -12t12 -33v-2q0 -21 -12 -33t-32 -12h-69v-519q0 -27 -15 -42.5t-42 -15.5h-2q-26 0 -41.5 15.5t-15.5 42.5v519h-90q-21 0 -33 12t-12 33v2
q0 21 12 33t33 12h90v80q0 111 64 161.5t176 50.5q68 0 135.5 -20t146.5 -62q35 -18 35 -45z" />
    <glyph glyph-name="x" unicode="x" horiz-adv-x="268" 
d="M91.5 6.5q-15.5 15.5 -15.5 42.5v519h-90q-21 0 -33 12t-12 33v2q0 21 12 33t33 12h90v6q0 123 -96 181.5t-261 58.5q-139 0 -139 -50q0 -17 16.5 -24.5t50.5 -7.5q33 0 62 3q9 0 28 1.5t36 1.5q78 0 114.5 -32t36.5 -103v-39q0 -27 -14.5 -42t-42.5 -15h-2q-27 0 -42 15
t-15 42v32q0 32 -14.5 43t-47.5 11q-16 0 -46 -2q-28 -3 -68 -3q-80 0 -119.5 30.5t-39.5 85.5q0 77 67.5 111t180.5 34q127 0 234.5 -36.5t172 -111.5t64.5 -184v-6h69q20 0 32 -12t12 -33v-2q0 -21 -12 -33t-32 -12h-69v-519q0 -27 -15 -42.5t-42 -15.5h-2
q-26 0 -41.5 15.5z" />
    <glyph glyph-name="y" unicode="y" 
d="M73 -218q4 -10 4 -21q0 -22 -14 -36.5t-35 -14.5q-17 0 -29 7.5t-24 27.5q-28 39 -66 68q-7 -74 -55 -117t-124 -43q-46 0 -83 20t-57.5 55t-20.5 77q0 74 50.5 118.5t127.5 44.5t164.5 -43t147.5 -119q10 -14 14 -24zM-209.5 -230q20.5 25 20.5 74q0 12 -1 19
q-33 10 -60 10q-77 0 -77 -66q0 -26 16.5 -44t42.5 -18q38 0 58.5 25z" />
    <glyph glyph-name="z" unicode="z" 
d="M73 -218q4 -10 4 -21q0 -22 -14 -36.5t-35 -14.5q-17 0 -29 7.5t-24 27.5q-28 39 -66 68q-7 -74 -55 -117t-124 -43q-46 0 -83 20t-57.5 55t-20.5 77q0 74 50.5 118.5t127.5 44.5t164.5 -43t147.5 -119q10 -14 14 -24zM-209.5 -230q20.5 25 20.5 74q0 12 -1 19
q-33 10 -60 10q-77 0 -77 -66q0 -26 16.5 -44t42.5 -18q38 0 58.5 25z" />
    <glyph glyph-name="braceleft" unicode="{" horiz-adv-x="394" 
d="M172 -162q-40 45 -40 123q0 27 4 56.5t9 56.5q13 65 13 105q0 65 -50 87q-26 13 -36 24.5t-10 33.5q0 23 9.5 34t36.5 25q25 12 37.5 32.5t12.5 54.5q0 40 -13 105q-5 27 -9 56.5t-4 56.5q0 77 40 122t117 45q33 0 47.5 -12.5t14.5 -37.5q0 -26 -11 -38t-35 -12
q-64 0 -64 -84q0 -35 12 -97q5 -25 9 -53.5t4 -55.5q0 -54 -25 -88.5t-69 -50.5v-4q44 -15 69 -50t25 -89q0 -27 -4 -55t-9 -53q-12 -62 -12 -98q0 -84 64 -84q25 0 35.5 -11t10.5 -37t-14.5 -39t-47.5 -13q-77 0 -117 45z" />
    <glyph glyph-name="bar" unicode="|" horiz-adv-x="340" 
d="M163.5 6.5q-15.5 15.5 -15.5 42.5v542q0 27 15.5 42t41.5 15h2q27 0 42 -15t15 -42v-542q0 -27 -15 -42.5t-42 -15.5h-2q-26 0 -41.5 15.5z" />
    <glyph glyph-name="braceright" unicode="}" horiz-adv-x="394" 
d="M57.5 -194q-14.5 13 -14.5 39t10.5 37t35.5 11q64 0 64 84q0 36 -12 98q-5 25 -9 53t-4 55q0 54 25 89t69 50v4q-44 16 -69 50.5t-25 88.5q0 27 4 55.5t9 53.5q12 62 12 97q0 84 -64 84q-24 0 -35 12t-11 38q0 25 14.5 37.5t47.5 12.5q77 0 117 -45t40 -122
q0 -27 -4 -56.5t-9 -56.5q-13 -65 -13 -105q0 -34 12.5 -54.5t37.5 -32.5q27 -14 36.5 -25t9.5 -34q0 -22 -10 -33.5t-36 -24.5q-50 -22 -50 -87q0 -40 13 -105q5 -27 9 -56.5t4 -56.5q0 -78 -40 -123t-117 -45q-33 0 -47.5 13z" />
    <glyph glyph-name="asciitilde" unicode="~" 
d="M74 -265.5q5 -8.5 5 -20.5q0 -20 -13.5 -36t-35.5 -16q-10 0 -18.5 4.5t-18.5 12.5q-36 28 -53 45q-31 -33 -74 -53t-93 -20q-71 0 -115 44t-44 116t43.5 118t114.5 50h36v48q0 24 15 37t44 13h3q26 0 40 -13t14 -37v-65q0 -35 -7 -51.5t-22 -21t-45 -4.5h-33
q-41 0 -66.5 -20t-25.5 -54q0 -28 17 -45t43 -17q58 0 109 55l14 15q11 12 17 17t16 5t16.5 -3.5t14.5 -11t13 -11.5l73 -63q11 -9 16 -17.5z" />
    <glyph glyph-name="uni00A0" unicode="&#xa0;" horiz-adv-x="600" 
 />
    <glyph glyph-name="exclamdown" unicode="&#xa1;" 
d="M-115 96v-392q0 -34 -17.5 -52.5t-49.5 -18.5q-31 0 -75 20l-202 89q-32 14 -46 32t-14 49q0 29 14 51t39 34q65 33 246 104v84h105zM-220 -248v155q-107 -42 -178 -78z" />
    <glyph glyph-name="cent" unicode="&#xa2;" horiz-adv-x="622" 
d="M585.5 393q6.5 -32 6.5 -58q0 -113 -64 -177.5t-188 -64.5q-93 0 -160.5 45t-105.5 122.5t-46 176.5q-2 25 12.5 43t40.5 18q47 0 52 -48q10 -125 63 -189t146 -64q76 0 110.5 40t34.5 94q0 23 -10 43q-10 -23 -42.5 -49t-88.5 -26q-58 0 -98.5 35t-40.5 98q0 39 21 66.5
t60 27.5q30 0 49.5 -19.5t19.5 -49.5q0 -19 -8.5 -35t-23.5 -24q8 -5 20 -5q26 0 43 18.5t39 54.5q16 25 29 37t35 12q27 0 44 -17t32 -47q12 -26 18.5 -58z" />
    <glyph glyph-name="sterling" unicode="&#xa3;" horiz-adv-x="180" 
 />
    <glyph glyph-name="currency" unicode="&#xa4;" horiz-adv-x="605" 
d="M630.5 648q11.5 -12 11.5 -33v-2q0 -21 -11.5 -33t-32.5 -12h-60q23 -38 23 -84q0 -71 -44 -109t-128 -38q-96 0 -185 46q-27 -30 -76 -30q-39 0 -64.5 18t-25.5 52q0 32 23 52t61 20q10 0 15 -1q-1 19 -8 39t-19 35h-124q-21 0 -33 12t-12 33v2q0 21 12 33t33 12h612
q21 0 32.5 -12zM382 568h-161q16 -35 16 -78q0 -14 -1 -21q40 -19 73.5 -29.5t68.5 -10.5q39 0 57.5 19t18.5 49q0 71 -72 71z" />
    <glyph glyph-name="yen" unicode="&#xa5;" horiz-adv-x="257" 
d="M282 648q12 -12 12 -33v-2q0 -21 -12 -33t-33 -12h-68v-580q0 -28 -14 -43t-43 -15q-21 0 -38 10t-44 32q-52 43 -108.5 72t-103.5 35v-9q0 -40 -18 -65t-57 -25q-41 0 -63 24.5t-22 60.5q0 61 40.5 90.5t99.5 29.5q131 0 264 -98l4 2q-9 65 -9 158v321h-86q-21 0 -33 12
t-12 33v2q0 21 12 33t33 12h266q21 0 33 -12z" />
    <glyph glyph-name="brokenbar" unicode="&#xa6;" 
d="M-89 132q13 -14 13 -39v-383q0 -35 -15.5 -52t-49.5 -17q-35 0 -85 25l-199 100q-49 25 -49 77q0 54 48 82q132 76 238 119v49q0 25 17 39t46 14q23 0 36 -14zM-188 -239v168q-76 -36 -166 -84z" />
    <glyph glyph-name="section" unicode="&#xa7;" horiz-adv-x="234" 
d="M260 648q12 -12 12 -33v-2q0 -21 -12 -33t-33 -12h-68v-512q0 -30 -12.5 -43t-38.5 -13q-23 0 -39.5 11t-38.5 34q-70 74 -135 86v-2q0 -40 -20 -64t-59 -24t-61.5 22.5t-22.5 60.5q0 62 50 94v190h113v-172q42 -6 83.5 -25t72.5 -47l2 1q-7 77 -7 146v257h-262
q-21 0 -33 12t-12 33v2q0 21 12 33t33 12h443q21 0 33 -12z" />
    <glyph glyph-name="dieresis" unicode="&#xa8;" horiz-adv-x="252" 
d="M277 648q12 -12 12 -33v-2q0 -21 -12 -33t-33 -12h-19q-39 0 -62 -27t-23 -72q0 -28 9.5 -57t28.5 -72q22 -50 33.5 -87t11.5 -77q0 -68 -25.5 -118t-73.5 -90q-17 -14 -38 -14q-27 0 -44 22q-13 15 -13 37q0 18 19 35q37 34 51.5 62t14.5 72q0 33 -10 62t-30 71
q-22 47 -32.5 78t-10.5 67q0 31 10 59.5t26 48.5h-81q-21 0 -33 12t-12 33v2q0 21 12 33t33 12h258q21 0 33 -12z" />
    <glyph glyph-name="copyright" unicode="&#xa9;" 
d="M-170 675.5q-13 14.5 -13 35.5q0 25 26 42l224 149q16 11 35 11q21 0 34 -14t13 -35q0 -25 -25 -42l-223 -149q-19 -12 -37 -12q-21 0 -34 14.5z" />
    <glyph glyph-name="ordfeminine" unicode="&#xaa;" 
d="M-168.5 -192q-9.5 9 -14.5 28q-3 16 -9 25.5t-24 16.5t-52 7q-22 0 -80 -12q-70 -16 -113 -16q-74 0 -128.5 36.5t-65.5 113.5q-1 4 -1 13q0 24 15 39t40 15q40 0 52 -44q8 -36 34.5 -52.5t64.5 -16.5q33 0 85 13q30 7 50.5 10.5t43.5 3.5q26 0 43.5 -6t34.5 -21l1 150
q0 25 14.5 38.5t40.5 13.5q29 0 45 -13.5t16 -37.5v-258q0 -55 -54 -55q-29 0 -38.5 9z" />
    <glyph glyph-name="guillemotleft" unicode="&#xab;" 
d="M-375.5 -191.5q-9.5 9.5 -15.5 29.5q-6 19 -14.5 30.5t-30.5 20.5t-63 11q-26 1 -87 -21q-39 -13 -65.5 -20t-52.5 -7q-100 0 -162.5 47t-66.5 124q-1 31 14 49t42 18q24 0 38.5 -12t13.5 -31q-1 -42 36 -67t99 -25q19 0 39.5 6t51.5 18q32 12 53.5 18t42.5 6
q77 0 105 -33v64q0 24 15 38t41 14t42.5 -13.5t16.5 -37.5v-180q0 -27 -14 -41.5t-41 -14.5q-28 0 -37.5 9.5z" />
    <glyph glyph-name="logicalnot" unicode="&#xac;" 
d="M-76 -140q0 -25 -15 -39t-41 -14h-2q-25 0 -41.5 14.5t-16.5 38.5v180q-6 24 -18.5 35t-29.5 11q-21 0 -35.5 -17t-19.5 -53q-3 -19 -14.5 -30.5t-38.5 -11.5t-38 11.5t-16 30.5q-10 37 -26.5 53.5t-43.5 16.5q-32 0 -52 -22.5t-20 -63.5q0 -52 25 -75q7 19 23 30.5
t37 11.5q29 0 48 -19.5t19 -48.5q0 -33 -24.5 -55.5t-69.5 -22.5q-71 0 -116 48.5t-45 128.5q0 60 24 102.5t62 63.5t81 21q42 0 75.5 -17.5t51.5 -46.5q16 32 45 49t57 17q34 0 60 -21v135h114z" />
    <glyph glyph-name="registered" unicode="&#xae;" horiz-adv-x="673" 
d="M698.5 648q11.5 -12 11.5 -33v-2q0 -21 -11.5 -33t-32.5 -12h-179q33 -47 33 -117q0 -67 -30 -114t-79.5 -71t-109.5 -24t-109 23.5t-78.5 71t-29.5 114.5q0 70 33 117h-131q-21 0 -33 12t-12 33v2q0 21 12 33t33 12h680q21 0 32.5 -12zM412 451q0 52 -30.5 85t-80.5 33
q-46 0 -74 -28l181 -125q4 15 4 35zM221.5 363.5q29.5 -32.5 79.5 -32.5q46 0 76 28l-182 124q-3 -15 -3 -32q0 -55 29.5 -87.5z" />
    <glyph glyph-name="macron" unicode="&#xaf;" horiz-adv-x="656" 
d="M681.5 648q11.5 -12 11.5 -33v-2q0 -21 -11.5 -33t-32.5 -12h-68q22 -35 22 -84q0 -62 -39.5 -105t-124.5 -43q-106 0 -161 70q-42 -62 -120 -62q-41 0 -74 20t-50 47q-10 14 -10 30q0 8 3 15q2 17 14 26t27 9q7 0 11 -1q15 -4 33 -24q12 -12 21.5 -18t24.5 -6
q36 0 49.5 35.5t15.5 90.5h-237q-21 0 -33 12t-12 33v2q0 21 12 33t33 12h663q21 0 32.5 -12zM478 549.5q-16 18.5 -51 18.5h-102q3 -65 28.5 -102t74.5 -37q33 0 49.5 19.5t16.5 50.5q0 32 -16 50.5z" />
    <glyph glyph-name="degree" unicode="&#xb0;" horiz-adv-x="711" 
d="M736 648q12 -12 12 -33v-2q0 -21 -12 -33t-33 -12h-258v-45q66 -3 119.5 -28.5t84 -68t30.5 -96.5q0 -57 -25.5 -89t-74.5 -32q-30 0 -51 17.5t-21 47.5q0 29 17.5 46.5t45.5 17.5q7 0 10 -1q-7 37 -44 60t-91 27v-216q65 -5 118 -31.5t84 -73t31 -107.5
q0 -53 -25.5 -89.5t-74.5 -36.5q-35 0 -56.5 17t-21.5 49q0 29 18.5 47t47.5 18q5 0 15 -2q-1 43 -39 72.5t-97 35.5v-230q0 -67 -61 -67q-31 0 -78 26l-227 120q-40 22 -40 72q0 52 36 76q65 45 143 72l-139 82q-40 25 -40 74q0 51 38 77q122 89 260 109v50h-351
q-21 0 -33 12t-12 33v2q0 21 12 33t33 12h717q21 0 33 -12zM337 412q-98 -22 -182 -80l182 -110v190zM337 -63v163q-92 -16 -179 -71z" />
    <glyph glyph-name="plusminus" unicode="&#xb1;" horiz-adv-x="689" 
d="M714 648q12 -12 12 -33v-2q0 -21 -12 -33t-33 -12h-253v-41q99 -5 163.5 -57t64.5 -137q0 -50 -24.5 -81.5t-70.5 -31.5q-33 0 -54 17t-21 46q0 28 17 45t44 17q5 0 15 -2q-2 33 -39.5 58t-94.5 29v-186q0 -31 -17 -45t-55 -29q-59 -21 -94.5 -47t-35.5 -73t40 -70
t106 -23q56 0 89 16.5t40 45.5q-16 -8 -33 -8q-30 0 -50.5 16.5t-20.5 48.5q0 35 25 55.5t63 20.5q51 0 83.5 -34.5t32.5 -88.5q0 -75 -57 -124t-174 -49q-121 0 -189.5 51.5t-68.5 142.5q0 93 93 153l-133 79q-21 11 -29.5 26t-8.5 40q0 43 35 69q116 83 246 104v47h-329
q-21 0 -33 12t-12 33v2q0 21 12 33t33 12h505l2 24q0 37 -19.5 54.5t-59.5 17.5q-38 0 -87 -7q-7 -1 -37 -4t-64 -3q-151 0 -151 124q0 62 56 62q26 0 40 -12.5t16 -40.5q1 -25 17 -32t57 -7q25 0 83 6q64 8 104 8q72 0 111.5 -41.5t39.5 -114.5q0 -12 -2 -34h84
q21 0 33 -12zM154 347l161 -95v168q-87 -21 -161 -73z" />
    <glyph glyph-name="uni00B2" unicode="&#xb2;" horiz-adv-x="945" 
d="M970 648q12 -12 12 -33v-2q0 -21 -12 -33t-33 -12h-276v-117q21 3 40 3q108 0 161 -54t53 -137q0 -65 -29.5 -106.5t-86.5 -41.5q-39 0 -63 20.5t-24 56.5q0 33 20.5 53t51.5 20q13 0 28 -5v6q0 43 -26 65t-72 22q-17 0 -53 -4v-628q0 -25 -14.5 -39t-40.5 -14h-2
q-25 0 -39.5 14t-14.5 39v91q0 77 -34 115t-93 38q-48 0 -77.5 -25t-29.5 -71q0 -42 27 -64q5 26 24.5 43t46.5 17q33 0 53 -20.5t20 -53.5q0 -41 -28 -64.5t-77 -23.5q-47 0 -85 20t-61 58.5t-23 93.5q0 91 54 141t141 50q45 0 82 -15t60 -37v55q-62 33 -115.5 49.5
t-111.5 26.5q-30 -45 -90 -45q-36 0 -58.5 19t-22.5 51q0 38 25 57.5t63 21.5v6q0 44 -51 63q-29 -20 -72 -20q-35 0 -58.5 16.5t-23.5 48.5q0 33 23.5 52t59.5 19q13 0 25 -2q4 7 4 17q0 39 -51 57q-30 10 -44.5 21.5t-14.5 40.5h-51q-21 0 -33 12t-12 33v2q0 21 12 33
t33 12h951q21 0 33 -12zM547 313v17q-28 -2 -42 -2q-83 0 -133.5 40.5t-50.5 131.5v68h-131q61 -45 61 -125q0 -17 -5 -39q49 -23 75.5 -63t26.5 -96v-3q55 -9 111 -26.5t90 -37.5l5 2q-7 61 -7 133zM547 568h-115v-67q0 -41 18 -57t54 -16q13 0 43 4v136z" />
    <glyph glyph-name="uni00B3" unicode="&#xb3;" horiz-adv-x="928" 
d="M953 648q12 -12 12 -33v-2q0 -21 -12 -33t-33 -12h-934q-21 0 -33 12t-12 33v2q0 21 12 33t33 12h934q21 0 33 -12zM807.5 483q41.5 -23 65 -65.5t23.5 -99.5q0 -83 -42.5 -134t-111.5 -51q-53 0 -80.5 25.5t-27.5 61.5q0 31 19.5 52.5t51.5 21.5q22 0 38 -11t24 -30
q26 23 26 66q0 38 -22.5 61.5t-59.5 23.5q-31 0 -56.5 -18.5t-43.5 -43.5t-44 -68q-6 -12 -28 -45q56 -46 56 -123q0 -81 -55.5 -135.5t-170.5 -54.5q-99 0 -172.5 47t-115 130t-48.5 191q-2 27 12.5 43.5t42.5 16.5q46 0 52 -51q10 -134 70.5 -205.5t161.5 -71.5
q62 0 91.5 27.5t29.5 66.5q0 34 -21 55q-24 -25 -63 -25q-35 0 -58 20t-23 54q0 33 22 54.5t61 21.5q22 0 40 -9q28 29 28 74q0 37 -26 58t-67 21q-25 0 -45 -8t-31 -23q34 -16 34 -59q0 -28 -18.5 -46.5t-50.5 -18.5q-37 0 -59.5 25t-22.5 67q0 44 22.5 80t65 57t100.5 21
q63 0 110 -24.5t71 -67.5q59 69 152 69q52 0 93.5 -23zM536 233v-1l-1 2v-1h1z" />
    <glyph glyph-name="acute" unicode="&#xb4;" horiz-adv-x="726" 
d="M751 648q12 -12 12 -33v-2q0 -21 -12 -33t-32 -12h-253v-37q65 -4 117.5 -30.5t82.5 -70.5t30 -97q0 -57 -26.5 -90t-77.5 -33q-31 0 -53 17.5t-22 49.5q0 29 17.5 46.5t45.5 17.5q9 0 18 -3q-6 37 -42 61.5t-90 29.5v-464q0 -70 -57 -70q-26 0 -44.5 13.5t-48.5 48.5
q-39 50 -71 68.5t-62 18.5h-8q5 -15 5 -28q0 -31 -19.5 -50t-51.5 -19q-34 0 -57 22.5t-23 61.5q0 57 38 87.5t99 30.5q54 0 103.5 -24t87.5 -72l3 1q-4 26 -7 91l-260 130q-21 13 -30.5 27.5t-9.5 38.5q0 46 39 74q123 89 260 110v43h-366q-21 0 -33 12t-12 33v2
q0 21 12 33t33 12h733q20 0 32 -12zM184 344l168 -85v160q-85 -20 -168 -75z" />
    <glyph glyph-name="paragraph" unicode="&#xb6;" horiz-adv-x="927" 
d="M952 648q12 -12 12 -33v-2q0 -21 -12 -33t-33 -12h-270v-137q20 2 31 2q112 0 164.5 -52.5t52.5 -129.5q0 -69 -29 -111.5t-83 -42.5q-38 0 -61.5 19t-23.5 53t19.5 52.5t50.5 18.5q13 0 24 -4v11q0 40 -27 60.5t-75 20.5q-15 0 -43 -4v-280q0 -29 -13.5 -42t-41.5 -13
q-22 0 -40 9t-44 25q-106 66 -198 89q-31 -46 -88 -46q-37 0 -60 18t-23 51q0 37 27.5 59.5t67.5 26.5q0 24 -15.5 46t-42.5 35q-28 -15 -63 -15q-36 0 -59.5 16.5t-23.5 48.5q0 33 24 51.5t60 18.5q12 0 24 -2q4 8 4 19q0 43 -45 64q-33 17 -45 29.5t-12 35.5h-56
q-21 0 -33 12t-12 33v2q0 21 12 33t33 12h933q21 0 33 -12zM539 272v32q-24 -2 -36 -2q-81 0 -132 40t-51 131v95h-142q68 -49 68 -135q0 -26 -7 -48q46 -28 72.5 -72t26.5 -102q55 -13 110 -38t95 -52l3 3q-7 72 -7 148zM539 568h-107v-98q0 -37 18 -50t51 -13q18 0 38 3
v158z" />
    <glyph glyph-name="periodcentered" unicode="&#xb7;" horiz-adv-x="957" 
d="M982 648q12 -12 12 -33v-2q0 -21 -12 -33t-33 -12h-68v-580q0 -66 -52 -66q-29 0 -41 11t-23 35q-9 20 -18.5 32.5t-30 21t-55.5 8.5q-37 0 -74 -4.5t-104 -15.5q-71 -12 -127 -19t-116 -7q-97 0 -152 46t-59 119q-1 57 59 57q22 0 31 -10t15 -29q10 -42 35.5 -63.5
t83.5 -21.5q42 0 96 7v57l-251 129q-48 25 -48 72q0 30 12 47t32 31q117 80 255 100v43h-363q-21 0 -33 12t-12 33v2q0 21 12 33t33 12h963q21 0 33 -12zM768 568h-306v-36q65 -4 118.5 -30.5t85 -74.5t31.5 -111q0 -55 -26.5 -86.5t-69.5 -31.5q-33 0 -54.5 17.5
t-21.5 46.5q0 28 17.5 46t46.5 18q7 0 11 -1q-4 40 -41.5 69t-96.5 33v-318q60 11 100 16.5t81 5.5q44 0 73 -9.5t52 -30.5v477zM349 262v156q-93 -19 -173 -70z" />
    <glyph glyph-name="cedilla" unicode="&#xb8;" horiz-adv-x="728" 
d="M684 169q0 -65 -32 -117t-95 -81.5t-154 -29.5q-124 0 -215.5 59.5t-142.5 167.5q-14 28 -14 47q0 23 16.5 37t40.5 14q17 0 30 -11.5t26 -35.5q83 -173 261 -173q84 0 128 35.5t44 92.5q0 39 -23 62q-22 -24 -60 -24q-35 0 -59 22t-24 59q0 36 22.5 59.5t62.5 23.5
q22 0 40 -9q16 16 25 40t9 47q0 30 -13 52.5t-34 34.5q-20 -39 -32 -55q-15 -23 -29.5 -32t-36.5 -9q-23 0 -36.5 9.5t-28.5 37.5q-20 39 -47 58t-65 19q-26 0 -49 -10t-37 -28l4 -7l31 2q57 0 93 -35.5t36 -91.5q0 -81 -60 -141q-19 -23 -45 -23q-24 0 -40 15t-16 37
q0 18 20 41q19 20 28 36t9 35t-12.5 29.5t-34.5 10.5q-20 0 -37 -5q-18 -4 -32 -4q-28 0 -44 18.5t-16 48.5q0 26 11 51q20 53 73 85.5t117 32.5q111 0 174 -98q39 57 50 70q11 12 19 17t19 5q29 0 69 -26q46 -29 72 -74.5t26 -101.5q0 -82 -56 -146q64 -57 64 -143z" />
    <glyph glyph-name="uni00B9" unicode="&#xb9;" horiz-adv-x="575" 
d="M600 648q12 -12 12 -33v-2q0 -21 -12 -33t-33 -12h-68v-585q0 -25 -14 -39.5t-39 -14.5h-2q-25 0 -39.5 14.5t-14.5 39.5v139q0 74 -36.5 111.5t-95.5 37.5q-51 0 -82 -28t-31 -76q0 -49 38 -68q6 24 25 39t44 15q33 0 53.5 -20.5t20.5 -53.5q0 -40 -28 -63.5t-77 -23.5
q-48 0 -88.5 21t-65 61.5t-24.5 96.5q0 50 19.5 90.5t54.5 66.5q-34 23 -54 60.5t-20 88.5q0 90 57.5 143.5t151.5 53.5q46 0 81.5 -14t56.5 -34v80q0 24 14.5 38t39.5 14h2q25 0 39 -14t14 -38v-46h68q21 0 33 -12zM390 320v102q0 80 -36 117.5t-96 37.5q-52 0 -82.5 -27.5
t-30.5 -75.5q0 -50 38 -69q6 24 25 39t44 15q33 0 53.5 -20t20.5 -53q0 -16 -4 -28q40 -12 68 -38z" />
    <glyph glyph-name="ordmasculine" unicode="&#xba;" horiz-adv-x="904" 
d="M929 648q12 -12 12 -33v-2q0 -21 -12 -33t-33 -12h-359v-88q0 -92 -6 -146l4 -1q41 45 107 88.5t110 51.5q35 2 56 -12q40 -25 40 -71q0 -13 -5 -40q-6 -37 -9.5 -75.5t-3.5 -107.5v-121q0 -26 -14.5 -40.5t-39.5 -14.5h-2q-25 0 -39.5 14.5t-14.5 40.5v124q0 129 17 182
q-69 -42 -171 -141q-23 -21 -40.5 -31.5t-41.5 -10.5q-28 0 -45.5 16t-17.5 48v148q0 86 -41.5 132.5t-113.5 46.5q-34 0 -62 -12t-44 -37l2 -2l30 2q67 0 105.5 -36.5t38.5 -98.5q0 -54 -25.5 -104t-83.5 -105q-21 -19 -45 -19q-22 0 -39 15.5t-17 37.5q0 23 19 42
q41 37 61 70t20 58q0 23 -14 34.5t-39 11.5q-12 0 -34 -4q-20 -4 -34 -4q-31 0 -53 20t-22 53q0 20 8 41q32 73 92 106t128 33q51 0 93 -16.5t70 -46.5v16q0 21 12 33t33 12h430q21 0 33 -12z" />
    <glyph glyph-name="guillemotright" unicode="&#xbb;" horiz-adv-x="785" 
d="M810.5 648q11.5 -12 11.5 -33v-2q0 -21 -11.5 -33t-32.5 -12h-278v-236q59 24 95 35q32 10 51 10q36 0 59 -20.5t23 -52.5q0 -10 -4 -40q-10 -75 -10 -174v-66q0 -26 -13.5 -40t-38.5 -14h-2q-25 0 -39 14t-14 40v67q0 114 13 172q-42 -15 -120 -48v-264q0 -60 -59 -60
q-29 0 -69 17l-219 100q-47 22 -47 72q0 53 43 78q123 70 244 126v110q0 86 -38 131.5t-106 45.5q-64 0 -101 -39l5 -7q16 4 22 4q65 0 99.5 -33.5t34.5 -89.5q0 -39 -13.5 -73.5t-44.5 -68.5q-16 -23 -44 -23q-23 0 -39 14.5t-16 36.5q0 9 3.5 16.5t8.5 14.5t7 10
q18 21 26 36.5t8 33.5q0 20 -12 31t-35 11q-18 0 -42 -6q-22 -6 -35 -6q-27 0 -44.5 17t-17.5 47q0 21 9 40.5t23 40.5q30 46 79.5 70t107.5 24q93 0 155 -57v91q0 24 13.5 38t38.5 14h2q24 0 38.5 -14t14.5 -38v-46h278q21 0 32.5 -12zM393 167q-82 -38 -169 -84l169 -77
v161z" />
    <glyph glyph-name="onequarter" unicode="&#xbc;" horiz-adv-x="745" 
d="M770.5 648q11.5 -12 11.5 -33v-2q0 -21 -11.5 -33t-32.5 -12h-20v-20q0 -72 -39 -112.5t-115 -40.5q-74 0 -121.5 44.5t-52.5 128.5h-236q18 -32 29 -61q28 5 52 5q63 0 111.5 -26.5t75 -73t26.5 -104.5v-5q66 -4 121 -31t87.5 -73.5t32.5 -106.5q0 -55 -27 -90t-77 -35
q-36 0 -58.5 18t-22.5 49q0 30 18.5 47.5t47.5 17.5q13 0 22 -4v1q0 42 -42 69.5t-102 33.5v-232q0 -31 -16 -47.5t-47 -16.5q-34 0 -83 26l-216 114q-44 24 -44 73q0 53 47 83q126 80 250 99v10q0 54 -27 82t-73 28q-14 0 -34 -4q2 -22 2 -31q0 -41 -19.5 -66t-54.5 -25
q-36 0 -56 22.5t-20 57.5q0 64 49 101q-19 29 -37 50t-30 32t-15 13h-38q-21 0 -33 12t-12 33v2q0 21 12 33t33 12h752q21 0 32.5 -12zM616 568h-122q3 -39 18 -61.5t51 -22.5q29 0 42 18.5t13 46.5q0 7 -2 19zM339 27v165q-95 -20 -177 -75z" />
    <glyph glyph-name="onehalf" unicode="&#xbd;" horiz-adv-x="686" 
d="M711 648q12 -12 12 -33v-2q0 -21 -12 -33t-33 -12h-35q1 -7 1 -20q0 -69 -40 -109t-118 -40q-75 0 -120 42.5t-49 126.5h-171q16 -25 29 -57h14q50 0 91 -26t65 -76t24 -118v-2l157 73q11 4 22 7t24 3q28 0 47 -19.5t19 -49.5q0 -13 -4.5 -27.5t-5.5 -18.5
q-10 -26 -16 -55.5t-6 -75.5q0 -48 8 -98q2 -11 4 -31q2 -24 -11.5 -37.5t-39.5 -13.5q-40 0 -49 42q-16 76 -16 145q0 51 15 107l-169 -81q-44 -115 -160 -115q-42 0 -81.5 18.5t-66.5 53.5q-14 18 -14 37q0 21 15 35.5t37 14.5q17 0 32 -13q21 -20 36.5 -30t35.5 -10
q44 0 62.5 39.5t18.5 101.5q0 44 -15 77t-46 37v-12q0 -45 -18.5 -70t-55.5 -25q-35 0 -56 23t-21 64q0 31 12.5 56t34.5 42q-36 48 -79 85h-33q-21 0 -33 12t-12 33v2q0 21 12 33t33 12h692q21 0 33 -12zM542 568h-122q2 -39 17 -60.5t49 -21.5q30 0 44 17.5t14 45.5
q0 7 -2 19z" />
    <glyph glyph-name="threequarters" unicode="&#xbe;" horiz-adv-x="1180" 
d="M1205 648q12 -12 12 -33v-2q0 -21 -12 -33t-32 -12h-639q35 -69 190 -69q28 0 45.5 -9.5t45.5 -32.5q74 -62 197 -62q16 0 32 2l20 1q18 0 31 -5.5t26 -20.5q15 -18 15 -48q0 -18 -8 -45q-10 -35 -15.5 -75t-5.5 -109v-163q0 -24 -14 -38t-39 -14h-2q-25 0 -39 14t-14 38
v165q0 129 26 202h-22q-70 0 -137.5 21.5t-108.5 62.5q-20 -27 -32.5 -55t-12.5 -49q0 -41 52 -41q21 0 37.5 3.5t37.5 10.5q26 8 36 8q32 0 53 -41t21 -97q0 -83 -52.5 -139.5t-167.5 -56.5q-86 0 -155 44t-108 119q-52 -30 -131 -30q-87 0 -153 41t-105.5 118t-47.5 183
q-2 26 12.5 41.5t40.5 16.5q22 0 35 -12.5t15 -35.5q11 -126 64 -188t142 -62q59 0 86.5 28.5t27.5 69.5q0 20 -5 32q-20 -8 -46 -13t-49 -5q-69 0 -106.5 34t-37.5 97q0 89 58 164h-280q-21 0 -33 12t-12 33v2q0 21 12 33t33 12h1187q20 0 32 -12zM492 464q-63 43 -82 104
h-10q-34 -31 -58.5 -74.5t-24.5 -76.5q0 -46 53 -46q33 0 74 13q19 8 33 8q33 0 55 -38.5t22 -98.5q0 -41 -13 -77q22 -70 72.5 -110.5t114.5 -40.5q61 0 89 29t28 71q0 18 -6 31q-41 -16 -91 -16q-66 0 -106 33.5t-40 95.5q0 69 48 140q-95 10 -158 53z" />
    <glyph glyph-name="questiondown" unicode="&#xbf;" 
d="M-80.5 383q47.5 -46 47.5 -124v-375q0 -56 -51 -56q-30 0 -41.5 11.5t-20.5 34.5q-9 26 -24 39.5t-54 13.5q-35 0 -84 -9q-60 -10 -100 -10q-64 0 -114.5 36t-60.5 111q-1 4 -1 13q0 24 13.5 38.5t37.5 15.5q20 1 33 -9.5t22 -33.5q12 -37 33 -52.5t58 -15.5q30 0 79 9
q50 8 72 8q60 0 92 -33v268q0 32 -16.5 50.5t-45.5 18.5q-57 0 -92 -30t-35 -81q0 -12 3 -21q8 16 23.5 25t36.5 9q34 0 54 -20.5t20 -54.5q0 -37 -24.5 -59.5t-71.5 -22.5q-64 0 -103 40t-39 105q0 63 28.5 109.5t80.5 72t119 25.5q78 0 125.5 -46zM-270 180l-2 -1z" />
    <glyph glyph-name="Agrave" unicode="&#xc0;" horiz-adv-x="1023" 
d="M1048 648q12 -12 12 -33v-2q0 -21 -12 -33t-33 -12h-68v-648q0 -73 -64 -73q-25 0 -67 20l-106 52v-91q0 -59 -66 -59q-28 0 -74 22l-192 89q-26 12 -38.5 28.5t-12.5 44.5q0 49 51 77q142 74 232 108v60q0 68 8 121.5t19 87.5h-2q-94 0 -156 46t-89 115h-7
q-33 -28 -56 -66t-23 -68q0 -43 49 -43q29 0 49.5 5.5t23.5 6.5q28 8 39 8q32 0 52 -38.5t20 -95.5q0 -82 -52 -136.5t-160 -54.5q-128 0 -206.5 84.5t-92.5 235.5q-2 28 12.5 43t41.5 15q44 0 50 -47q12 -116 61 -173t133 -57q58 0 86 25t28 69q0 20 -6 33q-40 -17 -93 -17
q-68 0 -106 33t-38 99q0 71 56 139h-265q-21 0 -33 12t-12 33v2q0 21 12 33t33 12h1029q21 0 33 -12zM843 568h-338q17 -35 51.5 -51.5t80.5 -16.5q12 0 20.5 1t15.5 1q37 0 54 -20.5t17 -51.5q0 -15 -9 -47q-11 -40 -18 -82.5t-7 -115.5v-159l133 -66v608zM610 -122v153
q-90 -38 -167 -78z" />
    <glyph glyph-name="Aacute" unicode="&#xc1;" horiz-adv-x="938" 
d="M964 648q12 -12 12 -33v-2q0 -21 -12 -33t-33 -12h-429q2 -111 65 -138q26 44 72 68t97 24q69 0 111.5 -35t42.5 -98q0 -73 -61 -112q31 -15 49.5 -44.5t18.5 -71.5q0 -64 -40.5 -101.5t-109.5 -37.5q-51 0 -93.5 18.5t-68.5 51.5q-29 -47 -81.5 -73.5t-131.5 -26.5
q-101 0 -173 47t-112 129.5t-49 188.5q-3 30 10 49t43 19q26 0 36 -15t13 -38q10 -134 71.5 -206t163.5 -72q77 0 114.5 39t37.5 94q0 19 -4 34q-31 -15 -65 -24t-78 -9q-82 0 -127 41.5t-45 118.5q0 48 17 94.5t43 85.5h-282q-21 0 -33 12t-12 33v2q0 21 12 33t33 12h945
q21 0 33 -12zM428 435q-29 58 -30 133h-6q-32 -40 -55 -87t-23 -86q0 -35 20 -52.5t62 -17.5q55 0 113 28q-52 24 -81 82zM653 390.5q-31 -39.5 -31 -114.5q0 -81 31.5 -121t84.5 -40q31 0 46.5 16t15.5 43q0 28 -18 42.5t-51 14.5q-45 0 -45 44t45 44q33 1 47 16t14 42
q0 25 -16 39t-44 14q-48 0 -79 -39.5z" />
    <glyph glyph-name="Acircumflex" unicode="&#xc2;" horiz-adv-x="778" 
d="M714 287.5q23 -32.5 23 -82.5q0 -68 -40 -107t-109 -39q-41 0 -77 14.5t-63 40.5v-68q0 -26 -14 -40.5t-39 -14.5h-2q-53 0 -53 50v20l-240 116q-45 21 -45 71q0 52 44 76q90 51 187 97q-52 76 -115 76h-5q6 -12 6 -27q0 -28 -18.5 -45.5t-47.5 -17.5q-32 0 -53 20.5
t-21 55.5q0 53 36.5 83t94.5 30q111 0 187 -107l3 1q-12 48 -12 128q0 24 14 37t38 13h2q25 0 39 -13.5t14 -38.5v-64q51 51 124 51q67 0 112 -38t45 -104q0 -80 -71 -125q33 -16 56 -48.5zM611 175q16 17 16 44q0 31 -19 47.5t-55 16.5q-22 0 -37 12t-15 39t15 39t37 12
q33 0 49 17.5t16 45.5q0 27 -16.5 42t-42.5 15q-32 0 -58.5 -19.5t-43 -58t-16.5 -93.5q0 -87 35 -131.5t87 -44.5q32 0 48 17zM340 169v165q-72 -30 -171 -84z" />
    <glyph glyph-name="Atilde" unicode="&#xc3;" horiz-adv-x="726" 
d="M418.5 252q-53.5 46 -67.5 122q-10 -7 -43 -26q12 -53 43 -87.5t84 -73.5q36 -26 57 -45t35 -45.5t14 -61.5q0 -48 -33.5 -85.5t-98.5 -52.5v-4q9 -1 41 -8t74 -21l98 -30q19 -6 27.5 -16t8.5 -27q0 -23 -11 -39.5t-31 -16.5q-10 0 -24 4l-487 151q-21 6 -31.5 17.5
t-10.5 30.5q0 23 13.5 37.5t36.5 14.5q5 0 29 -4q37 -9 69.5 -14.5t75.5 -5.5q145 0 145 75q0 30 -33 56q-67 -58 -160 -58q-98 0 -150 43.5t-52 126.5q0 57 28 97.5t67 65t99 52.5q61 29 89 49.5t28 50.5q0 32 -27.5 49t-69.5 17q-27 0 -50.5 -7t-37.5 -21q18 -6 29 -21.5
t11 -37.5q0 -28 -19.5 -46.5t-52.5 -18.5q-38 0 -61 23t-23 66q0 44 24.5 79.5t70 55.5t105.5 20q50 0 91 -15t67 -43q28 27 63 41.5t72 14.5q66 0 106.5 -34.5t40.5 -95.5q0 -73 -59 -103q65 -34 65 -110q0 -58 -36.5 -94.5t-109.5 -36.5q-75 0 -128.5 46zM464.5 549
q-28.5 -36 -28.5 -103q0 -70 29.5 -108.5t76.5 -38.5q27 0 41 13.5t14 36.5q0 27 -16 37.5t-49 10.5q-42 0 -42 46q0 19 10 32.5t32 13.5q29 0 42.5 12.5t13.5 37.5q0 22 -14 34t-40 12q-41 0 -69.5 -36zM222 304q-35 -20 -54.5 -42.5t-19.5 -53.5q0 -34 22.5 -52t66.5 -18
q43 0 76 23q-69 60 -91 143z" />
    <glyph glyph-name="Adieresis" unicode="&#xc4;" horiz-adv-x="796" 
d="M735.5 224.5q5.5 -10.5 5.5 -26.5q0 -13 -7 -41q-8 -34 -13 -69t-5 -98v-154q0 -25 -14.5 -39t-38.5 -14h-2q-25 0 -39.5 14t-14.5 39v156q0 142 33 206q-28 -7 -56 -7q-63 0 -114.5 36t-73.5 97l-27 -28q-35 -36 -51 -59t-16 -50q0 -23 15.5 -36.5t48.5 -13.5
q21 0 36.5 3.5t39.5 10.5q28 8 37 8q36 0 54 -39.5t18 -93.5q0 -90 -57 -143.5t-165 -53.5q-128 0 -206.5 81t-91.5 224q-2 27 12 44t42 17q21 1 33.5 -10.5t15.5 -33.5q12 -117 65 -171t135 -54q57 0 87 26.5t30 74.5q0 16 -8 34q-40 -17 -90 -17q-76 0 -116.5 39.5
t-40.5 103.5q0 40 15.5 74.5t37.5 61t57 62.5q39 39 57 63.5t18 51.5q0 32 -27.5 50.5t-71.5 18.5q-31 0 -56.5 -10t-37.5 -28q20 -6 32 -23.5t12 -38.5q0 -29 -19 -47.5t-52 -18.5q-39 0 -63.5 25.5t-24.5 69.5q0 52 28 90t74.5 58t99.5 20q52 0 94.5 -15t69.5 -44
q29 28 65 42.5t74 14.5q66 0 108 -33.5t42 -95.5q0 -70 -59 -104q28 -13 46.5 -40t18.5 -63q0 -43 -21 -76l3 -3q14 -14 19.5 -24.5zM638 334q0 26 -16.5 37.5t-51.5 11.5q-24 0 -35.5 13t-11.5 32q0 18 12 31.5t35 13.5q32 0 46 12.5t14 37.5q0 23 -15 35t-43 12
q-42 0 -71.5 -36.5t-29.5 -103.5q0 -69 31 -107.5t78 -38.5q58 0 58 50z" />
    <glyph glyph-name="Aring" unicode="&#xc5;" horiz-adv-x="847" 
d="M785.5 235q-13.5 -30 -40.5 -49v-241q0 -36 -15 -54t-47 -18q-25 0 -69 23l-100 54v-80q0 -63 -61 -63q-30 0 -82 26l-198 97q-46 23 -46 72q0 52 43 73q113 57 232 98q-16 28 -62 28q-23 0 -67 -8q-50 -10 -83 -10q-64 0 -108.5 35t-56.5 110q-1 5 -1 14q0 25 14.5 38.5
t39.5 13.5q19 0 29.5 -10.5t18.5 -33.5q19 -69 83 -69q23 0 65 8q40 8 61 8q26 0 43.5 -6.5t33.5 -20.5v240q0 64 -61 64q-30 0 -54 -15t-38 -39t-14 -49q0 -8 1 -11q18 18 45 18q31 0 49 -19.5t18 -49.5q0 -32 -23 -53t-65 -21q-56 0 -89.5 36t-33.5 96q0 59 28 105t75 71
t102 25q48 0 85 -18.5t57 -55.5q50 72 143 72q70 0 113 -36.5t43 -100.5q0 -37 -17.5 -63.5t-49.5 -47.5q73 -39 73 -116q0 -37 -13.5 -67zM573 556.5q-28 -17.5 -45.5 -53t-17.5 -86.5q0 -78 35.5 -121.5t91.5 -43.5q33 0 48.5 15.5t15.5 42.5t-19.5 42t-55.5 15
q-52 0 -52 48q0 22 13.5 36t38.5 14q32 0 49.5 14t17.5 40q0 25 -15 40t-46 15t-59 -17.5zM643 -7v169q-83 3 -129 54v-153zM414 -81v155q-109 -41 -171 -73z" />
    <glyph glyph-name="AE" unicode="&#xc6;" horiz-adv-x="655" 
d="M680.5 648q11.5 -12 11.5 -33v-2q0 -21 -11.5 -33t-32.5 -12h-370v-299q0 -31 19 -44t59 -13q62 0 103 36.5t41 96.5q0 26 -8 41.5t-22 20.5q-2 -26 -18.5 -42.5t-43.5 -16.5q-30 0 -48.5 17.5t-18.5 47.5q0 42 31 65.5t76 23.5q66 0 108 -40.5t42 -120.5q0 -52 -23 -100
q17 -26 27 -61.5t10 -72.5q0 -109 -65 -174t-198 -65q-134 0 -217.5 75t-116.5 208q-3 9 -3 23q0 23 16.5 37t41.5 14q20 0 30.5 -11.5t16.5 -33.5q52 -211 233 -211q157 0 157 138q0 22 -7 46q-65 -44 -149 -44t-134.5 39.5t-50.5 120.5v299h-180q-21 0 -33 12t-12 33v2
q0 21 12 33t33 12h496q1 7 1 17q0 37 -19.5 54.5t-59.5 17.5q-21 0 -49.5 -1t-43.5 -2q-64 -4 -102 -4q-70 0 -110 34.5t-40 96.5t56 62q53 0 56 -53q1 -26 18.5 -36t56.5 -10q26 0 47.5 1t37.5 2q66 4 107 4q73 0 112 -41t39 -115l-1 -27h60q21 0 32.5 -12z" />
    <glyph glyph-name="Ccedilla" unicode="&#xc7;" horiz-adv-x="1112" 
d="M1137.5 648q11.5 -12 11.5 -33v-2q0 -21 -11.5 -33t-32.5 -12h-303v-165q0 -20 8.5 -29t25.5 -9q23 0 41.5 9t43.5 25q20 13 32 19t25 6q48 0 73 -50t25 -117q0 -68 -27.5 -126.5t-87.5 -95t-152 -36.5q-90 0 -160.5 38t-109.5 102q-67 -69 -195 -69q-106 0 -176.5 48
t-104 129t-36.5 182q-1 26 15.5 41t39.5 15q22 0 36 -13t15 -37q8 -130 61 -196t150 -66q74 0 113 34.5t39 92.5q0 32 -10 50q-20 -17 -54 -33.5t-77 -16.5q-55 0 -89.5 29.5t-34.5 89.5v149h-245q-21 0 -33 12t-12 33v2q0 21 12 33t33 12h1119q21 0 32.5 -12zM725.5 289.5
q-36.5 32.5 -36.5 93.5v185h-347v-123q0 -21 8.5 -30.5t26.5 -9.5q21 0 38 7.5t40 22.5q20 13 32.5 19t27.5 6q43 0 64.5 -48.5t21.5 -110.5q0 -58 24 -103.5t70 -71t108 -25.5q88 0 128.5 46t40.5 112q0 36 -12 54q-2 -1 -20.5 -16t-51 -27.5t-66.5 -12.5q-60 0 -96.5 32.5
z" />
    <glyph glyph-name="Egrave" unicode="&#xc8;" horiz-adv-x="906" 
d="M931 648q12 -12 12 -33v-2q0 -21 -12 -33t-32 -12h-369v-397q0 -37 18.5 -52.5t52.5 -15.5q49 0 85.5 27.5t55.5 71.5t19 91q0 29 -8.5 48.5t-24.5 24.5q-1 -30 -20 -49t-50 -19q-32 0 -53 19t-21 53q0 46 33.5 71t83.5 25q47 0 85 -21.5t60 -61.5t22 -94
q0 -74 -30.5 -139.5t-91 -106t-145.5 -40.5q-86 0 -137 43t-51 125v225q0 85 -40 125.5t-105 40.5q-57 0 -91 -33.5t-34 -91.5q0 -34 13 -57t36 -34q5 26 24.5 43t46.5 17q33 0 53.5 -22t20.5 -56q0 -41 -28.5 -67t-78.5 -26q-54 0 -98.5 23t-71 69t-26.5 111q0 72 29 123
t78.5 77t110.5 26q51 0 92.5 -16t68.5 -47v19q0 19 11 29.5t29 10.5h293q4 19 4 41q0 37 -20 54.5t-62 17.5q-32 0 -57.5 -1t-43.5 -2q-74 -4 -112 -4q-70 0 -110 34.5t-40 96.5q0 29 14 45.5t42 16.5q53 0 56 -53q1 -25 19 -35.5t57 -10.5q27 0 50.5 1t41.5 2q76 4 116 4
q76 0 115.5 -41t39.5 -115q0 -21 -4 -51h47q20 0 32 -12z" />
    <glyph glyph-name="Eacute" unicode="&#xc9;" horiz-adv-x="813" 
d="M838 648q12 -12 12 -33v-2q0 -21 -12 -33t-33 -12h-187l25 -38q73 -107 100 -173t27 -127q0 -103 -57.5 -168t-172.5 -65q-79 0 -135.5 34.5t-85.5 95t-29 136.5q0 24 5 33t12.5 14l10.5 7q29 14 44 47t15 75q0 67 -34.5 104.5t-97.5 37.5q-51 0 -80.5 -29t-29.5 -78
q0 -37 23 -56q4 27 23.5 44.5t46.5 17.5q32 0 53 -21.5t21 -55.5q0 -42 -28 -66.5t-79 -24.5q-81 0 -124 45t-43 119q0 91 56.5 147.5t161.5 56.5q71 0 124 -31.5t81.5 -85.5t28.5 -120q0 -49 -20 -97q34 23 47.5 59t13.5 80q0 46 -27 85l-30 48q-42 69 -61.5 114t-19.5 87
q1 69 40 105.5t104 36.5q33 0 47.5 -12t14.5 -35q0 -34 -21 -42q-7 -2 -32 -4q-22 -2 -35.5 -15.5t-13.5 -40.5q0 -51 54 -130l15 -22h249q21 0 33 -12zM648 321q-17 42 -53 101h-3q-5 -170 -191 -201q4 -57 42 -90t97 -33t92 36.5t33 99.5q0 45 -17 87z" />
    <glyph glyph-name="Ecircumflex" unicode="&#xca;" horiz-adv-x="838" 
d="M863 648q12 -12 12 -33v-2q0 -21 -12 -33t-33 -12h-305v-249q0 -22 8 -31t25 -9q23 0 42 10t46 29q20 15 33.5 22.5t26.5 7.5q31 0 55 -27.5t36.5 -69t12.5 -82.5q0 -69 -30 -125.5t-92 -89.5t-154 -33q-105 0 -182.5 50.5t-119.5 142.5q-8 14 -8 32q0 24 16 39t42 15
q16 0 26 -9t18 -25q29 -71 82.5 -107t127.5 -36q60 0 97.5 22t54.5 55.5t17 70.5q0 44 -14 65q-21 -22 -60 -44t-89 -22q-59 0 -94 32.5t-35 93.5v100q0 85 -40 125.5t-105 40.5q-57 0 -91 -33t-34 -89q0 -33 13 -55.5t36 -33.5q4 27 23.5 44t47.5 17q32 0 53 -22t21 -56
q0 -41 -29 -67t-79 -26q-53 0 -97.5 23.5t-71 69t-26.5 108.5q0 71 29 121t78.5 75.5t110.5 25.5q51 0 92.5 -16t68.5 -47v19q0 19 10.5 29.5t29.5 10.5h377q21 0 33 -12z" />
    <glyph glyph-name="Edieresis" unicode="&#xcb;" horiz-adv-x="630" 
d="M655 648q12 -12 12 -33v-2q0 -21 -12 -33t-33 -12h-636q-21 0 -33 12t-12 33v2q0 21 12 33t33 12h636q21 0 33 -12zM595 106q0 -81 -55.5 -135.5t-170.5 -54.5q-99 0 -172.5 47t-115 130t-48.5 191q-2 27 12.5 43.5t42.5 16.5q46 0 52 -51q10 -134 70.5 -205.5
t161.5 -71.5q62 0 91.5 27.5t29.5 66.5q0 36 -22 55q-11 -12 -27.5 -18.5t-34.5 -6.5q-35 0 -58 20t-23 54q0 33 22 54.5t61 21.5q22 0 40 -9q28 30 28 74q0 37 -25.5 58t-67.5 21q-25 0 -45 -8t-31 -23q34 -16 34 -59q0 -28 -18.5 -46.5t-50.5 -18.5q-37 0 -59.5 25
t-22.5 67q0 44 22.5 80t65.5 57t100 21q61 0 107 -22t71 -61.5t25 -89.5q0 -66 -47 -123q58 -47 58 -127z" />
    <glyph glyph-name="Igrave" unicode="&#xcc;" horiz-adv-x="847" 
d="M872 648q12 -12 12 -33v-2q0 -21 -12 -33t-32 -12h-69v-608q0 -26 -15 -41.5t-42 -15.5h-2q-27 0 -42 15.5t-15 41.5v33l-532 149q-42 11 -42 48q0 23 13 39t36 16q11 0 41 -4q54 -7 89 -7q109 0 168 52t59 140q0 63 -28 107q-22 -33 -33 -48q-24 -29 -59 -29
q-47 0 -61 41q-15 41 -34 59t-56 18q-38 0 -60 -27t-22 -71q0 -43 21 -64q8 20 25.5 32.5t40.5 12.5q33 0 54 -21.5t21 -55.5q0 -37 -26.5 -61t-73.5 -24t-85.5 21.5t-61 63t-22.5 97.5q0 91 49.5 145.5t130.5 54.5q56 0 97.5 -25t65.5 -73l28 46q4 5 14 20t18.5 21t18.5 6
q32 0 65.5 -38.5t55.5 -96.5t22 -112q0 -86 -41 -156t-134 -100l238 -67v599q0 27 15 42t42 15h2q27 0 42 -15t15 -42v-41h69q20 0 32 -12z" />
    <glyph glyph-name="Iacute" unicode="&#xcd;" 
d="M-176.5 221q44.5 -25 70 -72.5t25.5 -112.5q0 -67 -28.5 -120.5t-84 -84t-133.5 -30.5q-145 0 -216.5 91.5t-83.5 244.5q-2 29 12.5 46t45.5 18q26 0 37 -15.5t12 -34.5q11 -250 194 -250q63 0 101 37.5t38 102.5q0 51 -24.5 78.5t-66.5 27.5q-30 0 -51 -17q24 -6 39 -25
t15 -44q0 -31 -19.5 -50.5t-52.5 -19.5q-43 0 -67 29t-24 79q0 65 43.5 106t117.5 41q56 0 100.5 -25z" />
    <glyph glyph-name="Icircumflex" unicode="&#xce;" horiz-adv-x="635" 
d="M660 648q12 -12 12 -33v-2q0 -21 -12 -33t-33 -12h-641q-21 0 -33 12t-12 33v2q0 21 12 33t33 12h641q21 0 33 -12zM507 484.5q46 -45.5 48 -135.5v-361q0 -56 -52 -56q-29 0 -40 11.5t-18 33.5q-6 18 -12.5 28.5t-22 18t-43.5 7.5q-24 0 -72 -8q-52 -10 -89 -10
q-69 0 -121 37t-64 115q-1 5 -1 14q0 25 15 39t40 14q36 0 51 -42q10 -40 33.5 -57.5t65.5 -17.5q29 0 69 9q44 8 67 8q24 0 44 -6.5t38 -23.5v262q0 35 -16.5 52t-51.5 17q-54 0 -89.5 -33t-35.5 -78q0 -14 4 -25q7 16 23.5 25t36.5 9q34 0 54 -21.5t20 -54.5
q0 -35 -24.5 -58t-67.5 -23q-68 0 -107 39t-39 106t30.5 114.5t82 72t112.5 24.5q86 0 132 -45.5z" />
    <glyph glyph-name="Idieresis" unicode="&#xcf;" horiz-adv-x="754" 
d="M780 648q12 -12 12 -33v-2q0 -21 -12 -33t-33 -12h-569v-57q0 -70 -4 -120l3 -2q69 71 130 100q24 11 50 11q34 0 57.5 -24t23.5 -60v-38q0 -70 -6 -120l4 -2q71 75 139 106q26 11 47 11q37 0 57.5 -22t20.5 -60q0 -11 -4 -39q-4 -34 -6 -62t-2 -81v-91
q0 -25 -14.5 -39.5t-39.5 -14.5h-2q-25 0 -39.5 14t-14.5 40v93q0 88 9 135q-48 -35 -111 -94q-25 -21 -45 -31t-40 -10q-29 0 -46 16t-17 50v66q0 51 3 138q-48 -33 -112 -93q-27 -23 -46.5 -34t-41.5 -11q-31 0 -48.5 16.5t-17.5 51.5v257h-79q-21 0 -33 12t-12 33v2
q0 21 12 33t33 12h761q21 0 33 -12z" />
    <glyph glyph-name="Eth" unicode="&#xd0;" horiz-adv-x="780" 
d="M805.5 648q11.5 -12 11.5 -33v-2q0 -21 -11.5 -33t-32.5 -12h-306v-162q0 -22 8.5 -31.5t26.5 -9.5q19 0 36.5 8t44.5 25q22 14 34.5 20t24.5 6q48 0 74 -51.5t26 -121.5q0 -66 -28.5 -124t-90 -94.5t-156.5 -36.5q-111 0 -185.5 53.5t-114.5 149.5q-5 12 -5 23
q0 24 17 37.5t42 13.5q16 0 26.5 -9t19.5 -28q58 -138 200 -138q58 0 96.5 23t56 57.5t17.5 72.5q0 44 -13 64q-20 -18 -55 -36.5t-83 -18.5q-132 0 -132 164v24q-4 61 -35 93t-84 32q-48 0 -74 -25.5t-26 -70.5q0 -21 7.5 -39t22.5 -28q5 21 22.5 34t42.5 13q32 0 51 -18
t19 -48q0 -37 -27 -58.5t-74 -21.5q-73 0 -119.5 46.5t-46.5 126.5q0 82 48 132.5t137 50.5q46 0 81.5 -14.5t55.5 -38.5v1q0 21 12 33t33 12h373q21 0 32.5 -12z" />
    <glyph glyph-name="Ntilde" unicode="&#xd1;" horiz-adv-x="547" 
d="M91 279q-24 0 -36.5 13t-12.5 37v2q0 23 12.5 36t36.5 13h365q24 0 36.5 -13t12.5 -36v-2q0 -24 -12.5 -37t-36.5 -13h-365z" />
    <glyph glyph-name="Ograve" unicode="&#xd2;" horiz-adv-x="545" 
d="M182 606q29 -3 47 -22t18 -50q0 -34 -22.5 -58t-58.5 -24q-40 0 -65 26.5t-25 75.5q0 60 32.5 107t81.5 78q10 7 22 7q15 0 25 -11t10 -26q0 -13 -15 -24q-47 -37 -50 -79zM446 584q18 -19 18 -50q0 -34 -22.5 -58t-58.5 -24q-40 0 -65 26.5t-25 75.5q0 60 32.5 107
t81.5 78q10 7 22 7q15 0 25 -11t10 -26q0 -13 -15 -24q-47 -37 -50 -79q29 -3 47 -22z" />
    <glyph glyph-name="Oacute" unicode="&#xd3;" horiz-adv-x="545" 
d="M227 722q25 -27 25 -76q0 -59 -33 -106.5t-82 -78.5q-9 -6 -21 -6q-15 0 -25 11t-10 26q0 12 14 24q22 17 36 37.5t15 40.5q-29 3 -47 22.5t-18 50.5q0 34 22.5 58t58.5 24q40 0 65 -27zM444 722q25 -27 25 -76q0 -59 -33 -106.5t-81 -78.5q-10 -6 -22 -6q-15 0 -25 11
t-10 26q0 12 15 24q22 17 35.5 37t14.5 41q-29 3 -47 22.5t-18 50.5q0 34 22.5 58t58.5 24q40 0 65 -27z" />
    <glyph glyph-name="Ocircumflex" unicode="&#xd4;" horiz-adv-x="267" 
d="M218 584q18 -19 18 -50q0 -34 -22.5 -58t-58.5 -24q-40 0 -65.5 26.5t-25.5 75.5q0 60 33 107t82 78q8 7 22 7q15 0 25 -11t10 -26q0 -12 -15 -24q-48 -38 -51 -79q30 -3 48 -22z" />
    <glyph glyph-name="Otilde" unicode="&#xd5;" horiz-adv-x="328" 
d="M225 722.5q25 -26.5 25 -75.5q0 -60 -33 -107t-82 -78q-8 -7 -22 -7t-24 11t-10 26q0 13 14 24q48 38 51 79q-30 3 -47.5 22t-17.5 50q0 34 22 58t58 24q41 0 66 -26.5z" />
    <glyph glyph-name="Odieresis" unicode="&#xd6;" 
d="M-129 -225q-26 0 -36.5 11t-19.5 33q-8 19 -16 30t-24.5 19t-45.5 8q-26 0 -55.5 -4t-37.5 -5q-66 -10 -103 -10q-73 0 -124 39t-62 119q-1 4 -1 12q0 25 15 40t40 15q38 0 53 -43q10 -45 32 -62t64 -17q33 0 89 9q58 8 81 8q59 0 91 -32l2 155q0 25 14.5 38.5t40.5 13.5
t41 -13.5t15 -37.5v-268q0 -58 -53 -58z" />
    <glyph glyph-name="multiply" unicode="&#xd7;" horiz-adv-x="735" 
d="M760 648q12 -12 12 -33v-2q0 -21 -12 -33t-32 -12h-553v-45q0 -60 -4 -100l5 -3q40 27 133 65q31 13 59 13q41 0 63 -23t22 -66q0 -20 -2 -66q64 25 95 34q30 10 53 10q30 0 54 -22.5t24 -54.5q0 -8 -4 -40q-5 -39 -8 -74t-3 -98v-70q0 -25 -13.5 -39t-38.5 -14h-2
q-25 0 -39 14t-14 39v71q0 108 12 173q-43 -14 -119 -45v-265q0 -59 -59 -59q-31 0 -65 16l-213 100q-48 23 -48 76q0 57 48 84q115 65 231 117q2 39 4 57q2 30 2 39q-51 -25 -128 -66q-6 -3 -25.5 -13.5t-36 -16t-30.5 -5.5q-62 0 -62 61v216h-80q-21 0 -33 12t-12 33v2
q0 21 12 33t33 12h742q20 0 32 -12zM341 180q-79 -37 -166 -82l166 -77v159z" />
    <glyph glyph-name="Oslash" unicode="&#xd8;" horiz-adv-x="516" 
d="M541 648q12 -12 12 -33v-2q0 -21 -12 -33t-33 -12h-325v-34q0 -62 -7 -120l3 -2q53 30 113 56.5t93 26.5q32 0 53.5 -19.5t21.5 -52.5q0 -12 -6 -48q-6 -41 -9.5 -71.5t-3.5 -79.5v-273q0 -35 -17 -52t-49 -17q-28 0 -74 21l-180 82q-34 15 -49.5 36t-15.5 56t14 57.5
t41 38.5q67 42 226 118q4 59 15 94q-38 -18 -129 -70q-31 -18 -49 -24t-42 -6q-31 0 -48.5 15t-17.5 47v221h-80q-21 0 -33 12t-12 33v2q0 21 12 33t33 12h522q21 0 33 -12zM336 0v174q-90 -44 -181 -93z" />
    <glyph glyph-name="Ugrave" unicode="&#xd9;" horiz-adv-x="816" 
d="M841 648q12 -12 12 -33v-2q0 -21 -12 -33t-32 -12h-69v-536q0 -30 -12.5 -43t-38.5 -13q-23 0 -39 11t-39 34q-31 33 -67 57t-71 30v-3q0 -40 -20 -64t-59 -24q-38 0 -61 22.5t-23 60.5q0 33 14 57t38 38q1 112 16 162q-64 -38 -159 -130q-24 -24 -43.5 -34.5
t-46.5 -10.5q-28 0 -45.5 15.5t-17.5 48.5v322h-80q-21 0 -33 12t-12 33v2q0 21 12 33t33 12h823q20 0 32 -12zM628 288v280h-446v-78q0 -91 -6 -145l3 -2q42 45 108.5 88t107.5 50q31 3 55 -14q40 -25 40 -67q0 -13 -5 -40q-5 -36 -8.5 -66t-4.5 -81q41 -6 84.5 -25.5
t75.5 -48.5l3 1q-7 77 -7 148z" />
    <glyph glyph-name="Uacute" unicode="&#xda;" horiz-adv-x="683" 
d="M708 648q12 -12 12 -33v-2q0 -21 -12 -33t-33 -12h-191l32 -48q72 -106 100.5 -171.5t28.5 -132.5q0 -103 -55 -165.5t-172 -62.5q-79 0 -135.5 32t-86 87.5t-29.5 126.5q0 56 48 64q68 9 107 33q-68 72 -149 72h-8q6 -13 6 -30q0 -31 -19.5 -50t-51.5 -19q-35 0 -58 22
t-23 61q0 57 40.5 87t105.5 30q127 0 223 -94q9 29 9 61q0 37 -18 73l-15 24h-378q-21 0 -33 12t-12 33v2q0 21 12 33t33 12h321q-28 47 -41 80.5t-13 68.5q1 69 39 106t103 37q33 0 47.5 -12t14.5 -35q0 -34 -21 -42q-7 -2 -32 -4q-21 -2 -34.5 -15.5t-13.5 -40.5
q0 -25 13.5 -54.5t40.5 -70.5l12 -18h253q21 0 33 -12zM525.5 311q-16.5 39 -53.5 99h-3q-5 -171 -190 -202q2 -54 39 -87t97 -33q63 0 95 37t32 102q0 45 -16.5 84z" />
    <glyph glyph-name="Ucircumflex" unicode="&#xdb;" horiz-adv-x="869" 
d="M916.5 648q11.5 -12 11.5 -33v-2q0 -21 -11.5 -33t-32.5 -12h-390v-163q0 -21 7.5 -30.5t24.5 -9.5q21 0 39.5 8.5t42.5 24.5q20 14 34 20.5t28 6.5q50 0 74.5 -52t24.5 -116q0 -68 -27.5 -126.5t-87.5 -95t-153 -36.5q-160 0 -235.5 80.5t-94.5 193.5q-1 26 14.5 39
t37.5 13t33.5 -12t19.5 -38q18 -78 72 -126t154 -48q84 0 123 45t39 114q0 36 -12 57q-65 -60 -141 -60q-71 0 -106 45q-69 50 -102 73t-66 37.5t-63 14.5q-12 0 -18 -1q14 -17 14 -42q0 -31 -19.5 -50t-52.5 -19q-35 0 -57.5 22.5t-22.5 60.5q0 57 40.5 93t114.5 36
q41 0 97 -20.5t112 -55.5v117h-397q-22 0 -33.5 12t-11.5 33v2q0 21 11.5 33t33.5 12h899q21 0 32.5 -12z" />
    <glyph glyph-name="Udieresis" unicode="&#xdc;" horiz-adv-x="764" 
d="M789.5 648q11.5 -12 11.5 -33v-2q0 -21 -11.5 -33t-32.5 -12h-279v-185q103 42 142 42q31 0 51 -13q35 -19 35 -63q0 -8 -4 -36q-10 -70 -10 -172v-66q0 -25 -13.5 -39t-38.5 -14h-2q-26 0 -43.5 14.5t-17.5 38.5v67q0 105 20 172q-61 -23 -119 -46v-267q0 -59 -61 -59
q-31 0 -67 17l-220 102q-47 24 -47 72q0 56 44 79q92 51 183 96q-32 43 -63 61.5t-65 18.5h-9q6 -13 6 -30q0 -30 -20.5 -49t-51.5 -19q-36 0 -58.5 22t-22.5 58q0 59 40.5 90t104.5 31q119 0 196 -99l3 1q-9 79 -9 172v3h-375q-21 0 -33 12t-12 33v2q0 21 12 33t33 12h771
q21 0 32.5 -12zM366 59v159q-90 -42 -165 -81z" />
    <glyph glyph-name="Yacute" unicode="&#xdd;" horiz-adv-x="765" 
d="M790.5 648q11.5 -12 11.5 -33v-2q0 -21 -11.5 -33t-32.5 -12h-69v-522q0 -26 -14 -40.5t-39 -14.5h-2q-26 0 -43.5 15t-17.5 40v203q0 31 -7 44t-25 13q-21 0 -35 -17.5t-34 -57.5q-22 -42 -40 -68.5t-49 -45.5t-75 -19q-42 0 -76.5 17t-58.5 51q-12 16 -12 35
q0 23 15.5 37.5t37.5 14.5q13 0 22 -6t21 -19q11 -14 22.5 -21t26.5 -7q30 0 51 23q-66 79 -115 121t-94 42h-4q7 -13 7 -31q0 -31 -19.5 -49.5t-51.5 -18.5q-36 0 -59 22.5t-23 61.5q0 53 36.5 83t92.5 30q73 0 140.5 -45.5t137.5 -134.5l9 20q-22 58 -58 100.5t-75 64.5
q-31 19 -42 34.5t-11 44.5h-257q-21 0 -33 12t-12 33v2q0 21 12 33t33 12h787q21 0 32.5 -12zM573 568h-226q44 -30 78 -69.5t62 -95.5q19 7 39 7q31 0 47 -16v174z" />
    <glyph glyph-name="Thorn" unicode="&#xde;" horiz-adv-x="1001" 
d="M1026 648q12 -12 12 -33v-2q0 -21 -12 -33t-33 -12h-368v-397q0 -37 18.5 -52.5t52.5 -15.5q47 0 83.5 27t56.5 71t20 91q0 28 -8.5 47t-24.5 24q-2 -29 -20.5 -47t-48.5 -18q-33 0 -54 19t-21 52q0 47 33.5 72t83.5 25q47 0 84.5 -21.5t59.5 -61.5t22 -94
q0 -73 -31.5 -139t-91.5 -106.5t-143 -40.5q-86 0 -136.5 43t-50.5 125v253l-265 -210q-17 -14 -36 -14q-20 0 -36.5 16.5t-16.5 36.5q0 25 25 45l60 48q-28 46 -60 61t-87 13q-31 -1 -48 15t-17 47t17 59q36 64 98.5 98.5t134.5 34.5q139 0 225 -119l6 5v60q0 19 10.5 29.5
t28.5 10.5h296q3 21 3 41q0 37 -19.5 54.5t-58.5 17.5q-21 0 -45 -1.5t-36 -1.5q-58 -4 -108 -4q-75 0 -116.5 34t-41.5 97q0 29 14 45.5t42 16.5q53 0 56 -53q1 -26 18 -36t56 -10q23 0 52 1.5t43 1.5q64 4 100 4q72 0 111.5 -41.5t39.5 -114.5q0 -9 -1.5 -25.5t-2.5 -25.5
h43q21 0 33 -12zM244.5 482q38.5 -24 71.5 -76l110 88q-34 43 -69 61.5t-76 18.5t-74.5 -18t-56.5 -50h2q54 0 92.5 -24z" />
    <glyph glyph-name="germandbls" unicode="&#xdf;" horiz-adv-x="719" 
d="M744 648q12 -12 12 -33v-2q0 -21 -12 -33t-33 -12h-120v-259q44 -26 69 -73t25 -107q0 -110 -64 -177t-185 -67q-123 0 -198 71t-98 186q-3 11 -3 21q0 24 15.5 38t43.5 14q38 0 46 -45q16 -86 63 -135.5t130 -49.5q68 0 106 39.5t38 105.5q0 53 -26 80t-66 27
q-25 0 -51 -17q23 -6 36.5 -25t13.5 -45q0 -32 -19.5 -50.5t-52.5 -18.5q-90 0 -90 104q0 65 44.5 107t114.5 44v106l-239 -171q-17 -13 -38 -13t-36.5 15t-15.5 36q0 26 25 43l41 29q-23 32 -48 44.5t-57 12.5q-26 0 -42 5q-18 6 -28.5 22t-10.5 39q0 28 15 55
q36 58 94.5 89t124.5 31q130 0 210 -112l5 3v131q0 27 13.5 42t40.5 15h2q26 0 39 -15t13 -42v-41h120q21 0 33 -12zM294 434l109 78q-53 72 -130 72q-40 0 -73.5 -17t-56.5 -49h6q85 0 145 -84z" />
    <glyph glyph-name="agrave" unicode="&#xe0;" horiz-adv-x="606" 
d="M631 648q12 -12 12 -33v-2q0 -21 -12 -33t-33 -12h-68v-633q0 -27 -14 -42t-40 -15h-2q-26 0 -40 15t-14 42v149q0 86 -38.5 132.5t-111.5 46.5q-34 0 -62.5 -12.5t-44.5 -36.5l2 -3l31 2q64 0 103.5 -34t39.5 -94q0 -37 -14.5 -73t-48.5 -76q-23 -25 -50 -25
q-24 0 -41 15.5t-17 37.5q0 20 20 43q19 20 30 37.5t11 35.5q0 21 -13 33t-38 12q-10 0 -20 -1.5t-15 -1.5q-15 -3 -32 -3q-35 0 -55 20.5t-20 49.5q0 33 18 62q61 99 170 112q5 15 5 29q0 47 -52 47q-18 0 -38 -5q-22 -4 -34 -4q-33 0 -51.5 19.5t-18.5 50.5q0 23 9 44
q30 69 89 100.5t127 31.5q104 0 160 -61v86q0 27 13.5 42t40.5 15h2q26 0 40 -15t14 -42v-41h68q21 0 33 -12zM420 395q0 87 -38 133t-113 46q-74 0 -106 -46l2 -2q24 2 31 2q65 0 104 -35t39 -97q0 -22 -4 -41q53 -15 85 -52v92z" />
    <glyph glyph-name="aacute" unicode="&#xe1;" horiz-adv-x="873" 
d="M899 648q12 -12 12 -33v-2q0 -21 -12 -33t-33 -12h-69v-515q0 -53 -51 -53q-24 0 -40 11.5t-43 39.5q-61 66 -129 80v-2q0 -40 -20 -64t-59 -24t-61.5 22.5t-22.5 60.5q0 62 48 93v170q0 89 -41.5 136t-113.5 47q-34 0 -62 -12t-44 -37l1 -3q18 3 30 3q63 0 104 -37
t41 -98q0 -108 -114 -215q-19 -19 -44 -19q-22 0 -39.5 16t-17.5 38q0 21 20 41q41 38 63 72t22 62q0 23 -14 34.5t-39 11.5q-13 0 -37 -6q-4 -1 -14.5 -3t-20.5 -2q-30 0 -52 21.5t-22 54.5q0 21 8 40q33 74 93.5 107t129.5 33q50 0 92.5 -16t70.5 -45v90q0 27 15 42t42 15
h2q26 0 41.5 -15t15.5 -42v-41h331q21 0 33 -12zM685 311v257h-150v-332q41 -6 82 -25.5t72 -47.5l3 2q-7 75 -7 146z" />
    <glyph glyph-name="acircumflex" unicode="&#xe2;" horiz-adv-x="836" 
d="M861 648q12 -12 12 -33v-2q0 -21 -12 -33t-33 -12h-439v-47q47 -39 111 -59t132 -20q30 0 60 2q9 1 24 1q23 0 37 -4.5t26 -19.5q14 -17 14 -49q0 -19 -8 -48q-9 -37 -14.5 -77t-5.5 -108v-208q0 -25 -14 -39t-39 -14h-2q-25 0 -39.5 14t-14.5 39v210q0 137 24 201
q-7 -1 -24 -1q-70 0 -144 16.5t-123 52.5v-157q0 -18 8.5 -25t23.5 -7q18 0 32.5 4t31.5 11q2 1 16 6.5t27 5.5q34 0 53.5 -36.5t19.5 -90.5q0 -89 -54.5 -147t-166.5 -58q-120 0 -191.5 62t-95.5 168q-3 12 -3 22q0 24 15.5 37.5t41.5 13.5q21 0 30.5 -12t15.5 -34
q38 -159 186 -159q59 0 90.5 29.5t31.5 75.5q0 17 -6 29q-46 -22 -94 -22q-96 0 -114 78l-210 102q-45 21 -45 74q0 28 12 45.5t34 28.5q47 25 103.5 48.5t101.5 39.5v26h-297q-21 0 -33 12t-12 33v2q0 21 12 33t33 12h842q21 0 33 -12zM283 438q-89 -35 -142 -60l142 -69
v129z" />
    <glyph glyph-name="atilde" unicode="&#xe3;" horiz-adv-x="779" 
d="M804 648q12 -12 12 -33v-2q0 -21 -12 -33t-33 -12h-357v-91q0 -85 -7 -146l3 -2q45 47 109.5 90t107.5 51q34 3 59 -13q21 -13 29.5 -29.5t8.5 -37.5q0 -8 -4 -38q-6 -36 -9.5 -76t-3.5 -109v-121q0 -26 -14.5 -40.5t-39.5 -14.5h-2q-25 0 -40 15t-15 40v124
q0 121 13 175q-74 -47 -166 -142q-23 -23 -45.5 -34t-52.5 -11q-46 0 -92 24l-182 96q-20 10 -31.5 29t-11.5 45q0 54 47 80q109 59 224 105v31h-313q-21 0 -33 12t-12 33v2q0 21 12 33t33 12h785q21 0 33 -12zM299 275v150q-78 -34 -150 -73z" />
    <glyph glyph-name="adieresis" unicode="&#xe4;" horiz-adv-x="727" 
d="M752 648q12 -12 12 -33v-2q0 -21 -12 -33t-33 -12h-279v-224q105 44 142 44t61.5 -23t24.5 -57q0 -9 -4 -37q-10 -72 -10 -170v-65q0 -25 -13.5 -39t-38.5 -14h-2q-25 0 -39 14t-14 39v65q0 117 13 173q-42 -13 -120 -45v-266q0 -31 -16.5 -45t-43.5 -14q-28 0 -66 16
l-214 100q-49 22 -49 76q0 56 48 83l77 42l-77 36q-22 10 -35 29.5t-13 46.5q0 55 47 82q126 73 235 119v34h-347q-21 0 -33 12t-12 33v2q0 21 12 33t33 12h733q21 0 33 -12zM333 298v123q-77 -35 -168 -86l124 -58zM333 182q-97 -45 -169 -84l169 -79v163z" />
    <glyph glyph-name="aring" unicode="&#xe5;" horiz-adv-x="613" 
d="M638 648q12 -12 12 -33v-2q0 -21 -12 -33t-33 -12h-619q-21 0 -33 12t-12 33v2q0 21 12 33t33 12h619q21 0 33 -12zM522 465.5q15 -14.5 15 -41.5v-400q0 -27 -11.5 -41t-38.5 -14t-37.5 11t-19.5 35q-10 26 -24.5 39.5t-49.5 13.5q-24 0 -66 -8q-44 -11 -89 -11
q-69 0 -118.5 39t-62.5 118q-1 4 -1 12q0 25 15 40t41 15q39 0 53 -47q10 -39 29.5 -55.5t54.5 -16.5q31 0 71 9q42 8 66 8q23 0 42 -7.5t37 -25.5v167q-48 -51 -139 -51q-51 0 -92 20.5t-64.5 59t-23.5 89.5q0 40 22.5 70t65.5 30q35 0 57 -21t22 -52q0 -25 -14.5 -43.5
t-38.5 -24.5q19 -26 63 -26q34 0 57 11.5t36.5 27t31.5 43.5q14 21 29 31.5t39 10.5q28 0 43 -14.5z" />
    <glyph glyph-name="ae" unicode="&#xe6;" horiz-adv-x="282" 
d="M307.5 648q11.5 -12 11.5 -33v-2q0 -21 -11.5 -33t-32.5 -12h-322q-21 0 -33 12t-12 33v2q0 21 12 33t33 12h322q21 0 32.5 -12zM207 442.5q42 -46.5 42 -130.5q0 -77 -46 -128.5t-129 -51.5q-63 0 -113 31t-74 93l37 159q0 -88 35.5 -135.5t99.5 -47.5q42 0 65.5 25
t23.5 69q0 23 -8.5 41t-25.5 27q1 -4 1 -11q0 -30 -17.5 -50t-48.5 -20q-33 0 -53.5 20.5t-20.5 54.5q0 46 31.5 73.5t85.5 27.5q73 0 115 -46.5z" />
    <glyph glyph-name="ccedilla" unicode="&#xe7;" horiz-adv-x="1010" 
d="M1035.5 648q11.5 -12 11.5 -33v-2q0 -21 -11.5 -33t-32.5 -12h-495q23 -38 23 -84q0 -67 -39 -106l11 -10q34 -32 34 -71q0 -26 -9.5 -40t-31.5 -29l-69 -45l186 -88v333q0 82 115 82q119 0 183.5 -60t64.5 -159q0 -72 -31 -109.5t-83 -37.5q-36 0 -60 20.5t-24 55.5
q0 31 20.5 51.5t51.5 20.5q11 0 22 -3q1 5 1 15q0 46 -37 75t-97 29q-11 0 -17 -1v-369q0 -29 -16 -46t-47 -17q-32 0 -86 24l-232 110q-22 11 -33 25.5t-11 39.5q0 28 10.5 43.5t28.5 27.5l88 57l-42 35h-16q-91 0 -180 41q-28 -25 -72 -25q-38 0 -64 18t-26 52q0 32 23 52
t61 20q10 0 15 -1q-1 19 -8 39t-19 35h-110q-21 0 -33 12t-12 33v2q0 21 12 33t33 12h1017q21 0 32.5 -12zM407 549.5q-17 18.5 -51 18.5h-149q16 -35 16 -78q0 -16 -1 -24q65 -30 125 -30q77 0 77 67q0 28 -17 46.5z" />
    <glyph glyph-name="egrave" unicode="&#xe8;" horiz-adv-x="558" 
d="M582.5 648q11.5 -12 11.5 -33v-2q0 -21 -11.5 -33t-32.5 -12h-69v-272q0 -57 -53 -57h-2q-26 0 -39.5 15t-13.5 42v111q0 170 -136 170q-48 0 -78.5 -28t-30.5 -77q0 -53 35 -73q6 24 25.5 39t44.5 15q32 0 53 -20.5t21 -53.5q0 -40 -28.5 -64t-77.5 -24
q-48 0 -88.5 21.5t-64.5 63t-24 98.5q0 92 56.5 146t150.5 54q47 0 83.5 -15t58.5 -36v83q0 24 14 38t39 14h2q24 0 38.5 -14t14.5 -38v-46h69q21 0 32.5 -12z" />
    <glyph glyph-name="eacute" unicode="&#xe9;" horiz-adv-x="857" 
d="M882 648q12 -12 12 -33v-2q0 -21 -12 -33t-32 -12h-239v-328q66 -4 120 -30.5t85 -73.5t31 -108q0 -52 -27.5 -88t-75.5 -36q-36 0 -59 17t-23 49q0 30 18.5 47.5t47.5 17.5q13 0 22 -4v1q0 44 -39.5 71.5t-99.5 31.5v-231q0 -32 -16 -50.5t-46 -18.5q-19 0 -34.5 5
t-32 13t-23.5 11l-214 112q-41 22 -41 69q0 26 9.5 43t28.5 30q128 90 262 114v118q0 39 -16 59t-42 20q-24 0 -38 -16t-19 -49q-6 -23 -17 -34.5t-34 -11.5q-25 0 -37.5 12.5t-18.5 34.5q-14 64 -76 64q-35 0 -56 -23t-21 -64q0 -28 10 -48t28 -29q6 20 22.5 32t40.5 12
q29 0 48.5 -18.5t19.5 -47.5q0 -33 -24.5 -55t-71.5 -22t-86.5 20.5t-63.5 61t-24 95.5q0 86 48.5 132.5t124.5 46.5q42 0 77 -17.5t54 -47.5q19 34 48 49.5t57 15.5q19 0 36.5 -6.5t30.5 -18.5v71h-518q-21 0 -33 12t-12 33v2q0 21 12 33t33 12h864q20 0 32 -12zM504 -41
v166q-88 -20 -173 -78z" />
    <glyph glyph-name="ecircumflex" unicode="&#xea;" horiz-adv-x="708" 
d="M733 648q12 -12 12 -33v-2q0 -21 -12 -33t-33 -12h-68v-741q0 -27 -14 -42t-40 -15h-2q-27 0 -40.5 15t-13.5 42v159q0 86 -41.5 132.5t-112.5 46.5q-36 0 -64 -13.5t-44 -38.5l2 -2l32 2q66 0 104 -33.5t38 -94.5q0 -78 -62 -150q-19 -24 -50 -24q-22 0 -38.5 15.5
t-16.5 35.5q0 11 5 21t15 24q37 40 37 74q0 21 -13 33.5t-37 12.5q-12 0 -23.5 -2t-15.5 -3q-18 -5 -33 -5q-35 0 -56.5 18t-21.5 49q0 22 9 45q8 18 16 31q-52 16 -84.5 60t-32.5 109q0 60 24 103t64.5 65t89.5 22q42 0 77 -18t55 -47q20 33 48.5 49t58.5 16q40 0 71 -27
v76h-536q-21 0 -33 12t-12 33v2q0 21 12 33t33 12h714q21 0 33 -12zM522 323q0 92 -57 92q-24 0 -38.5 -16t-21.5 -54q-8 -41 -55 -41q-45 0 -56 42q-8 36 -27 52.5t-50 16.5q-34 0 -55 -23t-21 -64q0 -40 22 -63t57 -23q18 0 30 3q51 22 110 22q51 0 93 -17t69 -48v121z
" />
    <glyph glyph-name="edieresis" unicode="&#xeb;" horiz-adv-x="1032" 
d="M1057 648q12 -12 12 -33v-2q0 -21 -12 -33t-33 -12h-369v-394q0 -37 19 -52.5t53 -15.5q49 0 85.5 27t55.5 70t19 90q0 28 -9 46t-24 23q-2 -28 -21 -46t-49 -18q-33 0 -54 19t-21 53q0 46 34 71t83 25q47 0 85 -21.5t60 -61.5t22 -94q0 -74 -30.5 -139.5t-90.5 -106
t-145 -40.5q-86 0 -137 42.5t-51 127.5v121q0 104 -60 104q-26 0 -39.5 -18t-21.5 -58q-6 -24 -17 -35.5t-36 -11.5q-27 0 -39.5 12.5t-17.5 34.5q-16 76 -82 76q-37 0 -59 -26t-22 -74q0 -35 11.5 -58.5t31.5 -34.5q5 25 24 40t45 15q32 0 53 -20.5t21 -53.5
q0 -36 -29 -60.5t-81 -24.5q-50 0 -92.5 23.5t-67.5 68.5t-25 106q0 64 25 108.5t67 66.5t93 22q44 0 80.5 -17.5t57.5 -47.5q20 35 49 50t60 15q42 0 71 -27v99h-553q-21 0 -33 12t-12 33v2q0 21 12 33t33 12h886q3 21 3 41q0 37 -19.5 54.5t-59.5 17.5q-21 0 -49.5 -1
t-43.5 -2q-64 -4 -102 -4q-70 0 -110 34.5t-40 96.5q0 29 14 45.5t42 16.5q53 0 56 -53q1 -26 18.5 -36t56.5 -10q27 0 48.5 1t37.5 2q68 4 107 4q72 0 111.5 -41.5t39.5 -114.5q0 -13 -5 -51h47q21 0 33 -12z" />
    <glyph glyph-name="igrave" unicode="&#xec;" horiz-adv-x="941" 
d="M966 648q12 -12 12 -33v-2q0 -21 -12 -33t-33 -12h-307v-162q0 -22 8 -31.5t25 -9.5q22 0 41.5 9t45.5 26q3 2 15.5 9.5t22 11t16.5 3.5q51 0 76 -50.5t25 -116.5q0 -69 -28 -128t-88 -95.5t-153 -36.5q-175 0 -264 144q-15 19 -15 42q0 22 15.5 35.5t37.5 13.5
q14 0 25.5 -7.5t22.5 -23.5q57 -102 179 -102q84 0 123.5 47t39.5 113q0 37 -11 57q-27 -23 -59.5 -41t-81.5 -18q-55 0 -90.5 29.5t-39.5 83.5q-10 49 -55 49q-26 0 -40.5 -18t-19.5 -55q-4 -22 -16.5 -33t-36.5 -11q-26 0 -38.5 11.5t-17.5 32.5q-7 36 -26.5 54.5
t-49.5 18.5q-34 0 -55 -24t-21 -72q0 -64 36 -87q5 24 23 38.5t43 14.5q30 0 50.5 -20t20.5 -51q0 -35 -28 -58.5t-78 -23.5q-75 0 -123 50t-48 139q0 91 49 140t126 49q42 0 77 -17.5t55 -46.5q20 33 48 48.5t57 15.5q39 0 68 -27v81h-528q-21 0 -33 12t-12 33v2
q0 21 12 33t33 12h947q21 0 33 -12z" />
    <glyph glyph-name="iacute" unicode="&#xed;" horiz-adv-x="710" 
d="M735.5 648q11.5 -12 11.5 -33v-2q0 -21 -11.5 -33t-32.5 -12h-69v-694q0 -24 -13.5 -38t-37.5 -14h-2q-25 0 -39 14t-14 38v163l-243 -168q-18 -12 -38 -12t-36 15t-16 36q0 23 24 41l43 31q-24 30 -49.5 41t-62.5 11q-34 0 -54.5 20.5t-20.5 52.5q0 23 13 44
q16 25 35 43q-36 22 -56.5 59.5t-20.5 86.5q0 86 50 133.5t125 47.5q42 0 77 -17.5t56 -46.5q19 32 47.5 48t55.5 16q40 0 71 -27v76h-542q-21 0 -33 12t-12 33v2q0 21 12 33t33 12h717q21 0 32.5 -12zM254 263q28 6 58 6q131 0 210 -106l6 4v159q0 89 -56 89
q-22 0 -35 -14.5t-20 -48.5q-12 -46 -56 -46q-48 0 -59 47q-7 32 -25.5 47t-49.5 15q-33 0 -53.5 -20.5t-20.5 -57.5t19.5 -58t46.5 -21q10 0 35 5zM275 92q34 -19 63 -59l109 77q-29 34 -61.5 49t-73.5 15q-37 0 -69.5 -16.5t-54.5 -45.5h1q52 -1 86 -20z" />
    <glyph glyph-name="icircumflex" unicode="&#xee;" horiz-adv-x="1129" 
d="M1154 648q12 -12 12 -33v-2q0 -21 -12 -33t-33 -12h-525v-111q0 -29 7.5 -50.5t23.5 -42.5q15 -24 21.5 -37.5t6.5 -31.5q0 -26 -9.5 -39t-31.5 -28l-69 -45l186 -88v333q0 82 116 82q118 0 183 -60t65 -159q0 -72 -31 -109.5t-83 -37.5q-36 0 -60 20.5t-24 55.5
q0 31 20.5 51.5t51.5 20.5q11 0 22 -3q1 5 1 15q0 46 -37 75t-97 29q-12 0 -18 -1v-369q0 -30 -15.5 -47t-46.5 -17q-29 0 -87 25l-232 111q-22 11 -33 25t-11 39q0 27 10.5 42.5t29.5 28.5l87 57q-35 33 -47 69q-10 33 -22 46t-31 13q-23 0 -34 -16t-18 -54
q-6 -21 -17.5 -32.5t-34.5 -11.5q-25 0 -38 11.5t-18 32.5q-6 35 -24 52.5t-53 17.5q-33 0 -52.5 -23t-19.5 -68q0 -57 34 -75q7 19 23.5 30.5t38.5 11.5q31 0 51 -20t20 -51q0 -35 -24.5 -57.5t-73.5 -22.5q-45 0 -84 21.5t-63 63t-24 99.5q0 88 48 135.5t123 47.5
q41 0 75.5 -17.5t54.5 -46.5q33 64 94 64q37 0 60 -22v68h-500q-21 0 -33 12t-12 33v2q0 21 12 33t33 12h1135q21 0 33 -12z" />
    <glyph glyph-name="idieresis" unicode="&#xef;" horiz-adv-x="758" 
d="M703 251.5q17 -34.5 17 -83.5q0 -61 -30.5 -112.5t-93 -82.5t-153.5 -31q-123 0 -221 57.5t-148 161.5q-13 26 -13 46q0 23 17.5 38.5t40.5 15.5q17 0 28.5 -12t26.5 -37q41 -82 112 -124t158 -42q80 0 125.5 37t45.5 93q0 38 -23 61q-22 -25 -61 -25q-35 0 -59.5 22
t-24.5 59q0 36 23 59.5t63 23.5q23 0 39 -9q16 16 25.5 40t9.5 47q0 53 -41 83q-15 -32 -29 -53q-14 -22 -26.5 -31.5t-33.5 -9.5q-23 0 -37 9t-20 33q-12 41 -32.5 62t-45.5 21q-30 0 -55 -44q50 -41 75.5 -84t25.5 -77q0 -28 -15.5 -44t-39.5 -16q-35 0 -68.5 35.5
t-58.5 104.5h-4q-24 -69 -57 -104.5t-68 -35.5q-24 0 -39.5 15t-15.5 43q0 34 26 78.5t74 84.5q-16 23 -38 33.5t-57 10.5h-41q-21 0 -33 12t-12 33v2q0 21 12 33t33 12h41q63 0 101.5 -20.5t73.5 -71.5q31 50 62.5 74t77.5 24q82 0 132 -90l11 18l19 31q14 23 21.5 29.5
t21.5 6.5q23 0 66 -26q47 -29 73 -75.5t26 -101.5q0 -83 -55 -146q29 -26 46 -60.5z" />
    <glyph glyph-name="eth" unicode="&#xf0;" horiz-adv-x="890" 
d="M915.5 648q11.5 -12 11.5 -33v-2q0 -21 -11.5 -33t-32.5 -12h-318q1 -35 14.5 -57.5t54.5 -36.5l94 -32q75 -26 102.5 -60.5t27.5 -92.5q0 -66 -34.5 -130t-95 -105t-133.5 -41q-63 0 -101 30t-38 92v433h-78q-26 0 -48.5 -13t-39.5 -36q49 -41 75.5 -85.5t26.5 -78.5
q0 -28 -16 -44.5t-40 -16.5q-34 0 -68.5 37t-59.5 107h-4q-24 -69 -58.5 -106.5t-69.5 -37.5q-24 0 -39.5 15.5t-15.5 43.5q0 34 26.5 80t75.5 86q-16 24 -38 36.5t-56 12.5h-43q-21 0 -33 12t-12 33v2q0 21 12 33t33 12h43q62 0 100.5 -22.5t74.5 -74.5q32 48 73 72.5
t101 24.5h505q21 0 32.5 -12zM569 402v-246q0 -23 10 -33t30 -10q32 0 64.5 27.5t53.5 68t21 77.5q0 22 -9.5 36t-33.5 22l-74 25q-44 15 -62 33z" />
    <glyph glyph-name="ntilde" unicode="&#xf1;" horiz-adv-x="980" 
d="M1005 648q12 -12 12 -33v-2q0 -21 -12 -33t-33 -12h-410q10 -20 33.5 -34t65.5 -26q48 -13 67 -24q18 2 26 2q89 0 137.5 -48t48.5 -136q0 -103 -66.5 -165t-193.5 -67v-4q10 -2 45.5 -13t72.5 -27l89 -39q19 -8 29.5 -18.5t10.5 -26.5q0 -22 -11.5 -37.5t-33.5 -15.5
q-15 0 -36 7l-371 159q-33 15 -33 45q0 27 14.5 42t36.5 15q17 0 34 -3q40 -5 77 -5q98 0 163 37t65 116q0 37 -16.5 58t-44.5 26q-6 -39 -30 -79t-67 -67t-102 -27q-55 0 -89.5 28t-34.5 86v241h-70q-26 0 -48.5 -13t-39.5 -36q49 -41 75.5 -85.5t26.5 -78.5
q0 -28 -16 -44.5t-40 -16.5q-34 0 -68.5 37t-59.5 107h-4q-24 -69 -58.5 -106.5t-69.5 -37.5q-24 0 -39.5 15.5t-15.5 43.5q0 34 26.5 80t76.5 86q-17 24 -39.5 36.5t-55.5 12.5h-43q-21 0 -33 12t-12 33v2q0 21 12 33t33 12h43q62 0 100.5 -22.5t74.5 -74.5q33 49 73 73
t101 24h594q21 0 33 -12zM554 467v-132q0 -13 6 -19.5t21 -6.5q21 0 41.5 13.5t33 33.5t12.5 37q0 13 -11.5 21t-28.5 14t-25 9q-37 17 -49 30z" />
    <glyph glyph-name="ograve" unicode="&#xf2;" horiz-adv-x="827" 
d="M768.5 339q23.5 -34 23.5 -84q0 -68 -43 -108t-113 -40q-87 0 -145 58v-120q0 -25 -14 -39.5t-39 -14.5h-2q-25 0 -39 14.5t-14 39.5v28l-291 132q-41 19 -41 65q0 22 8 37t26 32l96 81l-101 63q-21 13 -31 32.5t-10 46.5v6h-53q-21 0 -33 12t-12 33v2q0 21 12 33t33 12
h460q21 0 33 -11.5t12 -33.5v-6q56 51 134 51q68 0 114 -38.5t46 -106.5q0 -79 -74 -128q34 -14 57.5 -48zM129 568l126 -79l6 -4l122 -76v159h-254zM666 224q16 18 16 46q0 31 -20 47.5t-56 16.5q-22 0 -37 12.5t-15 39.5q0 28 15 40.5t36 12.5q34 0 51 17.5t17 45.5
q0 29 -16.5 44.5t-44.5 15.5q-32 0 -59 -20t-43.5 -59.5t-16.5 -96.5q0 -88 35 -134t89 -46q33 0 49 18zM383 175v121l-114 71l-103 -88z" />
    <glyph glyph-name="oacute" unicode="&#xf3;" horiz-adv-x="554" 
d="M580 648q12 -12 12 -33v-2q0 -21 -12 -33t-33 -12h-80q28 -45 28 -107q0 -64 -28.5 -108t-78.5 -67q-24 -13 -80 -33q-52 -20 -82 -34.5t-50.5 -38t-20.5 -58.5q0 -46 38 -68t99 -22q54 0 86 17t38 46q-16 -8 -33 -8q-30 0 -50.5 16.5t-20.5 49.5q0 35 25 55t63 20
q51 0 83.5 -35t32.5 -88q0 -77 -56 -125.5t-169 -48.5q-115 0 -182 51t-67 139q0 110 111 170q-46 24 -71.5 67t-25.5 104q0 62 27 106h-97q-21 0 -33 12t-12 33v2q0 21 12 33t33 12h407q1 7 1 20q0 38 -18.5 55t-59.5 17q-21 0 -55 -6q-40 -8 -76 -8q-76 0 -114.5 33.5
t-38.5 97.5q0 29 13.5 45.5t41.5 16.5q53 0 56 -53q1 -26 16 -36t53 -10q25 0 46 3t26 4q37 7 66 7q72 0 111.5 -41.5t39.5 -114.5q0 -10 -2 -30h48q21 0 33 -12zM388 461q0 50 -31.5 79.5t-81.5 29.5q-45 0 -74 -23l182 -124q5 18 5 38zM163 461q0 -52 31 -81t81 -29
q41 0 69 19l-177 122q-4 -13 -4 -31z" />
    <glyph glyph-name="ocircumflex" unicode="&#xf4;" horiz-adv-x="641" 
d="M666 648q12 -12 12 -33v-2q0 -21 -12 -33t-32 -12h-199l32 -42q71 -95 101.5 -160.5t30.5 -135.5q0 -101 -57 -165.5t-172 -64.5q-119 0 -184.5 71.5t-65.5 191.5v10q-42 27 -66 72.5t-24 106.5q0 68 35 116h-79q-21 0 -33 12t-12 33v2q0 21 12 33t33 12h261
q-25 40 -36 75.5t-11 73.5q0 68 39 105.5t104 37.5q33 0 47.5 -12t14.5 -35q0 -34 -21 -42q-7 -2 -32 -4q-22 -2 -35.5 -15.5t-13.5 -40.5q0 -28 14 -63.5t41 -70.5l7 -9h269q20 0 32 -12zM163 539l180 -124q4 15 4 36q0 52 -30 85.5t-79 33.5q-47 0 -75 -31zM130 451
q0 -54 30 -86t78 -32q45 0 75 28l-179 124q-4 -15 -4 -34zM432 415h-6q-3 -85 -53 -129t-141 -48v-11q0 -56 38 -91.5t98 -35.5q63 0 95 36t32 98q0 93 -63 181z" />
    <glyph glyph-name="otilde" unicode="&#xf5;" horiz-adv-x="992" 
d="M1018 648q12 -12 12 -33v-2q0 -21 -12 -33t-33 -12h-608q19 -24 29 -53q11 -32 11 -64q0 -39 -16 -68l84 -77q34 -32 34 -70q0 -28 -9.5 -41.5t-31.5 -27.5l-69 -45l187 -88v381q0 82 115 82q118 0 183 -60t65 -160q0 -71 -31.5 -108.5t-82.5 -37.5q-36 0 -60 20t-24 55
q0 31 20.5 52t51.5 21q11 0 22 -3q1 5 1 15q0 46 -37 75t-97 29q-11 0 -17 -1v-416q0 -30 -16 -47.5t-47 -17.5q-34 0 -86 25l-232 110q-22 11 -33.5 25.5t-11.5 39.5q0 27 11 43t29 27l87 58l-83 70l-21 -9q-36 -13 -66 -13q-52 0 -94 30.5t-60 85.5q-10 30 -10 58
q0 61 50 105h-136q-21 0 -33 12t-12 33v2q0 21 12 33t33 12h999q21 0 33 -12zM328 452q0 25 -13 48q-25 43 -68 43q-17 0 -36 -8l114 -104q3 11 3 21zM242 375q17 0 36 8l-114 103q-3 -10 -3 -21q0 -22 12 -45q25 -45 69 -45z" />
    <glyph glyph-name="odieresis" unicode="&#xf6;" horiz-adv-x="836" 
d="M861 648q12 -12 12 -33v-2q0 -21 -12 -33t-32 -12h-69v-610q0 -71 -79 -71q-33 0 -96 18l-334 100q-40 12 -40 46q0 26 13.5 40.5t35.5 14.5q11 0 33 -4q35 -7 58 -7q68 0 101 30t33 80q0 21 -6 34q-21 -42 -64.5 -70t-103.5 -28q-71 0 -108 32t-37 82q0 35 18.5 53.5
t47.5 18.5t47 -17.5t18 -43.5q0 -19 -11 -33q12 -2 19 -2q46 0 76 32.5t46 72.5h-4q-96 0 -145 67q-43 -54 -119 -54q-38 0 -69 17t-52 46q-11 17 -11 33q0 10 4 17q2 16 13.5 24.5t27.5 8.5q7 0 11 -1q15 -5 32 -24q12 -13 21.5 -19t24.5 -6q35 0 48 34.5t15 88.5h-238
q-21 0 -33 12t-12 33v2q0 21 12 33t33 12h587q21 0 33 -12t12 -33v-2q0 -21 -12 -33t-33 -12h-11q24 -34 24 -84q0 -39 -16 -72t-49 -53q28 -29 45 -70t17 -91q0 -51 -22.5 -92.5t-73.5 -63.5v-4l165 -49v712q0 27 13.5 42t39.5 15h2q53 0 53 -57v-41h69q20 0 32 -12z
M463.5 453.5q14.5 18.5 14.5 48.5q0 29 -15.5 47.5t-51.5 18.5h-85q2 -61 24.5 -97t67.5 -36q31 0 45.5 18.5z" />
    <glyph glyph-name="divide" unicode="&#xf7;" horiz-adv-x="920" 
d="M946 648q12 -12 12 -33v-2q0 -21 -12 -33t-33 -12h-362v-408q0 -69 72 -69q51 0 87 27t54.5 70t18.5 91q0 28 -8.5 46t-24.5 23q-2 -28 -21 -46t-49 -18q-33 0 -54 19t-21 53q0 46 34 71t83 25q73 0 119.5 -49t46.5 -135q0 -71 -29.5 -135t-91 -104t-151.5 -40
q-81 0 -131 47t-50 124v149q-8 18 -32 18q-21 0 -35 -17t-34 -56q-22 -41 -40 -66t-49 -43.5t-75 -18.5q-42 0 -77 17.5t-58 50.5q-12 16 -12 35q0 23 15.5 37.5t37.5 14.5q13 0 22 -6t21 -19q11 -14 22.5 -21t26.5 -7q23 0 39 19.5t38 60.5l18 32q-23 52 -57 90t-70 59
q-31 19 -42 34.5t-11 44.5h-97q-21 0 -33 12t-12 33v2q0 21 12 33t33 12h776q3 21 3 41q0 37 -19.5 54.5t-61.5 17.5q-19 0 -55 -3q-24 -4 -62 -4q-70 0 -109.5 34.5t-39.5 96.5q0 29 13.5 45.5t41.5 16.5q53 0 56 -53q1 -26 19 -36t57 -10q15 0 48 3q26 4 64 4
q76 0 115.5 -41t39.5 -115q0 -9 -1.5 -25.5t-2.5 -25.5h45q21 0 33 -12zM442 568h-240q41 -28 73 -64.5t59 -85.5q24 13 54 13q20 0 34.5 -5.5t19.5 -10.5v153z" />
    <glyph glyph-name="oslash" unicode="&#xf8;" 
d="M-77 139v-441q0 -25 -14.5 -39t-40.5 -14h-2q-25 0 -41.5 14.5t-16.5 38.5v179q-11 47 -49 47q-21 0 -35.5 -17.5t-18.5 -53.5q-6 -41 -53 -41q-27 0 -38 11t-16 30q-9 38 -26.5 54.5t-43.5 16.5q-32 0 -52.5 -22.5t-20.5 -63.5q0 -51 25 -74q8 19 24 30t37 11
q29 0 48 -19.5t19 -48.5q0 -33 -24.5 -55.5t-70.5 -22.5q-71 0 -115.5 48.5t-44.5 128.5q0 61 23.5 103t62 63t81.5 21q41 0 74.5 -18t52.5 -46q16 32 44.5 49t56.5 17q35 0 61 -21v135h114z" />
    <glyph glyph-name="ugrave" unicode="&#xf9;" horiz-adv-x="1010" 
d="M1035.5 648q11.5 -12 11.5 -33v-2q0 -21 -11.5 -33t-32.5 -12h-495q23 -38 23 -84q0 -67 -39 -106l11 -10q34 -32 34 -71q0 -26 -9.5 -40t-31.5 -29l-69 -45l186 -88v333q0 82 115 82q119 0 183.5 -60t64.5 -159q0 -72 -31 -109.5t-83 -37.5q-36 0 -60 20.5t-24 55.5
q0 31 20.5 51.5t51.5 20.5q11 0 22 -3q1 5 1 15q0 46 -37 75t-97 29q-11 0 -17 -1v-369q0 -29 -16 -46t-47 -17q-32 0 -86 24l-232 110q-22 11 -33 25.5t-11 39.5q0 28 10.5 43.5t28.5 27.5l88 57l-42 35h-16q-91 0 -180 41q-28 -25 -72 -25q-38 0 -64 18t-26 52q0 32 23 52
t61 20q10 0 15 -1q-1 19 -8 39t-19 35h-110q-21 0 -33 12t-12 33v2q0 21 12 33t33 12h1017q21 0 32.5 -12zM407 549.5q-17 18.5 -51 18.5h-149q16 -35 16 -78q0 -16 -1 -24q65 -30 125 -30q77 0 77 67q0 28 -17 46.5z" />
    <glyph glyph-name="uacute" unicode="&#xfa;" horiz-adv-x="699" 
d="M724.5 648q11.5 -12 11.5 -33v-2q0 -21 -11.5 -33t-32.5 -12h-69v-519q0 -27 -15 -42.5t-42 -15.5h-2q-26 0 -41.5 15.5t-15.5 42.5v374l-264 -209q-19 -14 -36 -14q-20 0 -36.5 16.5t-16.5 37.5q0 23 25 45l58 46q-24 39 -47 56t-59 17q-13 0 -20.5 -1t-15.5 -1
q-27 0 -46.5 21.5t-19.5 52.5q0 34 21 64q40 60 98 90t130 30q67 0 124.5 -31.5t99.5 -87.5l5 5v141q0 27 15.5 42t41.5 15h2q27 0 42 -15t15 -42v-41h69q21 0 32.5 -12zM243.5 483q37.5 -24 71.5 -76l110 87q-35 43 -70 61.5t-73 18.5q-43 0 -76.5 -18t-55.5 -49h4
q52 0 89.5 -24z" />
    <glyph glyph-name="ucircumflex" unicode="&#xfb;" horiz-adv-x="612" 
d="M632 648q12 -12 12 -33v-2q0 -21 -12 -33t-33 -12h-613q-21 0 -33 12t-12 33v2q0 21 12 33t33 12h613q21 0 33 -12zM556.5 -5q8.5 -11 8.5 -27q0 -8 -3 -17q-5 -15 -16.5 -23t-25.5 -8q-7 0 -16 3l-396 135q-16 5 -25 17.5t-9 29.5q0 23 14 38t34 15h96q73 0 128.5 19
t86 54t30.5 80q0 27 -9 52.5t-26 44.5q-11 -18 -21 -32q-11 -17 -28.5 -28t-33.5 -11q-20 0 -35 9.5t-19 25.5q-8 28 -28 45.5t-45 17.5q-34 0 -55 -20.5t-21 -53.5q0 -36 17 -59q6 21 22.5 33t40.5 12q29 0 47.5 -18.5t18.5 -49.5q0 -33 -24 -53.5t-63 -20.5
q-68 0 -109.5 43t-41.5 114q0 73 44 118t115 45q43 0 78.5 -21t55.5 -57q16 24 23 36q14 19 28 31t22 12q9 0 23 -6.5t27 -16.5q41 -29 66.5 -82t25.5 -111q0 -62 -32 -110.5t-90 -77.5t-135 -34v-3q35 -6 100 -27l132 -47q15 -5 23.5 -16z" />
    <glyph glyph-name="udieresis" unicode="&#xfc;" horiz-adv-x="667" 
d="M692 648q12 -12 12 -33v-2q0 -21 -12 -33t-33 -12h-513q19 -25 33 -56q20 3 39 3q57 0 101 -22.5t68 -63.5l102 43q30 12 50 12q27 0 51 -18q15 -11 20 -26.5t5 -36.5q0 -15 -4 -45q-11 -62 -11 -168v-65q0 -24 -13.5 -38t-38.5 -14h-2q-25 0 -39 14t-14 39v65
q0 103 11 176q-49 -19 -91 -37v-1q0 -76 -44 -127.5t-137 -63.5v-4q0 1 29.5 -11.5t64.5 -32.5l48 -29q17 -9 25.5 -19.5t8.5 -28.5q0 -21 -13 -35.5t-33 -14.5q-22 0 -43 12l-241 132q-32 18 -32 52q0 25 15 41.5t39 16.5q6 0 22 -2q36 -3 53 -3q56 0 91.5 27.5t35.5 88.5
q0 42 -23.5 66.5t-65.5 24.5h-4q2 -22 2 -33q0 -42 -19 -66.5t-57 -24.5q-36 0 -58 22.5t-22 61.5q0 58 41 94q-41 57 -81 95h-29q-21 0 -33 12t-12 33v2q0 21 12 33t33 12h673q21 0 33 -12z" />
    <glyph glyph-name="yacute" unicode="&#xfd;" horiz-adv-x="756" 
d="M781.5 648q11.5 -12 11.5 -33v-2q0 -21 -11.5 -33t-32.5 -12h-606q22 -30 33 -56q18 3 39 3q55 0 99.5 -23.5t69.5 -65.5q29 42 67.5 62t88.5 20q82 0 132 -50.5t50 -138.5q0 -79 -42.5 -127.5t-112.5 -48.5q-47 0 -76.5 23.5t-29.5 62.5q0 31 19 53t51 22q24 0 41.5 -12
t25.5 -32q21 21 21 63q0 38 -21.5 60.5t-61.5 22.5q-33 0 -56 -18t-38.5 -44.5t-44.5 -87.5q-18 -49 -60 -80.5t-107 -37.5v-4q6 -2 31 -13t60 -31l57 -33q18 -9 26.5 -19.5t8.5 -28.5q0 -21 -13.5 -36t-33.5 -15t-43 13l-249 137q-34 19 -34 51q0 25 15 41.5t39 16.5
q7 0 25 -2q24 -4 44 -4q61 0 98.5 27.5t37.5 89.5q0 43 -23 67t-66 24h-5q3 -16 3 -33q0 -41 -20.5 -66t-54.5 -25q-37 0 -59 22.5t-22 61.5q0 57 41 95q-44 59 -81 94h-26q-21 0 -33 12t-12 33v2q0 21 12 33t33 12h763q21 0 32.5 -12z" />
    <glyph glyph-name="thorn" unicode="&#xfe;" horiz-adv-x="880" 
d="M905 648q12 -12 12 -33v-2q0 -21 -12 -33t-33 -12h-286v-93q74 1 131 12q27 5 43 5q13 0 28 -8t26 -22q18 -22 18 -49q-1 -15 -8 -41q-8 -32 -13 -67.5t-5 -93.5v-94q0 -25 -14.5 -39.5t-39.5 -14.5h-2q-25 0 -39.5 14.5t-14.5 39.5v94q0 107 18 173q-65 -9 -128 -9v-344
q0 -26 -14 -39.5t-39 -13.5q-23 0 -39.5 9t-35.5 26q-72 65 -138 87q-30 -40 -85 -40q-34 0 -59 17.5t-25 52.5q0 39 27.5 59.5t68.5 22.5v5q0 25 -16 43.5t-44 27.5q-28 -19 -65 -19q-36 0 -59.5 16t-23.5 49t23.5 51.5t59.5 18.5q15 0 24 -3q4 8 4 21q0 28 -13 47t-40 35
q-25 14 -36.5 27t-11.5 37h-63q-21 0 -33 12t-12 33v2q0 21 12 33t33 12h886q21 0 33 -12zM473 568h-287q115 -69 287 -88v88zM419 165.5q33 -18.5 56 -39.5l3 1q-5 78 -5 135v118q-122 13 -219 56v-13q0 -23 -8 -50q49 -25 76.5 -67t27.5 -103v-7q36 -12 69 -30.5z" />
    <glyph glyph-name="ydieresis" unicode="&#xff;" horiz-adv-x="927" 
d="M952 648q12 -12 12 -33v-2q0 -21 -12 -33t-33 -12h-270v-137q20 2 31 2q112 0 164.5 -52.5t52.5 -129.5q0 -69 -29 -111.5t-83 -42.5q-38 0 -61.5 19t-23.5 53t19.5 52.5t50.5 18.5q13 0 24 -4v11q0 40 -27 60.5t-75 20.5q-15 0 -43 -4v-280q0 -29 -13.5 -42t-41.5 -13
q-22 0 -40 9t-44 25q-106 66 -198 89q-31 -46 -88 -46q-37 0 -60 18t-23 51q0 37 27.5 59.5t67.5 26.5q0 24 -15.5 46t-42.5 35q-28 -15 -63 -15q-36 0 -59.5 16.5t-23.5 48.5q0 33 24 51.5t60 18.5q12 0 24 -2q4 8 4 19q0 43 -45 64q-33 17 -45 29.5t-12 35.5h-56
q-21 0 -33 12t-12 33v2q0 21 12 33t33 12h933q21 0 33 -12zM539 272v32q-24 -2 -36 -2q-81 0 -132 40t-51 131v95h-142q68 -49 68 -135q0 -26 -7 -48q46 -28 72.5 -72t26.5 -102q55 -13 110 -38t95 -52l3 3q-7 72 -7 148zM539 568h-107v-98q0 -37 18 -50t51 -13q18 0 38 3
v158z" />
    <glyph glyph-name="OE" unicode="&#x152;" horiz-adv-x="908" 
d="M933 648q12 -12 12 -33v-2q0 -21 -12 -33t-33 -12h-914q-21 0 -33 12t-12 33v2q0 21 12 33t33 12h914q21 0 33 -12zM825 438q50 -48 50 -136q0 -77 -41 -124t-109 -47q-49 0 -79.5 24t-30.5 67q0 33 20 54t52 21q27 0 46.5 -15t24.5 -39q15 20 15 56q0 41 -25 63t-62 22
q-63 0 -97 -59.5t-34 -150.5v-186q0 -56 -52 -56q-29 0 -40 11.5t-18 33.5q-6 18 -12.5 28.5t-22 18t-43.5 7.5q-24 0 -72 -8q-52 -10 -89 -10q-69 0 -121 37t-64 115q-1 5 -1 14q0 25 15 39t40 14q36 0 51 -42q10 -40 33.5 -57.5t65.5 -17.5q29 0 69 9q44 8 67 8
q24 0 44 -6.5t38 -23.5v262q0 35 -16.5 52t-51.5 17q-54 0 -89.5 -33t-35.5 -78q0 -14 4 -25q7 16 23.5 25t36.5 9q34 0 54 -21.5t20 -54.5q0 -35 -24.5 -58t-67.5 -23q-68 0 -107 39t-39 106t30.5 114.5t82 72t112.5 24.5q64 0 110.5 -30.5t60.5 -88.5q25 36 64 55.5
t85 19.5q80 0 130 -48z" />
    <glyph glyph-name="oe" unicode="&#x153;" 
d="M-76 168v-323q0 -69 -57 -69q-27 0 -44.5 13t-48.5 49q-39 50 -76 73t-67 23h-7q5 -15 5 -28q0 -31 -19.5 -49.5t-51.5 -18.5q-34 0 -57 22.5t-23 61.5q0 56 39 87t100 31q58 0 109.5 -26.5t90.5 -76.5h1q-10 60 -10 141l1 90h115z" />
    <glyph glyph-name="Scaron" unicode="&#x160;" horiz-adv-x="268" 
d="M293 648q12 -12 12 -33v-2q0 -21 -12 -33t-32 -12h-69v-519q0 -27 -15 -42.5t-42 -15.5h-2q-26 0 -41.5 15.5t-15.5 42.5v519h-90q-21 0 -33 12t-12 33v2q0 21 12 33t33 12h90v45q0 41 -12 57t-49 16q-24 0 -64 -2q-31 -3 -64 -3q-69 0 -106.5 30t-37.5 92q0 30 13.5 47
t41.5 17q26 0 40 -11t16 -36q1 -25 16 -35t49 -10q20 0 60 2q44 2 77 2q67 0 101.5 -40t34.5 -111v-60h69q20 0 32 -12z" />
    <glyph glyph-name="scaron" unicode="&#x161;" horiz-adv-x="594" 
d="M619 648q12 -12 12 -33v-2q0 -21 -12 -33t-32 -12h-53q24 -33 24 -87q0 -63 -34.5 -105t-110.5 -42q-48 0 -85 14t-81 39q-31 17 -48.5 24.5t-35.5 8.5q3 -10 3 -21q0 -29 -19 -47t-48 -18q-34 0 -55.5 22.5t-21.5 58.5q0 51 32.5 78.5t81.5 27.5q42 0 77 -12.5t79 -36.5
q34 -18 55 -26.5t42 -8.5q32 0 47 18t15 48q0 31 -17.5 48t-53.5 17h-394q-21 0 -33 12t-12 33v2q0 21 12 33t33 12h601q20 0 32 -12z" />
    <glyph glyph-name="Ydieresis" unicode="&#x178;" horiz-adv-x="539" 
d="M564 648q12 -12 12 -33v-2q0 -21 -12 -33t-33 -12h-68v-522q0 -26 -14.5 -40.5t-39.5 -14.5h-2q-26 0 -43 15t-17 40v31l-269 156q-43 24 -43 73q0 54 38 79q62 43 124 73t107 45.5t49 15.5v49h-367q-21 0 -33 12t-12 33v2q0 21 12 33t33 12h545q21 0 33 -12zM353 198
v215q-41 -15 -94.5 -42t-104.5 -61z" />
    <glyph glyph-name="florin" unicode="&#x192;" horiz-adv-x="220" 
d="M245.5 648q11.5 -12 11.5 -33v-2q0 -21 -11.5 -33t-32.5 -12h-261q-21 0 -33 12t-12 33v2q0 21 12 33t33 12h261q21 0 32.5 -12zM163 439.5q5 -15.5 5 -36.5q0 -15 -4 -45q-5 -32 -7.5 -67t-2.5 -101v-65q0 -24 -14 -38t-38 -14h-2q-25 0 -39 14t-14 39v65q0 112 10 177
l-147 -63l-13 106l145 61q30 12 50 12q29 0 51 -18q15 -11 20 -26.5z" />
    <glyph glyph-name="circumflex" unicode="&#x2c6;" horiz-adv-x="362" 
d="M388 648q12 -12 12 -33v-2q0 -21 -12 -33t-33 -12h-86q-40 -52 -61.5 -86t-38 -85t-16.5 -117q0 -52 14.5 -94.5t40.5 -63.5q10 14 25 22t33 8q34 0 54 -22t20 -52q0 -34 -24 -56t-65 -22q-58 0 -105 34.5t-74.5 98.5t-27.5 148q0 89 25 157.5t67 129.5h-150
q-21 0 -33 12t-12 33v2q0 21 12 33t33 12h217q26 39 26 66q0 42 -53 42q-21 0 -47 -2l-44 -1q-148 0 -148 132q0 62 56 62q26 0 40 -12.5t15 -40.5q2 -24 16.5 -35t46.5 -11l42 1q32 2 53 2q68 0 101 -36t33 -94q0 -39 -14 -73h29q21 0 33 -12z" />
    <glyph glyph-name="tilde" unicode="&#x2dc;" horiz-adv-x="552" 
d="M577.5 648q11.5 -12 11.5 -33v-2q0 -21 -11.5 -33t-32.5 -12h-363v-88q0 -84 -7 -145l4 -2q43 46 109 90t109 51q5 1 15 1q30 0 51 -18q18 -16 24.5 -31.5t6.5 -33.5q0 -14 -5 -39q-7 -41 -10.5 -78.5t-3.5 -107.5v-121q0 -26 -14.5 -40.5t-39.5 -14.5h-2
q-25 0 -39.5 14.5t-14.5 40.5v124q0 128 17 181q-76 -43 -169 -139q-22 -22 -39.5 -32.5t-43.5 -10.5q-29 0 -46.5 16.5t-17.5 49.5v333h-80q-21 0 -33 12t-12 33v2q0 21 12 33t33 12h559q21 0 32.5 -12z" />
    <glyph glyph-name="uni03BC" unicode="&#x3bc;" horiz-adv-x="644" 
d="M669.5 648q11.5 -12 11.5 -33v-2q0 -21 -11.5 -33t-32.5 -12h-651q-21 0 -33 12t-12 33v2q0 21 12 33t33 12h651q21 0 32.5 -12zM517.5 490q50.5 -40 50.5 -126v-374q0 -56 -52 -56q-28 0 -39 11t-20 33q-11 26 -26.5 39.5t-54.5 13.5q-34 0 -79 -9q-52 -10 -91 -10
q-71 0 -121 35t-61 113l-1 11q0 26 15.5 41t40.5 15q41 0 52 -43q7 -36 29 -52.5t63 -16.5q31 0 74 9q46 8 69 8q28 0 50.5 -6.5t39.5 -25.5v264q0 36 -16 52.5t-52 16.5t-65 -15.5t-46 -41t-17 -54.5q0 -13 3 -22q7 16 23.5 25.5t37.5 9.5q34 0 54 -21t20 -54
q0 -37 -25 -59.5t-73 -22.5q-64 0 -102.5 39.5t-38.5 105.5q0 67 31.5 113.5t83.5 70t114 23.5q79 0 129.5 -40z" />
    <glyph glyph-name="uni0986" unicode="&#x986;" horiz-adv-x="1098" 
 />
    <glyph glyph-name="uni09A5" unicode="&#x9a5;" horiz-adv-x="650" 
d="M675 648q12 -12 12 -33v-2q0 -21 -12 -33t-33 -12h-68v-519q0 -27 -14.5 -42.5t-40.5 -15.5h-2q-27 0 -41.5 15.5t-14.5 42.5v28l-386 170q-32 14 -32 44q0 26 13 43.5t38 17.5l23 -1q20 -2 42 -2q61 0 96.5 32.5t35.5 92.5q0 50 -23 74t-63 24q-24 0 -44 -10
q22 -8 35 -26t13 -41q0 -31 -19.5 -51t-54.5 -20q-42 0 -66 26t-24 70q0 41 20.5 75t58 53.5t84.5 19.5q89 0 140.5 -53.5t51.5 -138.5q0 -70 -34.5 -125.5t-123.5 -71.5v-4q10 -3 46 -15t80 -32l93 -41v514q0 27 14.5 42t41.5 15h2q26 0 40.5 -15t14.5 -42v-41h68
q21 0 33 -12z" />
    <glyph glyph-name="uni09B0" unicode="&#x9b0;" horiz-adv-x="540" 
d="M565.5 648q11.5 -12 11.5 -33v-2q0 -21 -11.5 -33t-32.5 -12h-69v-522q0 -26 -13.5 -40.5t-39.5 -14.5h-2q-25 0 -39.5 14.5t-14.5 40.5v31l-282 159q-20 12 -28.5 28.5t-8.5 41.5q0 51 33 75q62 44 125.5 75t109.5 47t51 16v49h-369q-21 0 -33 12t-12 33v2q0 21 12 33
t33 12h547q21 0 32.5 -12zM355 197v216q-42 -16 -95.5 -42.5t-103.5 -60.5zM197 82.5q20 -20.5 20 -49.5q0 -30 -19.5 -50t-51.5 -20t-51 20t-19 50q0 29 19.5 49.5t50.5 20.5t51 -20.5z" />
    <glyph glyph-name="uni09C3" unicode="&#x9c3;" 
d="M-8 -215q0 -22 -13 -40t-34 -18q-19 0 -37 10l-175 84q-24 12 -34 29t-10 42q0 27 8 46.5t32 37.5l99 76v69q0 51 47 51h3q46 0 46 -51v-62q0 -37 -7 -54t-29 -34l-87 -68l160 -77q31 -13 31 -41z" />
    <glyph glyph-name="uni09CB" unicode="&#x9cb;" horiz-adv-x="1290" 
d="M1316.5 648q12.5 -12 12.5 -33v-2q0 -21 -12.5 -33t-33.5 -12h-69v-519q0 -27 -15 -42.5t-42 -15.5h-2q-26 0 -41.5 15.5t-15.5 42.5v436q0 41 -14 62t-48 21h-27q-21 0 -33.5 12t-12.5 33v2q0 21 12.5 33t33.5 12h27q32 0 50.5 -17t34.5 -56l5 2q-2 3 -6.5 17t-8.5 36
t-4 46v19q0 24 13.5 37.5t38.5 13.5h3q25 0 38.5 -13.5t13.5 -37.5v-47h69q21 0 33.5 -12zM318.5 130q19.5 -22 19.5 -52q0 -34 -23.5 -56t-65.5 -22q-54 0 -100.5 34t-75 100.5t-28.5 159.5q0 89 26 160.5t64 113.5h-149q-21 0 -33 12t-12 33v2q0 21 12 33t33 12h368
q21 0 33 -12t12 -33v-2q0 -21 -12 -33t-33 -12h-35q-42 0 -80 -36t-61.5 -98.5t-23.5 -138.5q0 -132 53 -173q10 14 25.5 22t33.5 8q33 0 52.5 -22zM631.5 552.5q-15.5 15.5 -15.5 38.5q0 24 15.5 40t39.5 16q23 0 39 -16.5t16 -39.5t-16 -38.5t-39 -15.5q-24 0 -39.5 15.5z
M500.5 514.5q-15.5 15.5 -15.5 38.5q0 24 15.5 40t39.5 16q23 0 39 -16.5t16 -39.5t-16 -38.5t-39 -15.5q-24 0 -39.5 15.5zM791 496q-11 14 -11 33q0 23 15.5 39.5t38.5 16.5q21 0 36.5 -13.5t18.5 -33.5q17 -5 28.5 -20t11.5 -34q0 -22 -16.5 -38t-39.5 -16
q-21 0 -36 13.5t-18 33.5q-17 5 -28 19zM403 420.5q-16 15.5 -16 38.5t16 39.5t39 16.5t39 -16.5t16 -39.5t-16 -38.5t-39 -15.5t-39 15.5zM978 369q16 -16 16 -39t-16 -39t-40 -16q-23 0 -38.5 16t-15.5 39t15.5 39t38.5 16q24 0 40 -16zM447.5 290q-16.5 -16 -39.5 -16
t-38.5 16t-15.5 39t15.5 39t38.5 16t39.5 -16t16.5 -39t-16.5 -39zM941 238.5q16 -16.5 16 -39.5t-16 -38.5t-40 -15.5q-23 0 -38.5 15.5t-15.5 38.5t15.5 39.5t38.5 16.5q24 0 40 -16.5zM483 238q16 -16 16 -39t-16 -39t-40 -16q-23 0 -38.5 16t-15.5 39t15.5 39t38.5 16
q24 0 40 -16zM580.5 144q16.5 -16 16.5 -39t-16.5 -39t-39.5 -16t-38.5 16t-15.5 39t15.5 39t38.5 16t39.5 -16zM842.5 144q16.5 -16 16.5 -39t-16.5 -39t-39.5 -16t-38.5 16t-15.5 39t15.5 39t38.5 16t39.5 -16zM712 108.5q16 -16.5 16 -39.5t-16 -38.5t-39 -15.5
q-24 0 -39.5 15.5t-15.5 38.5q0 24 15.5 40t39.5 16q23 0 39 -16.5z" />
    <glyph glyph-name="uni09CC" unicode="&#x9cc;" horiz-adv-x="1290" 
d="M1315.5 648q11.5 -12 11.5 -33v-2q0 -21 -11.5 -33t-32.5 -12h-69v-519q0 -27 -15 -42.5t-42 -15.5h-2q-26 0 -41.5 15.5t-15.5 42.5v519h-89q-22 0 -34 12t-12 33v2q0 21 12 33t34 12h90v45q0 40 -12.5 56.5t-49.5 16.5q-22 0 -64 -2q-30 -3 -64 -3q-69 0 -106.5 30
t-37.5 92q0 64 56 64q52 0 56 -47q1 -25 16 -35t48 -10q21 0 61 2q42 2 76 2q68 0 102 -40t34 -111v-60h69q21 0 32.5 -12zM318.5 130q19.5 -22 19.5 -52q0 -34 -23.5 -56t-65.5 -22q-54 0 -100.5 34t-75 100.5t-28.5 159.5q0 89 26 160.5t64 113.5h-149q-21 0 -33 12
t-12 33v2q0 21 12 33t33 12h368q21 0 33 -12t12 -33v-2q0 -21 -12 -33t-33 -12h-35q-42 0 -80 -36t-61.5 -98.5t-23.5 -138.5q0 -132 53 -173q10 14 25.5 22t33.5 8q33 0 52.5 -22zM631.5 552.5q-15.5 15.5 -15.5 38.5q0 24 15.5 40t39.5 16q23 0 39 -16.5t16 -39.5
t-16 -38.5t-39 -15.5q-24 0 -39.5 15.5zM500.5 514.5q-15.5 15.5 -15.5 38.5q0 24 15.5 40t39.5 16q23 0 39 -16.5t16 -39.5t-16 -38.5t-39 -15.5q-24 0 -39.5 15.5zM837 443.5q-15 13.5 -18 33.5q-17 5 -28 19t-11 33q0 23 15.5 39.5t38.5 16.5q21 0 36.5 -13.5t18.5 -33.5
q17 -5 28.5 -20t11.5 -34q0 -22 -16.5 -38t-39.5 -16q-21 0 -36 13.5zM403 420.5q-16 15.5 -16 38.5t16 39.5t39 16.5t39 -16.5t16 -39.5t-16 -38.5t-39 -15.5t-39 15.5zM978 369q16 -16 16 -39t-16 -39t-40 -16q-23 0 -38.5 16t-15.5 39t15.5 39t38.5 16q24 0 40 -16z
M447.5 290q-16.5 -16 -39.5 -16t-38.5 16t-15.5 39t15.5 39t38.5 16t39.5 -16t16.5 -39t-16.5 -39zM941 238.5q16 -16.5 16 -39.5t-16 -38.5t-40 -15.5q-23 0 -38.5 15.5t-15.5 38.5t15.5 39.5t38.5 16.5q24 0 40 -16.5zM483 238q16 -16 16 -39t-16 -39t-40 -16
q-23 0 -38.5 16t-15.5 39t15.5 39t38.5 16q24 0 40 -16zM580.5 144q16.5 -16 16.5 -39t-16.5 -39t-39.5 -16t-38.5 16t-15.5 39t15.5 39t38.5 16t39.5 -16zM842.5 144q16.5 -16 16.5 -39t-16.5 -39t-39.5 -16t-38.5 16t-15.5 39t15.5 39t38.5 16t39.5 -16zM712 108.5
q16 -16.5 16 -39.5t-16 -38.5t-39 -15.5q-24 0 -39.5 15.5t-15.5 38.5q0 24 15.5 40t39.5 16q23 0 39 -16.5z" />
    <glyph glyph-name="bn_danda" unicode="&#x9e4;" horiz-adv-x="340" 
d="M163.5 6.5q-15.5 15.5 -15.5 42.5v542q0 27 15.5 42t41.5 15h2q27 0 42 -15t15 -42v-542q0 -27 -15 -42.5t-42 -15.5h-2q-26 0 -41.5 15.5z" />
    <glyph glyph-name="uni09F0" unicode="&#x9f0;" horiz-adv-x="554" 
d="M579.5 648q11.5 -12 11.5 -33v-2q0 -21 -11.5 -33t-32.5 -12h-69v-522q0 -26 -13.5 -40.5t-37.5 -14.5h-2q-25 0 -39 14.5t-14 40.5v25l-279 144q-28 13 -41.5 35.5t-13.5 56.5q0 65 60 100q80 50 152 79.5t122 43.5v38h-386q-21 0 -33 12t-12 33v2q0 21 12 33t33 12h561
q21 0 32.5 -12zM438 289l-66 34v107q-55 -19 -114 -47l-42 22l-42 -50l16 -8q-35 -20 -63 -40l245 -126v69l65 -34zM372 323v-73l-182 97q9 5 68 36z" />
    <glyph glyph-name="uni09F1" unicode="&#x9f1;" horiz-adv-x="540" 
d="M565.5 648q11.5 -12 11.5 -33v-2q0 -21 -11.5 -33t-32.5 -12h-69v-522q0 -26 -14 -40.5t-39 -14.5h-2q-25 0 -39.5 14.5t-14.5 40.5v31l-276 156q-43 24 -43 74q0 49 37 77q61 44 124 74t108 45.5t50 15.5v49h-369q-21 0 -33 12t-12 33v2q0 21 12 33t33 12h547
q21 0 32.5 -12zM355 197v216q-41 -16 -95 -42.5t-105 -60.5zM263 21q0 -18 -11 -32t-28 -14q-12 0 -25 7l-118 66q-21 12 -21 34q0 18 12 32t29 14q12 0 21 -6l121 -68q20 -12 20 -33z" />
    <glyph glyph-name="uni200C" unicode="&#x200c;" 
d="M-24 794h51v-1140h-51v1140z" />
    <glyph glyph-name="uni200D" unicode="&#x200d;" 
d="M36 665l104 -95l-41 -39l-74 74v-951h-51v950l-74 -73l-42 39l104 95l-104 96l41 38l101 -99l100 99l40 -38z" />
    <glyph glyph-name="endash" unicode="&#x2013;" 
d="M73 -218q4 -10 4 -21q0 -22 -14 -36.5t-35 -14.5q-17 0 -29 7.5t-24 27.5q-28 39 -66 68q-7 -74 -55 -117t-124 -43q-46 0 -83 20t-57.5 55t-20.5 77q0 74 50.5 118.5t127.5 44.5t164.5 -43t147.5 -119q10 -14 14 -24zM-209.5 -230q20.5 25 20.5 74q0 12 -1 19
q-33 10 -60 10q-77 0 -77 -66q0 -26 16.5 -44t42.5 -18q38 0 58.5 25z" />
    <glyph glyph-name="emdash" unicode="&#x2014;" horiz-adv-x="6" 
d="M-116.5 397.5q44.5 -25.5 70 -73.5t25.5 -115q0 -110 -64 -178t-184 -68q-74 0 -136 30.5t-104 87.5t-58 134q-2 12 -2 20q0 23 16 36.5t42 13.5q19 0 31.5 -13t15.5 -34q16 -78 66.5 -126t127.5 -48q67 0 105 40t38 106q0 55 -25.5 86t-66.5 31q-32 0 -53 -21
q24 -5 39 -24t15 -45q0 -31 -19 -50.5t-53 -19.5q-43 0 -67 28.5t-24 78.5q0 66 44.5 107.5t119.5 41.5q56 0 100.5 -25.5z" />
    <glyph glyph-name="quoteleft" unicode="&#x2018;" 
d="M-41 102.5q14 -29.5 14 -63.5q0 -78 -55.5 -127.5t-157.5 -49.5q-100 0 -172 47.5t-113.5 129.5t-51.5 187q-2 29 13 46.5t44 17.5q25 0 35.5 -15t12.5 -35q11 -134 72 -206t162 -72q56 0 83 23t27 58q0 29 -21 46q-21 -26 -61 -26q-34 0 -55.5 19.5t-21.5 53.5
q0 35 20.5 56t59.5 21q25 0 44 -13q20 26 20 61q0 37 -23 55.5t-62 18.5q-45 0 -67 -24q33 -18 33 -56q0 -28 -18.5 -46.5t-49.5 -18.5q-38 0 -61 24.5t-23 66.5q0 66 49 107.5t133 41.5q89 0 141.5 -46t52.5 -122q0 -64 -43 -110q26 -20 40 -49.5z" />
    <glyph glyph-name="quoteright" unicode="&#x2019;" 
d="M-16 -17q0 -21 -12.5 -38.5t-33.5 -17.5q-14 0 -35 8l-282 125q-36 15 -36 46q0 23 13.5 39.5t36.5 16.5q10 0 28 -4q30 -7 60 -7q51 0 84 24t33 74q0 39 -23.5 60t-58.5 21q-26 0 -41 -12q14 -9 22.5 -23.5t8.5 -31.5q0 -27 -17 -45t-47 -18q-36 0 -58.5 23.5
t-22.5 63.5q0 42 22 73.5t56.5 48.5t72.5 17q91 0 143 -46.5t52 -129.5q0 -62 -34 -106t-99 -60v-4q0 1 32.5 -9t71.5 -29l34 -18q30 -14 30 -41z" />
    <glyph glyph-name="quotesinglbase" unicode="&#x201a;" 
d="M102 -186q5 -8 5 -20q0 -20 -14 -36.5t-35 -16.5q-10 0 -18.5 4.5t-18.5 12.5l-53 46q-68 -73 -175 -73q-82 0 -133 41t-51 109q0 75 51.5 116t135.5 47q11 1 32 1v76q0 51 47 51h3q46 0 46 -51v-86q0 -37 -8.5 -53t-25.5 -20t-53 -4q-121 0 -121 -71q0 -28 20.5 -43
t58.5 -15q76 0 127 55q6 7 15.5 17.5t16 15t15.5 4.5q10 0 16.5 -4t14.5 -11.5t12 -10.5l73 -63q12 -10 17 -18z" />
    <glyph glyph-name="quotedblleft" unicode="&#x201c;" horiz-adv-x="282" 
d="M307.5 648q11.5 -12 11.5 -33v-2q0 -21 -11.5 -33t-32.5 -12h-322q-21 0 -33 12t-12 33v2q0 21 12 33t33 12h322q21 0 32.5 -12zM207 442.5q42 -46.5 42 -130.5q0 -77 -46 -128.5t-129 -51.5q-63 0 -113 31t-74 93l37 159q0 -88 35.5 -135.5t99.5 -47.5q42 0 65.5 25
t23.5 69q0 23 -8.5 41t-25.5 27q1 -4 1 -11q0 -30 -17.5 -50t-48.5 -20q-33 0 -53.5 20.5t-20.5 54.5q0 46 31.5 73.5t85.5 27.5q73 0 115 -46.5z" />
    <glyph glyph-name="quotedblright" unicode="&#x201d;" horiz-adv-x="466" 
d="M491.5 648q11.5 -12 11.5 -33v-2q0 -21 -11.5 -33t-32.5 -12h-285q5 -17 18.5 -28t44.5 -21l81 -27q70 -23 92.5 -54.5t22.5 -76.5q0 -54 -30 -104t-82.5 -80.5t-116.5 -30.5q-59 0 -98.5 30t-39.5 103v289h-80q-21 0 -33 12t-12 33v2q0 21 12 33t33 12h473
q21 0 32.5 -12zM175 284q0 -20 8 -28.5t26 -8.5q25 0 52 15t44.5 39t17.5 50q0 19 -8 30.5t-32 18.5l-54 19q-38 12 -54 28v-163z" />
    <glyph glyph-name="quotedblbase" unicode="&#x201e;" 
d="M-227 -256q8 -11 8 -25q0 -22 -13 -40t-34 -18q-12 0 -37 10l-178 80q-24 11 -33.5 27t-9.5 42q0 27 8 46.5t31 36.5l87 65v69q0 23 17 37.5t42 14.5h3q24 0 39 -14t15 -38v-51q0 -38 -7.5 -55t-28.5 -33l-94 -67l163 -71q14 -5 22 -16z" />
    <glyph glyph-name="dagger" unicode="&#x2020;" horiz-adv-x="361" 
d="M76.5 486q31.5 82 88.5 128t130 46h59q21 0 32.5 -12t11.5 -33v-2q0 -21 -11.5 -33t-32.5 -12h-23q-54 0 -94 -34t-61.5 -95.5t-21.5 -140.5q0 -66 13.5 -112t39.5 -65q9 14 24.5 22.5t33.5 8.5q33 0 52.5 -22t19.5 -52q0 -34 -23 -56t-65 -22q-54 0 -100.5 34.5t-75 102
t-28.5 161.5q0 106 31.5 188z" />
    <glyph glyph-name="daggerdbl" unicode="&#x2021;" horiz-adv-x="362" 
d="M381 648q12 -12 12 -33v-2q0 -21 -12 -33t-33 -12h-16q-51 0 -92 -34t-63.5 -95.5t-22.5 -140.5q0 -133 52 -175q10 14 25.5 21.5t33.5 7.5q33 0 52.5 -22t19.5 -52q0 -34 -23 -56t-65 -22q-54 0 -100.5 34.5t-75 102t-28.5 161.5q0 85 21.5 154t59.5 116h-138
q-21 0 -33 12t-12 33v2q0 21 12 33t33 12h360q21 0 33 -12z" />
    <glyph glyph-name="bullet" unicode="&#x2022;" horiz-adv-x="569" 
d="M529 323q0 -88 -54.5 -144t-162.5 -56q-129 0 -203.5 79.5t-86.5 211.5q-2 22 10 37.5t38 15.5q19 1 31 -10.5t14 -30.5q10 -99 59.5 -151.5t137.5 -52.5q59 0 91 27t32 71q0 8 -2 14.5t-2 8.5q-56 -39 -125 -39q-53 0 -84.5 28t-31.5 82v57q-70 31 -110 97h-94
q-21 0 -33 12t-12 33v2q0 21 12 33t33 12h115q16 0 25 -5t17 -17.5t17 -28.5q12 -25 30 -41q1 55 35 85.5t91 30.5q64 0 102 -32.5t38 -86.5t-39 -85.5t-116 -31.5h-17v-16q0 -33 34 -33q24 0 43 6.5t46 19.5q3 1 19.5 8.5t28.5 7.5q33 0 53 -33q21 -37 21 -85zM284 526
q6 -1 19 -1q30 0 47.5 13t17.5 33q0 18 -11 27.5t-31 9.5q-22 0 -32 -13t-10 -38v-31z" />
    <glyph glyph-name="ellipsis" unicode="&#x2026;" 
d="M-239.5 -237q8.5 -11 8.5 -25q0 -21 -13.5 -39.5t-34.5 -18.5q-12 0 -37 10l-174 80q-24 11 -34 27t-10 42q0 28 7.5 47.5t31.5 35.5l101 68v68q0 24 14 38t39 14h3q24 0 40 -14t16 -38v-53q0 -38 -7.5 -55.5t-29.5 -32.5l-102 -67l159 -71q14 -5 22.5 -16z" />
    <glyph glyph-name="perthousand" unicode="&#x2030;" horiz-adv-x="364" 
d="M403.5 648q11.5 -12 11.5 -33v-2q0 -21 -11.5 -33t-32.5 -12h-102q-36 -57 -56 -93t-36 -87t-16 -109q0 -54 12.5 -95.5t37.5 -61.5q10 14 25.5 22t33.5 8q34 0 53.5 -22t19.5 -52q0 -34 -23.5 -56t-64.5 -22q-55 0 -101.5 32.5t-74 96t-27.5 154.5q0 60 14.5 110.5
t33.5 86.5t51 88h-159q-21 0 -33 12t-12 33v2q0 21 12 33t33 12h216q13 22 20 38.5t7 31.5q0 17 -11.5 27t-29.5 10q-33 0 -63.5 8.5t-48.5 23.5q-8 7 -12.5 18.5t-4.5 23.5q0 8 1 11q6 32 42 32q13 0 26.5 -5t16.5 -6q26 -13 48 -13q62 0 102.5 -32.5t40.5 -86.5
q0 -38 -19 -81h48q21 0 32.5 -12z" />
    <glyph glyph-name="guilsinglleft" unicode="&#x2039;" 
d="M-139.5 306q58.5 -26 94.5 -74t36 -112q0 -52 -26.5 -87t-75.5 -35q-35 0 -57 17t-22 49q0 29 18 46.5t47 17.5q9 0 17 -3q0 42 -39 72t-97 35v-237q0 -35 -15 -53t-47 -18t-82 28l-209 113q-44 24 -44 76q0 30 9.5 49t29.5 32q86 58 169 84t170 26q65 0 123.5 -26z
M-352 50v172q-88 -21 -175 -80z" />
    <glyph glyph-name="guilsinglright" unicode="&#x203a;" horiz-adv-x="303" 
d="M578 648q12 -12 12 -33v-2q0 -21 -12 -33t-33 -12h-51v-371l-109 -74q-30 119 -83 187t-128 68q-12 0 -18 -1q14 -17 14 -42q0 -31 -20 -50t-52 -19q-35 0 -58 22.5t-23 60.5q0 57 41 93t114 36q71 0 126.5 -32.5t91.5 -96.5l2 1q-14 84 -14 175v43h-392q-21 0 -33 12
t-12 33v2q0 21 12 33t33 12h559q21 0 33 -12z" />
    <glyph glyph-name="uni20A8" unicode="&#x20a8;" horiz-adv-x="523" 
d="M310 574v-4q15 -6 30.5 -23.5t24.5 -44.5h64q20 0 31 -11t11 -31v-2q0 -42 -42 -42h-56q-8 -83 -63 -127t-126 -52l138 -148q14 -14 20 -25t6 -24q0 -17 -14 -33t-36 -16q-23 0 -44 23l-174 185q-14 14 -20.5 29t-6.5 37q0 25 10.5 39t31.5 14h16q67 1 105 26t46 72h-168
q-42 0 -42 42v2q0 20 11 31t31 11h162q-13 34 -43.5 53t-77.5 19h-41q-42 0 -42 42v2q0 20 11 31t31 11h335q20 0 31 -11t11 -31v-2q0 -42 -42 -42h-119z" />
    <glyph glyph-name="Euro" unicode="&#x20ac;" horiz-adv-x="568" 
d="M496 99q12 -16 12 -39q0 -38 -56 -54q-36 -10 -85 -10q-100 0 -166 58t-89 160h-50q-18 0 -28 10t-10 28v2q0 19 10 29t28 10h38q-1 12 -1 37q0 26 1 38h-38q-18 0 -28 10t-10 29v2q0 18 10 28t28 10h49q23 102 88 160t165 58q38 0 75 -9q68 -19 68 -56
q0 -20 -11.5 -36.5t-30.5 -16.5q-8 0 -22 4.5t-23 6.5q-19 6 -46 6q-116 0 -150 -117h136q18 0 28 -10t10 -28v-2q0 -19 -10 -29t-28 -10h-150q-1 -12 -1 -38q0 -25 1 -37h150q18 0 28 -10t10 -29v-2q0 -18 -10 -28t-28 -10h-136q35 -117 153 -117q22 0 46 6q7 2 20 7t21 5
q20 0 32 -16z" />
    <glyph glyph-name="trademark" unicode="&#x2122;" horiz-adv-x="519" 
d="M544 648q12 -12 12 -33v-2q0 -21 -12 -33t-33 -12h-328v-57q0 -51 -5 -104l3 -2q56 39 120 69q26 14 43.5 22t34.5 11q6 2 13 2q24 0 42 -14q19 -14 25 -27.5t6 -28.5q0 -14 -7 -44q-7 -34 -11 -65.5t-5 -82.5q0 -30 -11.5 -44.5t-39.5 -14.5h-2q-28 0 -40 14.5t-12 44.5
q0 87 17 146q-48 -28 -125 -81q-31 -21 -52.5 -29.5t-47.5 -8.5q-30 0 -46.5 16t-16.5 48v230h-80q-21 0 -33 12t-12 33v2q0 21 12 33t33 12h525q21 0 33 -12z" />
    <glyph glyph-name="estimated" unicode="&#x212e;" horiz-adv-x="687" 
d="M197.5 27q-66.5 37 -102.5 102.5t-36 148.5q0 82 35.5 148t102 104t153.5 38q81 0 142 -33t95 -94t34 -142q0 -19 -7 -28.5t-26 -9.5h-369v-162q24 -19 59.5 -30t76.5 -11q117 0 182 78q15 16 28 16q14 0 23.5 -9.5t9.5 -23.5q0 -12 -8 -23q-42 -54 -101 -80t-136 -26
q-89 0 -155.5 37zM474 323v143q-18 16 -50.5 27t-70.5 11q-40 0 -76 -11.5t-58 -31.5v-138h255z" />
    <glyph glyph-name="minus" unicode="&#x2212;" 
d="M-76 -140q0 -25 -15 -39t-41 -14h-2q-25 0 -41.5 14.5t-16.5 38.5v180q-6 24 -18.5 35t-29.5 11q-21 0 -35.5 -17t-19.5 -53q-3 -19 -14.5 -30.5t-38.5 -11.5t-38 11.5t-16 30.5q-10 37 -26.5 53.5t-43.5 16.5q-32 0 -52 -22.5t-20 -63.5q0 -52 25 -75q7 19 23 30.5
t37 11.5q29 0 48 -19.5t19 -48.5q0 -33 -24.5 -55.5t-69.5 -22.5q-71 0 -116 48.5t-45 128.5q0 60 24 102.5t62 63.5t81 21q42 0 75.5 -17.5t51.5 -46.5q16 32 45 49t57 17q34 0 60 -21v135h114z" />
    <glyph glyph-name="infinity" unicode="&#x221e;" horiz-adv-x="846" 
d="M132 163.5q-45 24.5 -70 69t-25 100.5q0 54 23.5 98.5t66.5 70.5t99 26q61 0 105 -28.5t81 -79.5q36 50 81.5 79t110.5 29q56 0 101 -26t70 -70.5t25 -98.5q0 -56 -24 -100.5t-66.5 -69t-95.5 -24.5q-66 0 -111.5 27.5t-83.5 76.5q-34 -49 -77.5 -76.5t-107.5 -27.5
q-57 0 -102 24.5zM301 261.5q28 24.5 56 70.5q-31 49 -59 73.5t-66 24.5q-41 0 -63.5 -28t-22.5 -69t23 -68.5t65 -27.5q39 0 67 24.5zM669.5 264.5q22.5 27.5 22.5 68.5q0 40 -23.5 68.5t-64.5 28.5q-42 0 -71.5 -25.5t-58.5 -73.5q32 -46 61.5 -70t69.5 -24
q42 0 64.5 27.5z" />
    <glyph glyph-name="approxequal" unicode="&#x2248;" horiz-adv-x="577" 
d="M513.5 317q6.5 -12 6.5 -24q0 -14 -8 -25q-6 -2 -17 -2q-9 0 -17.5 1.5t-15.5 1.5q-4 0 -14 -2l-21 -20q-29 -28 -50.5 -41t-54.5 -13q-29 0 -54.5 9t-55.5 25q-38 20 -56 22q-12 1 -20.5 -3.5t-18.5 -12.5q-9 -7 -15 -10t-15 -3q-24 16 -24 41q0 15 10 29q8 2 21 2h21
q15 0 23 2q6 6 21.5 21t28.5 24q-19 9 -32 10q-12 1 -20.5 -3.5t-18.5 -12.5q-10 -7 -16 -10t-15 -3q-22 14 -22 41q0 16 10 30q7 2 19 2l24 -1q10 0 22 3l16 16q30 28 51 40.5t55 12.5q29 0 51.5 -8t57.5 -25q15 -8 30.5 -15t27.5 -8q13 -1 20.5 3t17.5 12q8 7 14.5 10.5
t16.5 3.5q10 -8 16.5 -20t6.5 -24q0 -14 -8 -25q-6 -2 -17 -2q-9 0 -17.5 1.5t-15.5 1.5q-4 0 -14 -2l-22 -21q-20 -20 -31 -28q19 -9 33 -10q13 -1 20.5 3t17.5 12q8 7 14.5 10.5t16.5 3.5q10 -8 16.5 -20z" />
    <glyph glyph-name="notequal" unicode="&#x2260;" horiz-adv-x="556" 
d="M358 393l-75 -127h190q49 0 49 -49v-2q0 -24 -12.5 -37t-36.5 -13h-250l-50 -84q-14 -22 -31 -22q-16 0 -29 9.5t-14 25.5q0 10 9 26l27 45h-52q-24 0 -36.5 13t-12.5 37v2q0 49 49 49h112l75 127h-187q-24 0 -36.5 13t-12.5 36v2q0 24 12.5 37t36.5 13h247l52 87
q14 23 32 23q15 0 28 -10t14 -26q0 -11 -9 -25l-29 -49h55q24 0 36.5 -13t12.5 -37v-2q0 -23 -12.5 -36t-36.5 -13h-115z" />
    <glyph glyph-name="lessequal" unicode="&#x2264;" horiz-adv-x="549" 
d="M436 237l-343 89q-56 14 -56 71v2q0 57 56 71l343 87q4 1 14.5 3t17.5 2q19 0 31.5 -12t12.5 -41q0 -20 -12 -29.5t-36 -15.5l-106 -24q-67 -15 -132 -27t-86 -13v-4q25 -3 87.5 -14.5t129.5 -26.5l107 -25q24 -5 36 -14.5t12 -30.5q0 -28 -13 -40.5t-31 -12.5
q-14 0 -32 5zM49 108.5q-12 12.5 -12 35.5v2q0 23 12.5 35t34.5 12h381q23 0 35 -12t12 -35v-2q0 -23 -12 -35.5t-35 -12.5h-381q-23 0 -35 12.5z" />
    <glyph glyph-name="greaterequal" unicode="&#x2265;" horiz-adv-x="549" 
d="M50 244.5q-13 12.5 -13 40.5q0 21 12 30.5t36 14.5l107 25q67 15 129.5 26.5t87.5 14.5v4q-21 1 -86 13t-132 27l-106 24q-24 6 -36 15.5t-12 29.5q0 29 12.5 41t31.5 12q6 0 31 -5l344 -87q56 -14 56 -71v-2q0 -57 -56 -71l-344 -89q-17 -5 -31 -5q-18 0 -31 12.5z
M49 108.5q-12 12.5 -12 35.5v2q0 23 12.5 35t34.5 12h381q23 0 35 -12t12 -35v-2q0 -23 -12 -35.5t-35 -12.5h-381q-23 0 -35 12.5z" />
    <glyph glyph-name="w.alt" horiz-adv-x="268" 
d="M670 914q0 -11 -6 -26q-12 -27 -39 -27q-14 0 -31 9q-74 38 -133.5 52.5t-112.5 14.5q-83 0 -119.5 -32.5t-36.5 -112.5v-132h69q20 0 32 -12t12 -33v-2q0 -21 -12 -33t-32 -12h-69v-519q0 -27 -15 -42.5t-42 -15.5h-2q-26 0 -41.5 15.5t-15.5 42.5v519h-90q-21 0 -33 12
t-12 33v2q0 21 12 33t33 12h90v132q0 129 72.5 187.5t188.5 58.5q151 0 298 -79q35 -18 35 -45z" />
    <glyph glyph-name="uni09A5.halant" horiz-adv-x="650" 
d="M475.5 6.5q-14.5 15.5 -14.5 42.5v28l-386 170q-32 14 -32 44q0 26 13 43.5t38 17.5l23 -1q20 -2 42 -2q61 0 96.5 32.5t35.5 92.5q0 50 -23 74t-63 24q-24 0 -44 -10q22 -8 35 -26t13 -41q0 -31 -19.5 -51t-54.5 -20q-42 0 -66 26t-24 70q0 41 20.5 75t58 53.5
t84.5 19.5q89 0 140.5 -53.5t51.5 -138.5q0 -70 -34.5 -125.5t-123.5 -71.5v-4q10 -3 46 -15t80 -32l93 -41v514q0 27 14.5 42t41.5 15h2q26 0 40.5 -15t14.5 -42v-41h68q21 0 33 -12t12 -33v-2q0 -21 -12 -33t-33 -12h-68v-519q0 -27 -14.5 -42.5t-40.5 -15.5h-2
q-27 0 -41.5 15.5zM734 -265q0 -15 -10 -28q-17 -23 -40 -23q-16 0 -33 12l-165 131q-19 15 -19 35q0 18 14 35q17 20 37 20q18 0 35 -14l158 -127q23 -18 23 -41z" />
    <glyph glyph-name="uni09B0.halant" horiz-adv-x="540" 
d="M369.5 5.5q-14.5 14.5 -14.5 40.5v31l-282 159q-20 12 -28.5 28.5t-8.5 41.5q0 51 33 75q62 44 125.5 75t109.5 47t51 16v49h-369q-21 0 -33 12t-12 33v2q0 21 12 33t33 12h547q21 0 32.5 -12t11.5 -33v-2q0 -21 -11.5 -33t-32.5 -12h-69v-522q0 -26 -13.5 -40.5
t-39.5 -14.5h-2q-25 0 -39.5 14.5zM355 197v216q-42 -16 -95.5 -42.5t-103.5 -60.5zM197 82.5q20 -20.5 20 -49.5q0 -30 -19.5 -50t-51.5 -20t-51 20t-19 50q0 29 19.5 49.5t50.5 20.5t51 -20.5zM623 -265q0 -15 -10 -28q-16 -23 -40 -23q-16 0 -33 12l-165 130
q-19 15 -19 35q0 18 14 35q17 20 38 20q18 0 35 -14l157 -127q23 -18 23 -40z" />
    <glyph glyph-name="uni09B0.u" horiz-adv-x="823" 
d="M847.5 648q11.5 -12 11.5 -33v-2q0 -21 -11.5 -33t-32.5 -12h-352v-153q0 -88 35.5 -135.5t99.5 -47.5q42 0 65.5 25t23.5 70q0 23 -9.5 41t-26.5 27q1 -4 1 -11q0 -30 -17.5 -50t-48.5 -20q-33 0 -53.5 20.5t-20.5 54.5q0 46 31.5 74.5t85.5 28.5q72 0 116 -47t44 -128
t-47 -132.5t-133 -51.5q-43 0 -81.5 16t-65.5 47l-5 -3q1 -6 3.5 -31.5t2.5 -71.5v-44q0 -26 -13.5 -40.5t-40.5 -14.5h-2q-25 0 -39.5 14.5t-14.5 40.5v31l-275 156q-43 24 -43 74t36 77q62 44 124.5 74t108 45.5t49.5 15.5v49h-367q-22 0 -34 12t-12 33v2q0 21 12 33
t34 12h829q21 0 32.5 -12zM353 198v215q-41 -15 -94.5 -42t-104.5 -61zM195 82.5q20 -20.5 20 -49.5q0 -30 -19.5 -50t-51.5 -20q-31 0 -50 20t-19 50q0 29 19 49.5t50 20.5t51 -20.5z" />
    <glyph glyph-name="uni09B0.uu" horiz-adv-x="745" 
 />
    <glyph glyph-name="uni09F0.halant" horiz-adv-x="554" 
d="M386 5.5q-14 14.5 -14 40.5v25l-279 144q-28 13 -41.5 35.5t-13.5 56.5q0 65 60 100q80 50 152 79.5t122 43.5v38h-386q-21 0 -33 12t-12 33v2q0 21 12 33t33 12h561q21 0 32.5 -12t11.5 -33v-2q0 -21 -11.5 -33t-32.5 -12h-69v-522q0 -26 -13.5 -40.5t-37.5 -14.5h-2
q-25 0 -39 14.5zM372 181v69l65 -34l1 73l-66 34v107q-55 -19 -114 -47l-42 22l-42 -50l16 -8q-35 -20 -63 -40zM372 250l-182 97q9 5 68 36l114 -60v-73zM647 -265q0 -15 -10 -28q-17 -23 -40 -23q-16 0 -33 12l-165 130q-19 15 -19 35q0 18 14 35q17 20 37 20q18 0 35 -14
l158 -127q23 -18 23 -40z" />
    <glyph glyph-name="uni09F0.half" horiz-adv-x="507" 
d="M532 648q12 -12 12 -33v-2q0 -21 -12 -33t-33 -12h-70v-344q0 -74 -67 -74q-37 0 -85 25l-200 100q-22 10 -32.5 26.5t-10.5 44.5q0 50 45 77q104 63 247 122v23h-340q-21 0 -33 12t-12 33v2q0 21 12 33t33 12h513q21 0 33 -12zM294 429l-53 -25l85 -43v83
q-20 -10 -32 -15zM326 248v60l-138 68q-22 -11 -55 -31z" />
    <glyph glyph-name="uni09F0.u" horiz-adv-x="838" 
d="M863 648q12 -12 12 -33v-2q0 -21 -12 -33t-33 -12h-352v-152q0 -88 35.5 -136t98.5 -48q42 0 66 25t24 70q0 23 -9.5 41t-26.5 27q1 -4 1 -11q0 -30 -17.5 -50t-48.5 -20q-33 0 -53.5 20.5t-20.5 54.5q0 46 31.5 74.5t85.5 28.5q72 0 116 -47t44 -128t-47 -132.5
t-133 -51.5q-43 0 -81.5 16t-65.5 47l-5 -3q1 -7 3.5 -36t2.5 -72v-39q0 -26 -14 -40.5t-39 -14.5h-2q-25 0 -39 14.5t-14 40.5v26l-279 143q-28 14 -41 36.5t-13 55.5q0 65 59 100q86 52 159.5 82.5t115.5 40.5v38h-385q-21 0 -33 12t-12 33v2q0 21 12 33t33 12h844
q21 0 33 -12zM437 288l-66 35v107q-56 -19 -113 -47l-43 22l-42 -50l17 -9q-35 -20 -63 -40l244 -125v70l66 -35v72zM371 323v-72l-181 95q28 17 68 37z" />
    <glyph glyph-name="uni09F0.uu" horiz-adv-x="759" 
 />
    <glyph glyph-name="uni09F1.halant" horiz-adv-x="540" 
d="M369.5 5.5q-14.5 14.5 -14.5 40.5v31l-276 156q-43 24 -43 74q0 49 37 77q61 44 124 74t108 45.5t50 15.5v49h-369q-21 0 -33 12t-12 33v2q0 21 12 33t33 12h547q21 0 32.5 -12t11.5 -33v-2q0 -21 -11.5 -33t-32.5 -12h-69v-522q0 -26 -14 -40.5t-39 -14.5h-2
q-25 0 -39.5 14.5zM355 197v216q-41 -16 -95 -42.5t-105 -60.5zM263 21q0 -18 -11 -32t-28 -14q-12 0 -25 7l-118 66q-21 12 -21 34q0 18 12 32t29 14q12 0 21 -6l121 -68q20 -12 20 -33zM624 -265q0 -15 -10 -28q-16 -23 -40 -23q-16 0 -33 12l-165 130q-19 15 -19 35
q0 18 14 35q17 20 38 20q18 0 35 -14l157 -127q23 -18 23 -40z" />
    <glyph glyph-name="uni09F1.half" horiz-adv-x="511" 
d="M537 648q12 -12 12 -33v-2q0 -21 -12 -33t-33 -12h-70v-343q0 -73 -67 -73q-24 0 -45 6t-46 19l-196 98q-41 21 -41 69q0 46 39 69q61 38 120 66t127 57v32h-339q-21 0 -33 12t-12 33v2q0 21 12 33t33 12h518q21 0 33 -12zM325 265v158q-84 -38 -157 -79zM262 94
q0 -18 -10.5 -33t-28.5 -15q-14 0 -27 7l-108 53q-21 10 -21 35q0 19 12 32.5t30 13.5q11 0 23 -6l110 -54q20 -10 20 -33z" />
    <glyph glyph-name="uni09F1.u" horiz-adv-x="823" 
d="M848 648q12 -12 12 -33v-2q0 -21 -12 -33t-33 -12h-352v-152q0 -88 36 -136t99 -48q42 0 65.5 25t23.5 70q0 23 -9.5 41t-26.5 27q1 -4 1 -11q0 -30 -17.5 -50t-48.5 -20q-33 0 -53.5 20.5t-20.5 54.5q0 46 31.5 74.5t85.5 28.5q72 0 116 -47t44 -128t-47 -132.5
t-133 -51.5q-43 0 -81.5 16t-65.5 47l-5 -3q1 -7 3 -37.5t3 -78.5v-31q0 -26 -14.5 -40.5t-39.5 -14.5h-2q-25 0 -39.5 14.5t-14.5 40.5v31l-275 156q-43 24 -43 74t36 77q63 44 125.5 74t107.5 45.5t49 15.5v49h-367q-21 0 -33 12t-12 33v2q0 21 12 33t33 12h829
q21 0 33 -12zM353 197v216q-41 -15 -94.5 -42t-104.5 -61zM261 21q0 -18 -11 -32t-27 -14q-12 0 -26 7l-118 66q-21 13 -21 34q0 18 12.5 32t29.5 14q11 0 20 -6l122 -68q19 -12 19 -33z" />
    <glyph glyph-name="uni09F1.uu" horiz-adv-x="745" 
 />
    <glyph glyph-name="quotedblbase.alt" 
d="M-277.5 -256q8.5 -11 8.5 -25q0 -21 -13.5 -39.5t-34.5 -18.5q-12 0 -37 10l-177 80q-24 11 -34 27t-10 42t8 46t31 37l87 65v81q0 23 17 37.5t42 14.5h3q24 0 39 -14t15 -38v-63q0 -38 -7.5 -55t-28.5 -33l-94 -67l163 -71q14 -5 22.5 -16z" />
    <glyph glyph-name="ITF" horiz-adv-x="1658" 
d="M152 634h196v-634h-196v634zM388 634h196v-185h-196v185zM624 634h196v-634h-196v634zM860 634h196v-185h-196v185zM1096 634h196v-634h-196v634zM1332 634h196v-185h-196v185zM1332 409h196v-185h-196v185z" />
    <glyph glyph-name="chandrareph_null" 
 />
    <glyph glyph-name="bn_matra.aa.short" horiz-adv-x="268" 
d="M91.5 6.5q-15.5 15.5 -15.5 42.5v436q0 41 -14.5 62t-48.5 21h-27q-21 0 -33.5 12t-12.5 33v2q0 21 12.5 33t33.5 12h28q32 0 50 -17t35 -56l5 2q-2 3 -6.5 17t-8.5 36t-4 46v19q0 24 13.5 37.5t38.5 13.5h3q25 0 38.5 -13.5t13.5 -37.5v-47h19q21 0 33.5 -12t12.5 -33
v-2q0 -21 -12.5 -33t-33.5 -12h-19v-519q0 -27 -15 -42.5t-42 -15.5h-2q-26 0 -41.5 15.5z" />
    <glyph glyph-name="bn_matra.i.short" horiz-adv-x="268" 
 />
    <glyph glyph-name="bn_matra.i.chandrabindu" horiz-adv-x="268" 
d="M681.5 1043.5q-19.5 19.5 -19.5 48.5q0 30 19.5 50.5t48.5 20.5t49.5 -20.5t20.5 -50.5q0 -29 -20.5 -48.5t-49.5 -19.5t-48.5 19.5zM945 1046.5q16 -14.5 16 -36.5q0 -15 -8 -28q-31 -55 -88 -88t-135 -33t-134.5 33t-87.5 88q-8 13 -8 28q0 22 16 36.5t37 14.5
q14 0 25.5 -7.5t22.5 -24.5q44 -72 129 -72q86 0 130 72q11 17 22.5 24.5t25.5 7.5q21 0 37 -14.5zM653 805q0 -11 -6 -26q-12 -26 -39 -26q-14 0 -32 8q-74 40 -134 59.5t-115 19.5q-135 0 -135 -117v-63h69q20 0 32 -12t12 -33v-2q0 -21 -12 -33t-32 -12h-69v-519
q0 -27 -15 -42.5t-42 -15.5h-2q-26 0 -41.5 15.5t-15.5 42.5v519h-90q-21 0 -33 12t-12 33v2q0 21 12 33t33 12h90v63q0 112 64.5 165t175.5 53q72 0 144.5 -23t157.5 -68q35 -18 35 -45z" />
    <glyph glyph-name="bn_matra.i.reph" horiz-adv-x="268" 
d="M903 938q13 -14 13 -33q0 -12 -5.5 -21t-18.5 -17l-198 -137q-3 -2 -14.5 -9t-25.5 -7q-12 0 -20 3.5t-21 11.5q-86 65 -151.5 96.5t-139.5 31.5q-66 0 -98 -28.5t-32 -88.5v-80h69q20 0 32 -12t12 -33v-2q0 -21 -12 -33t-32 -12h-69v-519q0 -27 -15 -42.5t-42 -15.5h-2
q-26 0 -41.5 15.5t-15.5 42.5v519h-90q-21 0 -33 12t-12 33v2q0 21 12 33t33 12h90v80q0 111 63 164.5t173 53.5q89 0 177.5 -36.5t163.5 -99.5l182 119q19 11 35 11q20 0 33 -14z" />
    <glyph glyph-name="bn_matra.ii.short" horiz-adv-x="268" 
d="M91.5 6.5q-15.5 15.5 -15.5 42.5v519h-90q-21 0 -33 12t-12 33v2q0 21 12 33t33 12h90v6q0 123 -96 181.5t-261 58.5q-139 0 -139 -50q0 -17 16.5 -24.5t50.5 -7.5q33 0 62 3q9 0 28 1.5t36 1.5q78 0 114.5 -32t36.5 -103v-39q0 -27 -14.5 -42t-42.5 -15h-2q-27 0 -42 15
t-15 42v32q0 32 -14.5 43t-47.5 11q-16 0 -46 -2q-28 -3 -68 -3q-80 0 -119.5 30.5t-39.5 85.5q0 77 67.5 111t180.5 34q127 0 234.5 -36.5t172 -111.5t64.5 -184v-6h19q21 0 33 -12t12 -33v-2q0 -21 -12 -33t-33 -12h-19v-519q0 -27 -15 -42.5t-42 -15.5h-2
q-26 0 -41.5 15.5z" />
    <glyph glyph-name="bn_matra.ii.alt" horiz-adv-x="268" 
d="M91.5 6.5q-15.5 15.5 -15.5 42.5v519h-90q-21 0 -33 12t-12 33v2q0 21 12 33t33 12h90v6q0 123 -96 181.5t-261 58.5q-139 0 -139 -50q0 -17 16.5 -24.5t50.5 -7.5q33 0 62 3q9 0 28 1.5t36 1.5q78 0 114.5 -32t36.5 -103v-39q0 -27 -14.5 -42t-42.5 -15h-2q-27 0 -42 15
t-15 42v32q0 32 -14.5 43t-47.5 11q-16 0 -46 -2q-28 -3 -68 -3q-80 0 -119.5 30.5t-39.5 85.5q0 77 67.5 111t180.5 34q127 0 234.5 -36.5t172 -111.5t64.5 -184v-6h69q20 0 32 -12t12 -33v-2q0 -21 -12 -33t-32 -12h-69v-519q0 -27 -15 -42.5t-42 -15.5h-2
q-26 0 -41.5 15.5z" />
    <glyph glyph-name="bn_matra.ii.alt.short" horiz-adv-x="268" 
d="M91.5 6.5q-15.5 15.5 -15.5 42.5v519h-90q-21 0 -33 12t-12 33v2q0 21 12 33t33 12h90v6q0 123 -96 181.5t-261 58.5q-139 0 -139 -50q0 -17 16.5 -24.5t50.5 -7.5q33 0 62 3q9 0 28 1.5t36 1.5q78 0 114.5 -32t36.5 -103v-39q0 -27 -14.5 -42t-42.5 -15h-2q-27 0 -42 15
t-15 42v32q0 32 -14.5 43t-47.5 11q-16 0 -46 -2q-28 -3 -68 -3q-80 0 -119.5 30.5t-39.5 85.5q0 77 67.5 111t180.5 34q127 0 234.5 -36.5t172 -111.5t64.5 -184v-6h19q21 0 33 -12t12 -33v-2q0 -21 -12 -33t-33 -12h-19v-519q0 -27 -15 -42.5t-42 -15.5h-2
q-26 0 -41.5 15.5z" />
    <glyph glyph-name="bn_matra.ii.reph" horiz-adv-x="268" 
d="M293 648q12 -12 12 -33v-2q0 -21 -12 -33t-32 -12h-69v-519q0 -27 -15 -42.5t-42 -15.5h-2q-26 0 -41.5 15.5t-15.5 42.5v519h-90q-21 0 -33 12t-12 33v2q0 21 12 33t33 12h90v6q0 84 -47 140l-110 -63q5 -23 5 -48v-39q0 -27 -14.5 -42t-42.5 -15h-2q-27 0 -42 15
t-15 42v32q0 32 -14.5 43t-47.5 11q-16 0 -46 -2q-28 -3 -68 -3q-80 0 -119.5 30.5t-39.5 85.5q0 77 67.5 111t180.5 34q90 0 172 -18.5t145 -55.5l103 57q17 10 33 10q20 0 33 -15t13 -34q0 -27 -29 -43l-71 -41q72 -80 72 -192v-6h69q20 0 32 -12zM-150 819l89 50
q-87 37 -220 37q-139 0 -139 -50q0 -17 16.5 -24.5t50.5 -7.5q33 0 62 3q9 0 28 1.5t36 1.5q48 0 77 -11z" />
    <glyph glyph-name="bn_matra.ii.reph.short" horiz-adv-x="268" 
d="M244 648q12 -12 12 -33v-2q0 -21 -12 -33t-33 -12h-19v-519q0 -27 -15 -42.5t-42 -15.5h-2q-26 0 -41.5 15.5t-15.5 42.5v519h-90q-21 0 -33 12t-12 33v2q0 21 12 33t33 12h90v6q0 84 -47 140l-110 -63q5 -23 5 -48v-39q0 -27 -14.5 -42t-42.5 -15h-2q-27 0 -42 15
t-15 42v32q0 32 -14.5 43t-47.5 11q-16 0 -46 -2q-28 -3 -68 -3q-80 0 -119.5 30.5t-39.5 85.5q0 77 67.5 111t180.5 34q90 0 172 -18.5t145 -55.5l103 57q17 10 33 10q20 0 33 -15t13 -34q0 -27 -29 -43l-71 -41q72 -80 72 -192v-6h19q21 0 33 -12zM-150 819l89 50
q-87 37 -220 37q-139 0 -139 -50q0 -17 16.5 -24.5t50.5 -7.5q33 0 62 3q9 0 28 1.5t36 1.5q48 0 77 -11z" />
    <glyph glyph-name="bn_matra.e.short" horiz-adv-x="361" 
d="M317.5 130q19.5 -22 19.5 -52q0 -35 -23.5 -56.5t-64.5 -21.5q-54 0 -100.5 34.5t-75 102t-28.5 161.5q0 80 21.5 151t59.5 119h-140q-21 0 -33 12t-12 33v2q0 21 12 33t33 12h280q23 0 33.5 -10.5t10.5 -28.5v-2q0 -15 -8.5 -28.5t-29.5 -29.5q-63 -42 -90.5 -108
t-27.5 -155q0 -59 14 -104.5t39 -68.5q22 27 58 27q33 0 52.5 -22z" />
    <glyph glyph-name="bn_matra.e.init.short" horiz-adv-x="361" 
 />
    <glyph glyph-name="bn_matra.ai.init" horiz-adv-x="361" 
d="M386 648q12 -12 12 -33v-2q0 -21 -12 -33t-32 -12h-85q-40 -52 -61.5 -86t-38 -85t-16.5 -117q0 -52 14 -94.5t40 -63.5q10 14 25.5 22t33.5 8q34 0 53.5 -22t19.5 -52q0 -34 -23.5 -56t-64.5 -22q-58 0 -105 34.5t-74.5 98.5t-27.5 148q0 77 19 138.5t45 104.5t64 94
q30 41 43 63.5t13 44.5q0 42 -53 42q-20 0 -48 -2l-44 -1q-69 0 -108 33.5t-39 98.5q0 62 56 62q53 0 56 -53q1 -23 15.5 -34.5t44.5 -11.5l44 1q34 2 53 2q68 0 101.5 -35.5t33.5 -94.5q0 -39 -14 -73h28q20 0 32 -12z" />
    <glyph glyph-name="bn_matra.ai.init.short" horiz-adv-x="362" 
 />
    <glyph glyph-name="bn_aulengthmark.short" horiz-adv-x="268" 
d="M244.5 648q11.5 -12 11.5 -33v-2q0 -21 -11.5 -33t-32.5 -12h-20v-519q0 -27 -15 -42.5t-42 -15.5h-2q-26 0 -41.5 15.5t-15.5 42.5v519h-90q-21 0 -33 12t-12 33v2q0 21 12 33t33 12h90v45q0 41 -12 57t-49 16q-24 0 -64 -2q-31 -3 -64 -3q-69 0 -106.5 30t-37.5 92
q0 30 13.5 47.5t41.5 17.5q26 0 40 -11.5t16 -36.5q1 -25 16 -35t49 -10q20 0 60 2q44 2 77 2q67 0 101.5 -40t34.5 -111v-60h20q21 0 32.5 -12z" />
    <glyph glyph-name="bn_aulengthmark.alt" horiz-adv-x="268" 
d="M293 648q12 -12 12 -33v-2q0 -21 -12 -33t-32 -12h-69v-519q0 -27 -15 -42.5t-42 -15.5h-2q-26 0 -41.5 15.5t-15.5 42.5v519h-90q-21 0 -33 12t-12 33v2q0 21 12 33t33 12h90v75q0 40 -12 56.5t-49 16.5q-34 0 -64 -3q-10 -1 -29.5 -2t-34.5 -1q-69 0 -106.5 30.5
t-37.5 92.5q0 30 13.5 47.5t41.5 17.5q26 0 40 -11.5t16 -36.5q1 -25 16 -35t49 -10q20 0 60 2q44 2 77 2q67 0 101.5 -40t34.5 -111v-90h69q20 0 32 -12z" />
    <glyph glyph-name="bn_aulengthmark.alt.short" horiz-adv-x="268" 
d="M244.5 648q11.5 -12 11.5 -33v-2q0 -21 -11.5 -33t-32.5 -12h-20v-519q0 -27 -15 -42.5t-42 -15.5h-2q-26 0 -41.5 15.5t-15.5 42.5v519h-90q-21 0 -33 12t-12 33v2q0 21 12 33t33 12h90v75q0 40 -12 56.5t-49 16.5q-34 0 -64 -3q-10 -1 -29.5 -2t-34.5 -1
q-69 0 -106.5 30.5t-37.5 92.5q0 30 13.5 47.5t41.5 17.5q26 0 40 -11.5t16 -36.5q1 -25 16 -35t49 -10q20 0 60 2q44 2 77 2q67 0 101.5 -40t34.5 -111v-90h20q21 0 32.5 -12z" />
    <glyph glyph-name="bn_reph.short" 
d="M-171 686.5q-14 15.5 -14 36.5q0 24 26 42l119 78q20 13 35 13q21 0 35 -14.5t14 -35.5q0 -25 -25 -43l-118 -80q-19 -12 -37 -12q-21 0 -35 15.5z" />
    <glyph glyph-name="bn_reph.alt" 
d="M-192 740q0 27 26 44l234 155q19 12 37 12q21 0 34.5 -14t13.5 -34q0 -26 -25 -43l-320 -214v94z" />
    <glyph glyph-name="bn_reph.alt.short" 
d="M-192 740q0 26 25 43l131 87q16 12 37 12t34.5 -14t13.5 -34q0 -25 -25 -43l-216 -145v94z" />
    <glyph glyph-name="bn_na.nukta" horiz-adv-x="591" 
d="M616 648q12 -12 12 -33v-2q0 -21 -12 -33t-33 -12h-68v-521q0 -27 -13.5 -41.5t-38.5 -14.5t-39 13.5t-21 41.5q-27 128 -85.5 202t-137.5 74q-13 0 -20 -1q15 -18 15 -43q0 -32 -19.5 -51t-52.5 -19q-35 0 -58 22.5t-23 61.5q0 56 42 92.5t114 36.5q73 0 133 -34
t99 -103l3 2q-14 89 -14 181v101h-413q-22 0 -34 12t-12 33v2q0 21 12 33t34 12h597q21 0 33 -12zM264.5 112q19.5 -20 19.5 -50q0 -29 -19.5 -49t-51.5 -20q-31 0 -50 20t-19 49q0 30 19 50t50 20q32 0 51.5 -20z" />
    <glyph glyph-name="bn_ka.halant" horiz-adv-x="734" 
d="M759.5 648q11.5 -12 11.5 -33v-2q0 -21 -11.5 -33t-32.5 -12h-275v-53q72 -3 128.5 -32.5t88.5 -80t32 -113.5q0 -67 -31.5 -107t-82.5 -40q-35 0 -58 19t-23 55q0 33 19.5 52.5t51.5 19.5q14 0 25 -4v5q0 49 -42.5 85t-107.5 41v-366q0 -27 -15 -42.5t-42 -15.5h-2
q-26 0 -41.5 15.5t-15.5 42.5v25l-265 164q-39 24 -39 71t36 75q127 99 268 124v60h-350q-21 0 -33 12t-12 33v2q0 21 12 33t33 12h741q21 0 32.5 -12zM336 193v211q-100 -25 -188 -93zM616 -265q0 -15 -10 -28q-16 -23 -40 -23q-16 0 -33 12l-165 130q-19 15 -19 35
q0 18 14 35q17 20 37 20q18 0 35 -14l158 -127q23 -18 23 -40z" />
    <glyph glyph-name="bn_kha.halant" horiz-adv-x="660" 
d="M483 6.5q-15 15.5 -15 42.5v28l-403 177q-34 15 -34 47q0 24 14 43t38 19q7 0 23 -2q24 -4 43 -4q79 0 115 32.5t36 83.5q0 27 -8 46q-33 -75 -118 -75q-71 0 -109 38t-38 92q0 50 23 71t56 21q32 0 52.5 -20.5t20.5 -51.5q0 -35 -27 -56q10 -5 20 -5q25 0 36 15.5
t22 47.5q11 33 22.5 48.5t36.5 15.5q36 0 68 -39q24 -28 37.5 -69t13.5 -80q0 -69 -38 -121t-133 -68v-4q0 1 40 -11.5t81 -31.5l110 -49v514q0 27 15 42t42 15h2q26 0 41.5 -15t15.5 -42v-41h68q21 0 33 -12t12 -33v-2q0 -21 -12 -33t-33 -12h-68v-519q0 -27 -15.5 -42.5
t-41.5 -15.5h-2q-27 0 -42 15.5zM749 -265q0 -15 -10 -28q-16 -23 -40 -23q-16 0 -33 12l-165 130q-19 15 -19 35q0 18 14 35q17 20 37 20q18 0 35 -14l158 -127q23 -18 23 -40z" />
    <glyph glyph-name="bn_ga.halant" horiz-adv-x="602" 
d="M425.5 6.5q-15.5 15.5 -15.5 42.5v338q0 88 -40.5 135.5t-110.5 47.5q-33 0 -63 -12.5t-47 -35.5l2 -4q18 3 30 3q65 0 104.5 -37t39.5 -100q0 -49 -26 -102t-83 -105q-22 -20 -45 -20q-22 0 -39 16t-17 38t20 41q41 38 61 71t20 58q0 46 -54 46q-19 0 -34 -5
q-18 -4 -33 -4q-31 0 -51 20t-20 53q0 34 19 68q36 58 90 85.5t120 27.5q47 0 88 -16.5t69 -45.5v91q0 27 15.5 42t41.5 15h2q27 0 42 -15t15 -42v-41h69q21 0 33 -12t12 -33v-2q0 -21 -12 -33t-33 -12h-69v-519q0 -27 -15 -42.5t-42 -15.5h-2q-26 0 -41.5 15.5zM688 -264
q0 -13 -11 -29q-16 -23 -39 -23q-16 0 -33 12l-166 130q-19 15 -19 35q0 17 15 35q17 20 37 20q18 0 35 -14l158 -127q23 -18 23 -39z" />
    <glyph glyph-name="bn_gha.halant" horiz-adv-x="595" 
d="M421 6q-15 15 -15 41v29l-323 133q-40 17 -40 61q0 47 40 68l56 31v4q-97 29 -97 116q0 22 7.5 43.5t20.5 35.5h-84q-21 0 -33 12t-12 33v2q0 21 12 33t33 12h601q21 0 33 -12t12 -33v-2q0 -21 -12 -33t-33 -12h-68v-521q0 -26 -14.5 -41t-40.5 -15h-2q-26 0 -41 15z
M406 187v381h-175q-31 0 -52.5 -19.5t-21.5 -53.5q0 -31 19 -47.5t50 -16.5q22 0 50 13q14 4 22 4q21 0 33 -15t12 -36q0 -16 -6 -26t-21 -18l-135 -73zM687 -265q0 -15 -10 -28q-16 -23 -40 -23q-16 0 -33 12l-165 130q-19 15 -19 35q0 18 14 35q17 20 37 20q18 0 35 -14
l158 -127q23 -18 23 -40z" />
    <glyph glyph-name="bn_nga.halant" horiz-adv-x="687" 
d="M614.5 373.5q20.5 -21.5 32.5 -57.5t12 -76q0 -68 -30.5 -123.5t-93 -88t-155.5 -32.5q-117 0 -195 55.5t-115 141.5t-40 180q0 27 15.5 40.5t39.5 13.5q50 0 53 -53q10 -128 69 -203t173 -75q88 0 133 42t45 104q0 15 -2.5 26t-6.5 15q-21 -20 -70.5 -44t-104.5 -24
q-58 0 -95.5 31.5t-37.5 92.5v83q-87 44 -138 146h-117q-21 0 -33 12t-12 33v2q0 21 12 33t33 12h149q23 0 33 -10.5t25 -43.5q24 -52 48 -78v2q0 68 43 105t111 37q71 0 118.5 -37t47.5 -104t-52 -103.5t-136 -36.5q-13 0 -19 1v-41q0 -36 38 -36q25 0 47.5 9.5t49.5 27.5
l23 15q18 14 31.5 21t25.5 7q25 0 45.5 -21.5zM367.5 572.5q-13.5 -14.5 -13.5 -41.5v-51q6 -1 19 -1q38 0 61 15t23 44q0 23 -14.5 36t-37.5 13q-24 0 -37.5 -14.5zM590 -262q0 -15 -10 -28q-16 -23 -40 -23q-16 0 -33 12l-165 130q-19 15 -19 35q0 18 14 35q17 20 38 20
q18 0 35 -14l158 -127q22 -18 22 -40z" />
    <glyph glyph-name="bn_ca.halant" horiz-adv-x="511" 
d="M536 648q12 -12 12 -33v-2q0 -21 -12 -33t-33 -12h-318q1 -35 14.5 -57.5t54.5 -36.5l94 -32q54 -18 82.5 -39.5t38 -46.5t9.5 -62q0 -66 -33.5 -131.5t-93.5 -107.5t-135 -42q-63 0 -101.5 30t-38.5 92v433h-90q-21 0 -33 12t-12 33v2q0 21 12 33t33 12h517q21 0 33 -12
zM189 402v-246q0 -23 9.5 -33t28.5 -10q34 0 66.5 27.5t53.5 68t21 77.5q0 22 -9.5 36t-33.5 22l-74 25q-45 16 -62 33zM434 -259q0 -15 -10 -28q-16 -23 -40 -23q-17 0 -33 12l-165 130q-19 15 -19 35q0 18 14 35q17 20 37 20q18 0 35 -14l158 -127q23 -18 23 -40z" />
    <glyph glyph-name="bn_cha.halant" horiz-adv-x="599" 
 />
    <glyph glyph-name="bn_ja.halant" horiz-adv-x="857" 
d="M669 161q0 162 36 227q-18 0 -29 1q-86 7 -148.5 52t-87.5 127h-3q-41 -35 -70.5 -83.5t-29.5 -84.5q0 -49 60 -49q28 0 48 5t42 13q23 10 38 10q20 0 33 -14.5t25 -41.5q19 -39 19 -93q0 -57 -23.5 -107.5t-77 -82.5t-138.5 -32q-154 0 -236 102t-93 266
q-2 28 12.5 44.5t42.5 16.5q46 0 51 -50q9 -126 64.5 -202.5t158.5 -76.5q69 0 102 35t33 85q0 25 -9 47q-52 -23 -107 -23q-72 0 -114.5 35t-42.5 101q0 53 21.5 99t50.5 81h-311q-21 0 -33 12t-12 33v2q0 21 12 33t33 12h863q21 0 33 -12t12 -33v-2q0 -21 -12 -33t-33 -12
h-294q30 -85 142 -88l25 1q7 1 24 1q33 0 52 -25q14 -18 14 -46q0 -16 -5 -32.5t-6 -19.5q-12 -39 -19.5 -82t-7.5 -119v-147q0 -24 -13.5 -37.5t-37.5 -13.5h-2q-24 0 -38 13.5t-14 37.5v150zM943 -288q0 -15 -10 -28q-16 -23 -40 -23q-16 0 -33 12l-165 130q-19 15 -19 35
q0 18 14 35q17 20 38 20q17 0 35 -14l158 -127q22 -18 22 -40z" />
    <glyph glyph-name="bn_jha.halant" horiz-adv-x="785" 
d="M811 648q12 -12 12 -33v-2q0 -21 -12 -33t-33 -12h-62v-375q0 -74 -67 -74q-20 0 -37.5 6.5t-39.5 19.5l-109 65v-164q0 -26 -14.5 -40.5t-39.5 -14.5h-2q-25 0 -39.5 14.5t-14.5 40.5v31l-282 159q-40 24 -40 70q0 49 37 75q84 58 150.5 87.5t134.5 50.5v49h-367
q-21 0 -33 12t-12 33v2q0 21 12 33t33 12h436q41 0 41 -39v-292l144 -88v464q0 25 14.5 39t39.5 14h2q25 0 39 -14t14 -39v-45h62q21 0 33 -12zM353 197v213q-41 -15 -94.5 -40.5t-104.5 -59.5zM629 -272q0 -15 -10 -28q-17 -23 -40 -23q-16 0 -33 12l-165 131
q-19 15 -19 35q0 18 14 35q17 20 38 20q18 0 35 -14l157 -127q23 -18 23 -41z" />
    <glyph glyph-name="bn_nya.halant" horiz-adv-x="892" 
d="M831 334q24 -34 24 -84q0 -68 -42.5 -108t-112.5 -40q-86 0 -143 59v-114q0 -54 -52 -54q-33 0 -44 13t-16 39q-4 20 -9.5 31.5t-21 19.5t-45.5 8q-27 0 -79 -8q-56 -8 -88 -8q-73 0 -123.5 38.5t-63.5 120.5q-1 5 -1 13q0 25 15 40t42 15q39 0 50 -44q9 -44 31.5 -62
t64.5 -18q18 0 72 7q40 7 68 7q27 0 48.5 -7t39.5 -26v326q0 36 -16 53t-50 17q-35 0 -65.5 -18t-48.5 -47t-18 -60q0 -15 5 -28q8 16 24 25t37 9q34 0 54 -21.5t20 -54.5q0 -35 -24.5 -58t-68.5 -23q-68 0 -108 42t-40 109t32.5 117.5t86 77.5t114.5 27q59 0 100 -20.5
t61 -60.5q26 33 64 52t84 19q68 0 114 -38t46 -106q0 -78 -74 -128q33 -15 57 -49zM729 219q16 18 16 46q0 31 -20 48t-57 17q-21 0 -36 12.5t-15 39.5t15 39t36 12q35 0 51.5 18t16.5 47q0 28 -16.5 43.5t-44.5 15.5q-50 0 -83.5 -45.5t-33.5 -129.5q0 -89 34.5 -135
t87.5 -46q33 0 49 18zM714 -270q0 -15 -10 -28q-16 -23 -40 -23q-16 0 -33 12l-165 130q-19 15 -19 35q0 18 14 35q17 21 37 21q17 0 35 -15l158 -127q23 -18 23 -40z" />
    <glyph glyph-name="bn_tta.halant" horiz-adv-x="570" 
d="M595 648q12 -12 12 -33v-2q0 -21 -12 -33t-33 -12h-370v-409q0 -56 63 -56q50 0 88.5 29t59.5 74.5t21 92.5q0 25 -9 43.5t-24 23.5q-2 -30 -20.5 -49t-48.5 -19q-33 0 -54 19t-21 54q0 47 32.5 71.5t81.5 24.5q76 0 122 -45.5t46 -130.5q0 -69 -32 -135.5t-94.5 -109.5
t-149.5 -43q-79 0 -128 38.5t-49 116.5v410h-90q-21 0 -33 12t-12 33v2q0 21 12 33t33 12h440q4 19 4 41q0 37 -19.5 54.5t-59.5 17.5q-23 0 -49 -1.5t-38 -1.5q-58 -4 -95 -4q-70 0 -109.5 34.5t-39.5 96.5q0 29 13.5 45.5t41.5 16.5q53 0 56 -53q1 -26 19 -36t57 -10
q18 0 41.5 1t36.5 2q60 4 100 4q72 0 111.5 -41.5t39.5 -114.5q0 -21 -4 -51h30q21 0 33 -12zM470 -266q0 -15 -10 -28q-17 -23 -40 -23q-17 0 -33 12l-165 130q-19 15 -19 35q0 18 14 35q17 21 37 21q18 0 35 -14l158 -128q23 -18 23 -40z" />
    <glyph glyph-name="bn_ttha.halant" horiz-adv-x="553" 
d="M578 648q12 -12 12 -33v-2q0 -21 -12 -33t-33 -12h-190l26 -38q72 -105 101.5 -171.5t29.5 -127.5q0 -105 -59 -168.5t-172 -63.5q-75 0 -131 31.5t-86.5 88t-30.5 127.5q0 30 11 46.5t36 18.5q96 10 139.5 54t43.5 111q0 46 -28 88l-3 4h-246q-21 0 -33 12t-12 33v2
q0 21 12 33t33 12h189q-28 50 -41 86.5t-13 71.5q0 68 38.5 105.5t103.5 37.5q33 0 47.5 -12t14.5 -35q0 -34 -21 -42q-8 -3 -32 -4q-22 -2 -35.5 -15.5t-13.5 -40.5q0 -53 54 -130l15 -22h253q21 0 33 -12zM391.5 321.5q-16.5 38.5 -53.5 100.5h-3q-2 -85 -50 -136.5
t-141 -65.5q4 -57 40 -89t95 -32q62 0 95.5 37.5t33.5 98.5q0 48 -16.5 86.5zM497 -268q0 -13 -11 -29q-16 -23 -40 -23q-16 0 -33 12l-165 130q-19 15 -19 36q0 17 14 34q17 20 38 20q18 0 35 -14l158 -127q23 -18 23 -39z" />
    <glyph glyph-name="bn_dda.halant" horiz-adv-x="663" 
d="M688 648q12 -12 12 -33v-2q0 -21 -12 -33t-33 -12h-299v-163q0 -22 7.5 -31t24.5 -9q21 0 39 8.5t42 24.5q20 14 34 20.5t28 6.5q50 0 75 -52.5t25 -115.5q0 -68 -27.5 -126.5t-88 -95t-153.5 -36.5q-112 0 -186.5 56.5t-110 144.5t-36.5 183q0 26 15 39t37 13
q23 0 37 -12.5t16 -37.5q6 -129 62 -206.5t167 -77.5q85 0 124 45t39 114q0 33 -12 57q-28 -23 -60 -41.5t-81 -18.5q-60 0 -95 32.5t-35 93.5v185h-257q-21 0 -33 12t-12 33v2q0 21 12 33t33 12h669q21 0 33 -12zM570 -261q0 -13 -11 -29q-16 -23 -40 -23q-17 0 -33 12
l-165 130q-19 15 -19 36q0 17 14 34q17 20 38 20q18 0 35 -14l158 -127q23 -18 23 -39z" />
    <glyph glyph-name="bn_rra.halant" horiz-adv-x="663" 
d="M688 648q12 -12 12 -33v-2q0 -21 -12 -33t-33 -12h-299v-163q0 -22 7.5 -31t24.5 -9q21 0 39 8.5t42 24.5q20 14 34 20.5t28 6.5q50 0 75 -52.5t25 -115.5q0 -68 -27.5 -126.5t-88 -95t-153.5 -36.5q-112 0 -186.5 56.5t-110 144.5t-36.5 183q0 26 15 39t37 13
q23 0 37 -12.5t16 -37.5q6 -129 62 -206.5t167 -77.5q85 0 124 45t39 114q0 33 -12 57q-28 -23 -60 -41.5t-81 -18.5q-60 0 -95 32.5t-35 93.5v185h-257q-21 0 -33 12t-12 33v2q0 21 12 33t33 12h669q21 0 33 -12zM297 -183.5q-20 19.5 -20 48.5q0 30 20 50.5t49 20.5
q30 0 51 -20.5t21 -50.5q0 -28 -21 -48t-51 -20q-29 0 -49 19.5zM560 -451q0 -14 -11 -28q-16 -23 -39 -23q-16 0 -33 12l-166 130q-19 15 -19 35q0 17 15 35q17 20 37 20q17 0 35 -14l158 -127q23 -18 23 -40z" />
    <glyph glyph-name="bn_ddha.halant" horiz-adv-x="568" 
d="M593.5 648q11.5 -12 11.5 -33v-2q0 -21 -11.5 -33t-32.5 -12h-369v-409q0 -30 16 -43t46 -13q50 0 89 29t60 74.5t21 92.5q0 27 -8.5 44.5t-24.5 21.5q-2 -30 -20.5 -48.5t-48.5 -18.5q-33 0 -54 19t-21 54q0 46 31.5 71t82.5 25q76 0 122 -47t46 -129q0 -69 -32 -135.5
t-94.5 -109.5t-149.5 -43q-79 0 -128 38.5t-49 116.5v410h-90q-21 0 -33 12t-12 33v2q0 21 12 33t33 12h575q21 0 32.5 -12zM459 -260q0 -15 -10 -28q-17 -23 -40 -23q-17 0 -33 12l-165 131q-19 15 -19 35q0 18 14 35q17 20 37 20q18 0 35 -14l158 -127q23 -18 23 -41z" />
    <glyph glyph-name="bn_rha.halant" horiz-adv-x="568" 
d="M593.5 648q11.5 -12 11.5 -33v-2q0 -21 -11.5 -33t-32.5 -12h-369v-409q0 -30 16 -43t46 -13q50 0 89 29t60 74.5t21 92.5q0 27 -8.5 44.5t-24.5 21.5q-2 -30 -20.5 -48.5t-48.5 -18.5q-33 0 -54 19t-21 54q0 46 31.5 71t82.5 25q76 0 122 -47t46 -129q0 -69 -32 -135.5
t-94.5 -109.5t-149.5 -43q-79 0 -128 38.5t-49 116.5v410h-90q-21 0 -33 12t-12 33v2q0 21 12 33t33 12h575q21 0 32.5 -12zM191 -178.5q-20 19.5 -20 48.5q0 30 20 50.5t49 20.5q30 0 51 -20.5t21 -50.5q0 -28 -21 -48t-51 -20q-29 0 -49 19.5zM453 -451q0 -15 -11 -29
q-16 -23 -39 -23q-16 0 -33 12l-166 131q-19 15 -19 34q0 18 15 36q16 20 36 20q17 0 36 -14l158 -127q23 -18 23 -40z" />
    <glyph glyph-name="bn_nna.halant" horiz-adv-x="601" 
d="M424 6.5q-15 15.5 -15 42.5v341q0 92 -43 135t-103 43q-58 0 -92.5 -34t-34.5 -91q0 -70 51 -96q4 28 23.5 46t47.5 18q32 0 53 -21.5t21 -55.5q0 -42 -29.5 -68t-80.5 -26q-54 0 -98.5 25t-70.5 71t-26 107q0 70 30.5 121t81 77.5t111.5 26.5q50 0 91.5 -17.5
t67.5 -46.5v97q0 27 15 42t42 15h2q26 0 41.5 -15t15.5 -42v-41h68q21 0 33 -12t12 -33v-2q0 -21 -12 -33t-33 -12h-68v-519q0 -27 -15.5 -42.5t-41.5 -15.5h-2q-27 0 -42 15.5zM682 -265q0 -15 -10 -28q-17 -23 -40 -23q-16 0 -33 12l-165 131q-19 15 -19 35q0 18 14 35
q17 20 38 20q18 0 35 -14l157 -127q23 -18 23 -41z" />
    <glyph glyph-name="bn_ta.halant" horiz-adv-x="653" 
 />
    <glyph glyph-name="bn_da.halant" horiz-adv-x="552" 
d="M365 170q0 128 17 181q-76 -43 -169 -139q-22 -22 -39.5 -32.5t-43.5 -10.5q-29 0 -46.5 16.5t-17.5 49.5v333h-80q-21 0 -33 12t-12 33v2q0 21 12 33t33 12h559q21 0 32.5 -12t11.5 -33v-2q0 -21 -11.5 -33t-32.5 -12h-363v-88q0 -84 -7 -145l4 -2q43 46 109 90t109 51
q5 1 15 1q30 0 51 -18q18 -16 24.5 -31.5t6.5 -33.5q0 -14 -5 -39q-7 -41 -10.5 -78.5t-3.5 -107.5v-121q0 -26 -14.5 -40.5t-39.5 -14.5h-2q-25 0 -39.5 14.5t-14.5 40.5v124zM633 -267q0 -15 -10 -28q-16 -23 -39 -23q-17 0 -34 12l-165 131q-19 15 -19 35q0 18 14 35
q17 20 38 20q18 0 35 -14l158 -127q22 -18 22 -41z" />
    <glyph glyph-name="bn_dha.halant" horiz-adv-x="603" 
d="M429.5 6q-15.5 15 -15.5 41v29l-307 125q-46 19 -46 64t41 65l50 25v4q-53 18 -80.5 56t-27.5 89q0 78 49 122t124 44q61 0 100.5 -29t39.5 -76q0 -31 -19.5 -51.5t-52.5 -20.5q-32 0 -52.5 19t-20.5 51q0 8 1 11q-26 -5 -41 -23t-15 -50q0 -37 23 -58.5t59 -21.5
q25 0 44 6.5t45 20.5l84 45v127q0 21 9 30.5t30 9.5h145q21 0 33 -12t12 -33v-2q0 -21 -12 -33t-33 -12h-69v-521q0 -26 -14.5 -41t-39.5 -15h-2q-26 0 -41.5 15zM415 184v196l-211 -110zM688 -265q0 -15 -10 -28q-16 -23 -40 -23q-16 0 -33 12l-165 130q-19 15 -19 35
q0 18 14 35q17 20 37 20q18 0 35 -14l158 -127q23 -18 23 -40z" />
    <glyph glyph-name="bn_na.halant" horiz-adv-x="591" 
d="M424 4.5q-14 13.5 -21 41.5q-27 128 -85.5 202t-137.5 74q-13 0 -20 -1q15 -18 15 -43q0 -32 -19.5 -51t-52.5 -19q-35 0 -58 22.5t-23 61.5q0 57 42 93t114 36q73 0 133 -34t99 -103l3 2q-14 89 -14 181v101h-413q-21 0 -33 12t-12 33v2q0 21 12 33t33 12h598
q21 0 32.5 -12t11.5 -33v-2q0 -21 -11.5 -33t-32.5 -12h-69v-521q0 -27 -13.5 -41.5t-38.5 -14.5t-39 13.5zM683 -265q0 -15 -10 -28q-17 -23 -40 -23q-16 0 -33 12l-165 130q-19 15 -19 35q0 18 14 35q17 20 37 20q18 0 35 -14l158 -127q23 -18 23 -40z" />
    <glyph glyph-name="bn_na.nukta.halant" horiz-adv-x="591" 
d="M424 4.5q-14 13.5 -21 41.5q-27 128 -85.5 202t-137.5 74q-13 0 -20 -1q15 -18 15 -43q0 -32 -19.5 -51t-52.5 -19q-35 0 -58 22.5t-23 61.5q0 56 42 92.5t114 36.5q73 0 133 -34t99 -103l3 2q-14 89 -14 181v101h-413q-22 0 -34 12t-12 33v2q0 21 12 33t34 12h597
q21 0 33 -12t12 -33v-2q0 -21 -12 -33t-33 -12h-68v-521q0 -27 -13.5 -41.5t-38.5 -14.5t-39 13.5zM264.5 112q19.5 -20 19.5 -50q0 -29 -19.5 -49t-51.5 -20q-31 0 -50 20t-19 49q0 30 19 50t50 20q32 0 51.5 -20zM683 -265q0 -15 -10 -28q-17 -23 -40 -23q-16 0 -33 12
l-165 130q-19 15 -19 35q0 18 14 35q17 20 37 20q18 0 35 -14l158 -127q23 -18 23 -40z" />
    <glyph glyph-name="bn_pa.halant" horiz-adv-x="699" 
d="M522.5 6.5q-15.5 15.5 -15.5 42.5v374l-264 -209q-19 -14 -36 -14q-20 0 -36.5 16.5t-16.5 37.5q0 23 25 45l58 46q-24 39 -47 56t-59 17q-13 0 -20.5 -1t-15.5 -1q-27 0 -46.5 21.5t-19.5 52.5q0 34 21 64q40 60 98 90t130 30q67 0 124.5 -31.5t99.5 -87.5l5 5v141
q0 27 15.5 42t41.5 15h2q27 0 42 -15t15 -42v-41h69q21 0 32.5 -12t11.5 -33v-2q0 -21 -11.5 -33t-32.5 -12h-69v-519q0 -27 -15 -42.5t-42 -15.5h-2q-26 0 -41.5 15.5zM243.5 483q37.5 -24 71.5 -76l110 87q-35 43 -70 61.5t-73 18.5q-43 0 -76.5 -18t-55.5 -49h4
q52 0 89.5 -24zM783 -265q0 -15 -10 -28q-16 -23 -40 -23q-16 0 -33 12l-165 130q-19 15 -19 35q0 18 14 35q17 20 37 20q18 0 35 -14l158 -127q23 -18 23 -40z" />
    <glyph glyph-name="bn_pha.halant" horiz-adv-x="764" 
 />
    <glyph glyph-name="bn_ba.halant" horiz-adv-x="539" 
d="M353 77l-275 156q-43 24 -43 73q0 54 38 79q62 43 124 73t107 45.5t49 15.5v49h-367q-21 0 -33 12t-12 33v2q0 21 12 33t33 12h545q21 0 33 -12t12 -33v-2q0 -21 -12 -33t-33 -12h-68v-522q0 -26 -14.5 -40.5t-39.5 -14.5h-2q-25 0 -39.5 14.5t-14.5 40.5v31zM353 198
v215q-41 -15 -94.5 -42t-104.5 -61zM619 -265q0 -15 -10 -28q-16 -23 -40 -23q-16 0 -33 12l-165 130q-19 15 -19 35q0 18 14 35q17 20 38 20q18 0 35 -14l158 -127q22 -18 22 -40z" />
    <glyph glyph-name="bn_bha.halant" horiz-adv-x="674" 
d="M699.5 648q11.5 -12 11.5 -33v-2q0 -21 -11.5 -33t-32.5 -12h-681q-21 0 -33 12t-12 33v2q0 21 12 33t33 12h681q21 0 32.5 -12zM613 390q13 -26 19.5 -56.5t6.5 -59.5q0 -73 -29 -134t-90 -97.5t-152 -36.5q-102 0 -178 49t-119 139t-49 209q-1 26 15.5 40t38.5 14
q51 0 55 -50q8 -148 71 -224.5t166 -76.5q61 0 99 25t54 63t16 78q0 19 -3.5 32.5t-7.5 19.5q-28 -41 -64 -62.5t-85 -21.5q-66 0 -109 42.5t-43 111.5q0 48 23.5 79t68.5 31q32 0 53.5 -21t21.5 -51q0 -27 -15.5 -46.5t-42.5 -23.5q13 -25 48 -25q24 0 38 11t32 36
q24 34 43 48.5t44 14.5q47 0 74 -57zM575 -255q0 -13 -11 -29q-16 -23 -40 -23q-16 0 -33 12l-165 130q-19 15 -19 36q0 17 14 34q17 20 38 20q18 0 35 -14l158 -127q23 -18 23 -39z" />
    <glyph glyph-name="bn_ma.halant" horiz-adv-x="574" 
d="M404.5 5.5q-14.5 14.5 -14.5 40.5v37q-68 94 -154 136q-39 -36 -93 -36q-47 0 -76 21t-29 62t27 66t72 25h1q22 0 46 -6q6 14 6 35q0 42 -30 71.5t-83 47.5q-21 8 -32.5 20.5t-11.5 42.5h-47q-21 0 -33 12t-12 33v2q0 21 12 33t33 12h581q20 0 32 -12t12 -33v-2
q0 -21 -12 -33t-32 -12h-69v-522q0 -26 -13.5 -40.5t-38.5 -14.5h-2q-25 0 -39.5 14.5zM396 219l4 2q-10 66 -10 172v175h-213q56 -31 87.5 -80t31.5 -115q0 -33 -9 -65q68 -40 109 -89zM658 -265q0 -15 -10 -28q-16 -23 -40 -23q-16 0 -33 12l-165 130q-19 15 -19 35
q0 18 14 35q17 20 37 20q18 0 35 -14l158 -127q23 -18 23 -40z" />
    <glyph glyph-name="bn_ya.halant" horiz-adv-x="554" 
d="M381 5.5q-15 14.5 -15 39.5v31l-274 128q-20 10 -29.5 25.5t-9.5 39.5t8 40.5t26 30.5l91 71l-101 71q-40 29 -40 80v6h-51q-21 0 -33 12t-12 33v2q0 21 12 33t33 12h560q21 0 33 -12t12 -33v-2q0 -21 -12 -33t-33 -12h-68v-523q0 -25 -15 -39.5t-40 -14.5h-2
q-25 0 -40 14.5zM366 189v379h-228l122 -90q17 -13 25.5 -27.5t8.5 -36.5t-8 -38.5t-25 -29.5l-84 -67zM635 -264q0 -13 -11 -29q-16 -23 -40 -23q-16 0 -33 12l-165 130q-19 15 -19 36q0 17 14 34q17 20 38 20q18 0 35 -14l158 -127q23 -18 23 -39z" />
    <glyph glyph-name="bn_yya.halant" horiz-adv-x="554" 
d="M381 5.5q-15 14.5 -15 39.5v31l-274 128q-20 10 -29.5 25.5t-9.5 39.5t8 40.5t26 30.5l91 71l-101 71q-40 29 -40 80v6h-51q-21 0 -33 12t-12 33v2q0 21 12 33t33 12h560q21 0 33 -12t12 -33v-2q0 -21 -12 -33t-33 -12h-68v-523q0 -25 -15 -39.5t-40 -14.5h-2
q-25 0 -40 14.5zM366 189v379h-228l122 -90q17 -13 25.5 -28t8.5 -36q0 -22 -8 -38.5t-25 -29.5l-84 -67zM207.5 74.5q19.5 -20.5 19.5 -50.5q0 -29 -19.5 -49t-51.5 -20q-31 0 -50.5 20t-19.5 49q0 30 19.5 50.5t50.5 20.5q32 0 51.5 -20.5zM635 -265q0 -15 -10 -28
q-16 -23 -40 -23q-16 0 -33 12l-165 130q-19 15 -19 35q0 18 14 35q17 20 38 20q18 0 35 -14l157 -127q23 -18 23 -40z" />
    <glyph glyph-name="bn_la.halant" horiz-adv-x="728" 
d="M554 6q-15 15 -15 41v246q0 54 -16 81t-44 27q-24 0 -38 -17.5t-21 -52.5q-7 -24 -18 -35.5t-36 -11.5q-26 0 -38 12t-20 36q-18 69 -81 69q-38 0 -60 -26.5t-22 -76.5q0 -35 11.5 -58.5t32.5 -34.5q5 25 23.5 40t45.5 15q33 0 53.5 -20.5t20.5 -54.5q0 -36 -29 -60
t-82 -24q-51 0 -93 23.5t-67 68.5t-25 106q0 96 53 146.5t133 50.5q43 0 80 -17.5t58 -47.5q20 34 49.5 49.5t59.5 15.5q20 0 38.5 -7t31.5 -20v99h-553q-21 0 -33 12t-12 33v2q0 21 12 33t33 12h734q21 0 33 -12t12 -33v-2q0 -21 -12 -33t-33 -12h-68v-521q0 -26 -14.5 -41
t-40.5 -15h-2q-26 0 -41 15zM810 -265q0 -15 -10 -28q-17 -23 -40 -23q-16 0 -33 12l-165 131q-19 15 -19 35q0 18 14 35q17 20 38 20q18 0 35 -14l158 -127q22 -18 22 -41z" />
    <glyph glyph-name="bn_sha.halant" horiz-adv-x="637" 
 />
    <glyph glyph-name="bn_ssa.halant" horiz-adv-x="565" 
d="M395 5q-14 14 -14 39v29l-292 132q-40 18 -40 65q0 23 8.5 38.5t26.5 31.5l94 80l-99 63q-22 13 -32 32.5t-10 46.5v6h-51q-21 0 -33 12t-12 33v2q0 21 12 33t33 12h571q21 0 33 -12t12 -33v-2q0 -21 -12 -33t-33 -12h-68v-523q0 -25 -14 -39.5t-39 -14.5h-2
q-25 0 -39 14zM126 568l126 -79h0.5t0.5 -1l128 -79v159h-255zM381 175v121l-114 71l-103 -88zM651 -264q0 -13 -11 -29q-16 -23 -39 -23q-16 0 -33 12l-166 130q-19 15 -19 35q0 17 15 35q17 20 37 20q18 0 35 -14l158 -127q23 -18 23 -39z" />
    <glyph glyph-name="bn_sa.halant" horiz-adv-x="627" 
d="M456.5 5.5q-14.5 14.5 -14.5 40.5v224q0 57 -39 57q-21 0 -35 -17t-34 -56q-22 -41 -40 -66t-49 -43.5t-75 -18.5q-42 0 -77 17.5t-58 50.5q-12 16 -12 35q0 23 15.5 37.5t37.5 14.5q13 0 22 -6t21 -19q11 -14 22.5 -21t26.5 -7q23 0 39 19.5t38 60.5l18 32
q-23 52 -57 90t-70 59q-31 19 -42 34.5t-11 44.5h-97q-21 0 -33 12t-12 33v2q0 21 12 33t33 12h634q21 0 32.5 -12t11.5 -33v-2q0 -21 -11.5 -33t-32.5 -12h-69v-522q0 -26 -14 -40.5t-39 -14.5h-2q-25 0 -39.5 14.5zM422.5 425.5q14.5 -5.5 19.5 -10.5v153h-240
q41 -27 73 -63.5t59 -86.5q24 13 54 13q20 0 34.5 -5.5zM711 -265q0 -15 -10 -28q-16 -23 -40 -23q-16 0 -33 12l-165 130q-19 15 -19 35q0 18 14 35q17 20 38 20q18 0 35 -14l157 -127q23 -18 23 -40z" />
    <glyph glyph-name="bn_ha.halant" horiz-adv-x="450" 
d="M475 648q12 -12 12 -33v-2q0 -21 -12 -33t-33 -12h-296q19 -25 33 -56q20 3 39 3q88 0 141.5 -51t53.5 -135q0 -76 -44 -127.5t-137 -63.5v-4q0 1 29.5 -11.5t64.5 -32.5l48 -29q18 -10 26.5 -20t8.5 -28q0 -21 -13.5 -36t-33.5 -15q-19 0 -43 12l-241 133q-32 18 -32 52
q0 25 15 41.5t39 16.5q6 0 22 -2q36 -3 53 -3q56 0 91.5 27.5t35.5 88.5q0 42 -23.5 66.5t-65.5 24.5h-4q2 -22 2 -33q0 -42 -19 -66.5t-57 -24.5q-36 0 -58 22.5t-22 61.5q0 58 41 94q-41 57 -81 95h-29q-21 0 -33 12t-12 33v2q0 21 12 33t33 12h456q21 0 33 -12zM412 -228
q0 -15 -10 -28q-16 -23 -40 -23q-16 0 -33 12l-165 130q-19 15 -19 35q0 18 14 35q17 20 37 20q18 0 35 -14l158 -127q23 -18 23 -40z" />
    <glyph glyph-name="bn_ka.half" horiz-adv-x="715" 
d="M740 648q12 -12 12 -33v-2q0 -21 -12 -33t-33 -12h-264v-36q65 -5 118 -32t84 -73.5t31 -106.5q0 -54 -25 -90t-75 -36q-34 0 -56 16.5t-22 48.5q0 29 17.5 47.5t44.5 18.5q6 0 18 -2q0 44 -37.5 73t-97.5 35v-221q0 -67 -70 -67q-25 0 -44 7t-47 21l-202 107
q-43 23 -43 73q0 53 39 78q120 81 258 99v40h-348q-21 0 -33 12t-12 33v2q0 21 12 33t33 12h721q21 0 33 -12zM334 261v164q-95 -18 -178 -73z" />
    <glyph glyph-name="bn_kha.half" horiz-adv-x="665" 
d="M690 648q12 -12 12 -33v-2q0 -21 -12 -33t-32 -12h-69v-332q0 -68 -74 -68q-37 0 -85 15l-350 111q-18 5 -28.5 18t-10.5 32q0 24 13 38.5t37 14.5q9 0 35 -4q37 -7 59 -7q69 0 104 30t35 84q0 22 -10 40q-16 -40 -51 -64t-89 -24q-69 0 -109.5 36t-40.5 93q0 40 21.5 65
t55.5 25q32 0 50.5 -18.5t18.5 -46.5q0 -19 -9.5 -34.5t-25.5 -23.5q18 -4 31 -4q31 1 46 17t30 48q13 29 25.5 43.5t37.5 14.5q42 0 78 -48q19 -26 29.5 -59.5t10.5 -67.5q0 -60 -28.5 -104t-94.5 -62v-4q0 1 36.5 -6t72.5 -19l72 -24v428q0 27 13.5 42t39.5 15h2
q53 0 53 -57v-41h69q20 0 32 -12z" />
    <glyph glyph-name="bn_ga.half" horiz-adv-x="578" 
 />
    <glyph glyph-name="bn_gha.half" horiz-adv-x="583" 
d="M608.5 648q11.5 -12 11.5 -33v-2q0 -21 -11.5 -33t-32.5 -12h-70v-360q0 -36 -20.5 -55t-55.5 -19q-33 0 -87 19l-250 89q-38 14 -38 57t33 60l46 26v4q-47 13 -69.5 39.5t-22.5 67.5q0 46 25 72h-81q-21 0 -33 12t-12 33v2q0 21 12 33t33 12h590q21 0 32.5 -12zM395 568
h-170q-32 0 -52 -15.5t-20 -48.5q0 -29 18.5 -42.5t49.5 -13.5q27 0 53 13q14 4 20 4q20 0 31.5 -17t11.5 -39q0 -25 -26 -38l-116 -60l200 -69v326z" />
    <glyph glyph-name="bn_cha.half" horiz-adv-x="594" 
 />
    <glyph glyph-name="bn_ja.half" horiz-adv-x="775" 
d="M800 648q12 -12 12 -33v-2q0 -21 -12 -33t-33 -12h-265q29 -54 115 -54q13 0 24 1t20 1q33 0 52 -19t19 -44q0 -14 -10 -44q-14 -46 -22 -93t-8 -131v-69q0 -24 -13 -37.5t-36 -13.5h-2q-24 0 -36.5 13.5t-12.5 37.5v82q0 73 8.5 129.5t19.5 93.5h-3q-88 0 -143.5 40.5
t-80.5 106.5h-4q-34 -26 -58 -61.5t-24 -66.5q0 -42 49 -42q24 0 39.5 3.5t36.5 10.5q24 8 34 8q32 0 52.5 -39t20.5 -92q0 -83 -52.5 -139t-158.5 -56q-127 0 -206.5 82.5t-93.5 235.5q-3 25 11.5 42t43.5 17q41 0 48 -49q13 -119 61.5 -173.5t131.5 -54.5q59 0 87.5 27
t28.5 67q0 21 -5 33q-42 -17 -95 -17q-66 0 -104.5 32t-38.5 89q0 79 59 143h-270q-21 0 -33 12t-12 33v2q0 21 12 33t33 12h781q21 0 33 -12z" />
    <glyph glyph-name="bn_jha.half" horiz-adv-x="744" 
 />
    <glyph glyph-name="bn_nya.half" horiz-adv-x="851" 
d="M789.5 372q20.5 -29 20.5 -70q0 -61 -37 -100.5t-111 -39.5q-89 0 -137 54v-70q0 -52 -46 -52q-25 0 -35.5 12.5t-17.5 36.5q-6 19 -12.5 30.5t-21 19.5t-40.5 8q-22 0 -72 -8q-54 -10 -86 -10q-64 0 -111.5 34t-59.5 108q-2 10 -2 15q0 23 14.5 36.5t36.5 13.5
q21 0 32.5 -10t18.5 -32q11 -39 35 -53t55 -14q32 0 72 9q7 1 26 4t35 3q26 0 43.5 -6.5t33.5 -20.5v240q0 64 -62 64q-29 0 -53.5 -15t-38.5 -39.5t-14 -51.5q0 -6 1 -9q17 19 46 19q31 0 49 -19.5t18 -49.5q0 -32 -23 -53t-65 -21q-56 0 -89.5 36t-33.5 96q0 59 28 105
t75 71t102 25q48 0 85 -18.5t57 -54.5q51 71 143 71q70 0 112.5 -36.5t42.5 -100.5q0 -71 -66 -111q32 -17 52.5 -46zM696.5 267.5q15.5 15.5 15.5 42.5t-20 42.5t-56 15.5q-25 0 -38 12.5t-13 34.5q0 21 13.5 35t37.5 14q33 0 50.5 14.5t17.5 40.5q0 25 -15 40t-46 15
t-59 -17.5t-45.5 -53t-17.5 -86.5q0 -78 35.5 -121.5t91.5 -43.5q33 0 48.5 15.5z" />
    <glyph glyph-name="bn_tta.half" horiz-adv-x="533" 
d="M558 648q12 -12 12 -33v-2q0 -21 -12 -33t-32 -12h-342v-252q0 -63 81 -63q57 0 93 33t36 81q0 22 -7 35.5t-18 18.5q-2 -25 -19.5 -41t-44.5 -16q-29 0 -47.5 17.5t-18.5 46.5q0 42 30 64.5t75 22.5q68 0 108 -37.5t40 -112.5q0 -58 -28 -105.5t-81.5 -75t-126.5 -27.5
q-81 0 -131 39.5t-50 119.5v252h-89q-21 0 -33 12t-12 33v2q0 21 12 33t33 12h398q4 19 4 41q0 73 -78 73q-31 0 -73 -4t-80 -4q-70 0 -110 34.5t-40 96.5t56 62q53 0 56 -53q1 -26 18.5 -36t56.5 -10q19 0 40 1.5t31 1.5q46 4 79 4q72 0 111.5 -41.5t39.5 -114.5
q0 -9 -1.5 -25.5t-2.5 -25.5h35q20 0 32 -12z" />
    <glyph glyph-name="bn_ttha.half" horiz-adv-x="555" 
 />
    <glyph glyph-name="bn_dda.half" horiz-adv-x="646" 
d="M671.5 648q11.5 -12 11.5 -33v-2q0 -21 -11.5 -33t-32.5 -12h-290v-115q0 -19 8.5 -28t25.5 -9q23 0 41.5 9t43.5 25q18 13 29 18.5t22 5.5q29 0 49 -26t29.5 -63.5t9.5 -71.5q0 -96 -63 -159t-193 -63q-101 0 -170.5 45.5t-105 121.5t-39.5 168q-1 27 14.5 41.5
t39.5 14.5q23 0 36.5 -13t15.5 -37q10 -116 62.5 -177t148.5 -61q72 0 110.5 33t38.5 85q0 28 -10 50q-64 -50 -132 -50q-55 0 -89 29.5t-34 89.5v137h-251q-21 0 -33 12t-12 33v2q0 21 12 33t33 12h653q21 0 32.5 -12z" />
    <glyph glyph-name="bn_rra.half" horiz-adv-x="647" 
d="M671.5 648q11.5 -12 11.5 -33v-2q0 -21 -11.5 -33t-32.5 -12h-290v-115q0 -19 8.5 -28t25.5 -9q23 0 41.5 9t43.5 25q18 13 29 18.5t22 5.5q29 0 49 -26t29.5 -63.5t9.5 -71.5q0 -96 -63 -159t-193 -63q-101 0 -170.5 45.5t-105 121.5t-39.5 168q-1 27 14.5 41.5
t39.5 14.5q23 0 36.5 -13t15.5 -37q10 -116 62.5 -177t148.5 -61q72 0 110.5 33t38.5 85q0 28 -10 50q-64 -50 -132 -50q-55 0 -89 29.5t-34 89.5v137h-251q-21 0 -33 12t-12 33v2q0 21 12 33t33 12h653q21 0 32.5 -12zM395.5 0.5q20.5 -20.5 20.5 -50.5q0 -29 -20.5 -48.5
t-50.5 -19.5q-29 0 -49 19.5t-20 48.5q0 30 20 50.5t49 20.5q30 0 50.5 -20.5z" />
    <glyph glyph-name="bn_ddha.half" horiz-adv-x="533" 
d="M558 648q12 -12 12 -33v-2q0 -21 -12 -33t-32 -12h-343v-252q0 -63 81 -63q57 0 92.5 33t35.5 81q0 44 -25 54q-2 -25 -19 -41t-44 -16q-29 0 -48 17.5t-19 46.5q0 42 30.5 64.5t75.5 22.5q68 0 108 -37.5t40 -112.5q0 -58 -28 -105.5t-81.5 -75t-126.5 -27.5
q-81 0 -131 39.5t-50 119.5v252h-88q-21 0 -33 12t-12 33v2q0 21 12 33t33 12h540q20 0 32 -12z" />
    <glyph glyph-name="bn_rha.half" horiz-adv-x="534" 
d="M559 648q12 -12 12 -33v-2q0 -21 -12 -33t-33 -12h-343v-252q0 -63 81 -63q57 0 92.5 33t35.5 81q0 44 -25 54q-2 -25 -19 -41t-44 -16q-29 0 -48 17.5t-19 46.5q0 42 30.5 64.5t75.5 22.5q68 0 108 -37.5t40 -112.5q0 -58 -28 -105.5t-81.5 -75t-126.5 -27.5
q-81 0 -131 39.5t-50 119.5v252h-88q-21 0 -33 12t-12 33v2q0 21 12 33t33 12h540q21 0 33 -12zM302.5 77q20.5 -21 20.5 -50t-20.5 -49t-50.5 -20q-29 0 -49 20t-20 49t20 50t49 21q30 0 50.5 -21z" />
    <glyph glyph-name="bn_ta.half" horiz-adv-x="622" 
d="M647 648q12 -12 12 -33v-2q0 -21 -12 -33t-33 -12h-628q-21 0 -33 12t-12 33v2q0 21 12 33t33 12h628q21 0 33 -12zM486.5 500q44.5 -25 69.5 -72.5t25 -112.5q0 -68 -28 -121.5t-83.5 -83.5t-133.5 -30q-145 0 -217.5 92t-83.5 244q-2 29 12.5 46t45.5 18q27 0 38 -15.5
t12 -34.5q12 -250 193 -250q63 0 101 37.5t38 102.5q0 52 -24 79t-67 27q-29 0 -50 -17q24 -6 38.5 -25t14.5 -44q0 -31 -19.5 -50.5t-52.5 -19.5q-42 0 -66.5 29t-24.5 79q0 66 43.5 106.5t118.5 40.5q56 0 100.5 -25z" />
    <glyph glyph-name="bn_dha.half" horiz-adv-x="567" 
d="M592 648q12 -12 12 -33v-2q0 -21 -12 -33t-32 -12h-69v-374q0 -36 -16.5 -51t-55.5 -15q-19 0 -45 6.5t-47 14.5l-238 88q-19 6 -30 21.5t-11 39.5q0 46 40 67l38 19v4q-46 18 -68.5 50.5t-22.5 77.5q0 51 23 86.5t59.5 53.5t78.5 18q67 0 100.5 -28.5t33.5 -70.5
q0 -29 -19 -48t-50 -19q-29 0 -48 18.5t-19 47.5v8q-26 -4 -42 -21t-16 -46q0 -36 23 -52t55 -16q42 0 92 26l77 37v105q0 21 12 33t33 12h132q20 0 32 -12zM383 236v167l-195 -96z" />
    <glyph glyph-name="bn_na.nukta.half" horiz-adv-x="594" 
 />
    <glyph glyph-name="bn_pha.half" horiz-adv-x="755" 
d="M780 648q12 -12 12 -33v-2q0 -21 -12 -33t-32 -12h-574l71 -49q26 -17 39 -35.5t13 -43.5q0 -26 -9.5 -44.5t-31.5 -34.5l-79 -55l196 -68v206q0 44 31.5 58t77.5 14q61 0 114.5 -21t87 -66t33.5 -115q0 -58 -29 -94t-77 -36q-32 0 -53.5 18t-21.5 50q0 28 18 46t48 18
q10 0 15 -1v2q0 42 -31 69.5t-91 27.5h-13v-213q0 -37 -17 -54.5t-57 -17.5q-38 0 -93 19l-196 69q-28 9 -42 27.5t-14 51.5q0 27 12 48t31 35l80 57l-76 48q-25 16 -39 36t-14 48h-71q-21 0 -33 12t-12 33v2q0 21 12 33t33 12h762q20 0 32 -12z" />
    <glyph glyph-name="bn_ba.half" horiz-adv-x="507" 
d="M532 648q12 -12 12 -33v-2q0 -21 -12 -33t-33 -12h-68v-343q0 -38 -18 -55.5t-48 -17.5q-25 0 -48 7.5t-51 21.5l-189 94q-42 20 -42 69q0 46 40 69q61 38 120 66t127 57v32h-336q-21 0 -33 12t-12 33v2q0 21 12 33t33 12h513q21 0 33 -12zM322 267v156q-77 -34 -158 -78
z" />
    <glyph glyph-name="bn_bha.half" horiz-adv-x="630" 
d="M655 648q12 -12 12 -33v-2q0 -21 -12 -33t-33 -12h-636q-21 0 -33 12t-12 33v2q0 21 12 33t33 12h636q21 0 33 -12zM535 498q17 -17 32 -47q12 -26 18.5 -58t6.5 -58q0 -113 -64 -177.5t-188 -64.5q-93 0 -160.5 45t-105.5 122.5t-46 176.5q-2 25 12.5 43t40.5 18
q47 0 52 -48q10 -125 63 -189t146 -64q76 0 110.5 40t34.5 94q0 23 -10 43q-10 -23 -42.5 -49t-88.5 -26q-58 0 -98.5 35t-40.5 98q0 39 21 66.5t60 27.5q30 0 49.5 -19.5t19.5 -49.5q0 -19 -8.5 -35t-23.5 -24q8 -5 20 -5q26 0 43 18.5t39 54.5q16 25 29 37t35 12
q27 0 44 -17z" />
    <glyph glyph-name="bn_ya.half" horiz-adv-x="554" 
d="M579 648q12 -12 12 -33v-2q0 -21 -12 -33t-33 -12h-68v-354q0 -35 -19 -53t-54 -18q-23 0 -42.5 4.5t-45.5 12.5l-211 76q-50 18 -50 72q0 49 40 74l82 56l-81 50q-48 30 -48 80h-63q-21 0 -33 12t-12 33v2q0 21 12 33t33 12h560q21 0 33 -12zM365 568h-199l71 -47
q25 -17 39 -36t14 -46q0 -24 -9 -42.5t-30 -33.5l-66 -45l180 -64v314z" />
    <glyph glyph-name="bn_yya.half" horiz-adv-x="554" 
d="M579 648q12 -12 12 -33v-2q0 -21 -12 -33t-33 -12h-68v-354q0 -35 -19 -53t-54 -18q-23 0 -42.5 4.5t-45.5 12.5l-211 76q-50 18 -50 72q0 49 40 74l82 56l-81 50q-48 30 -48 80h-63q-21 0 -33 12t-12 33v2q0 21 12 33t33 12h560q21 0 33 -12zM365 568h-199l71 -47
q25 -17 39 -36t14 -46q0 -24 -9 -42.5t-30 -33.5l-66 -45l180 -64v314zM214 133q21 -21 21 -50t-21 -49t-51 -20q-29 0 -49 20t-20 49t20 50t49 21q30 0 51 -21z" />
    <glyph glyph-name="bn_la.half" horiz-adv-x="692" 
 />
    <glyph glyph-name="bn_sha.half" horiz-adv-x="633" 
 />
    <glyph glyph-name="bn_ssa.half" horiz-adv-x="524" 
d="M549.5 648q11.5 -12 11.5 -33v-2q0 -21 -11.5 -33t-32.5 -12h-66q30 -46 30 -110q0 -66 -28.5 -114t-79 -74t-114.5 -26q-63 0 -113 25.5t-78 74t-28 114.5q0 64 30 110h-84q-21 0 -33 12t-12 33v2q0 21 12 33t33 12h531q21 0 32.5 -12zM391 380l-29 27q10 21 10 51
q0 49 -31 80.5t-82 31.5q-32 0 -58 -14l-14 13l-4 -1h-22l-35 -34l32 -29q-9 -21 -9 -47q0 -51 30.5 -82.5t79.5 -31.5q34 0 60 14l28 -25zM319 358l-161 147q13 32 43 51l161 -149q-14 -32 -43 -49z" />
    <glyph glyph-name="bn_ha.half" horiz-adv-x="510" 
d="M535 648q12 -12 12 -33v-2q0 -21 -12 -33t-33 -12h-337q14 -17 32 -45q16 3 36 3q80 0 134 -45.5t54 -128.5q0 -58 -30 -99t-93 -61v-4l35 -10t63 -23l47 -19q34 -14 34 -42q0 -21 -11.5 -38.5t-32.5 -17.5q-14 0 -29 6l-306 133q-17 7 -25 17t-8 25q0 23 12 38.5
t34 15.5q9 0 16 -1t13 -2q28 -6 56 -6q59 0 88.5 23.5t29.5 64.5q0 37 -23.5 56.5t-61.5 21.5q1 -6 1 -19q0 -40 -19 -66t-53 -26t-55.5 21t-21.5 59q0 55 38 90q-22 27 -40.5 44.5t-29 25t-13.5 9.5h-50q-21 0 -33 12t-12 33v2q0 21 12 33t33 12h516q21 0 33 -12z" />
    <glyph glyph-name="bn_ss_ka" horiz-adv-x="685" 
d="M710.5 648q11.5 -12 11.5 -33v-2q0 -21 -11.5 -33t-32.5 -12h-191q33 -47 33 -117q0 -71 -35 -122q78 -18 130 -72t52 -131q0 -52 -26.5 -87t-75.5 -35q-35 0 -57 17t-22 49q0 30 17.5 47t47.5 17q10 0 17 -3q0 42 -39 72t-97 35v-236q0 -35 -15 -53t-47 -18
q-34 0 -82 27l-209 114q-44 24 -44 76q0 29 9.5 48t29.5 32q51 34 92 53q-39 26 -60.5 69t-21.5 101q0 70 33 117h-131q-21 0 -33 12t-12 33v2q0 21 12 33t33 12h692q21 0 32.5 -12zM151 513l44 -30q-3 -15 -3 -32q0 -55 29.5 -87.5t79.5 -32.5q46 0 76 28l18 -13l41 51
l-28 19q4 15 4 35q0 52 -30.5 85t-80.5 33q-46 0 -74 -28l-35 24zM227 541l181 -125q-8 -35 -31 -57l-182 124q8 35 32 58zM324 56v172q-92 -22 -174 -80z" />
    <glyph glyph-name="bn_s_ka" horiz-adv-x="697" 
 />
    <glyph glyph-name="bn_ng_kha" horiz-adv-x="771" 
d="M796 648q12 -12 12 -33v-2q0 -21 -12 -33t-32 -12h-69v-771q0 -73 -81 -73q-36 0 -90 17l-340 104q-43 12 -40 51q1 24 13.5 36.5t34.5 12.5q11 0 33 -4q37 -7 62 -7q67 0 100 30t33 79q0 20 -6 35q-20 -43 -63.5 -71t-104.5 -28q-67 0 -106 29.5t-39 79.5q0 35 20 53
t45 18q28 0 47 -17.5t19 -43.5q0 -14 -7 -28q3 -1 11 -1q45 1 72 26t40 63q-26 -2 -40 -2q-126 0 -199 75t-84 199q-2 23 10.5 39t37.5 16q19 0 30.5 -11.5t14.5 -31.5q12 -96 59 -142.5t131 -46.5q51 0 87.5 23.5t36.5 62.5q0 4 -3 19q-61 -39 -131 -39q-50 0 -82.5 28.5
t-32.5 82.5v49q-63 29 -99 89h-98q-21 0 -33 12t-12 33v2q0 21 12 33t33 12h114q22 0 32 -8.5t18 -23t12 -21.5q10 -18 21 -28q3 48 37 77.5t90 29.5q64 0 101.5 -32.5t37.5 -83.5q0 -54 -41 -84t-112 -30q-13 0 -19 1v-11q0 -18 8.5 -25t28.5 -7q22 0 41 6t42 18
q19 9 31.5 13t23.5 4q28 0 49 -29.5t21 -82.5q0 -45 -17 -83.5t-52 -63.5q28 -25 46.5 -68t18.5 -85q0 -55 -23 -98.5t-73 -64.5v-4l165 -53v878q0 27 13.5 42t39.5 15h2q53 0 53 -57v-41h69q20 0 32 -12zM287.5 598.5q-10.5 -11.5 -10.5 -33.5v-27q6 -1 18 -1q63 0 63 39
q0 16 -11.5 25t-30.5 9q-18 0 -28.5 -11.5z" />
    <glyph glyph-name="bn_dd_ga" horiz-adv-x="1116" 
d="M1141.5 648q11.5 -12 11.5 -33v-2q0 -21 -11.5 -33t-32.5 -12h-69v-519q0 -27 -15 -42.5t-42 -15.5h-2q-26 0 -41.5 15.5t-15.5 42.5v338q0 89 -41.5 136t-114.5 47q-36 0 -70.5 -14.5t-52.5 -40.5l2 -3q27 3 44 3q67 0 107.5 -35.5t40.5 -98.5q0 -88 -69 -169
q-20 -22 -47 -22q-22 0 -39.5 15.5t-17.5 37.5q0 21 20 43q23 27 33 48.5t10 41.5q0 24 -15 36t-41 12q-37 0 -76 -19q22 -47 22 -111q0 -66 -27.5 -121.5t-87.5 -89.5t-151 -34q-107 0 -179 52.5t-106.5 135t-36.5 176.5q0 25 15 38t38 13t37 -12.5t15 -36.5
q7 -124 60.5 -194t157.5 -70q80 0 120 43t40 103q0 36 -10 52q-2 -2 -21.5 -16.5t-51.5 -26.5t-66 -12q-58 0 -93.5 32t-35.5 93v149h-250q-21 0 -33 12t-12 33v2q0 21 12 33t33 12h696q36 11 79 11q52 0 94 -16.5t69 -47.5v94q0 27 15.5 42t41.5 15h2q27 0 42 -15t15 -42
v-41h69q21 0 32.5 -12zM420 409.5q19 8.5 45 25.5q34 23 52 25q18 73 51 118l-2 2q-4 -1 -20 -4t-49 -5.5t-79 -2.5h-70v-127q0 -21 7.5 -30.5t24.5 -9.5q21 0 40 8.5z" />
    <glyph glyph-name="bn_d_ga" horiz-adv-x="1013" 
d="M1038 648q12 -12 12 -33v-2q0 -21 -12 -33t-33 -12h-68v-519q0 -27 -15.5 -42.5t-41.5 -15.5h-2q-27 0 -42 15.5t-15 42.5v344q0 89 -42 136t-115 47q-35 0 -64 -13t-44 -38l2 -4l30 2q64 0 106 -36.5t42 -103.5q0 -47 -21.5 -94.5t-62.5 -89.5q-12 -12 -22 -17.5
t-23 -5.5q-22 0 -39 16t-17 37q0 25 19 45q29 30 42 55t13 51q0 25 -15.5 37t-40.5 12q-38 0 -73 -19q-23 -78 -23 -243v-106q0 -25 -14 -39.5t-40 -14.5h-2q-25 0 -39.5 14.5t-14.5 39.5v109q0 128 15 180q-80 -48 -164 -138q-21 -21 -39.5 -32t-44.5 -11q-29 0 -46.5 16.5
t-17.5 49.5v333h-80q-21 0 -33 12t-12 33v2q0 21 12 33t33 12h574q45 17 97 17t94.5 -16.5t69.5 -47.5v88q0 27 15 42t42 15h2q26 0 41.5 -15t15.5 -42v-41h68q21 0 33 -12zM285 419q65 42 126 66q15 53 44 93l-1 2q-4 -1 -21 -4t-50.5 -5.5t-80.5 -2.5h-120v-69
q0 -95 -7 -165l3 -2q42 45 107 87z" />
    <glyph glyph-name="bn_rr_ga" horiz-adv-x="1116" 
d="M1141.5 648q11.5 -12 11.5 -33v-2q0 -21 -11.5 -33t-32.5 -12h-69v-519q0 -27 -15 -42.5t-42 -15.5h-2q-26 0 -41.5 15.5t-15.5 42.5v338q0 89 -41.5 136t-114.5 47q-36 0 -70.5 -15t-52.5 -40l2 -3q26 3 44 3q67 0 107.5 -35.5t40.5 -98.5q0 -91 -72 -172
q-17 -20 -44 -20q-22 0 -39.5 16t-17.5 38t18 41q45 53 45 92q0 24 -15 36t-41 12q-37 0 -76 -19q22 -47 22 -111q0 -66 -27.5 -121.5t-87.5 -89.5t-151 -34q-108 0 -180 52.5t-106 135.5t-36 176q0 25 15 38t38 13t37 -12.5t15 -36.5q7 -124 60.5 -194t157.5 -70
q80 0 120 43t40 103q0 36 -10 52q-2 -2 -21.5 -16.5t-51.5 -26.5t-66 -12q-58 0 -93.5 32t-35.5 93v149h-250q-21 0 -33 12t-12 33v2q0 21 12 33t33 12h696q36 11 79 11q52 0 94 -16.5t69 -47.5v94q0 27 15.5 42t41.5 15h2q27 0 42 -15t15 -42v-41h69q21 0 32.5 -12z
M420.5 410q18.5 9 43.5 25q17 11 29 17.5t24 7.5q18 73 51 118l-2 2q-4 -1 -20 -4t-49 -5.5t-79 -2.5h-70v-127q0 -21 8 -30.5t24 -9.5q22 0 40.5 9zM394 -42.5q20 -19.5 20 -48.5q0 -28 -20 -47t-49 -19q-28 0 -47 19t-19 47q0 29 19 48.5t47 19.5q29 0 49 -19.5z" />
    <glyph glyph-name="bn_ng_gha" horiz-adv-x="1169" 
 />
    <glyph glyph-name="bn_d_gha" horiz-adv-x="1015" 
d="M1040 648q12 -12 12 -33v-2q0 -21 -12 -33t-33 -12h-68v-521q0 -26 -14.5 -41t-40.5 -15h-2q-26 0 -41 15t-15 41v29l-366 153q-1 -19 -1 -64v-70q0 -25 -14 -39.5t-40 -14.5h-2q-25 0 -39.5 14.5t-14.5 39.5v73q0 138 15 186q-25 -17 -55 -42t-81 -74q-24 -22 -46 -33
t-47 -11q-69 0 -69 71v303h-80q-21 0 -33 12t-12 33v2q0 21 12 33t33 12h1021q21 0 33 -12zM561 374q-91 32 -91 115q0 23 8 44t21 35h-317v-80q0 -83 -7 -146l4 -2q30 33 67.5 63t73.5 48q34 17 58 17q37 0 64 -23t27 -60q0 -8 -2 -32l-3 -34l97 51v4zM826 568h-169
q-33 0 -53.5 -19.5t-20.5 -54.5q0 -29 19 -45.5t50 -16.5q21 0 51 13q12 4 22 4q20 0 31.5 -17t11.5 -38q0 -25 -24 -38l-147 -78l229 -95v385z" />
    <glyph glyph-name="bn_l_gha" horiz-adv-x="1038" 
d="M1063 648q12 -12 12 -33v-2q0 -21 -12 -33t-33 -12h-68v-521q0 -26 -14.5 -41t-40.5 -15h-2q-26 0 -41 15t-15 41v29l-323 106q-20 7 -30.5 23t-10.5 38q0 46 40 67l59 32v4q-60 17 -83 48q-21 23 -47 23q-25 0 -38 -17t-19 -52q-10 -43 -53 -43q-25 0 -37 11.5t-18 31.5
q-16 65 -78 65q-34 0 -54.5 -23t-20.5 -66q0 -54 34 -77q5 23 22 37t42 14q29 0 48.5 -18.5t19.5 -47.5q0 -35 -25.5 -58t-76.5 -23q-74 0 -121.5 47t-47.5 129q0 90 48 139t125 49q41 0 76.5 -17.5t56.5 -46.5q16 33 41 48.5t53 15.5t52 -16q4 23 13.5 38.5t23.5 30.5h-534
q-21 0 -33 12t-12 33v2q0 21 12 33t33 12h1044q21 0 33 -12zM848 568h-166q-37 0 -63 -22.5t-26 -64.5q0 -37 22 -54.5t52 -17.5q16 0 27 3.5t21 8.5t15 7q8 4 19 4q21 0 33 -15.5t12 -37.5q0 -26 -24 -40l-146 -83l224 -72v384z" />
    <glyph glyph-name="bn_c_ca" horiz-adv-x="850" 
d="M875 648q12 -12 12 -33v-2q0 -21 -12 -33t-32 -12h-322q1 -35 14.5 -57.5t54.5 -36.5l94 -32q54 -18 82.5 -39.5t38 -46.5t9.5 -62q0 -66 -33.5 -131.5t-93.5 -107.5t-135 -42q-63 0 -101.5 30t-38.5 92v133q-26 -58 -82 -97t-126 -39q-59 0 -100 31t-41 102v303h-77
q-21 0 -33 12t-12 33v2q0 21 12 33t33 12h857q20 0 32 -12zM412 568h-244q3 -20 17 -32t48 -24l81 -27q73 -24 98 -60v143zM258.5 250q26.5 17 44 42.5t17.5 51.5q0 18 -8.5 30t-31.5 19l-55 19q-34 10 -53 28v-169q0 -21 8.5 -29.5t26.5 -8.5q25 0 51.5 17zM525 402v-246
q0 -23 9.5 -33t28.5 -10q34 0 66.5 27.5t53.5 68t21 77.5q0 22 -9.5 36t-33.5 22l-74 25q-42 15 -62 33z" />
    <glyph glyph-name="bn_c_cha" horiz-adv-x="944" 
 />
    <glyph glyph-name="bn_n_ja" horiz-adv-x="868" 
d="M894 648q12 -12 12 -33v-2q0 -21 -12 -33t-33 -12h-439v-43q48 -35 111 -54t127 -19q29 0 59 2q10 1 26 1q22 0 37 -6t28 -21q15 -19 15 -49q0 -18 -8 -45q-10 -36 -15.5 -76.5t-5.5 -108.5v-164q0 -25 -14 -39t-38 -14h-2q-25 0 -39.5 14t-14.5 39v166q0 133 24 201
l-33 -1q-65 0 -137.5 16.5t-119.5 51.5v-121q0 -18 7 -24.5t21 -6.5q21 0 37.5 4.5t35.5 12.5q28 11 43 11q33 0 50.5 -39.5t17.5 -88.5q0 -88 -55 -145.5t-167 -57.5q-126 0 -198.5 76t-87.5 198q-1 4 -1 12q0 23 14 37.5t42 14.5q24 0 34.5 -15.5t12.5 -33.5
q12 -95 58.5 -143.5t125.5 -48.5q60 0 91 29t31 75q0 12 -5 27q-47 -22 -99 -22q-118 0 -118 120q-34 69 -75 98t-82 29h-1q6 -13 6 -28q0 -28 -18.5 -45.5t-47.5 -17.5q-32 0 -53.5 20.5t-21.5 55.5q0 52 35.5 82.5t95.5 30.5q102 0 165 -70l3 2q-6 56 -6 121h-326
q-21 0 -33 12t-12 33v2q0 21 12 33t33 12h875q21 0 33 -12z" />
    <glyph glyph-name="bn_c_nya" horiz-adv-x="1001" 
d="M1027 648q12 -12 12 -33v-2q0 -21 -12 -33t-33 -12h-822q3 -20 17 -32.5t48 -23.5l77 -26q49 -16 76 -40q28 26 66.5 40t80.5 14q48 0 84.5 -17.5t54.5 -50.5q25 33 61.5 50t77.5 17q66 0 104 -33t38 -91q0 -36 -16 -63.5t-48 -43.5q32 -15 51 -42t19 -67
q0 -58 -34.5 -94.5t-101.5 -36.5q-41 0 -75 14.5t-58 40.5v-77q0 -24 -11 -36t-32 -12q-24 0 -34 9t-19 29q-10 24 -26 36.5t-56 12.5q-24 0 -61 -7q-52 -8 -87 -8q-123 0 -159 98h-1q-59 0 -100.5 30t-41.5 100v310h-80q-21 0 -33 12t-12 33v2q0 21 12 33t33 12h1008
q21 0 33 -12zM172 448v-186q0 -21 11 -30t31 -9q28 0 55 18.5t43.5 46.5t16.5 54q0 21 -10.5 34.5t-35.5 21.5l-54 20q-41 14 -57 30zM457.5 381q-31.5 -29 -31.5 -73v-6q18 23 52 23q30 0 47.5 -18t17.5 -46q0 -30 -21 -49.5t-60 -19.5q-48 0 -79 22q-30 -40 -75 -62
q10 -16 27.5 -23.5t47.5 -7.5q24 0 70 8q8 1 27.5 4t34.5 3q47 0 81 -28v241q0 61 -62 61q-45 0 -76.5 -29zM726.5 371.5q-31.5 -37.5 -31.5 -104.5q0 -71 32 -111t82 -40q28 0 42.5 15t14.5 38q0 53 -67 53q-24 0 -36 11.5t-12 30.5q0 20 12 32.5t36 12.5q32 0 45.5 13.5
t13.5 38.5q0 23 -15 35.5t-40 12.5q-45 0 -76.5 -37.5z" />
    <glyph glyph-name="bn_n_tta" horiz-adv-x="869" 
d="M895 648q12 -12 12 -33v-2q0 -21 -12 -33t-33 -12h-368v-394q0 -69 71 -69q48 0 84.5 27t56 70.5t19.5 90.5q0 29 -8.5 47.5t-24.5 22.5q-2 -29 -20.5 -47t-48.5 -18q-33 0 -54 19t-21 53q0 46 34 71t83 25q72 0 119 -49t47 -135q0 -71 -30 -135t-91.5 -104t-151.5 -40
q-70 0 -117.5 36t-59.5 98q-30 113 -82.5 177t-124.5 64q-12 0 -18 -1q14 -17 14 -42q0 -31 -20 -50t-52 -19q-35 0 -58 22.5t-23 60.5q0 57 41 93t114 36q71 0 126.5 -32.5t91.5 -96.5l2 1q-14 84 -14 175v43h-392q-21 0 -33 12t-12 33v2q0 21 12 33t33 12h725q3 21 3 41
q0 37 -19.5 54.5t-61.5 17.5q-32 0 -55.5 -1t-39.5 -2q-66 -4 -104 -4q-70 0 -110 34.5t-40 96.5q0 29 14 45.5t42 16.5q53 0 56 -53q1 -26 18.5 -36t56.5 -10q26 0 48 1t39 2q68 4 108 4q76 0 115.5 -41t39.5 -115q0 -9 -1.5 -25.5t-2.5 -25.5h45q21 0 33 -12z" />
    <glyph glyph-name="bn_s_tta" horiz-adv-x="639" 
 />
    <glyph glyph-name="bn_b_dda" horiz-adv-x="698" 
d="M723 648q12 -12 12 -33v-2q0 -21 -12 -33t-33 -12h-302v-256q0 -33 31 -33q23 0 42.5 10t44.5 29q20 15 33.5 22.5t26.5 7.5q31 0 54.5 -27.5t36 -69t12.5 -82.5q0 -70 -30 -126t-91.5 -89t-153.5 -33q-106 0 -184 51.5t-119 145.5q-8 14 -8 30q0 24 16 39t42 15
q30 0 44 -34q29 -72 82.5 -108.5t128.5 -36.5q59 0 97 22t55 55.5t17 70.5q0 44 -14 65q-21 -22 -60.5 -44t-89.5 -22q-55 0 -119 32l-197 96q-25 12 -39 30.5t-14 48.5q0 58 52 84q105 52 202 84v23h-300q-21 0 -33 12t-12 33v2q0 21 12 33t33 12h704q21 0 33 -12zM286 306
v136q-49 -18 -151 -65z" />
    <glyph glyph-name="bn_b_ddha" horiz-adv-x="816" 
d="M841 648q12 -12 12 -33v-2q0 -21 -12 -33t-32 -12h-370v-409q0 -56 62 -56q52 0 90.5 29t59 74t20.5 91q0 26 -8.5 44.5t-24.5 23.5q-2 -29 -21 -48t-49 -19q-33 0 -53.5 19t-20.5 54q0 47 32.5 71.5t81.5 24.5q78 0 123.5 -45.5t45.5 -130.5q0 -70 -31 -136.5
t-93.5 -109t-151.5 -42.5q-73 0 -121.5 33t-55.5 100l-251 126q-20 10 -31 30t-11 46q0 25 10.5 45.5t30.5 31.5q120 67 251 121v32h-337q-21 0 -33 12t-12 33v2q0 21 12 33t33 12h823q20 0 32 -12zM146 336l177 -84v170q-92 -36 -177 -86z" />
    <glyph glyph-name="bn_h_nna" horiz-adv-x="543" 
d="M568 648q12 -12 12 -33v-2q0 -21 -12 -33t-33 -12h-341q14 -17 32 -45q17 3 36 3q80 0 134 -45.5t54 -128.5q0 -57 -30 -97.5t-93 -59.5v-4q7 -2 35 -10.5t63 -22.5l81 -34q18 -8 26 -17t8 -26q0 -21 -11.5 -38t-32.5 -17q-17 0 -31 7l-4 2v-312q0 -25 -14 -39t-39 -14
h-2q-25 0 -39 14t-14 38v105q0 80 -35.5 117.5t-94.5 37.5q-46 0 -74 -25.5t-28 -69.5q0 -42 25 -62q7 24 26 38.5t44 14.5q33 0 53 -20.5t20 -53.5q0 -40 -28 -63.5t-76 -23.5q-73 0 -120 46.5t-47 129.5q0 57 25 99t69.5 64.5t100.5 22.5q46 0 82 -14.5t58 -36.5v53
l-229 99q-33 14 -33 44q0 23 12 37t34 14q8 0 30 -4q35 -5 53 -5q122 0 122 86q0 37 -23 56.5t-61 21.5q1 -6 1 -19q0 -40 -19 -66t-53 -26q-35 0 -56 20.5t-21 59.5q0 56 38 89q-22 27 -41 45t-29.5 25.5t-13.5 9.5h-78q-21 0 -33 12t-12 33v2q0 21 12 33t33 12h549
q21 0 33 -12z" />
    <glyph glyph-name="bn_n_ta" horiz-adv-x="621" 
 />
    </font>
</defs>
</svg>
