<?xml version="1.0" standalone="no"?>
<!DOCTYPE svg PUBLIC "-//W3C//DTD SVG 1.1//EN" "http://www.w3.org/Graphics/SVG/1.1/DTD/svg11.dtd" >
<svg xmlns="http://www.w3.org/2000/svg" xmlns:xlink="http://www.w3.org/1999/xlink" version="1.1">
<metadata>
Created by FontForge 20201107 at Mon Jan 20 12:11:53 2020
 By 
Copyright (c) 2020 by The Indian Type Foundry. All rights reserved.
</metadata>
<defs>
<font id="TatsamRobi-Regular" horiz-adv-x="0" >
  <font-face 
    font-family="Tatsam Robi"
    font-weight="400"
    font-stretch="normal"
    units-per-em="1000"
    panose-1="0 0 5 0 0 0 0 0 0 0"
    ascent="800"
    descent="-200"
    x-height="642"
    cap-height="646"
    bbox="-879 -441 1556 1117"
    underline-thickness="50"
    underline-position="-100"
    unicode-range="U+000D-2265"
  />
<missing-glyph horiz-adv-x="521" 
 />
    <glyph glyph-name="bn_k_ba" unicode="K&#xa6;" horiz-adv-x="690" 
d="M717.5 633.5q8.5 -8.5 8.5 -22.5v-2q0 -15 -8.5 -23t-22.5 -8h-269v-54q69 -2 120.5 -28t78.5 -68.5t27 -93.5q0 -54 -24.5 -86t-70.5 -32q-27 0 -46.5 15t-19.5 41t16 41.5t41 15.5q17 0 32 -10q1 5 1 14q0 53 -41.5 86.5t-113.5 35.5v-576q0 -46 -41 -46q-22 0 -62 21
l-230 121q-39 18 -39 60q0 22 9.5 38.5t27.5 25.5q75 42 181 89l-181 96q-18 10 -27.5 23.5t-9.5 33.5q0 37 32 62q120 99 266 117v58h-363q-31 0 -31 31v2q0 14 8 22.5t23 8.5h706q14 0 22.5 -8.5zM238 411q-57 -27 -106 -68l220 -114v220q-57 -11 -114 -38zM352 -78v220
q-108 -45 -223 -105z" />
    <glyph glyph-name="bn_kh_ba" unicode="L&#xa6;" horiz-adv-x="614" 
 />
    <glyph glyph-name="bn_g_ba" unicode="M&#xa6;" horiz-adv-x="563" 
 />
    <glyph glyph-name="bn_c_ba" unicode="P&#xa6;" horiz-adv-x="495" 
 />
    <glyph glyph-name="bn_ch_ba" unicode="Q&#xa6;" horiz-adv-x="571" 
 />
    <glyph glyph-name="bn_j_ba" unicode="R&#xa6;" horiz-adv-x="753" 
d="M781 633.5q8 -8.5 8 -22.5v-2q0 -31 -31 -31h-322q23 -37 65.5 -52.5t93.5 -15.5l45 1q28 0 42 -15.5t14 -37.5q0 -16 -9 -47q-11 -37 -17.5 -79t-6.5 -117v-388q0 -43 -44 -43q-20 0 -58 18l-227 115q-35 16 -35 55q0 22 9 36.5t27 24.5q115 67 256 122v64q0 140 29 224
q-6 -1 -21 -1q-86 0 -149.5 34.5t-94.5 101.5h-5q-34 -29 -60 -69.5t-26 -73.5q0 -44 57 -44q29 0 49.5 5t42.5 13q23 10 38 10q17 0 32.5 -17.5t25 -47.5t9.5 -65q0 -78 -53 -127.5t-150 -49.5q-78 0 -139.5 36.5t-98.5 109.5t-42 180q-2 42 39 42q18 0 25 -10t9 -26
q8 -139 64.5 -201t143.5 -62q64 0 97.5 30t33.5 80q0 18 -2.5 29t-8.5 25q-51 -22 -113 -22q-65 0 -100 27.5t-35 81.5q0 71 65 146h-264q-31 0 -31 31v2q0 14 8 22.5t23 8.5h769q15 0 23 -8.5zM591 -134v211q-116 -46 -218 -103z" />
    <glyph glyph-name="bn_tt_ba" unicode="U&#xa6;" horiz-adv-x="525" 
d="M552 633.5q8 -8.5 8 -22.5v-2q0 -31 -31 -31h-369v-258q0 -38 26 -56t71 -18q64 0 103.5 37t39.5 98q0 37 -14.5 55t-37.5 20q2 -10 2 -15q0 -24 -16 -40t-42 -16q-25 0 -41 15.5t-16 41.5q0 38 28 59t71 21q62 0 99 -36.5t37 -105.5q0 -73 -43 -125v-291q0 -23 -12 -34
t-33 -11q-12 0 -26 4.5t-37 14.5l-214 96q-20 10 -31 24.5t-11 38.5q0 43 39 64q30 16 69 34q-41 15 -63.5 46t-22.5 79v258h-96q-31 0 -31 31v2q0 14 8 22.5t23 8.5h416q3 21 3 44q0 46 -20 66.5t-71 20.5q-21 0 -65 -2q-36 -3 -89 -3q-70 0 -106 31.5t-36 91.5q0 51 37 51
q19 0 28 -10t10 -36q0 -35 21.5 -47.5t67.5 -12.5q25 0 75 2t80 2q70 0 106 -38t36 -109q0 -21 -5 -51h52q15 0 23 -8.5zM352 3v192q-64 -25 -113 -46t-102 -50z" />
    <glyph glyph-name="bn_dd_ba" unicode="W&#xa6;" horiz-adv-x="648" 
d="M676 633.5q8 -8.5 8 -22.5v-2q0 -31 -31 -31h-324v-131q0 -23 9.5 -33t28.5 -10q23 0 44 10t49 29q21 13 33.5 19.5t23.5 6.5q34 0 55.5 -46t21.5 -99q0 -52 -20.5 -94.5t-61.5 -70.5v-284q0 -23 -12.5 -34.5t-32.5 -11.5q-12 0 -24.5 4.5t-33.5 13.5l-222 103
q-25 12 -36 25.5t-11 37.5q0 23 9 37t33 27q39 20 71 35l23 11q-103 22 -159.5 107.5t-61.5 219.5q-1 18 9.5 28.5t28.5 10.5q34 0 35 -33q7 -141 65 -207t158 -66q82 0 126.5 39t44.5 103q0 46 -18 71q-39 -30 -73.5 -47.5t-73.5 -17.5q-45 0 -74.5 26t-29.5 79v142h-264
q-31 0 -31 31v2q0 14 8 22.5t23 8.5h664q15 0 23 -8.5zM438 -84v203q-99 -42 -217 -103z" />
    <glyph glyph-name="bn_l_ba" unicode="j&#xa6;" horiz-adv-x="690" 
d="M718 633.5q8 -8.5 8 -22.5v-2q0 -31 -31 -31h-90v-651q0 -23 -11.5 -34t-31.5 -11q-26 0 -59 18l-222 109q-41 20 -41 62q0 46 38 66q131 71 253 123v74q0 56 -19 85.5t-53 29.5q-63 0 -70 -95q-3 -19 -11 -29.5t-27 -10.5q-32 0 -38 40q-6 47 -31 71t-67 24
q-43 0 -70 -26t-27 -79q0 -49 21.5 -74t55.5 -31q-1 3 -1 11q0 24 15.5 40t40.5 16q26 0 43.5 -17t17.5 -43q0 -33 -27 -53t-71 -20q-73 0 -120.5 46t-47.5 126q0 76 45.5 124.5t122.5 48.5q38 0 74 -16.5t59 -49.5q20 35 49.5 50.5t57.5 15.5q46 0 78 -30v90h-542
q-31 0 -31 31v2q0 14 8 22.5t23 8.5h706q15 0 23 -8.5zM531 -31v210q-104 -47 -216 -106z" />
    <glyph glyph-name="bn_g_ra" unicode="M&#xd6;" horiz-adv-x="606" 
 />
    <glyph glyph-name="bn_gh_ra" unicode="N&#xd6;" horiz-adv-x="610" 
 />
    <glyph glyph-name="bn_j_ra" unicode="R&#xd6;" horiz-adv-x="759" 
d="M787 633.5q8 -8.5 8 -22.5v-2q0 -31 -31 -31h-310q38 -64 153 -64l46 1q27 0 39.5 -14t12.5 -37q0 -14 -9 -45q-11 -41 -17.5 -84t-6.5 -120v-306q0 -20 -8 -30.5t-28 -10.5q-21 0 -28 10.5t-12 33.5q-4 23 -10.5 37t-26.5 24.5t-58 10.5q-46 0 -130 -12
q-90 -12 -146 -12q-73 0 -120.5 36.5t-58.5 111.5q-1 3 -1 10q0 16 8.5 27t29.5 11q16 0 23.5 -9.5t11.5 -24.5q9 -47 36 -68.5t83 -21.5q55 0 128 11q9 1 49.5 6t83.5 5q68 0 100 -31v196q0 148 30 228q-5 -1 -16 -1q-177 0 -238 132h-4q-32 -28 -57 -69t-25 -74
q0 -46 59 -46q26 0 47 5t45 13q27 9 39 9q28 0 46 -38.5t18 -88.5q0 -81 -52 -130t-151 -49q-118 0 -194 81t-85 239q-1 17 7.5 29.5t31.5 12.5q18 0 25 -10t9 -26q10 -138 66.5 -197.5t140.5 -59.5q65 0 99 31t34 81q0 35 -12 55q-27 -12 -57.5 -18.5t-57.5 -6.5
q-65 0 -99.5 28t-34.5 81q0 74 60 148h-283q-31 0 -31 31v2q0 14 8 22.5t23 8.5h775q15 0 23 -8.5z" />
    <glyph glyph-name="bn_d_ra" unicode="`&#xab;" horiz-adv-x="591" 
d="M619 633.5q8 -8.5 8 -22.5v-2q0 -31 -31 -31h-366v-102q0 -66 -5 -121l3 -1q45 45 98 82.5t102 62.5q24 11 43 11q25 0 40 -15.5t15 -44.5q0 -15 -5 -38q-6 -36 -9.5 -72t-3.5 -102v-201q0 -41 -35 -41q-23 0 -30.5 12t-11.5 36q-3 20 -8.5 33t-20.5 22t-44 9
q-22 0 -72 -10q-58 -12 -97 -12q-73 0 -115 41t-50 119q-2 20 6 34.5t32 14.5q16 0 23 -9.5t11 -25.5q9 -54 30.5 -78t71.5 -24q28 0 78 10t78 10q52 0 79 -31v91q0 119 19 193q-73 -38 -187 -147q-18 -16 -33 -22.5t-33 -6.5q-22 0 -34 13t-12 39v271h-164q-31 0 -31 31v2
q0 14 8 22.5t23 8.5h607q15 0 23 -8.5z" />
    <glyph glyph-name="bn_dh_ra" unicode="a&#xd6;" horiz-adv-x="603" 
d="M631 633.5q8 -8.5 8 -22.5v-2q0 -31 -31 -31h-91v-627q0 -20 -8 -30.5t-27 -10.5q-22 0 -29.5 12t-11.5 37q-3 22 -8 35t-19.5 22t-41.5 9q-22 0 -74 -10q-22 -4 -47 -7.5t-49 -3.5q-68 0 -112.5 37t-53.5 114q-1 3 -1 10q0 17 8.5 28t29.5 11q28 0 35 -35q10 -49 31 -71
t68 -22q27 0 77 10q52 10 80 10q52 0 79 -31v72l-297 113q-38 13 -38 51q0 21 9 34t30 23l47 25v4q-94 32 -94 124q0 67 43 106t107 39q63 0 96 -26.5t33 -65.5q0 -25 -15 -41.5t-43 -16.5q-26 0 -42 14.5t-16 39.5q0 16 6 28q-4 1 -13 1q-38 0 -61 -20.5t-23 -58.5
q0 -39 26 -57t63 -18q23 0 47 8.5t57 24.5l78 40v103q0 14 8 22.5t23 8.5h134q15 0 23 -8.5zM443 430l-245 -123l245 -93v216z" />
    <glyph glyph-name="bn_n_ra" unicode="b&#xd6;" horiz-adv-x="585" 
d="M612 633.5q8 -8.5 8 -22.5v-2q0 -31 -31 -31h-90v-548q0 -41 -36 -41q-22 0 -29.5 12t-11.5 36q-4 21 -9.5 33.5t-20 21.5t-41.5 9q-26 0 -71 -9q-5 -1 -33 -6t-55 -5q-72 0 -116.5 40t-51.5 120l-1 10q0 16 9 27.5t30 11.5q16 0 24 -9t11 -27q5 -50 28 -75.5t68 -25.5
q29 0 79 10q6 1 29 5t46 4q50 0 77 -31v74q0 91 -49.5 148t-134.5 57q-24 0 -37 -4q18 -16 18 -41t-16 -41t-43 -16q-29 0 -47.5 18.5t-18.5 48.5q0 49 38.5 76.5t102.5 27.5q58 0 108.5 -21.5t82.5 -63.5l3 1q-9 63 -9 133v40h-433q-31 0 -31 31v2q0 14 8 22.5t23 8.5h600
q15 0 23 -8.5z" />
    <glyph glyph-name="bn_p_ra" unicode="c&#xd6;" horiz-adv-x="663" 
d="M690 633.5q8 -8.5 8 -22.5v-2q0 -15 -8 -23t-22 -8h-91v-547q0 -20 -8 -30.5t-28 -10.5q-22 0 -30 12t-12 36q-5 22 -11 35.5t-22 23t-47 9.5q-42 0 -104 -11q-8 -1 -41.5 -6t-65.5 -5q-68 0 -114 37t-57 114l-1 10q0 16 9 27.5t29 11.5q28 0 35 -35q9 -48 33.5 -70.5
t75.5 -22.5q33 0 97 10t98 10q30 0 50.5 -7.5t37.5 -25.5v302l-266 -213q-11 -11 -27 -11q-15 0 -25 11t-10 25q0 16 18 32l68 54q-26 43 -55 62.5t-68 19.5q-11 0 -23.5 -1.5t-22.5 -1.5q-20 0 -32 13.5t-12 32.5q0 26 19 58q34 63 89 97t127 34q69 0 123.5 -33t92.5 -91
l4 4v163q0 18 10 28t27 10h2q17 0 27 -10t10 -28v-58h91q14 0 22 -8.5zM237 467.5q41 -23.5 76 -80.5l132 105q-68 97 -162 97q-53 0 -92.5 -26.5t-64.5 -72.5q6 1 18 1q52 0 93 -23.5z" />
    <glyph glyph-name="bn_b_ra" unicode="e&#xd6;" horiz-adv-x="584" 
d="M611.5 633.5q8.5 -8.5 8.5 -22.5v-2q0 -15 -8.5 -23t-22.5 -8h-91v-602q0 -20 -8 -30t-28 -10q-22 0 -29.5 12t-10.5 37q-3 21 -8 34t-20 22.5t-43 9.5q-25 0 -75 -10q-52 -12 -87 -12q-65 0 -108.5 37.5t-53.5 113.5l-1 10q0 15 8 26.5t25 12.5q34 4 40 -34
q9 -50 31.5 -71t65.5 -21q26 0 76 10t76 10q48 0 76 -31v69l-256 128q-38 19 -38 61q0 41 36 63q75 45 134.5 73t123.5 54v38h-435q-31 0 -31 31v2q0 14 8 22.5t23 8.5h600q14 0 22.5 -8.5zM424 244v218q-129 -57 -219 -111z" />
    <glyph glyph-name="bn_sh_ra" unicode="L&#xd6;" horiz-adv-x="605" 
d="M632 633.5q8 -8.5 8 -22.5v-2q0 -31 -31 -31h-90v-548q0 -41 -36 -41q-22 0 -30 12t-12 37q-4 21 -10 34.5t-21.5 23t-45.5 9.5q-34 0 -82 -11q-4 -1 -30 -6t-56 -5q-144 0 -169 149q-1 4 -1 11q0 16 9 27t29 11q28 0 35 -35q9 -47 31.5 -69t69.5 -22q32 0 82 10t78 10
q55 0 83 -29v432h-45q-36 0 -67 -16t-47 -45q45 -37 75 -83.5t30 -78.5q0 -20 -11 -31.5t-29 -11.5q-33 0 -66 41t-60 107h-5q-27 -66 -60 -107t-66 -41q-17 0 -28.5 11.5t-11.5 30.5q0 32 30.5 80.5t76.5 84.5q-16 30 -41 44.5t-68 14.5h-61q-31 0 -31 31v2q0 14 8 22.5
t23 8.5h61q63 0 101.5 -19.5t69.5 -75.5q28 50 71.5 72.5t105.5 22.5h45v59q0 17 10 27t27 10h2q17 0 27 -10t10 -27v-59h90q15 0 23 -8.5z" />
    <glyph glyph-name="bn_ss_ra" unicode="l&#xd6;" horiz-adv-x="575" 
d="M602 633.5q8 -8.5 8 -22.5v-2q0 -15 -8 -23t-22 -8h-169l-9 1q37 -21 57 -52.5t20 -71.5q0 -27 -8 -51q-8 -28 -26 -52h43v-319q0 -19 -8 -29.5t-28 -10.5q-22 0 -29.5 12t-12.5 37q-5 32 -18 49t-53 17q-18 0 -41 -4t-29 -5q-51 -11 -86 -11q-65 0 -108 37.5t-53 114.5
q-1 3 -1 10q0 16 9 27.5t29 11.5q29 0 35 -37q8 -48 29 -70t67 -22q21 0 45.5 4t31.5 5q43 9 68 9q49 0 78 -28v172q-37 -26 -85 -26q-29 0 -60 11q-53 18 -82 53t-29 84q0 25 7 50q15 51 52 81l11 -63q-12 -19 -16 -38q-3 -13 -3 -25q0 -38 23.5 -65.5t63.5 -36.5
q13 -3 27 -3q33 0 58 18l25 -24l-7 39q19 21 27 53q3 12 3 23q0 43 -32 75t-83 32q-32 0 -59 -19l-37 35l3 2h-231q-31 0 -31 31v2q0 14 8 22.5t23 8.5h591q14 0 22 -8.5zM217 576q0 -1 -1 -1v2zM254 541l137 -129l7 -35q-9 -9 -18 -15l-151 141l-2 9q13 18 27 29z" />
    <glyph glyph-name="bn_ss_tt_ra" unicode="&#xf3;&#xab;" horiz-adv-x="570" 
d="M597.5 633.5q8.5 -8.5 8.5 -22.5v-2q0 -15 -8.5 -23t-22.5 -8h-113q42 -45 42 -115q0 -61 -29 -102t-80 -62q-18 -8 -33.5 -13.5t-27.5 -9.5q-55 -19 -89 -35t-58 -42t-24 -64q0 -51 43.5 -76.5t105.5 -25.5q71 0 105.5 26t34.5 70q0 5 -2 15q-15 -26 -47 -26
q-26 0 -43 15.5t-17 42.5q0 31 21.5 49t53.5 18q45 0 74.5 -32.5t29.5 -82.5q0 -62 -36 -103v-264q0 -41 -37 -41q-22 0 -29.5 11.5t-11.5 35.5q-4 22 -9.5 35t-22 22.5t-47.5 9.5q-25 0 -71 -10q-19 -4 -41.5 -7.5t-45.5 -3.5q-65 0 -108 36.5t-55 110.5q-5 49 38 49
q15 0 22.5 -9.5t12.5 -26.5q9 -46 30.5 -67t67.5 -21q29 0 77 10q6 1 27.5 5t43.5 4q26 0 46.5 -6t37.5 -23v102q-44 -14 -99 -14q-100 0 -162 45.5t-62 124.5q0 112 124 164q-52 19 -82.5 61t-30.5 105q0 71 41 115h-151q-31 0 -31 31v2q0 14 8 22.5t23 8.5h449q4 28 4 44
q0 46 -20.5 66.5t-71.5 20.5q-21 0 -59 -2q-33 -3 -85 -3q-69 0 -105 31.5t-36 91.5q0 51 37 51q19 0 28 -10t9 -36q1 -35 22.5 -47.5t67.5 -12.5q28 0 70 2q46 2 75 2q69 0 105 -37.5t36 -109.5q0 -29 -4 -51h64q14 0 22.5 -8.5zM429 463q0 51 -36 84.5t-93 33.5
q-47 0 -81 -24l198 -149q12 24 12 55zM207.5 376.5q34.5 -31.5 92.5 -31.5q49 0 80 21l-197 147q-10 -25 -10 -50q0 -55 34.5 -86.5z" />
    <glyph glyph-name=".notdef" horiz-adv-x="521" 
 />
    <glyph glyph-name=".null" horiz-adv-x="126" 
 />
    <glyph glyph-name="nonmarkingreturn" horiz-adv-x="240" 
 />
    <glyph glyph-name="uni000D" unicode="&#xd;" horiz-adv-x="521" 
 />
    <glyph glyph-name="space" unicode=" " horiz-adv-x="295" 
 />
    <glyph glyph-name="exclam" unicode="!" horiz-adv-x="293" 
d="M110 236q-6 177 -6 385q0 43 42 43h4q20 0 31 -11t10 -32q0 -138 -3 -239.5t-4 -119.5l-1 -26q-2 -33 -35 -33h-3q-32 0 -35 33zM103.5 12.5q-17.5 17.5 -17.5 42.5q0 26 17 43.5t43 17.5t43.5 -17.5t17.5 -43.5t-17.5 -43t-43.5 -17q-25 0 -42.5 17.5z" />
    <glyph glyph-name="quotedbl" unicode="&#x22;" horiz-adv-x="399" 
d="M93 524l-12 144q-1 20 10 31.5t31 11.5h4q20 0 31.5 -11.5t10.5 -31.5l-12 -144q-1 -28 -30 -28h-3q-29 0 -30 28zM243 524l-12 144q-1 20 10 31.5t31 11.5h4q20 0 31.5 -11.5t10.5 -31.5l-12 -144q-1 -28 -30 -28h-3q-29 0 -30 28z" />
    <glyph glyph-name="numbersign" unicode="#" horiz-adv-x="627" 
d="M569.5 458q6.5 -6 6.5 -17q0 -37 -36 -37h-58l-36 -174h57q23 0 23 -21q0 -39 -34 -39h-58l-29 -138q-8 -32 -37 -32h-4q-13 0 -20.5 6t-7.5 17q0 6 1 10l29 137h-162l-29 -138q-6 -32 -36 -32h-4q-13 0 -20.5 6t-7.5 17q0 6 1 10l28 137h-68q-25 0 -25 21q0 19 9.5 29
t27.5 10h69l36 174h-68q-25 0 -25 21q0 19 9.5 29t27.5 10h69l30 146q4 16 12.5 24t24.5 8h5q13 0 20 -6.5t7 -17.5l-1 -8l-31 -146h162l31 146q3 16 11.5 24t24.5 8h5q13 0 20 -6.5t7 -17.5l-1 -8l-30 -146h56q12 0 18.5 -6zM415 404h-162l-37 -174h162z" />
    <glyph glyph-name="dollar" unicode="$" horiz-adv-x="573" 
d="M496.5 398.5q38.5 -46.5 38.5 -124.5q0 -73 -27.5 -135.5t-82 -100.5t-132.5 -38q-73 0 -117 38.5t-44 107.5v197h-58q-32 0 -32 33v2q0 15 8 23.5t24 8.5h58v88q0 40 -13.5 58t-45.5 19q-16 2 -23.5 10t-7.5 24v2q0 34 41 34q64 0 94.5 -38.5t30.5 -108.5v-88h29
q16 0 24 -8.5t8 -23.5v-2q0 -33 -32 -33h-29v-197q0 -38 23 -57.5t62 -19.5q79 0 123.5 58.5t44.5 146.5q0 85 -50 100q1 -4 1 -13q0 -26 -14 -41.5t-40 -15.5q-29 0 -45.5 16t-16.5 47q0 39 24.5 58.5t66.5 19.5q71 0 109.5 -46.5z" />
    <glyph glyph-name="percent" unicode="%" horiz-adv-x="816" 
d="M89 389.5q-44 42.5 -44 110.5t44 111t113 43q45 0 81 -20t57 -55t21 -79q0 -68 -45 -110.5t-114 -42.5t-113 42.5zM149 13q-12 11 -12 24t10 23l454 566q11 14 25 14q12 0 24.5 -11.5t12.5 -24.5q0 -12 -10 -23l-454 -565q-11 -14 -25 -14q-13 0 -25 11zM266.5 435
q24.5 25 24.5 65t-24.5 65t-64.5 25t-64.5 -25t-24.5 -65q0 -41 24.5 -65.5t64.5 -24.5t64.5 25zM483.5 29.5q-44.5 42.5 -44.5 110.5t44.5 111t113.5 43q68 0 113 -43t45 -111t-44.5 -110.5t-113.5 -42.5t-113.5 42.5zM661.5 75q24.5 25 24.5 65t-24.5 65t-64.5 25
t-64.5 -25t-24.5 -65q0 -41 24.5 -65.5t64.5 -24.5t64.5 25z" />
    <glyph glyph-name="ampersand" unicode="&#x26;" 
d="M-213 -115q-12 9 -12 23q0 12 9 22q10 13 25 13q11 0 22 -8l159 -131q13 -10 13 -24q0 -11 -8 -21q-11 -14 -24 -14q-9 0 -22 8z" />
    <glyph glyph-name="quotesingle" unicode="'" horiz-adv-x="252" 
d="M92 525l-11 142q-1 21 10.5 32.5t32.5 11.5h4q22 0 33 -11.5t10 -32.5l-11 -142q-3 -29 -32 -29h-4q-29 0 -32 29z" />
    <glyph glyph-name="parenleft" unicode="(" horiz-adv-x="359" 
d="M257 -154q-66 81 -114 203t-48 270t48.5 270t113.5 202q12 15 28 15t26 -10t10 -25q0 -13 -9 -24q-66 -88 -104.5 -196.5t-38.5 -231.5q0 -124 38.5 -233t104.5 -195q9 -12 9 -25q0 -15 -10 -25t-26 -10q-17 0 -28 15z" />
    <glyph glyph-name="parenright" unicode=")" horiz-adv-x="359" 
d="M49 -159q-10 10 -10 25q0 13 9 25q66 86 104.5 195t38.5 233q0 123 -38.5 231.5t-104.5 196.5q-9 11 -9 24q0 15 10 25t26 10t28 -15q65 -81 113.5 -203t48.5 -269q0 -148 -48 -270t-114 -203q-12 -15 -28 -15t-26 10z" />
    <glyph glyph-name="asterisk" unicode="*" horiz-adv-x="511" 
d="M147 440l-4 3q-15 12 -15 26q0 9 13 28q44 61 61 80q-17 4 -49.5 13t-55.5 18q-23 10 -23 26q0 7 2 15l1 4q8 23 29 23q4 0 7.5 -1t7.5 -2q31 -10 60 -20.5t43 -16.5q-5 85 -5 110q0 16 9 25t25 9h5q15 0 24 -9t9 -25q0 -61 -3 -109q57 23 103 37q10 2 14 2q19 0 28 -22
l1 -4q2 -8 2 -14q0 -19 -18 -25q-24 -10 -59 -20.5t-51 -14.5q10 -12 28 -34.5t37 -48.5q9 -13 9 -24q0 -13 -13 -25l-4 -2q-11 -8 -22 -8q-14 0 -27 16q-22 31 -61 90q-5 -8 -22.5 -37t-37.5 -54q-14 -16 -28 -16q-9 0 -20 7z" />
    <glyph glyph-name="plus" unicode="+" horiz-adv-x="508" 
d="M427.5 385q8.5 -9 8.5 -25v-79q0 -16 -8.5 -25t-24.5 -9h-74v-67q0 -16 -9 -25.5t-26 -9.5h-80q-17 0 -26 9t-9 26v67h-74q-16 0 -25 9t-9 25v79q0 34 34 34h74v68q0 34 35 34h80q17 0 26 -9t9 -25v-68h74q16 0 24.5 -9z" />
    <glyph glyph-name="comma" unicode="," horiz-adv-x="213" 
d="M151.5 94q19.5 -21 19.5 -59q0 -51 -26 -88.5t-65 -61.5q-8 -4 -14 -4q-10 0 -17 8t-7 19q0 9 11 17q45 35 45 73v1q-25 2 -40.5 15.5t-15.5 39.5t16.5 43.5t44.5 17.5q29 0 48.5 -21z" />
    <glyph glyph-name="hyphen" unicode="-" horiz-adv-x="379" 
d="M44 320v2q0 16 9 25t25 9h224q16 0 25 -9t9 -25v-2q0 -16 -9 -25t-25 -9h-224q-34 0 -34 34z" />
    <glyph glyph-name="period" unicode="." horiz-adv-x="223" 
d="M68.5 12.5q-17.5 17.5 -17.5 42.5q0 26 17 43.5t43 17.5t43.5 -17.5t17.5 -43.5t-17.5 -43t-43.5 -17q-25 0 -42.5 17.5z" />
    <glyph glyph-name="slash" unicode="/" horiz-adv-x="453" 
d="M36 -113.5q-10 8.5 -10 20.5q0 11 5 24l293 797q6 15 13 22t18 7q16 0 26.5 -8.5t10.5 -21.5q0 -7 -5 -22l-294 -798q-6 -15 -13 -22t-18 -7q-16 0 -26 8.5z" />
    <glyph glyph-name="zero" unicode="0" horiz-adv-x="594" 
d="M168 107q-56 31 -88 87.5t-32 131.5t32 130.5t88 85.5t127 30q73 0 129.5 -30t88.5 -85.5t32 -130.5t-32 -132t-88.5 -87.5t-129.5 -30.5q-71 0 -127 31zM421 196q47 48 47 130q0 80 -47 127t-126 47q-74 0 -122 -47.5t-48 -127.5q0 -81 48 -129t122 -48q79 0 126 48z
" />
    <glyph glyph-name="one" unicode="1" horiz-adv-x="526" 
d="M229 545q26 -30 80 -75q50 -41 81 -72.5t53 -77.5t22 -105q0 -57 -24.5 -106t-76 -79t-127.5 -30q-55 0 -97.5 17t-66 46t-24.5 63q0 33 17 53.5t46 20.5q27 0 43 -16.5t16 -41.5q0 -29 -23 -43q32 -25 89 -25q68 0 109 39t41 102q0 44 -18.5 79.5t-45 62t-71.5 62.5
q-43 35 -69.5 60.5t-44 59t-17.5 75.5q0 17 9.5 27.5t30.5 10.5q35 0 39 -38q3 -39 29 -69z" />
    <glyph glyph-name="two" unicode="2" horiz-adv-x="478" 
d="M61 171q-20 14 -20 33q0 16 10.5 28t27.5 12q13 0 34 -7q20 -7 38.5 -10.5t47.5 -3.5q63 0 103.5 29t40.5 88q0 36 -17.5 62.5t-43 45t-68.5 43.5q-46 27 -72 46.5t-40 45.5q-9 14 -9 30t10 26t26 10q14 0 23 -6.5t20 -22.5q13 -20 35.5 -36.5t59.5 -38.5
q49 -29 79.5 -53t52 -62.5t21.5 -92.5q0 -41 -19 -80.5t-63 -68t-115 -33.5l188 -124q22 -13 22 -32q0 -4 -2 -12q-2 -14 -12.5 -22t-23.5 -8q-14 0 -26 9z" />
    <glyph glyph-name="three" unicode="3" horiz-adv-x="725" 
d="M567 589q47 -35 72 -97t25 -143q0 -146 -68 -242t-217 -96q-164 0 -244 116.5t-80 311.5q0 57 2.5 88t12.5 51.5t32 20.5q39 0 36 -44q-5 -70 -5 -116q0 -170 61.5 -262.5t184.5 -92.5q105 0 157 75t52 191q0 85 -33 144.5t-101 59.5q-46 0 -74 -30.5t-28 -82.5
q0 -8 2 -20q7 8 17 12.5t21 4.5q25 0 42 -16.5t17 -41.5q0 -27 -18.5 -44.5t-50.5 -17.5q-49 0 -77.5 35.5t-28.5 88.5q0 81 47.5 131.5t130.5 50.5q66 0 113 -35z" />
    <glyph glyph-name="four" unicode="4" horiz-adv-x="501" 
d="M425 260.5q38 -40.5 38 -101.5q0 -81 -57 -125.5t-148 -44.5q-95 0 -156 45.5t-61 124.5q0 61 32 99t90 68q-45 25 -75 64t-30 91q0 76 54.5 120.5t139.5 44.5q57 0 102 -21.5t70.5 -59t25.5 -84.5q0 -55 -31.5 -91t-86.5 -64q55 -25 93 -65.5zM163 410q30 -30 77 -49
q67 28 101 54.5t34 69.5q0 41 -33.5 67t-87.5 26q-53 0 -87 -25t-34 -69t30 -74zM351 86q36 26 36 75q0 43 -36 76t-96 54q-69 -30 -103.5 -58t-34.5 -75t40 -72.5t99 -25.5t95 26z" />
    <glyph glyph-name="five" unicode="5" horiz-adv-x="607" 
d="M259 35.5q-94 35.5 -144.5 104.5t-50.5 166q0 113 68.5 199t183.5 127q24 8 47 8q18 0 30 -12.5t12 -30.5q0 -7 -1 -15t-1 -21q0 -54 33.5 -83.5t97.5 -41.5q18 -2 27 -10t9 -24t-7.5 -23.5t-27.5 -18.5q-13 -7 -28 -16q-77 -50 -77 -130q0 -78 73 -135q26 -21 26 -40
q0 -20 -10.5 -29.5t-36.5 -9.5q-129 0 -223 35.5zM370.5 142.5q-15.5 39.5 -15.5 80.5q0 106 101 174q-69 22 -96 60.5t-28 101.5q-91 -35 -141 -101.5t-50 -149.5q0 -102 72.5 -162.5t204.5 -73.5q-32 31 -47.5 70.5z" />
    <glyph glyph-name="six" unicode="6" horiz-adv-x="672" 
d="M618 255q0 -67 -26 -123t-83 -91t-144 -35q-104 0 -174.5 51t-105.5 137.5t-38 195.5q-1 19 8.5 29.5t26.5 11.5q17 2 28 -7t12 -28q15 -319 245 -319q88 0 133 50.5t45 127.5q0 52 -19 83q-35 -29 -74.5 -49t-85.5 -20q-48 0 -75 26t-27 78v151q-12 -2 -18 -2
q-28 0 -44.5 15.5t-16.5 42.5t18 44.5t47 17.5q45 0 65.5 -33t20.5 -89v-135q0 -25 10.5 -35t29.5 -10q41 0 88 33q8 6 21 16t23 15t21 5q21 0 38.5 -15.5t29.5 -41.5q21 -45 21 -97z" />
    <glyph glyph-name="seven" unicode="7" horiz-adv-x="531" 
d="M505.5 99.5q16.5 -16.5 16.5 -42.5q0 -27 -18 -44t-47 -17q-45 0 -66.5 32.5t-21.5 91.5v138q-60 -27 -124 -27q-90 0 -142 42.5t-52 128.5q0 66 29.5 122t82 88.5t116.5 32.5q78 0 120.5 -43t42.5 -122v-367q9 3 20 3q27 0 43.5 -16.5zM369 333v145q0 53 -25.5 76
t-62.5 23q-42 0 -77.5 -24.5t-56 -64.5t-20.5 -85q0 -102 121 -102q65 0 121 32z" />
    <glyph glyph-name="eight" unicode="8" horiz-adv-x="696" 
d="M665 464.5q8 -12.5 6 -33.5q-4 -47 -30 -71.5t-81 -24.5h-32q-41 0 -57 -28q10 -26 10 -64q0 -67 -28 -122.5t-79.5 -88t-119.5 -32.5q-77 0 -121 41.5t-44 117.5v365q-10 -2 -17 -2q-28 0 -44.5 16t-16.5 42q0 27 18 44.5t47 17.5q43 0 64.5 -33.5t21.5 -89.5v-133
q60 27 127 27q90 0 141 -42q23 34 75 34h28q34 0 49.5 8.5t19.5 32.5q1 17 9.5 24t24.5 7q21 0 29 -12.5zM330.5 93q35.5 24 56 64.5t20.5 89.5q0 46 -31 71t-91 25q-65 0 -123 -33v-153q0 -88 91 -88q42 0 77.5 24z" />
    <glyph glyph-name="nine" unicode="9" horiz-adv-x="631" 
d="M204.5 568.5q38.5 -24.5 112.5 -59.5q83 -38 135.5 -70.5t90 -84t37.5 -124.5q0 -72 -32.5 -124.5t-82 -79.5t-100.5 -27q-27 0 -41 17q-11 15 -11 30q0 12 4 23t5 15q13 34 13 68q0 60 -32.5 93t-83.5 33q-55 0 -85 -34.5t-30 -92.5q0 -22 5 -40q16 7 29 7
q28 0 45 -16.5t17 -43.5q0 -25 -16.5 -42t-44.5 -17h-1h-3q-50 2 -78 45.5t-28 106.5q0 93 51.5 145.5t137.5 52.5q54 0 97.5 -23.5t68 -67.5t24.5 -102q0 -35 -12 -79q52 18 80.5 58t28.5 96q0 52 -30.5 90t-75.5 63t-117 57q-61 28 -97 47t-64.5 45.5t-37.5 60.5
q-5 15 -5 23q0 15 10 25.5t26 10.5q14 1 23.5 -5.5t15.5 -22.5q13 -32 51.5 -56.5z" />
    <glyph glyph-name="colon" unicode=":" horiz-adv-x="223" 
d="M67.5 389q-16.5 17 -16.5 44q0 26 16.5 43.5t43.5 17.5t44 -17.5t17 -43.5q0 -27 -17 -44t-44 -17t-43.5 17zM67.5 63.5q-16.5 17.5 -16.5 43.5t16.5 43.5t43.5 17.5t44 -17.5t17 -43.5t-17 -43.5t-44 -17.5t-43.5 17.5z" />
    <glyph glyph-name="semicolon" unicode=";" horiz-adv-x="225" 
d="M67.5 337.5q-16.5 17.5 -16.5 43.5t16.5 43.5t43.5 17.5t44 -17.5t17 -43.5t-17 -43.5t-44 -17.5t-43.5 17.5zM159.5 95.5q19.5 -21.5 19.5 -59.5q0 -51 -26.5 -88.5t-64.5 -60.5q-5 -4 -14 -4q-10 0 -17 7.5t-7 18.5q0 9 11 17q45 35 45 73v1q-25 2 -40.5 15.5
t-15.5 40.5q0 26 16.5 43.5t44.5 17.5q29 0 48.5 -21.5z" />
    <glyph glyph-name="less" unicode="&#x3c;" horiz-adv-x="504" 
d="M408 120l-339 147q-20 9 -29.5 21t-9.5 32t9.5 32.5t29.5 20.5l338 148q23 9 33 9q14 0 24 -10.5t10 -28.5q0 -13 -9.5 -21t-28.5 -16l-174 -73q-41 -18 -88.5 -35.5t-61.5 -22.5v-4q14 -5 61.5 -23t88.5 -36l175 -75q18 -7 27.5 -15t9.5 -21q0 -18 -9.5 -28t-23.5 -10
q-13 0 -33 9z" />
    <glyph glyph-name="equal" unicode="=" horiz-adv-x="504" 
d="M39 407q-9 9 -9 25v2q0 16 9 24.5t25 8.5h376q16 0 25 -8.5t9 -24.5v-2q0 -34 -34 -34h-376q-16 0 -25 9zM39 183q-9 9 -9 25v2q0 16 9 25t25 9h376q16 0 25 -9t9 -25v-2q0 -16 -9 -25t-25 -9h-376q-16 0 -25 9z" />
    <glyph glyph-name="greater" unicode="&#x3e;" horiz-adv-x="504" 
d="M37.5 121q-9.5 10 -9.5 28q0 13 9.5 21t27.5 15l175 75q41 17 88.5 35.5t61.5 23.5v4q-14 5 -61.5 23t-88.5 35l-174 74q-18 7 -28 15.5t-10 20.5q0 18 10 28.5t23 10.5q11 0 33 -9l339 -148q20 -8 29 -20.5t9 -32.5t-9 -32.5t-29 -20.5l-339 -147q-19 -9 -33 -9
t-23.5 10z" />
    <glyph glyph-name="question" unicode="?" horiz-adv-x="465" 
d="M179 232q1 47 18.5 77.5t52.5 68.5q32 33 48 60t16 65q0 41 -26.5 66t-70.5 25q-41 0 -75 -19q-9 -5 -17 -10t-16.5 -8.5t-15.5 -3.5q-16 0 -26 10.5t-10 26.5q0 15 10.5 26.5t30.5 22.5q25 15 56 23t61 8q51 0 92 -21t64.5 -59t23.5 -85q0 -53 -19 -87.5t-57 -76.5
q-30 -32 -45.5 -56.5t-18.5 -57.5q-2 -16 -11 -24t-26 -8q-39 0 -39 37zM174.5 12.5q-17.5 17.5 -17.5 42.5q0 26 17 43.5t43 17.5t43.5 -17.5t17.5 -43.5t-17.5 -43t-43.5 -17q-25 0 -42.5 17.5z" />
    <glyph glyph-name="at" unicode="@" horiz-adv-x="770" 
d="M566 604q75 -42 116.5 -118t41.5 -175q0 -107 -55.5 -193t-146.5 -120q-3 -1 -9 -1q-13 0 -24 7l-258 178q-22 14 -22 32q0 16 9.5 28t25.5 12q11 0 28 -5q38 -12 81 -12q55 0 89 24.5t34 79.5q0 44 -28 70t-74 26q-26 0 -45 -8.5t-29 -21.5q18 -5 30 -20t12 -33
q0 -24 -15.5 -39.5t-41.5 -15.5q-31 0 -50 20t-19 54q0 40 22 69.5t57.5 45t73.5 15.5q86 0 134 -44.5t48 -118.5q0 -69 -46 -113t-131 -48v-5q19 -15 87 -60l56 -41q62 38 97.5 101t35.5 135q0 81 -32 142.5t-90.5 95.5t-134.5 34q-81 0 -142.5 -34.5t-95.5 -97.5t-34 -146
q0 -90 48 -160t127 -93q15 -5 24.5 -14.5t9.5 -22.5q0 -15 -9 -24t-25 -9q-7 0 -18 3q-68 18 -121 64t-82 112.5t-29 143.5q0 102 43.5 179.5t122 120.5t181.5 43q98 0 173 -42z" />
    <glyph glyph-name="A" unicode="A" horiz-adv-x="793" 
d="M820.5 633.5q8.5 -8.5 8.5 -22.5v-2q0 -15 -8.5 -23t-22.5 -8h-91v-547q0 -17 -9.5 -27t-26.5 -10h-2q-17 0 -27 10t-10 27v55l-129 103q-29 -45 -77 -70.5t-112 -25.5q-141 0 -208.5 97.5t-67.5 250.5q0 42 36 42q38 0 38 -41q0 -130 50 -205.5t152 -75.5q73 0 111 44
t38 112q0 62 -32 92.5t-81 30.5h-4q5 -23 5 -40q0 -41 -15.5 -63t-47.5 -22q-29 0 -46.5 20.5t-17.5 55.5q0 26 10.5 49t31.5 39q-26 38 -45.5 58t-43.5 41h-188q-31 0 -31 31v2q0 14 8 22.5t23 8.5h809q14 0 22.5 -8.5zM632 578h-354q29 -38 46 -75q14 3 31 3
q56 0 97.5 -25t63.5 -68.5t22 -95.5q0 -32 -7 -59l101 -82v402z" />
    <glyph glyph-name="B" unicode="B" horiz-adv-x="439" 
d="M464.5 633.5q8.5 -8.5 8.5 -22.5v-2q0 -15 -8.5 -23t-22.5 -8h-321q26 -37 44 -75q23 5 44 5q79 0 128 -48.5t49 -126.5q0 -73 -46.5 -123.5t-141.5 -59.5v-4q7 -3 35 -17.5t64 -37.5l67 -44q10 -6 15 -13.5t5 -18.5q0 -14 -9.5 -25t-23.5 -11q-13 0 -27 8l-240 152
q-22 13 -22 37q0 18 10.5 29t27.5 11q7 0 23 -2q20 -4 45 -4q61 0 102 30.5t41 92.5q0 49 -27.5 78.5t-76.5 29.5q-8 0 -20 -2q5 -22 5 -41q0 -39 -16.5 -60t-44.5 -21t-46 17.5t-18 50.5q0 27 11 50t31 40q-35 55 -83 103h-37q-31 0 -31 31v2q0 14 8 22.5t23 8.5h328
q2 22 2 30q0 46 -16.5 66t-60.5 20q-16 0 -44 -2t-46 -2q-139 0 -139 123q0 50 37 50q20 0 28.5 -10t9.5 -35q0 -36 19.5 -48t65.5 -12l39 1q30 2 48 2q133 0 133 -146q0 -20 -3 -37h52q14 0 22.5 -8.5z" />
    <glyph glyph-name="C" unicode="C" horiz-adv-x="618" 
d="M645 633.5q8 -8.5 8 -22.5v-2q0 -31 -31 -31h-508q23 -30 43 -74q16 2 24 2q66 0 106.5 -47t48.5 -123l118 131q20 22 43 22q21 0 36.5 -15t15.5 -40q0 -8 -4 -34q-11 -51 -11 -120q0 -68 6.5 -110.5t16.5 -80.5q8 -27 8 -40q0 -14 -9 -22.5t-26 -8.5q-24 0 -32 25
q-20 62 -29 117.5t-9 115.5t10 105l-142 -159q-14 -62 -51 -101t-101 -39q-40 0 -71.5 19.5t-52.5 49.5q-10 12 -10 24q0 15 11 25t26 10q9 0 15.5 -3.5t12.5 -12.5q16 -22 32.5 -32t37.5 -10q50 0 70 45.5t20 106.5q0 63 -21 97.5t-60 34.5h-6q4 -16 4 -37q0 -40 -17 -61
t-46 -21q-27 0 -45 19t-18 54q0 28 12 53t35 41q-25 39 -50.5 63.5t-35.5 30.5h-30q-31 0 -31 31v2q0 14 8 22.5t23 8.5h507l2 32q0 46 -22 67t-78 21q-37 0 -111 -4q-62 -5 -114 -5q-75 0 -109 31t-34 93q0 50 37 50q19 0 27.5 -9.5t9.5 -35.5q1 -36 21 -48.5t70 -12.5
q26 0 57.5 1t47.5 2q76 4 125 4q146 0 146 -147q0 -17 -2 -39h53q15 0 23 -8.5z" />
    <glyph glyph-name="D" unicode="D" horiz-adv-x="651" 
d="M679 633.5q8 -8.5 8 -22.5v-2q0 -15 -8 -23t-22 -8h-328v-194q0 -45 40 -45q33 0 79 30q6 4 12 9t13 9q16 13 27 19.5t22 6.5q27 0 47 -24.5t30.5 -62.5t10.5 -75q0 -68 -27.5 -122.5t-84 -86.5t-139.5 -32q-106 0 -177.5 54t-105 141.5t-34.5 188.5q0 20 10.5 29t25.5 9
t25.5 -9t11.5 -26q5 -155 69.5 -236.5t175.5 -81.5q58 0 98.5 24t60.5 63.5t20 86.5q0 55 -21 89q-36 -32 -71.5 -53t-83.5 -21q-49 0 -79 26.5t-30 80.5v203h-265q-31 0 -31 31v2q0 14 8 22.5t23 8.5h533q4 28 4 42q0 46 -22 67t-78 21q-39 0 -123 -4q-72 -5 -125 -5
q-75 0 -110.5 31.5t-35.5 92.5q0 50 37 50q20 0 28.5 -10t8.5 -35q1 -36 23 -48.5t75 -12.5q37 0 65.5 1t48.5 2q86 4 135 4q73 0 109.5 -37.5t36.5 -109.5q0 -25 -4 -49h62q14 0 22 -8.5z" />
    <glyph glyph-name="E" unicode="E" horiz-adv-x="737" 
d="M765 633.5q8 -8.5 8 -22.5v-2q0 -31 -31 -31h-326v-195q0 -24 9 -34.5t29 -10.5q22 0 42.5 11t49.5 31q22 15 36 22.5t25 7.5q43 0 65.5 -51t22.5 -109q0 -67 -28 -122t-87.5 -88t-149.5 -33q-120 0 -206 51t-131.5 138.5t-49.5 196.5q-1 20 9 29.5t26 9.5q32 0 35 -35
q12 -202 129 -280l1 1q-39 45 -57.5 112.5t-21.5 163.5q-1 19 9 28.5t26 9.5q14 0 23.5 -7.5t10.5 -21.5q1 -11 1 -35q1 -143 55.5 -217.5t158.5 -74.5q58 0 97.5 25t58.5 65.5t19 86.5q0 29 -4.5 49t-16.5 40q-35 -32 -70 -53t-82 -21q-50 0 -80 26.5t-30 80.5v203h-351
q-31 0 -31 31v2q0 14 8 22.5t23 8.5h623q4 28 4 42q0 46 -21.5 67t-78.5 21q-64 0 -167 -5q-122 -4 -160 -4q-150 0 -150 124q0 50 37 50q20 0 29 -10t9 -36q1 -36 24 -48.5t78 -12.5q39 0 153 4q122 4 172 4q76 0 112 -37t36 -110q0 -25 -4 -49h57q15 0 23 -8.5z" />
    <glyph glyph-name="F" unicode="F" horiz-adv-x="784" 
d="M811.5 633.5q8.5 -8.5 8.5 -22.5v-2q0 -15 -8.5 -23t-22.5 -8h-89v-407q0 -50 -44 -50q-20 0 -42 11l-140 70v-171q0 -17 -9.5 -27t-26.5 -10h-2q-18 0 -27.5 10t-9.5 27v54l-308 150q-32 16 -32 54q0 39 38 60q102 52 236 115l-40 74q-17 -43 -49.5 -66t-78.5 -23
q-56 0 -92 34.5t-36 84.5q0 33 13 52q8 14 21.5 22t31.5 8q26 0 42.5 -17t16.5 -41q0 -21 -12 -36.5t-32 -19.5q12 -24 45 -24t51 23.5t31 73.5q9 35 42 35q17 0 27.5 -8.5t18.5 -24.5l63 -119l4 2v208q0 17 9.5 26.5t26.5 9.5h2q17 0 26.5 -9.5t9.5 -26.5v-420l152 -79v499
q0 17 10 26.5t26 9.5h2q17 0 26.5 -9.5t9.5 -26.5v-60h89q14 0 22.5 -8.5zM400 162v251q-94 -39 -260 -122z" />
    <glyph glyph-name="G" unicode="G" horiz-adv-x="607" 
d="M479.5 605q42.5 -40 42.5 -119v-452q0 -40 -37 -40q-24 0 -31 12t-10 38q-2 22 -7 36t-20.5 23.5t-46.5 9.5q-23 0 -79 -10q-24 -4 -50 -7.5t-49 -3.5q-67 0 -112.5 38t-54.5 118q-2 19 5 33t28 16q19 3 28 -8t11 -26q7 -53 31.5 -76t69.5 -23q27 0 85 10q6 1 32.5 5
t48.5 4q54 0 81 -31v334q0 92 -82 92q-38 0 -72.5 -20t-55 -54t-20.5 -75q0 -29 11.5 -48t30.5 -25v7q0 24 16 39t41 15q28 0 44.5 -17t16.5 -44q0 -32 -23.5 -52t-64.5 -20q-63 0 -103.5 38.5t-40.5 107.5q0 64 30.5 113t80.5 75.5t109 26.5q74 0 116.5 -40z" />
    <glyph glyph-name="H" unicode="H" horiz-adv-x="697" 
d="M651.5 362q-49.5 -60 -129.5 -76v-248q0 -40 -37 -40q-24 0 -31 11.5t-10 36.5q-2 21 -7 34.5t-20.5 23t-46.5 9.5q-23 0 -79 -10q-24 -4 -50 -7.5t-49 -3.5q-67 0 -112.5 38t-54.5 118q-2 19 5 33t28 16q19 3 28 -8t11 -26q7 -53 31.5 -76t69.5 -23q27 0 85 10
q6 1 32.5 5t48.5 4q54 0 81 -31v334q0 92 -82 92q-38 0 -72.5 -20t-55 -54t-20.5 -75q0 -29 11.5 -48t30.5 -25v7q0 24 16 39t41 15q28 0 44.5 -17t16.5 -44q0 -32 -23.5 -52t-64.5 -20q-63 0 -103.5 38.5t-40.5 107.5q0 64 30.5 113t80.5 75.5t109 26.5q74 0 116.5 -40
t42.5 -119v-124q47 11 75.5 50.5t28.5 100.5q0 54 -22.5 91t-70 65t-130.5 56l-24 8q-74 25 -113 43t-64.5 47.5t-25.5 75.5q0 59 40 59q19 0 27 -7t9.5 -17t1.5 -33q0 -24 20.5 -41.5t53 -31t95.5 -34.5l21 -7q89 -30 144.5 -65t84 -86t28.5 -126q0 -88 -49.5 -148z" />
    <glyph glyph-name="I" unicode="I" horiz-adv-x="606" 
d="M547.5 269.5q15.5 -33.5 15.5 -79.5q0 -48 -23.5 -90t-70.5 -68t-115 -26q-96 0 -165 49.5t-107 136t-44 196.5q-1 19 8.5 30t27.5 13q36 1 39 -35q9 -160 74.5 -240t166.5 -80q68 0 102 34.5t34 84.5q0 55 -37 83q-21 -28 -56 -28q-29 0 -49 17.5t-20 48.5q0 30 19 48.5
t50 18.5q23 0 38 -12q20 19 33 46.5t13 59.5q0 47 -32.5 74.5t-82.5 27.5q-43 0 -72 -20.5t-37 -52.5h5q27 0 44 -16.5t17 -41.5t-16 -41t-45 -16q-37 0 -58 25.5t-21 65.5q0 47 24 84.5t66 58.5t93 21q82 0 135 -46.5t53 -125.5q0 -38 -15 -75.5t-42 -64.5
q35 -31 50.5 -64.5z" />
    <glyph glyph-name="J" unicode="J" horiz-adv-x="722" 
d="M673.5 355q-48.5 -60 -126.5 -84q16 -35 16 -80q0 -49 -23.5 -91t-70.5 -68t-115 -26q-96 0 -165 49.5t-107 136t-44 196.5q-1 19 8.5 30t27.5 13q36 1 39 -35q9 -160 74.5 -240t166.5 -80q68 0 102 34.5t34 84.5q0 55 -37 83q-20 -28 -56 -28q-29 0 -49 17.5t-20 48.5
q0 30 19 48.5t50 18.5q21 0 38 -12q20 19 33 46.5t13 59.5q0 47 -32.5 74.5t-82.5 27.5q-43 0 -72 -20.5t-37 -52.5h5q27 0 44 -16.5t17 -41.5t-16 -41t-45 -16q-37 0 -58 25.5t-21 65.5q0 47 24 84.5t66 58.5t93 21q82 0 135 -46.5t53 -125.5q0 -38 -15 -75.5t-42 -64.5
l3 -3q65 15 105.5 59t40.5 118q0 81 -52.5 129.5t-171.5 87.5q-84 28 -126.5 46.5t-70.5 49t-28 78.5q0 28 11 42.5t32 14.5q18 0 26 -6.5t9 -16.5t1 -34q0 -25 22 -43.5t57 -32.5t106 -37q132 -43 196.5 -107t64.5 -172q0 -92 -48.5 -152z" />
    <glyph glyph-name="K" unicode="K" horiz-adv-x="710" 
d="M738 633.5q8 -8.5 8 -22.5v-2q0 -31 -31 -31h-290v-63q77 -2 132 -32.5t83.5 -78t28.5 -101.5q0 -59 -26 -95.5t-74 -36.5q-29 0 -48.5 15t-19.5 44q0 26 16 42.5t42 16.5q20 0 37 -12q2 16 2 26q0 59 -47.5 99t-125.5 43v-414q0 -17 -10 -27t-28 -10h-2q-17 0 -27 10
t-10 27v53l-273 171q-31 18 -31 58q0 21 6.5 35t20.5 26q130 113 277 136v68h-359q-31 0 -31 31v2q0 14 8 22.5t23 8.5h726q15 0 23 -8.5zM348 168v270q-59 -13 -119 -44.5t-112 -78.5z" />
    <glyph glyph-name="L" unicode="L" horiz-adv-x="624" 
d="M652 633.5q8 -8.5 8 -22.5v-2q0 -31 -31 -31h-90v-547q0 -17 -10.5 -27t-27.5 -10h-2q-17 0 -26.5 10t-9.5 27v55l-393 187q-24 10 -24 34q0 18 9.5 31t27.5 13q7 0 23.5 -2.5t36.5 -2.5q84 0 126 32t42 94q0 42 -20 67q-18 -44 -47 -67.5t-75 -23.5q-61 0 -97.5 34.5
t-36.5 85.5q0 33 15.5 52.5t38.5 24.5q10 2 16 2q26 0 43 -16.5t17 -40.5q0 -21 -13 -36.5t-33 -20.5q8 -10 20.5 -15.5t27.5 -5.5q30 0 45 19.5t28 55.5q11 28 20 41.5t25 13.5q30 0 55 -36q21 -28 33 -64t12 -73q0 -71 -43 -122t-146 -62v-4q0 1 43 -15t95 -40l128 -61
v535q0 18 10 28t27 10h2q17 0 27.5 -10t10.5 -28v-58h90q15 0 23 -8.5z" />
    <glyph glyph-name="M" unicode="M" horiz-adv-x="572" 
d="M599.5 633.5q8.5 -8.5 8.5 -22.5v-2q0 -15 -8.5 -23t-22.5 -8h-91v-547q0 -17 -10 -27t-27 -10h-2q-17 0 -27 10t-10 27v346q0 95 -43 148t-119 53q-45 0 -80.5 -20.5t-54.5 -59.5l2 -2q29 8 55 8q64 0 98.5 -33.5t34.5 -89.5q0 -51 -32.5 -104.5t-93.5 -102.5
q-14 -11 -30 -11q-15 0 -26 11t-11 26t16 28q51 40 76.5 79t25.5 73q0 28 -16.5 42.5t-47.5 14.5q-23 0 -45 -6q-15 -5 -30 -5q-23 0 -38 15.5t-15 41.5q0 35 20 67q33 51 82.5 75t106.5 24q50 0 92 -18.5t72 -53.5v123q0 18 10.5 28t27.5 10h2q17 0 27 -10t10 -28v-58h91
q14 0 22.5 -8.5z" />
    <glyph glyph-name="N" unicode="N" horiz-adv-x="565" 
d="M592 633.5q8 -8.5 8 -22.5v-2q0 -15 -8 -23t-22 -8h-91v-547q0 -17 -10 -27t-27 -10h-2q-17 0 -27 10t-10 27v55l-316 131q-32 15 -32 49q0 21 8 34t24 23l69 42v4q-51 12 -78 43.5t-27 73.5q0 31 10.5 54.5t25.5 37.5h-98q-31 0 -31 31v2q0 14 8 22.5t23 8.5h581
q14 0 22 -8.5zM403 578h-191q-34 0 -59.5 -23.5t-25.5 -62.5q0 -38 24 -57t59 -19q17 0 29.5 4.5t24 11t15.5 8.5q10 5 20 5q15 0 24 -10t9 -25q0 -20 -19 -32l-170 -106l260 -108v414z" />
    <glyph glyph-name="O" unicode="O" horiz-adv-x="665" 
d="M588.5 359q18.5 -21 29.5 -55t11 -71q0 -63 -28 -114.5t-85.5 -82.5t-143.5 -31q-102 0 -174 47.5t-110.5 130t-45.5 186.5q0 20 10.5 29.5t26.5 9.5q33 0 37 -36q11 -141 78 -219.5t178 -78.5q62 0 103.5 22t61.5 58t20 78q0 23 -5 42.5t-13 29.5q-38 -33 -85 -56.5
t-95 -23.5q-50 0 -82.5 27t-32.5 79v85q-50 26 -85.5 70t-53.5 93h-116q-31 0 -31 31v2q0 14 8 22.5t23 8.5h144q17 0 24 -9t20 -42q25 -66 67 -99v19q0 65 39 101t101 36q66 0 109.5 -35t43.5 -95q0 -63 -48 -97t-126 -34q-23 0 -42 3v-57q0 -22 11 -31t33 -9
q25 0 48.5 10.5t51.5 28.5q9 6 16 11t12 8q20 15 32 22t24 7q21 0 39.5 -21zM321 456q17 -4 42 -4q48 0 74 17.5t26 51.5q0 28 -20.5 45t-52.5 17q-31 0 -50 -18.5t-19 -53.5v-55z" />
    <glyph glyph-name="P" unicode="P" horiz-adv-x="497" 
d="M524.5 633.5q8.5 -8.5 8.5 -22.5v-2q0 -15 -8.5 -23t-22.5 -8h-344q0 -42 16.5 -70t63.5 -45l97 -34q50 -17 75.5 -37.5t33.5 -43.5t8 -57q0 -60 -32 -124t-87.5 -107t-121.5 -43q-56 0 -90.5 29.5t-34.5 88.5v443h-97q-31 0 -31 31v2q0 14 8 22.5t23 8.5h513
q14 0 22.5 -8.5zM162 429v-288q0 -30 12.5 -43t39.5 -13q39 0 77 32.5t62 80.5t24 91q0 26 -11.5 42.5t-41.5 27.5l-97 33q-47 16 -65 37z" />
    <glyph glyph-name="Q" unicode="Q" horiz-adv-x="572" 
d="M599 633.5q8 -8.5 8 -22.5v-2q0 -31 -31 -31h-426q4 -29 27 -45.5t79 -34.5q44 -15 62 -26q24 4 41 4q79 0 123 -44t44 -128q0 -105 -72.5 -166t-208.5 -64v-4q10 -3 44 -14t66 -26l127 -57q26 -12 26 -32q0 -15 -9 -27t-24 -12q-11 0 -23 6l-192 86l-154 69
q-24 11 -24 34q0 19 11 31.5t26 12.5q9 0 27 -2q26 -4 65 -4q105 0 172 40t67 128q0 54 -24 78.5t-64 25.5q1 -4 1 -14q0 -36 -21.5 -78t-62.5 -71.5t-97 -29.5q-47 0 -76 25t-29 77v262h-88q-31 0 -31 31v2q0 14 8 22.5t23 8.5h587q15 0 23 -8.5zM151 318q0 -19 8 -27.5
t27 -8.5q28 0 51.5 18t37.5 43.5t14 46.5q0 19 -13.5 28t-52.5 23q-56 21 -72 39v-162z" />
    <glyph glyph-name="R" unicode="R" horiz-adv-x="825" 
d="M853 633.5q8 -8.5 8 -22.5v-2q0 -31 -31 -31h-342q17 -56 66.5 -84.5t112.5 -28.5q20 0 31 1t21 1q25 0 39 -18q12 -13 12 -34q0 -14 -8 -40q-10 -38 -16.5 -82t-7.5 -125v-162q-1 -17 -11 -26.5t-27 -9.5h-2q-17 0 -26.5 9.5t-9.5 26.5v163q0 154 32 229l-28 -1
q-96 2 -164 48.5t-94 132.5h-2q-43 -36 -75.5 -88t-32.5 -96q0 -30 18 -43.5t54 -13.5q27 0 47 5.5t46 15.5q27 12 42 12q21 0 36.5 -17t24.5 -45q12 -39 12 -76q0 -56 -24 -103.5t-75.5 -77t-130.5 -29.5q-97 0 -164.5 48.5t-103 132t-40.5 190.5q-1 20 9.5 30.5t27.5 10.5
q34 0 36 -35q7 -143 68 -225.5t168 -82.5q77 0 116.5 41t39.5 101q0 37 -15 67q-58 -33 -127 -33q-65 0 -103.5 31t-38.5 89q0 50 24 100t59 91h-315q-31 0 -31 31v2q0 14 8 22.5t23 8.5h841q15 0 23 -8.5z" />
    <glyph glyph-name="S" unicode="S" horiz-adv-x="745" 
d="M773 633.5q8 -8.5 8 -22.5v-2q0 -31 -31 -31h-88v-400q0 -26 -13.5 -40.5t-37.5 -14.5q-16 0 -28.5 5t-33.5 18l-116 72v-187q0 -17 -10 -27t-27 -10h-2q-17 0 -26.5 10t-9.5 27v55l-285 165q-32 19 -32 58t30 60q135 98 287 146v63h-369q-31 0 -31 31v2q0 14 8 22.5
t23 8.5h416q28 0 28 -26v-315l154 -96v496q0 17 9.5 27t26.5 10h2q17 0 27 -10t10 -27v-59h88q15 0 23 -8.5zM358 169v270q-45 -15 -110 -47t-132 -82z" />
    <glyph glyph-name="T" unicode="T" horiz-adv-x="862" 
d="M796.5 327.5q22.5 -35.5 22.5 -78.5q0 -65 -39.5 -104t-106.5 -39q-47 0 -85.5 18t-64.5 51v-137q0 -40 -36 -40q-24 0 -31 11.5t-10 36.5q-2 21 -7 34.5t-20.5 23t-46.5 9.5q-24 0 -78 -10q-6 -1 -37.5 -6t-63.5 -5q-67 0 -112 38t-54 118l-1 10q0 15 8 26t25 13
q33 5 40 -34q7 -53 31 -76t69 -23q28 0 84 10q7 1 34 5t49 4q54 0 81 -31v334q0 44 -20.5 68t-61.5 24q-38 0 -72.5 -20t-55 -54t-20.5 -75q0 -29 11.5 -48t30.5 -25v7q0 24 16 39t41 15q27 0 43.5 -17t16.5 -44q0 -32 -23 -52t-64 -20q-64 0 -104.5 38.5t-40.5 107.5
q0 64 30.5 113t81 75.5t109.5 26.5q55 0 93.5 -22.5t54.5 -68.5q26 38 65.5 59.5t83.5 21.5q67 0 108 -37t41 -101q0 -37 -18 -68.5t-52 -53.5q33 -12 55.5 -47.5zM723.5 197.5q20.5 23.5 20.5 59.5q0 38 -24 60t-67 22q-20 0 -31 7.5t-11 28.5q0 20 11 27t31 7
q42 0 62 23.5t20 58.5t-21 56t-57 21q-59 0 -96 -52.5t-37 -141.5q0 -95 37 -147.5t101 -52.5q41 0 61.5 23.5z" />
    <glyph glyph-name="U" unicode="U" horiz-adv-x="536" 
d="M564 633.5q8 -8.5 8 -22.5v-2q0 -31 -31 -31h-378v-441q0 -61 73 -61q50 0 91.5 30t65 79t23.5 103q0 46 -18.5 70.5t-48.5 26.5q2 -10 2 -15q0 -26 -15.5 -42t-40.5 -16q-28 0 -44.5 15.5t-16.5 44.5q0 38 28 60t71 22q67 0 112 -44.5t45 -127.5q0 -69 -32.5 -132.5
t-90.5 -103t-131 -39.5q-66 0 -108 33t-42 97v441h-97q-31 0 -31 31v2q0 14 8 22.5t23 8.5h431q1 5 1 14q0 46 -20 66.5t-70 20.5q-26 0 -48 -4q-30 -5 -65 -5q-68 0 -104 31.5t-36 91.5q0 50 37 50q20 0 28.5 -10t8.5 -35q0 -35 22 -48t66 -13q25 0 51 4q22 5 59 5
q70 0 106.5 -38.5t36.5 -109.5q0 -14 -1 -20h49q15 0 23 -8.5z" />
    <glyph glyph-name="V" unicode="V" horiz-adv-x="534" 
d="M561.5 633.5q8.5 -8.5 8.5 -22.5v-2q0 -15 -8.5 -23t-22.5 -8h-216l47 -75q66 -103 92 -163t26 -114q0 -98 -55.5 -158.5t-157.5 -60.5q-72 0 -123.5 30.5t-78.5 85t-27 124.5q0 26 8 41t29 16q95 7 142.5 55.5t47.5 120.5q0 28 -6 46t-19 40q-2 4 -8 12h-251
q-31 0 -31 31v2q0 14 8 22.5t23 8.5h213q-33 59 -50 101.5t-17 79.5q0 60 33.5 92.5t89.5 32.5q49 0 49 -35q0 -28 -21 -31q-5 -1 -9.5 -0.5t-12.5 -0.5q-25 0 -40.5 -15t-15.5 -44q0 -61 61 -158l14 -22h256q14 0 22.5 -8.5zM396.5 319q-18.5 43 -59.5 111l-9 14h-4
q-5 -90 -55 -141t-146 -65v-7q0 -73 41.5 -114.5t109.5 -41.5q69 0 105 42.5t36 109.5q0 49 -18.5 92z" />
    <glyph glyph-name="W" unicode="W" horiz-adv-x="651" 
d="M678.5 633.5q8.5 -8.5 8.5 -22.5v-2q0 -15 -8.5 -23t-22.5 -8h-327v-197q0 -43 36 -43q25 0 46 11t50 31q20 15 33 22.5t26 7.5q29 0 49.5 -24.5t31 -61t10.5 -70.5q0 -65 -26 -121.5t-83 -91.5t-145 -35q-107 0 -177 53.5t-103.5 141.5t-35.5 193q-1 19 10 28.5t26 9.5
t25.5 -9t11.5 -26q6 -159 67.5 -240.5t176.5 -81.5q91 0 135.5 52t44.5 129q0 46 -22 85q-78 -73 -156 -73q-50 0 -78.5 26.5t-28.5 80.5v203h-264q-31 0 -31 31v2q0 14 8 22.5t23 8.5h667q14 0 22.5 -8.5z" />
    <glyph glyph-name="X" unicode="X" horiz-adv-x="536" 
d="M563 633.5q8 -8.5 8 -22.5v-2q0 -15 -8 -23t-22 -8h-378v-441q0 -61 73 -61q50 0 91.5 30t65 79t23.5 103q0 46 -18.5 70.5t-48.5 26.5q2 -10 2 -15q0 -26 -15.5 -42t-40.5 -16q-28 0 -44.5 15.5t-16.5 44.5q0 38 27.5 60t71.5 22q67 0 112 -44.5t45 -127.5
q0 -69 -32.5 -132.5t-90.5 -103t-131 -39.5q-66 0 -108 33t-42 97v441h-97q-31 0 -31 31v2q0 14 8 22.5t23 8.5h552q14 0 22 -8.5z" />
    <glyph glyph-name="Y" unicode="Y" horiz-adv-x="557" 
d="M585 633.5q8 -8.5 8 -22.5v-2q0 -31 -31 -31h-90v-547q0 -17 -10 -27t-28 -10h-2q-17 0 -27 10t-10 27v364q0 94 -41 138.5t-108 44.5q-62 0 -98.5 -37t-36.5 -99q0 -48 21.5 -77.5t57.5 -39.5q-1 3 -1 9q0 25 17 41t42 16t43 -17.5t18 -43.5q0 -35 -24.5 -55.5
t-69.5 -20.5q-49 0 -90 22.5t-65.5 65.5t-24.5 100q0 64 27.5 110t75 70t104.5 24q55 0 93.5 -19.5t59.5 -44.5v118q0 18 10 28t27 10h2q18 0 28 -10t10 -28v-58h90q15 0 23 -8.5z" />
    <glyph glyph-name="Z" unicode="Z" horiz-adv-x="623" 
d="M650 633.5q8 -8.5 8 -22.5v-2q0 -15 -8 -23t-22 -8h-639q-31 0 -31 31v2q0 14 8 22.5t23 8.5h639q14 0 22 -8.5zM483 491q42 -25 67 -74.5t25 -121.5q0 -109 -59.5 -182t-184.5 -73q-100 0 -163.5 51.5t-91.5 135t-28 182.5q0 50 7 67t33 17q36 0 36 -34q0 -16 -1 -23
q0 -5 -0.5 -16.5t0.5 -24.5q0 -126 51 -206.5t156 -80.5q87 0 129.5 54t42.5 135q0 73 -31 111.5t-79 38.5q-30 0 -50.5 -14.5t-25.5 -40.5h5q27 0 43.5 -17t16.5 -43q0 -25 -16.5 -42t-43.5 -17q-38 0 -59 27.5t-21 70.5q0 67 42 106t107 39q51 0 93 -25z" />
    <glyph glyph-name="bracketleft" unicode="[" horiz-adv-x="351" 
d="M124 -96v831q0 42 20.5 62.5t63.5 20.5h75q30 0 30 -30v-2q0 -31 -30 -31h-87v-870h86q31 0 31 -31v-2q0 -32 -31 -32h-74q-84 0 -84 84z" />
    <glyph glyph-name="backslash" unicode="\" horiz-adv-x="574" 
d="M172 4q-10 10 -10 27v566q0 17 10 27t28 10h2q17 0 27 -10t10 -27v-566q0 -17 -10 -27t-27 -10h-2q-18 0 -28 10zM421 4q-10 10 -10 27v566q0 17 10 27t28 10h2q17 0 27 -10t10 -27v-566q0 -17 -10 -27t-27 -10h-2q-18 0 -28 10z" />
    <glyph glyph-name="bracketright" unicode="]" horiz-adv-x="351" 
d="M37 -148v2q0 31 32 31h86v870h-87q-31 0 -31 31v2q0 30 31 30h75q43 0 63.5 -20.5t20.5 -62.5v-831q0 -84 -84 -84h-74q-32 0 -32 32z" />
    <glyph glyph-name="asciicircum" unicode="^" 
d="M-95.5 394q9.5 -10 9.5 -27v-456q0 -24 -10 -35.5t-32 -11.5q-14 0 -28.5 5.5t-35.5 16.5l-220 119q-40 21 -40 62q0 44 37 64q136 74 254 122v114q0 17 10.5 27t29.5 10q16 0 25.5 -10zM-161 -46v219q-88 -38 -215 -105z" />
    <glyph glyph-name="underscore" unicode="_" horiz-adv-x="612" 
d="M639 633.5q8 -8.5 8 -22.5v-2q0 -31 -31 -31h-90v-547q0 -17 -10 -27t-27 -10h-2q-17 0 -27 10t-10 27v55l-382 183q-21 11 -21 32q0 6 1 10q9 34 44 31q36 -6 59 -6q65 0 108 33.5t43 101.5q0 51 -26.5 79.5t-73.5 28.5q-28 0 -48.5 -10.5t-28.5 -29.5q5 1 17 1
q22 -1 37 -17t15 -39q0 -25 -17.5 -41t-45.5 -16q-35 0 -57 22.5t-22 61.5q0 36 17.5 66.5t51.5 49.5t81 19q79 0 127 -48.5t48 -125.5q0 -69 -39 -124.5t-138 -68.5v-4q10 -3 48.5 -17.5t85.5 -37.5l116 -55v535q0 18 10 28t27 10h2q17 0 27 -10t10 -28v-58h90
q15 0 23 -8.5z" />
    <glyph glyph-name="grave" unicode="`" horiz-adv-x="528" 
d="M556 633.5q8 -8.5 8 -22.5v-2q0 -31 -31 -31h-380v-151q0 -80 -5 -143l4 -1q49 53 110 99.5t111 68.5q15 6 30 6q21 0 35 -11t18.5 -22.5t4.5 -24.5q0 -14 -5 -37q-7 -36 -11 -79.5t-4 -123.5v-128q0 -17 -9.5 -27t-26.5 -10h-2q-17 0 -27 10t-10 27v129q0 146 22 219
q-42 -24 -97.5 -69.5t-114.5 -108.5q-14 -14 -26 -21t-28 -7q-22 0 -34 12.5t-12 36.5v356h-87q-31 0 -31 31v2q0 14 8 22.5t23 8.5h544q15 0 23 -8.5z" />
    <glyph glyph-name="a" unicode="a" horiz-adv-x="569" 
d="M597 633.5q8 -8.5 8 -22.5v-2q0 -31 -31 -31h-90v-547q0 -18 -9.5 -27.5t-26.5 -9.5h-2q-37 0 -37 37v55l-311 132q-35 15 -35 53q0 36 33 53l61 31v4q-50 16 -76 52.5t-26 84.5t21.5 82.5t56.5 51.5t76 17q60 0 94 -28t34 -67q0 -26 -15.5 -43t-43.5 -17
q-26 0 -42.5 15.5t-16.5 40.5q0 18 9 31q-4 1 -11 1q-40 0 -63.5 -22.5t-23.5 -62.5q0 -41 27 -64.5t67 -23.5q22 0 40.5 6.5t47.5 21.5l95 49v128q0 16 5.5 23t19.5 7h142q15 0 23 -8.5zM409 161v244l-259 -132z" />
    <glyph glyph-name="b" unicode="b" horiz-adv-x="550" 
d="M578 633.5q8 -8.5 8 -22.5v-2q0 -31 -31 -31h-90v-548q0 -36 -35 -36q-33 0 -38 35q-10 84 -40 155t-77.5 114t-107.5 43q-19 0 -31 -4q22 -15 22 -42q0 -26 -16.5 -42t-43.5 -16q-29 0 -48 18.5t-19 48.5q0 48 35.5 77.5t96.5 29.5q74 0 135.5 -42t97.5 -121l3 1
q-11 81 -11 161v168h-399q-31 0 -31 31v2q0 14 8 22.5t23 8.5h566q15 0 23 -8.5z" />
    <glyph glyph-name="c" unicode="c" horiz-adv-x="654" 
d="M681 633.5q8 -8.5 8 -22.5v-2q0 -31 -31 -31h-90v-547q0 -17 -10 -27t-28 -10h-2q-17 0 -27 10t-10 27v411l-271 -220q-12 -10 -26 -10q-13 0 -24.5 11.5t-11.5 24.5q0 16 18 32l73 58q-27 44 -55 63.5t-67 19.5q-16 0 -28 -2t-19 -2q-19 0 -32 15t-13 35q0 27 16 53
q37 65 93 99t128 34q68 0 122.5 -33t92.5 -90l4 4v166q0 18 10 28t27 10h2q18 0 28 -10t10 -28v-58h90q15 0 23 -8.5zM227 463q41 -24 76 -81l131 106q-70 97 -160 97q-52 0 -92.5 -27t-65.5 -72q6 1 19 1q51 0 92 -24z" />
    <glyph glyph-name="d" unicode="d" horiz-adv-x="734" 
d="M761.5 633.5q8.5 -8.5 8.5 -22.5v-2q0 -15 -8.5 -23t-22.5 -8h-620l138 -107q25 -19 25 -49q0 -32 -25 -52l-118 -93l231 -112v288q0 32 22 42.5t67 10.5q105 0 169.5 -51t64.5 -144q0 -59 -28.5 -97t-75.5 -38q-28 0 -48 16t-20 44q0 25 17 41.5t43 16.5q20 0 37 -12
q4 11 4 30q0 55 -38 89.5t-106 34.5q-14 0 -32 -2v-404q0 -16 -10.5 -26t-27.5 -10h-2q-17 0 -26.5 9.5t-9.5 26.5v56l-279 134q-31 15 -31 50t27 57l118 93l-128 96q-17 12 -24 26t-7 34v2h-57q-31 0 -31 31v2q0 14 8 22.5t23 8.5h750q14 0 22.5 -8.5z" />
    <glyph glyph-name="e" unicode="e" horiz-adv-x="519" 
d="M546 633.5q8 -8.5 8 -22.5v-2q0 -31 -31 -31h-90v-547q0 -17 -10 -27t-27 -10h-2q-17 0 -26.5 10t-9.5 27v55l-283 164q-33 20 -33 59t30 61q64 46 127.5 78.5t109 49.5t49.5 17v63h-369q-31 0 -31 31v2q0 14 8 22.5t23 8.5h534q15 0 23 -8.5zM358 171v270
q-45 -15 -110.5 -47.5t-132.5 -82.5z" />
    <glyph glyph-name="f" unicode="f" horiz-adv-x="645" 
d="M673 633.5q8 -8.5 8 -22.5v-2q0 -31 -31 -31h-661q-31 0 -31 31v2q0 14 8 22.5t23 8.5h661q15 0 23 -8.5zM571 394q30 -57 30 -121q0 -66 -27.5 -121t-84 -88.5t-139.5 -33.5q-142 0 -222.5 101.5t-88.5 280.5q-1 18 9.5 28.5t26.5 10.5q37 0 38 -33q7 -162 71 -241
t166 -79q90 0 134 50t44 125q0 28 -6.5 51.5t-16.5 38.5q-52 -91 -145 -91q-59 0 -97.5 35.5t-38.5 97.5q0 40 21 65.5t55 25.5q26 0 43 -16.5t17 -40.5q0 -25 -16 -41.5t-43 -16.5h-2q14 -41 63 -41q41 0 73 40l14 19q17 23 29.5 34t30.5 11q37 0 62 -50z" />
    <glyph glyph-name="g" unicode="g" horiz-adv-x="550" 
d="M577 633.5q8 -8.5 8 -22.5v-2q0 -31 -31 -31h-90v-547q0 -17 -9.5 -27t-26.5 -10h-2q-17 0 -27.5 10t-10.5 27v61q-31 46 -75 84.5t-95 59.5q-34 -29 -80 -29q-42 0 -64.5 15.5t-22.5 44.5q0 30 23 48.5t62 18.5q24 0 54 -8q11 27 11 55q0 54 -36 94.5t-97 58.5
q-16 6 -25 15t-9 29h-45q-31 0 -31 31v2q0 14 8 22.5t23 8.5h565q15 0 23 -8.5zM389 368v210h-242q60 -32 93 -83.5t33 -117.5q0 -42 -14 -79q40 -21 75.5 -49t58.5 -56l4 2q-8 101 -8 173z" />
    <glyph glyph-name="h" unicode="h" horiz-adv-x="531" 
d="M558.5 633.5q8.5 -8.5 8.5 -22.5v-2q0 -15 -8.5 -23t-22.5 -8h-91v-548q0 -17 -10 -26.5t-27 -9.5h-2q-16 0 -26 10t-10 26v56l-273 131q-17 9 -24.5 21.5t-7.5 31.5q0 39 28 62l112 88l-127 96q-17 12 -24.5 26t-7.5 34v2h-57q-31 0 -31 31v2q0 14 8 22.5t23 8.5h547
q14 0 22.5 -8.5zM370 578h-252l140 -108q12 -10 18 -21t6 -27q0 -33 -24 -51l-117 -95l229 -111v413z" />
    <glyph glyph-name="i" unicode="i" horiz-adv-x="523" 
d="M550 633.5q8 -8.5 8 -22.5v-2q0 -31 -31 -31h-90v-547q0 -17 -9.5 -27t-27.5 -10h-2q-17 0 -26.5 10t-9.5 27v55l-285 165q-16 10 -23.5 24t-7.5 34q0 40 29 60q64 47 127.5 79.5t109.5 49.5t50 17v63h-373q-31 0 -31 31v2q0 14 8 22.5t23 8.5h538q15 0 23 -8.5zM362 170
v271q-45 -15 -110.5 -47.5t-132.5 -82.5zM201 95.5q17 -16.5 17 -40.5t-17 -40.5t-42 -16.5t-41.5 16.5t-16.5 40.5t16.5 40.5t41.5 16.5t42 -16.5z" />
    <glyph glyph-name="j" unicode="j" horiz-adv-x="701" 
d="M729 633.5q8 -8.5 8 -22.5v-2q0 -31 -31 -31h-90v-547q0 -17 -10 -27t-27 -10h-2q-17 0 -27 10t-10 27v275q0 55 -19.5 85t-53.5 30q-31 0 -49 -24.5t-23 -71.5q-2 -18 -10.5 -27.5t-26.5 -9.5q-19 0 -27 9.5t-12 27.5q-6 47 -32.5 71.5t-67.5 24.5q-44 0 -71 -28.5
t-27 -84.5q0 -52 22.5 -80.5t59.5 -34.5q-1 4 -1 11q0 25 16 41t43 16t43.5 -17.5t16.5 -44.5q0 -35 -27.5 -54t-73.5 -19q-77 0 -125.5 50t-48.5 132q0 80 47 130t125 50q39 0 75.5 -16t59.5 -49q20 35 50 50t58 15q47 0 79 -30v120h-551q-31 0 -31 31v2q0 14 8 22.5
t23 8.5h717q15 0 23 -8.5z" />
    <glyph glyph-name="k" unicode="k" horiz-adv-x="590" 
d="M617.5 633.5q8.5 -8.5 8.5 -22.5v-2q0 -15 -8.5 -23t-22.5 -8h-91v-548q0 -17 -10 -26.5t-27 -9.5h-2q-17 0 -27 10t-10 26v548h-58q-36 0 -67.5 -20t-47.5 -52q45 -35 75 -83t30 -79q0 -19 -11 -30.5t-28 -11.5q-33 0 -66.5 41t-60.5 107h-5q-26 -66 -59 -107t-67 -41
q-17 0 -28 11.5t-11 30.5q0 32 30.5 81t75.5 83q-15 33 -40.5 51.5t-68.5 18.5h-32q-31 0 -31 31v2q0 14 8 22.5t23 8.5h32q61 0 101 -23.5t71 -81.5q56 105 177 105h58v59q0 17 10 27t27 10h2q17 0 27 -10t10 -27v-59h91q14 0 22.5 -8.5z" />
    <glyph glyph-name="l" unicode="l" horiz-adv-x="538" 
d="M566 633.5q8 -8.5 8 -22.5v-2q0 -31 -31 -31h-90v-548q0 -17 -10 -26.5t-27 -9.5h-2q-17 0 -27 9.5t-10 26.5v55l-288 135q-32 15 -32 52q0 19 6.5 33t21.5 26l118 95l-123 91q-17 11 -24.5 25t-7.5 34v2h-59q-31 0 -31 31v2q0 14 8 22.5t23 8.5h554q15 0 23 -8.5z
M378 578h-268l132 -95l5 -4l131 -94v193zM378 160v141l-115 83l-131 -106z" />
    <glyph glyph-name="m" unicode="m" horiz-adv-x="591" 
d="M619 633.5q8 -8.5 8 -22.5v-2q0 -31 -31 -31h-90v-547q0 -17 -10 -27t-27 -10h-2q-17 0 -27 10t-10 27v259q0 32 -13 50t-38 18q-28 0 -45.5 -21.5t-39.5 -65.5q-21 -40 -37 -64t-42.5 -41.5t-64.5 -17.5q-37 0 -65.5 16.5t-52.5 50.5q-8 13 -8 26q0 15 10 25t24 10
q10 0 17.5 -4.5t15.5 -14.5q27 -40 59 -40q24 0 41 20.5t40 64.5q3 6 11 21t15 26q-23 63 -59.5 107t-78.5 67q-22 13 -30 24.5t-8 30.5h-92q-31 0 -31 31v2q0 14 8 22.5t23 8.5h607q15 0 23 -8.5zM431 578h-265q93 -63 143 -170q27 19 63 19q38 0 59 -21v172z" />
    <glyph glyph-name="n" unicode="n" horiz-adv-x="437" 
d="M465 633.5q8 -8.5 8 -22.5v-2q0 -31 -31 -31h-321q26 -34 45 -75q22 5 43 5q80 0 128.5 -48.5t48.5 -126.5q0 -73 -46.5 -123.5t-141.5 -59.5v-4q7 -3 35 -17.5t64 -37.5l68 -45q20 -12 20 -32q0 -15 -9 -25t-24 -10q-13 0 -27 8l-241 152q-23 14 -23 37q0 18 11 29
t29 11q6 0 22 -2q20 -4 48 -4q59 0 99.5 30.5t40.5 92.5q0 49 -27.5 78.5t-76.5 29.5q-9 0 -19 -2q4 -26 4 -41q0 -39 -16.5 -60t-45.5 -21q-27 0 -45 17.5t-18 50.5q0 27 10.5 50t30.5 40q-39 64 -83 103h-36q-31 0 -31 31v2q0 14 8 22.5t23 8.5h453q15 0 23 -8.5z" />
    <glyph glyph-name="o" unicode="o" horiz-adv-x="651" 
d="M678.5 633.5q8.5 -8.5 8.5 -22.5v-2q0 -15 -8.5 -23t-22.5 -8h-327v-197q0 -43 36 -43q25 0 46 11t50 31q20 15 33 22.5t26 7.5q29 0 49.5 -24.5t31 -61t10.5 -70.5q0 -65 -26 -121.5t-83 -91.5t-145 -35q-107 0 -177 53.5t-103.5 141.5t-35.5 193q-1 19 10 28.5t26 9.5
t25.5 -9t11.5 -26q6 -159 67.5 -240.5t176.5 -81.5q91 0 135.5 52t44.5 129q0 46 -22 85q-78 -73 -156 -73q-50 0 -78.5 26.5t-28.5 80.5v203h-264q-31 0 -31 31v2q0 14 8 22.5t23 8.5h667q14 0 22.5 -8.5zM389 -78.5q17 -16.5 17 -41.5q0 -23 -17 -39.5t-42 -16.5
t-41.5 16.5t-16.5 39.5q0 25 16.5 41.5t41.5 16.5t42 -16.5z" />
    <glyph glyph-name="p" unicode="p" horiz-adv-x="536" 
d="M563 633.5q8 -8.5 8 -22.5v-2q0 -15 -8 -23t-22 -8h-378v-441q0 -61 73 -61q50 0 91.5 30t65 79t23.5 103q0 46 -18.5 70.5t-48.5 26.5q2 -10 2 -15q0 -26 -15.5 -42t-40.5 -16q-28 0 -44.5 15.5t-16.5 44.5q0 38 27.5 60t71.5 22q67 0 112 -44.5t45 -127.5
q0 -69 -32.5 -132.5t-90.5 -103t-131 -39.5q-66 0 -108 33t-42 97v441h-97q-31 0 -31 31v2q0 14 8 22.5t23 8.5h552q14 0 22 -8.5zM269.5 -77q17.5 -17 17.5 -41q0 -23 -17.5 -39.5t-42.5 -16.5q-24 0 -40.5 16.5t-16.5 39.5q0 24 16.5 41t40.5 17q25 0 42.5 -17z" />
    <glyph glyph-name="q" unicode="q" horiz-adv-x="531" 
d="M558.5 633.5q8.5 -8.5 8.5 -22.5v-2q0 -15 -8.5 -23t-22.5 -8h-91v-548q0 -17 -10 -26.5t-27 -9.5h-2q-16 0 -26 10t-10 26v56l-273 131q-17 9 -24.5 21.5t-7.5 31.5q0 39 28 62l112 88l-127 96q-17 12 -24.5 26t-7.5 34v2h-57q-31 0 -31 31v2q0 14 8 22.5t23 8.5h547
q14 0 22.5 -8.5zM370 578h-252l140 -108q12 -10 18 -21t6 -27q0 -33 -24 -51l-117 -95l229 -111v413zM195 93.5q17 -16.5 17 -40.5t-17 -40.5t-43 -16.5q-24 0 -41 17t-17 40q0 24 16.5 40.5t41.5 16.5q26 0 43 -16.5z" />
    <glyph glyph-name="r" unicode="r" horiz-adv-x="510" 
d="M445.5 140q42.5 -36 42.5 -105q0 -22 -8 -33t-28 -11q-18 0 -26.5 9t-10.5 28q-1 34 -18.5 55t-46.5 34t-90 34q-99 33 -160 93.5t-61 162.5q0 68 26.5 120t75 80t111.5 28q74 0 124 -39.5t50 -105.5q0 -67 -46 -102.5t-119 -35.5q-42 0 -81.5 16t-65.5 45v-6
q0 -61 28.5 -99.5t71 -60t111.5 -44.5q78 -27 120.5 -63zM181.5 548.5q-31.5 -19.5 -48.5 -54.5q16 -36 49.5 -56t75.5 -20q43 0 68.5 19t25.5 54q0 34 -27.5 55.5t-72.5 21.5q-39 0 -70.5 -19.5z" />
    <glyph glyph-name="s" unicode="s" horiz-adv-x="395" 
d="M89.5 392.5q-39.5 40.5 -39.5 102.5q0 63 39.5 103.5t104.5 40.5q66 0 106 -40.5t40 -103.5q0 -62 -40 -102.5t-106 -40.5q-65 0 -104.5 40.5zM251.5 440.5q21.5 21.5 21.5 54.5q0 34 -21.5 56.5t-57.5 22.5q-35 0 -55.5 -22.5t-20.5 -56.5q0 -33 20.5 -54.5t55.5 -21.5
q36 0 57.5 21.5zM306 4l-246 231q-12 11 -12 27q0 14 12 26.5t26 12.5q13 0 24 -10l240 -234q16 -14 16 -28q0 -13 -12 -25t-24 -12t-24 12z" />
    <glyph glyph-name="t" unicode="t" horiz-adv-x="399" 
d="M90.5 392.5q-39.5 40.5 -39.5 102.5q0 63 39.5 103.5t104.5 40.5q66 0 106 -40.5t40 -103.5q0 -62 -40 -102.5t-106 -40.5q-65 0 -104.5 40.5zM252.5 440.5q21.5 21.5 21.5 54.5q0 34 -21.5 56.5t-57.5 22.5q-35 0 -55.5 -22.5t-20.5 -56.5q0 -33 20.5 -54.5t55.5 -21.5
q36 0 57.5 21.5zM90.5 33.5q-39.5 40.5 -39.5 102.5q0 63 39.5 103.5t104.5 40.5q66 0 106 -40.5t40 -103.5q0 -62 -40 -102.5t-106 -40.5q-65 0 -104.5 40.5zM252.5 81q21.5 22 21.5 55q0 34 -21.5 56.5t-57.5 22.5q-34 0 -55 -22.5t-21 -56.5q0 -33 21 -55t55 -22
q36 0 57.5 22z" />
    <glyph glyph-name="u" unicode="u" 
d="M-154.5 944q-16.5 16 -16.5 40t16.5 40t39.5 16t39.5 -16t16.5 -40t-16.5 -40t-39.5 -16t-39.5 16zM-238.5 826.5q-51.5 32.5 -75.5 85.5q-5 12 -5 19q0 16 12 25.5t27 9.5q21 0 32 -24q41 -82 134 -82q94 0 133 82q13 24 32 24q15 0 27 -9.5t12 -25.5q0 -7 -5 -19
q-24 -53 -75 -85.5t-124 -32.5t-124.5 32.5z" />
    <glyph glyph-name="v" unicode="v" horiz-adv-x="248" 
d="M96 4q-10 10 -10 27v457q0 46 -14.5 68t-54.5 22h-28q-31 0 -31 31v2q0 14 8 22.5t23 8.5h29q30 0 48 -14t34 -47l5 2q0 1 -8 23t-8 73v23q0 17 9.5 26.5t25.5 9.5h3q17 0 26.5 -9.5t9.5 -26.5v-60h90q15 0 23 -8.5t8 -22.5v-2q0 -31 -31 -31h-90v-547q0 -17 -10.5 -27
t-27.5 -10h-2q-17 0 -27 10z" />
    <glyph glyph-name="w" unicode="w" horiz-adv-x="248" 
d="M588 801q0 -10 -5 -19q-9 -16 -25 -16q-13 0 -24 7q-71 41 -122 56.5t-103 15.5q-76 0 -111 -28t-35 -96v-79h90q15 0 23 -8.5t8 -22.5v-2q0 -31 -31 -31h-90v-547q0 -17 -10.5 -27t-27.5 -10h-2q-17 0 -27 10t-10 27v547h-97q-31 0 -31 31v2q0 14 8 22.5t23 8.5h97v79
q0 103 56.5 147.5t162.5 44.5q66 0 127 -18t136 -64q20 -13 20 -30z" />
    <glyph glyph-name="x" unicode="x" horiz-adv-x="248" 
d="M96 4q-10 10 -10 27v547h-97q-31 0 -31 31v2q0 14 8 22.5t23 8.5h97v9q0 87 -49 146.5t-132.5 88t-189.5 28.5q-68 0 -104.5 -15t-36.5 -44q0 -22 19.5 -31t66.5 -9q24 0 60 2t62 2q66 0 99 -28.5t33 -89.5v-70q0 -18 -9.5 -28t-27.5 -10h-2q-17 0 -27.5 10t-10.5 28v67
q0 35 -14.5 46t-47.5 11q-20 0 -52 -2q-27 -3 -67 -3q-155 0 -155 104q0 65 58 95t155 30q118 0 220.5 -36t165.5 -110t63 -182v-9h90q15 0 23 -8.5t8 -22.5v-2q0 -31 -31 -31h-90v-547q0 -17 -10.5 -27t-27.5 -10h-2q-17 0 -27 10z" />
    <glyph glyph-name="y" unicode="y" 
d="M66 -212q0 -15 -10 -25t-25 -10q-11 0 -19 5t-16 17q-42 54 -91 86q-4 -80 -49.5 -124.5t-120.5 -44.5q-42 0 -74.5 19t-50 50.5t-17.5 68.5q0 66 45.5 106t117.5 40q80 0 158 -41.5t139 -115.5q13 -19 13 -31zM-188.5 -207q25.5 35 22.5 103q-36 13 -76 13
q-44 0 -68.5 -20.5t-24.5 -55.5q0 -30 19.5 -52.5t52.5 -22.5q49 0 74.5 35z" />
    <glyph glyph-name="z" unicode="z" 
d="M66 -212q0 -15 -10 -25t-25 -10q-11 0 -19 5t-16 17q-42 54 -91 86q-4 -80 -49.5 -124.5t-120.5 -44.5q-42 0 -74.5 19t-50 50.5t-17.5 68.5q0 66 45.5 106t117.5 40q80 0 158 -41.5t139 -115.5q13 -19 13 -31zM-188.5 -207q25.5 35 22.5 103q-36 13 -76 13
q-44 0 -68.5 -20.5t-24.5 -55.5q0 -30 19.5 -52.5t52.5 -22.5q49 0 74.5 35z" />
    <glyph glyph-name="braceleft" unicode="{" horiz-adv-x="381" 
d="M184 -139.5q-33 40.5 -33 108.5q0 50 13 117q10 62 10 90q0 43 -15.5 67t-45.5 36q-17 6 -24 15.5t-7 25.5t7 24.5t24 16.5q31 14 46 37t15 66q0 28 -10 90q-5 27 -9 57.5t-4 59.5q0 68 33 108.5t101 40.5q41 0 41 -33t-34 -33q-37 0 -52.5 -23t-15.5 -71q0 -34 12 -100
q1 -7 6 -39t5 -59q0 -112 -90 -140v-4q90 -28 90 -140q0 -34 -12 -100q-1 -7 -6 -39t-5 -59q0 -48 15.5 -71t52.5 -23q34 0 34 -33t-41 -33q-68 0 -101 40.5z" />
    <glyph glyph-name="bar" unicode="|" horiz-adv-x="325" 
d="M172 4q-10 10 -10 27v566q0 17 10 27t28 10h2q17 0 27 -10t10 -27v-566q0 -17 -10 -27t-27 -10h-2q-18 0 -28 10z" />
    <glyph glyph-name="braceright" unicode="}" horiz-adv-x="381" 
d="M65 -172q-10 8 -10 25q0 33 33 33q37 0 53 23.5t16 70.5q0 32 -12 98t-12 100q0 53 22.5 89t68.5 51v4q-91 28 -91 140q0 32 12 98t12 100q0 47 -16 70.5t-53 23.5q-33 0 -33 33q0 17 10 25t31 8q68 0 101 -40.5t33 -108.5q0 -29 -4 -59.5t-9 -57.5q-10 -62 -10 -90
q0 -43 15 -66t46 -37q17 -8 24 -16.5t7 -24.5t-7 -25.5t-24 -15.5q-30 -12 -45.5 -36t-15.5 -67q0 -28 10 -90q13 -67 13 -117q0 -68 -33 -108.5t-101 -40.5q-21 0 -31 8z" />
    <glyph glyph-name="asciitilde" unicode="~" 
d="M56 -266q0 -14 -9.5 -24.5t-24.5 -10.5q-12 0 -28 14l-62 55q-70 -82 -158 -82q-64 0 -102 37.5t-38 100.5q0 67 43.5 108.5t116.5 42.5q29 0 43 -1v50q0 16 10.5 24.5t28.5 8.5h2q17 0 26 -8.5t9 -24.5v-51q0 -32 -4.5 -44.5t-17.5 -15.5t-48 -3h-24q-49 0 -79.5 -23.5
t-30.5 -61.5q0 -32 20 -51.5t52 -19.5q26 0 51.5 14.5t46.5 37.5q9 9 15 18q11 13 18.5 18.5t18.5 5.5q10 0 17 -4.5t16.5 -13t13.5 -12.5l62 -55q16 -14 16 -29z" />
    <glyph glyph-name="uni00A0" unicode="&#xa0;" horiz-adv-x="600" 
 />
    <glyph glyph-name="exclamdown" unicode="&#xa1;" 
d="M-119 103v-411q0 -23 -12.5 -34.5t-33.5 -11.5q-13 0 -25 4t-32 13l-223 103q-21 10 -32.5 24.5t-11.5 38.5q0 45 40 64q96 51 256 113v97h74zM-193 -269v202q-127 -53 -220 -102z" />
    <glyph glyph-name="cent" unicode="&#xa2;" horiz-adv-x="607" 
d="M558 394q8 -34 8 -63q0 -103 -59.5 -166.5t-176.5 -63.5q-135 0 -209.5 95.5t-83.5 253.5q-1 17 7 31.5t29 15.5q20 0 28.5 -11t8.5 -27q7 -143 64 -216t159 -73q79 0 119 44.5t40 115.5q0 46 -23 87q-17 -39 -50 -66.5t-88 -27.5q-53 0 -90 32t-37 86q0 36 19 58.5
t51 22.5q26 0 43 -16t17 -41q0 -23 -13 -38.5t-36 -17.5q15 -20 46 -20q33 0 52.5 21t37.5 58q12 23 23 33.5t27 10.5q19 0 34.5 -15.5t29.5 -41.5q15 -27 23 -61z" />
    <glyph glyph-name="sterling" unicode="&#xa3;" horiz-adv-x="474" 
 />
    <glyph glyph-name="currency" unicode="&#xa4;" horiz-adv-x="597" 
d="M625 633.5q8 -8.5 8 -22.5v-2q0 -31 -31 -31h-84q13 -15 21.5 -38.5t8.5 -52.5q0 -61 -40.5 -98t-117.5 -37q-98 0 -198 49q-25 -34 -73 -34q-36 0 -55.5 15.5t-19.5 42.5q0 26 20 43.5t57 17.5q10 0 24 -2q-2 26 -14 51t-30 43h-112q-31 0 -31 31v2q0 14 8 22.5t23 8.5
h613q15 0 23 -8.5zM453.5 556q-20.5 22 -67.5 22h-198q27 -42 27 -98q0 -11 -1 -17q100 -45 168 -45q49 0 70.5 22t21.5 57q0 37 -20.5 59z" />
    <glyph glyph-name="yen" unicode="&#xa5;" horiz-adv-x="233" 
d="M260.5 633.5q8.5 -8.5 8.5 -22.5v-2q0 -15 -8.5 -23t-22.5 -8h-91v-570q0 -38 -37 -38q-16 0 -28.5 8.5t-35.5 27.5q-55 46 -117.5 74.5t-110.5 34.5v-20q0 -32 -14.5 -52t-46.5 -20t-49.5 18t-17.5 49q0 46 32 70t82 24q68 0 140.5 -30t133.5 -81l4 2q-11 74 -11 169
v334h-105q-14 0 -22.5 8t-8.5 23v2q0 14 8.5 22.5t22.5 8.5h272q14 0 22.5 -8.5z" />
    <glyph glyph-name="brokenbar" unicode="&#xa6;" 
d="M-95.5 118q9.5 -10 9.5 -27v-370q0 -24 -10 -35.5t-32 -11.5q-14 0 -29 5.5t-35 15.5l-220 119q-40 21 -40 63q0 43 37 63q136 74 254 122v29q0 17 10.5 27t29.5 10q16 0 25.5 -10zM-161 -237v219q-109 -47 -216 -105z" />
    <glyph glyph-name="section" unicode="&#xa7;" horiz-adv-x="204" 
d="M231.5 633.5q8.5 -8.5 8.5 -22.5v-2q0 -15 -8.5 -23t-22.5 -8h-90v-540q0 -38 -34 -38q-16 0 -27.5 8.5t-28.5 28.5q-70 84 -153 101v-16q0 -32 -15.5 -52t-46.5 -20t-49 18t-18 49q0 29 14.5 50t38.5 33v202h76v-192q45 -6 92.5 -30t79.5 -59l3 1q-9 72 -9 151v305h-261
q-31 0 -31 31v2q0 14 8 22.5t23 8.5h428q14 0 22.5 -8.5z" />
    <glyph glyph-name="dieresis" unicode="&#xa8;" horiz-adv-x="233" 
d="M260.5 633.5q8.5 -8.5 8.5 -22.5v-2q0 -15 -8.5 -23t-22.5 -8h-50q-34 0 -53 -28t-19 -73q0 -33 9.5 -64.5t28.5 -77.5q20 -48 31 -83.5t11 -74.5q0 -121 -95 -199q-13 -11 -28 -11q-19 0 -29 13q-10 10 -10 25t16 29q38 36 54.5 67t16.5 78q0 33 -9.5 62.5t-27.5 71.5
q-21 49 -32 84t-11 78q0 29 9.5 56.5t25.5 46.5h-87q-31 0 -31 31v2q0 14 8 22.5t23 8.5h249q14 0 22.5 -8.5z" />
    <glyph glyph-name="copyright" unicode="&#xa9;" 
d="M-146.5 686.5q-9.5 10.5 -9.5 25.5q0 18 18 28l206 142q10 7 21 7q15 0 24.5 -9.5t9.5 -24.5q0 -17 -16 -29l-205 -142q-13 -8 -24 -8q-15 0 -24.5 10.5z" />
    <glyph glyph-name="ordfeminine" unicode="&#xaa;" 
d="M-153 -146q-7 7 -10 22q-3 14 -8 23t-22.5 15t-51.5 6q-22 0 -50 -5t-37 -6q-59 -13 -97 -13q-72 0 -117 35t-53 108q-5 49 37 49q28 0 36 -35q5 -48 31 -66.5t72 -18.5q33 0 84 11q60 12 93 12q29 0 47.5 -5.5t34.5 -19.5l1 145q0 17 10 26.5t28 9.5t28.5 -9.5
t10.5 -26.5v-223q0 -41 -37 -41q-23 0 -30 7z" />
    <glyph glyph-name="guillemotleft" unicode="&#xab;" 
d="M-354 -158.5q-6 9.5 -8 30.5q-2 20 -7.5 33t-26 22.5t-61.5 9.5q-16 0 -42 -4.5t-52 -9.5q-30 -6 -61.5 -11.5t-53.5 -5.5q-96 0 -154.5 44t-58.5 117q0 19 9.5 32t23.5 14q19 2 30 -7.5t10 -27.5q-4 -46 35.5 -73.5t107.5 -27.5q24 0 59 6.5t44 8.5q74 16 104 16
q32 0 55 -8.5t38 -27.5v58q0 17 9 26.5t27 9.5q20 0 30 -9.5t10 -26.5v-158q0 -19 -9.5 -29.5t-29.5 -10.5q-22 0 -28 9.5z" />
    <glyph glyph-name="logicalnot" unicode="&#xac;" 
d="M-86 -141q0 -17 -10 -26.5t-27 -9.5h-2q-17 0 -27 10t-10 26v177q-4 39 -19.5 59t-39.5 20q-28 0 -45.5 -25.5t-21.5 -71.5q-2 -15 -9.5 -24t-27.5 -9q-32 0 -38 33q-14 97 -82 97q-39 0 -62 -30t-23 -78q0 -46 16 -73.5t44 -34.5q-1 3 -1 10q0 26 15.5 41t40.5 15
q26 0 42.5 -16.5t16.5 -42.5q0 -33 -25.5 -52.5t-66.5 -19.5q-72 0 -113.5 48t-41.5 124q0 79 41.5 128.5t112.5 49.5q36 0 70 -17t50 -45q15 30 42.5 46.5t55.5 16.5q40 0 69 -25v143h75z" />
    <glyph glyph-name="registered" unicode="&#xae;" horiz-adv-x="642" 
d="M670 633.5q8 -8.5 8 -22.5v-2q0 -31 -31 -31h-195q48 -50 48 -129q0 -60 -27.5 -103t-73.5 -65.5t-102 -22.5t-101.5 22.5t-72 65.5t-26.5 103q0 80 46 129h-154q-31 0 -31 31v2q0 14 8 22.5t23 8.5h658q15 0 23 -8.5zM426 450q0 53 -36 90.5t-93 37.5q-47 0 -80 -27
l198 -157q11 27 11 56zM205.5 357q35.5 -36 91.5 -36q48 0 82 26l-198 157q-11 -27 -11 -54q0 -57 35.5 -93z" />
    <glyph glyph-name="macron" unicode="&#xaf;" horiz-adv-x="611" 
d="M638 633.5q8 -8.5 8 -22.5v-2q0 -31 -31 -31h-82q13 -16 20.5 -39t7.5 -49q0 -60 -36.5 -100.5t-109.5 -40.5q-52 0 -90 21t-62 61q-34 -75 -114 -75q-36 0 -65.5 17t-46 41t-16.5 44q0 10 5.5 17.5t15.5 9.5q7 5 13 5q10 0 21 -11q4 -5 16 -22t25.5 -25t31.5 -8
q43 0 58 44t16 110h-234q-31 0 -31 31v2q0 14 8 22.5t23 8.5h626q15 0 23 -8.5zM467.5 556q-18.5 22 -59.5 22h-117q3 -75 33.5 -119.5t86.5 -44.5q39 0 57 23.5t18 60.5q0 36 -18.5 58z" />
    <glyph glyph-name="degree" unicode="&#xb0;" horiz-adv-x="688" 
d="M716 633.5q8 -8.5 8 -22.5v-2q0 -31 -31 -31h-276v-54q69 -2 120.5 -26.5t79.5 -65t28 -90.5q0 -54 -24.5 -85.5t-70.5 -31.5q-27 0 -46.5 15t-19.5 42q0 26 16 41t41 15q16 0 33 -10v12q0 51 -42 82t-115 33v-241q68 -3 119.5 -29t79.5 -69.5t28 -95.5q0 -53 -24 -86
t-70 -33q-29 0 -48 14.5t-19 42.5q0 26 16 41t41 15q18 0 33 -10q1 5 1 17q0 52 -43 86t-114 38v-262q0 -49 -41 -49q-20 0 -61 22l-230 120q-37 21 -37 57q0 40 29 63q80 63 176 95l-169 92q-18 10 -27 23t-9 34q0 20 7 35.5t23 28.5q121 96 264 116v58h-353q-31 0 -31 31
v2q0 14 8 22.5t23 8.5h704q15 0 23 -8.5zM342 449q-56 -11 -113.5 -38t-106.5 -68l220 -119v225zM342 -75v214q-55 -9 -112 -35.5t-107 -67.5z" />
    <glyph glyph-name="plusminus" unicode="&#xb1;" horiz-adv-x="678" 
d="M706 633.5q8 -8.5 8 -22.5v-2q0 -31 -31 -31h-272v-49q68 -2 119 -27.5t79 -68t28 -93.5q0 -52 -24 -83.5t-69 -31.5q-28 0 -47 14.5t-19 41.5q0 26 15.5 41t40.5 15q18 0 33 -10q1 5 1 16q0 49 -42.5 82t-114.5 36v-230q0 -25 -12.5 -35.5t-43.5 -18.5
q-63 -16 -111.5 -48t-48.5 -84q0 -53 48 -81.5t125 -28.5q75 0 114.5 25t39.5 68q0 4 -2 12q-6 -11 -18.5 -17.5t-28.5 -6.5q-26 0 -43 14.5t-17 41.5q0 32 22 50.5t56 18.5q43 0 73 -31.5t30 -83.5q0 -70 -57.5 -116t-169.5 -46q-115 0 -182.5 48t-67.5 133q0 59 36.5 98
t89.5 62l-164 89q-18 9 -26 22t-8 33q0 21 7.5 35.5t22.5 26.5q123 95 259 114v53h-345q-31 0 -31 31v2q0 14 8 22.5t23 8.5h528q2 22 2 32q0 46 -20.5 66.5t-70.5 20.5q-26 0 -48 -1t-39 -2q-72 -4 -115 -4q-69 0 -105 30.5t-36 90.5q0 50 37 50q19 0 28 -10t10 -35
q0 -35 22 -47t68 -12q43 0 94 3q19 1 46.5 2t61.5 1q69 0 105 -37.5t36 -108.5q0 -21 -4 -39h94q15 0 23 -8.5zM222.5 417.5q-55.5 -26.5 -103.5 -66.5l215 -114v218q-56 -11 -111.5 -37.5z" />
    <glyph glyph-name="uni00B2" unicode="&#xb2;" horiz-adv-x="897" 
d="M925 633.5q8 -8.5 8 -22.5v-2q0 -31 -31 -31h-288v-142q32 5 60 5q93 0 140.5 -47.5t47.5 -124.5q0 -60 -27 -99.5t-80 -39.5q-33 0 -53.5 17t-20.5 46q0 26 17 42.5t43 16.5t44 -18q5 15 5 39q0 48 -29.5 73t-81.5 25q-28 0 -65 -7v-613q0 -17 -10 -26.5t-27 -9.5h-2
q-16 0 -26 9.5t-10 26.5v116q0 73 -35.5 113t-100.5 40q-54 0 -87.5 -29.5t-33.5 -83.5q0 -40 17.5 -64t48.5 -32q-1 4 -1 11q0 26 17 42t42 16q27 0 43.5 -16.5t16.5 -44.5q0 -34 -25 -54.5t-69 -20.5q-71 0 -117 43.5t-46 121.5q0 84 51.5 133t133.5 49q48 0 85 -16.5
t60 -41.5v67q-69 39 -128 57.5t-118 25.5q-25 -48 -80 -48q-28 0 -46.5 14.5t-18.5 39.5q0 32 24.5 49t63.5 17q1 4 1 12q0 55 -69 75q-27 -19 -61 -19q-31 0 -50.5 12.5t-19.5 36.5q0 27 19.5 41.5t49.5 14.5q18 0 36 -5q12 18 12 41q0 27 -17 43.5t-52 27.5
q-20 6 -31 14.5t-11 28.5h-54q-31 0 -31 31v2q0 14 8 22.5t23 8.5h913q15 0 23 -8.5zM536 325v24q-21 -4 -54 -4q-72 0 -119 35t-47 112v86h-159q34 -19 52 -46.5t18 -68.5q0 -35 -13 -62q96 -43 96 -139v-12q59 -8 122.5 -27.5t105.5 -44.5l4 2q-6 62 -6 145zM536 578h-143
v-86q0 -42 22.5 -59.5t65.5 -17.5q27 0 55 5v158z" />
    <glyph glyph-name="uni00B3" unicode="&#xb3;" horiz-adv-x="893" 
d="M920.5 633.5q8.5 -8.5 8.5 -22.5v-2q0 -15 -8.5 -23t-22.5 -8h-909q-31 0 -31 31v2q0 14 8 22.5t23 8.5h909q14 0 22.5 -8.5zM804.5 459.5q46.5 -47.5 46.5 -126.5q0 -50 -18.5 -88.5t-51 -60t-73.5 -21.5q-47 0 -72.5 22t-25.5 54q0 25 16 42.5t43 17.5q25 0 41.5 -16
t16.5 -41v-4q25 10 38.5 35.5t13.5 60.5q0 46 -25 74t-70 28q-32 0 -55 -15t-39.5 -37.5t-38.5 -62.5q-30 -55 -52 -82q61 -52 61 -129q0 -75 -51 -126.5t-154 -51.5q-95 0 -163 48.5t-105.5 135t-43.5 200.5q-1 17 8.5 30t30.5 13q34 0 35 -39q8 -159 72 -239t167 -80
q65 0 98.5 31t33.5 81q0 26 -10.5 45.5t-27.5 31.5q-19 -24 -55 -24q-29 0 -48.5 17t-19.5 46t18.5 47t49.5 18q29 0 46 -17q18 18 27.5 43t9.5 49q0 43 -31 68.5t-83 25.5q-39 0 -66.5 -17t-36.5 -47h1q25 0 41.5 -15t16.5 -39t-16 -40t-44 -16q-35 0 -54.5 24t-19.5 64
q0 69 47.5 111t127.5 42q66 0 112 -28t63 -78q55 83 149 83q73 0 119.5 -47.5z" />
    <glyph glyph-name="acute" unicode="&#xb4;" horiz-adv-x="697" 
d="M724 633.5q8 -8.5 8 -22.5v-2q0 -31 -31 -31h-271v-51q68 -2 119 -28t78.5 -68.5t27.5 -93.5q0 -55 -24.5 -86.5t-70.5 -31.5q-28 0 -47.5 14.5t-19.5 42.5q0 26 16 41.5t41 15.5q21 0 34 -12q1 5 1 15q0 51 -42.5 84.5t-112.5 36.5v-484q0 -49 -41 -49q-20 0 -31.5 10
t-29.5 35q-42 66 -82 92t-80 26q-13 0 -29 -4q18 -16 18 -41t-16.5 -41.5t-43.5 -16.5q-29 0 -47.5 19t-18.5 50q0 50 35.5 77.5t93.5 27.5q54 0 107 -27.5t93 -87.5l3 2q-6 80 -7 108l-259 135q-19 10 -28 22t-9 33q0 37 31 62q121 98 265 118v55h-365q-31 0 -31 31v2
q0 14 8 22.5t23 8.5h712q15 0 23 -8.5zM242 414.5q-56 -26.5 -105 -67.5l217 -111v215q-56 -10 -112 -36.5z" />
    <glyph glyph-name="paragraph" unicode="&#xb6;" horiz-adv-x="902" 
d="M929 633.5q8 -8.5 8 -22.5v-2q0 -31 -31 -31h-289v-179q35 7 65 7q89 0 135 -43.5t46 -115.5q0 -62 -27 -103t-78 -41q-32 0 -52.5 16t-20.5 46q0 27 16 42.5t43 15.5q24 0 42 -16q5 15 5 37q0 44 -28 67t-75 23q-27 0 -71 -8v-288q0 -41 -39 -41q-15 0 -28.5 7t-31.5 19
q-54 39 -113 68.5t-115 42.5q-27 -46 -79 -46q-28 0 -46.5 14.5t-18.5 39.5q0 32 25.5 50t65.5 20v8q0 32 -21.5 60t-56.5 41q-22 -12 -52 -12t-49.5 13t-19.5 37q0 27 19.5 41t49.5 14q19 0 35 -6q13 20 13 48q0 53 -61 76q-23 9 -34.5 17.5t-11.5 28.5h-59q-31 0 -31 31v2
q0 14 8 22.5t23 8.5h917q15 0 23 -8.5zM540 252v58q-32 -4 -54 -4q-70 0 -116.5 34t-46.5 110v128h-171q74 -43 74 -126q0 -40 -17 -77q44 -25 72 -66t28 -93v-13q58 -12 123 -44t112 -69l4 2q-8 72 -8 160zM540 578h-140v-128q0 -41 22.5 -57t64.5 -16q25 0 53 5v196z" />
    <glyph glyph-name="periodcentered" unicode="&#xb7;" horiz-adv-x="910" 
d="M937.5 633.5q8.5 -8.5 8.5 -22.5v-2q0 -15 -8.5 -23t-22.5 -8h-91v-576q0 -45 -36 -45q-18 0 -26.5 10t-17.5 31q-10 23 -20 37.5t-33 25t-62 10.5q-44 0 -83 -4.5t-90 -12.5q-60 -10 -106.5 -15t-104.5 -5q-84 0 -141.5 37.5t-66.5 113.5q-5 46 38 46q18 0 24 -9t10 -24
q9 -52 44 -74t96 -22q51 0 109 7v57l-256 122q-39 20 -39 58q0 21 8 35t24 27q118 95 263 115v55h-369q-31 0 -31 31v2q0 14 8 22.5t23 8.5h926q14 0 22.5 -8.5zM748 578h-314v-51q68 -2 119.5 -28.5t80 -70.5t28.5 -97q0 -54 -24.5 -85t-68.5 -31q-29 0 -48 14.5t-19 41.5
q0 25 16 40.5t41 15.5q19 0 32 -9q1 4 1 14q0 52 -42.5 87t-115.5 38v-336q62 10 98 14.5t84 4.5q47 0 78.5 -12t53.5 -36v486zM358 246v205q-56 -10 -112 -36t-105 -67z" />
    <glyph glyph-name="cedilla" unicode="&#xb8;" horiz-adv-x="692" 
d="M624 263.5q18 -35.5 18 -80.5q0 -60 -28 -107.5t-86 -75t-144 -27.5q-120 0 -206 62t-127 169q-8 21 -8 32q0 16 12 26.5t29 10.5q23 0 36 -32q35 -96 104 -146t163 -50q89 0 135.5 39.5t46.5 101.5q0 52 -38 81q-19 -24 -54 -24q-28 0 -48.5 17.5t-20.5 48.5
q0 30 19 48.5t50 18.5q25 0 41 -13q19 17 31 44t12 57q0 35 -16.5 60t-44.5 38q-26 -45 -39 -66q-12 -19 -24.5 -27.5t-34.5 -8.5q-21 0 -33.5 7.5t-23.5 31.5q-39 81 -110 81q-38 0 -67 -20t-43 -55l4 -4q29 8 57 8q59 0 92.5 -33t33.5 -85q0 -42 -18.5 -78.5t-52.5 -62.5
q-13 -13 -29 -13t-27 11t-11 26q0 14 16 30q25 21 37.5 39.5t12.5 47.5q0 25 -15.5 39.5t-45.5 14.5q-24 0 -46 -6q-17 -5 -31 -5q-23 0 -37 14t-14 38t17 60q22 46 66 74t100 28q110 0 167 -114l21 34q26 41 31 48q17 26 34 26q28 0 62 -23q38 -25 61.5 -64t23.5 -89
q0 -38 -14.5 -75.5t-43.5 -67.5q30 -24 48 -59.5z" />
    <glyph glyph-name="uni00B9" unicode="&#xb9;" horiz-adv-x="555" 
d="M582 633.5q8 -8.5 8 -22.5v-2q0 -31 -31 -31h-90v-580q0 -17 -9.5 -27t-26.5 -10h-2q-18 0 -27.5 10t-9.5 27v154q0 67 -39.5 105.5t-103.5 38.5q-57 0 -91.5 -31t-34.5 -83q0 -41 20.5 -64.5t55.5 -31.5v5q0 25 16.5 41.5t41.5 16.5q26 0 43.5 -16.5t17.5 -42.5
q0 -34 -24.5 -54t-70.5 -20q-45 0 -84.5 19t-64 57t-24.5 92q0 49 20 86.5t56 60.5q-35 21 -55.5 57t-20.5 85q0 83 55 131.5t142 48.5q51 0 88.5 -17.5t56.5 -39.5v106q0 17 9.5 26.5t27.5 9.5h2q17 0 26.5 -9.5t9.5 -26.5v-60h90q15 0 23 -8.5zM394 307v131
q0 69 -39.5 108t-103.5 39q-57 0 -91.5 -31t-34.5 -82q0 -41 20.5 -65t55.5 -32v6q0 25 16.5 41t41.5 16q26 0 43.5 -16.5t17.5 -42.5q0 -14 -4 -25q51 -16 78 -47z" />
    <glyph glyph-name="ordmasculine" unicode="&#xba;" horiz-adv-x="866" 
d="M893.5 633.5q8.5 -8.5 8.5 -22.5v-2q0 -15 -8.5 -23t-22.5 -8h-379v-151q0 -39 -4 -143l4 -1q48 52 109.5 98.5t110.5 68.5q13 5 25 5q5 0 15 -2q23 -4 35.5 -20t12.5 -36q0 -14 -5 -39q-7 -36 -11 -78.5t-4 -120.5v-128q0 -17 -9.5 -27t-26.5 -10h-2q-17 0 -27 10
t-10 27v129q0 145 22 220q-80 -46 -213 -179q-14 -14 -26.5 -21t-28.5 -7q-20 0 -32 11.5t-12 31.5v169q0 89 -45 141.5t-118 52.5q-45 0 -80 -21t-54 -60l2 -2q27 9 55 9q65 0 99 -33.5t34 -89.5q0 -109 -126 -207q-15 -12 -29 -12q-15 0 -26.5 11t-11.5 26q0 16 16 29
q50 38 76 78t26 73q0 28 -16.5 42.5t-46.5 14.5q-21 0 -41 -5q-22 -4 -35 -4q-25 0 -41.5 16.5t-16.5 42.5q0 18 6 30q31 69 86.5 100.5t120.5 31.5q51 0 93.5 -19t72.5 -55v36q0 14 8 22.5t23 8.5h425q14 0 22.5 -8.5z" />
    <glyph glyph-name="guillemotright" unicode="&#xbb;" horiz-adv-x="749" 
d="M777 633.5q8 -8.5 8 -22.5v-2q0 -31 -31 -31h-277v-260q51 21 97 36q36 11 55 11q25 0 42 -16.5t17 -37.5q0 -11 -4 -43q-12 -74 -12 -189v-53q0 -17 -9.5 -27t-26.5 -10h-2q-17 0 -27 10t-10 27v53q0 135 18 210q-71 -25 -138 -53v-276q0 -42 -39 -42q-23 0 -59 17
l-228 104q-40 20 -40 57q0 43 35 63q137 74 257 127v96q0 94 -43 147t-117 53q-91 0 -131 -77l3 -4q26 9 52 9q65 0 97 -32t32 -85q0 -85 -76 -144q-13 -13 -28 -13t-26.5 10.5t-11.5 25.5q0 13 16 29q28 24 41 43.5t13 46.5q0 26 -16.5 40.5t-45.5 14.5q-19 0 -43 -6
q-22 -6 -35 -6q-21 0 -37.5 15.5t-16.5 39.5t16 52q32 58 83 84.5t111 26.5q50 0 92 -18t71 -51v119q0 17 10 26.5t26 9.5h2q17 0 26.5 -9.5t9.5 -26.5v-60h277q15 0 23 -8.5zM403 204q-106 -46 -217 -104l217 -99v203z" />
    <glyph glyph-name="onequarter" unicode="&#xbc;" horiz-adv-x="708" 
d="M735.5 633.5q8.5 -8.5 8.5 -22.5v-2q0 -15 -8.5 -23t-22.5 -8h-38q1 -8 1 -23q0 -62 -35.5 -101.5t-105.5 -39.5q-69 0 -110.5 42t-44.5 122h-253q27 -38 45 -82q29 10 64 10q56 0 98.5 -23t66 -63.5t23.5 -92.5v-22q68 -2 120 -28.5t81 -69.5t29 -96t-25 -86t-71 -33
q-29 0 -48.5 15t-19.5 42q0 26 16 41.5t42 15.5q18 0 35 -12q1 6 1 19q0 52 -44.5 85.5t-115.5 36.5v-263q0 -47 -42 -47q-22 0 -62 21l-227 119q-40 21 -40 57q0 39 35 65q122 95 261 114v26q0 53 -29.5 83t-81.5 30q-26 0 -47 -8q4 -19 4 -41q0 -40 -16.5 -61t-44.5 -21
q-27 0 -44.5 18t-17.5 49q0 59 49 95q-20 34 -40 58t-32.5 35.5t-16.5 13.5h-43q-31 0 -31 31v2q0 14 8 22.5t23 8.5h724q14 0 22.5 -8.5zM603 578h-150q2 -99 83 -99q37 0 53 22t16 55q0 8 -2 22zM349 13v216q-55 -9 -111.5 -35.5t-107.5 -68.5z" />
    <glyph glyph-name="onehalf" unicode="&#xbd;" horiz-adv-x="642" 
d="M670 633.5q8 -8.5 8 -22.5v-2q0 -31 -31 -31h-61l1 -23q0 -61 -35.5 -100.5t-107.5 -39.5q-69 0 -110 41.5t-44 121.5h-174q29 -43 43 -75q16 2 24 2q74 0 116 -56t42 -144v-10l141 81q20 11 38 11q23 0 39 -15t16 -38q0 -13 -7 -38t-11.5 -52.5t-4.5 -71.5
q0 -78 16 -153q1 -4 1 -12q0 -33 -36 -33q-27 0 -35 34q-18 83 -18 161q0 69 18 133l-171 -101q-17 -55 -53 -89t-95 -34q-39 0 -72.5 18t-55.5 51q-10 13 -10 26q0 14 11 24t26 10t28 -16q33 -42 72 -42q50 0 70 46t20 109q0 62 -21.5 96.5t-60.5 34.5h-4q3 -18 3 -35
q0 -40 -17 -61t-45 -21t-45.5 18.5t-17.5 53.5q0 28 11.5 52.5t33.5 39.5q-36 55 -59.5 75t-24.5 21h-32q-31 0 -31 31v2q0 14 8 22.5t23 8.5h658q15 0 23 -8.5zM513 578h-149q2 -98 81 -98q37 0 53.5 21.5t16.5 54.5q0 8 -2 22z" />
    <glyph glyph-name="threequarters" unicode="&#xbe;" horiz-adv-x="1131" 
d="M1158.5 633.5q8.5 -8.5 8.5 -22.5v-2q0 -15 -8.5 -23t-22.5 -8h-679q16 -49 74.5 -68.5t128.5 -19.5q30 0 49 -8.5t42 -29.5q36 -33 91 -51t117 -18q21 0 37 2q14 2 23 2q14 0 24.5 -3.5t20.5 -13.5q14 -15 14 -38q0 -16 -8 -38q-11 -35 -18 -77.5t-7 -122.5v-139
q0 -17 -9.5 -27t-26.5 -10h-2q-17 0 -26.5 10t-9.5 27v140q0 150 30 222l-42 -1q-70 0 -140 21t-114 63q-24 -30 -39.5 -63t-15.5 -59q0 -20 15 -30.5t42 -10.5q25 0 45 5t43 13q28 11 41 11q29 0 49 -41t20 -91q0 -79 -50 -129t-150 -50q-85 0 -152.5 44t-102.5 128
q-52 -34 -133 -34q-77 0 -138.5 37t-99.5 111.5t-44 184.5q-2 40 40 40q15 0 23.5 -8.5t9.5 -24.5q8 -144 66 -206.5t145 -62.5q65 0 98.5 31.5t33.5 85.5q0 29 -12 51q-25 -12 -56 -18t-61 -6q-63 0 -96 28t-33 83q0 43 19 84.5t44 74.5h-267q-31 0 -31 31v2q0 14 8 22.5
t23 8.5h1147q14 0 22.5 -8.5zM466.5 468q-74.5 39 -93.5 110h-22q-33 -33 -58.5 -77t-25.5 -78q0 -47 60 -47q26 0 46.5 5t44.5 13q25 10 38 10q29 0 48.5 -39.5t19.5 -92.5q0 -45 -18 -83q24 -84 77 -124t121 -40q64 0 96 31t32 81q0 30 -12 56q-54 -24 -114 -24
q-61 0 -96 27.5t-35 79.5q0 37 17 76.5t41 72.5q-92 4 -166.5 43z" />
    <glyph glyph-name="questiondown" unicode="&#xbf;" 
d="M-87 374q45 -41 45 -118v-377q0 -41 -37 -41q-23 0 -30.5 11.5t-11.5 35.5q-4 21 -10 34t-22 22.5t-48 9.5q-22 0 -46.5 -4t-31.5 -5q-22 -4 -47.5 -7.5t-49.5 -3.5q-68 0 -114.5 37t-54.5 111q-5 49 37 49q16 0 23.5 -9.5t12.5 -25.5q11 -48 34 -69t70 -21q25 0 51.5 4
t32.5 5q49 9 80 9q56 0 87 -30v266q0 43 -22.5 66.5t-64.5 23.5q-61 0 -99 -35t-38 -94q0 -26 10 -42.5t28 -21.5q-1 2 -1 8q0 24 15.5 39t41.5 15q27 0 43.5 -17t16.5 -44q0 -32 -23 -52t-65 -20q-61 0 -99.5 36t-38.5 100q0 61 27 105t75 67.5t108 23.5q71 0 116 -41z" />
    <glyph glyph-name="Agrave" unicode="&#xc0;" horiz-adv-x="968" 
d="M996 633.5q8 -8.5 8 -22.5v-2q0 -31 -31 -31h-90v-669q0 -48 -44 -48q-12 0 -26 5t-34 16l-121 61v-119q0 -41 -43 -41q-21 0 -59 18l-220 108q-19 10 -30 23.5t-11 34.5q0 42 38 62q143 79 253 116v74q0 145 30 225q-6 -1 -21 -1q-86 0 -149.5 34.5t-94.5 100.5h-15
q-31 -31 -53 -70.5t-22 -71.5q0 -46 58 -46q25 0 44.5 5t41.5 13q4 1 17.5 5.5t24.5 4.5q30 0 49.5 -38.5t19.5 -91.5q0 -78 -52 -127.5t-152 -49.5q-121 0 -196.5 83.5t-83.5 245.5q-3 40 39 40q15 0 23.5 -8.5t10.5 -24.5q8 -142 64 -204.5t143 -62.5q65 0 98 30.5
t33 85.5q0 30 -11 52q-25 -12 -56 -18t-61 -6q-62 0 -95.5 27.5t-33.5 82.5q0 67 57 144h-254q-31 0 -31 31v2q0 14 8 22.5t23 8.5h984q15 0 23 -8.5zM809 578h-375q22 -37 64.5 -52.5t93.5 -15.5q16 0 26.5 1t19.5 1q25 0 39.5 -15.5t14.5 -38.5q0 -13 -8 -39
q-11 -38 -18.5 -82.5t-7.5 -121.5v-193l151 -79v635zM586 -135v205q-128 -53 -213 -102z" />
    <glyph glyph-name="Aacute" unicode="&#xc1;" horiz-adv-x="913" 
d="M940.5 633.5q8.5 -8.5 8.5 -22.5v-2q0 -15 -8.5 -23t-22.5 -8h-477q2 -63 25.5 -106.5t68.5 -58.5q24 57 71.5 84t98.5 27q65 0 104 -34.5t39 -92.5q0 -73 -62 -110q32 -14 51 -44t19 -70q0 -61 -38 -97t-103 -36q-52 0 -94 21.5t-66 58.5q-23 -51 -73.5 -81t-130.5 -30
q-140 0 -220 100t-88 268q-1 21 8 34t30 13q33 0 35 -37q8 -152 71 -230t165 -78q82 0 121 42t39 106q0 39 -9 63q-25 -13 -65 -24.5t-90 -11.5q-75 0 -116.5 36t-41.5 99q0 48 23 98.5t56 90.5h-280q-31 0 -31 31v2q0 14 8 22.5t23 8.5h929q14 0 22.5 -8.5zM403.5 439.5
q-33.5 59.5 -35.5 138.5h-7q-39 -40 -68 -91.5t-29 -93.5q0 -71 89 -71q73 0 141 36q-57 22 -90.5 81.5zM610 413q-35 -46 -35 -127q0 -87 35.5 -134t97.5 -47q38 0 58 20.5t20 54.5q0 35 -22 54.5t-64 19.5q-19 0 -29 7t-10 25q0 17 10 24t29 7q41 0 59 21t18 54
q0 32 -20.5 49.5t-53.5 17.5q-58 0 -93 -46z" />
    <glyph glyph-name="Acircumflex" unicode="&#xc2;" horiz-adv-x="756" 
d="M680 292.5q20 -31.5 20 -74.5q0 -63 -37.5 -100t-101.5 -37q-42 0 -78 15.5t-61 42.5v-108q0 -17 -9.5 -27t-26.5 -10h-2q-17 0 -27 9t-10 26v52l-254 122q-34 15 -34 56q0 39 32 59q133 79 214 112q-32 50 -65.5 70.5t-69.5 20.5q-12 0 -24 -3q16 -14 16 -37
q0 -24 -15.5 -39.5t-41.5 -15.5q-29 0 -46.5 17.5t-17.5 46.5q0 48 36 74t88 26q59 0 108 -32t84 -88l3 1q-12 69 -12 142q0 17 9.5 26.5t26.5 9.5h2q17 0 26.5 -9.5t9.5 -26.5v-86q26 28 59 43t69 15q63 0 102.5 -35.5t39.5 -96.5q0 -36 -16 -65.5t-48 -49.5
q32 -14 52 -45.5zM607 169.5q20 21.5 20 55.5q0 37 -22.5 57.5t-64.5 20.5q-19 0 -29.5 7t-10.5 28q0 19 10.5 25.5t29.5 6.5q41 0 59.5 22t18.5 56q0 32 -20.5 51t-53.5 19q-57 0 -92.5 -48.5t-35.5 -132.5q0 -91 35.5 -140t97.5 -49q38 0 58 21.5zM347 159v211
q-78 -28 -215 -109z" />
    <glyph glyph-name="Atilde" unicode="&#xc3;" horiz-adv-x="691" 
d="M392.5 255.5q-48.5 48.5 -59.5 126.5q-23 -17 -53 -33q9 -52 40.5 -86.5t88.5 -75.5q37 -26 58 -44.5t35.5 -43.5t14.5 -56q0 -58 -46.5 -91.5t-125.5 -38.5v-4q11 -2 51 -12.5t92 -28.5l90 -30q14 -5 20.5 -12.5t6.5 -19.5q0 -16 -8 -27.5t-23 -11.5q-7 0 -18 3
l-431 145q-15 5 -23 13t-8 23q0 18 10.5 28t27.5 10q5 0 25 -4q78 -14 132 -14q153 0 153 74q0 32 -45 67q-76 -60 -163 -60t-135.5 40.5t-48.5 112.5q0 51 24 86.5t58 58t88 48.5q42 21 64.5 34.5t38 32.5t15.5 44q0 34 -31.5 55t-77.5 21q-32 0 -59 -11.5t-38 -34.5
q26 0 41.5 -15.5t15.5 -40.5q0 -23 -17 -38.5t-44 -15.5q-35 0 -54.5 22.5t-19.5 58.5q0 64 48.5 102t122.5 38q50 0 90 -18t62 -48q24 30 57.5 46t71.5 16q58 0 94.5 -31.5t36.5 -90.5q0 -64 -54 -95q29 -12 45.5 -37.5t16.5 -62.5q0 -53 -33.5 -87.5t-99.5 -34.5
q-71 0 -119.5 48.5zM426 539.5q-31 -40.5 -31 -111.5q0 -74 32.5 -115t83.5 -41q32 0 48 16.5t16 45.5q0 32 -19.5 46t-60.5 14q-17 0 -25 9t-8 24t8.5 24t24.5 9q38 0 55 16t17 47q0 27 -16.5 42t-47.5 15q-46 0 -77 -40.5zM261 227q-31 38 -42 91q-45 -24 -69.5 -49.5
t-24.5 -63.5q0 -41 28.5 -63t78.5 -22q59 0 108 34q-48 35 -79 73z" />
    <glyph glyph-name="Adieresis" unicode="&#xc4;" horiz-adv-x="751" 
d="M688.5 244q4.5 -8 4.5 -18q0 -12 -7 -38q-10 -34 -16 -75.5t-6 -114.5v-142q0 -17 -9.5 -27t-26.5 -10h-2q-17 0 -26.5 10t-9.5 27v142q0 154 29 220q-30 -14 -71 -14q-66 0 -114 44t-62 116l-29 -34q-39 -45 -58 -75t-19 -62q0 -55 68 -55q23 0 41 4.5t39 12.5
q28 11 42 11q32 0 51 -39t19 -90q0 -81 -53.5 -131t-152.5 -50q-120 0 -196 81.5t-84 240.5q-2 17 7.5 28t27.5 12q34 3 37 -31q8 -142 66 -201.5t143 -59.5q64 0 98 30.5t34 82.5q0 17 -3 29t-11 27q-25 -12 -54 -18.5t-55 -6.5q-70 0 -105 34t-35 90q0 53 27 96t78 98
q37 40 54.5 65.5t17.5 50.5q0 35 -28 54.5t-75 19.5q-38 0 -65 -13t-37 -36h3q26 0 41 -15.5t15 -38.5q0 -26 -17 -41.5t-44 -15.5q-34 0 -56 22t-22 62q0 67 52 105.5t126 38.5q51 0 91 -16.5t62 -47.5q24 30 58 46t72 16q57 0 94.5 -31.5t37.5 -90.5q0 -30 -13.5 -54.5
t-40.5 -40.5q27 -13 44 -38.5t17 -59.5q0 -35 -13 -61l3 -4q12 -12 16.5 -20zM596.5 286q16.5 16 16.5 45q0 61 -82 61q-16 0 -25 9t-9 23q0 15 9 24.5t25 9.5q74 0 74 61q0 27 -17 42.5t-48 15.5q-46 0 -77.5 -40.5t-31.5 -110.5q0 -74 32.5 -115t84.5 -41q32 0 48.5 16z
" />
    <glyph glyph-name="Aring" unicode="&#xc5;" horiz-adv-x="850" 
d="M781 221.5q-17 -31.5 -54 -47.5v-230q0 -46 -42 -46q-12 0 -24.5 4.5t-33.5 15.5l-122 64v-116q0 -44 -44 -44q-12 0 -26.5 5.5t-37.5 16.5l-217 108q-39 20 -39 58q0 41 34 60q115 65 242 110q-19 26 -64 26q-21 0 -69 -8q-4 -1 -30.5 -5t-55.5 -4q-63 0 -107.5 36
t-54.5 119q-1 4 -1 11q0 16 10 25.5t27 9.5q16 0 23 -8.5t11 -24.5q18 -98 102 -98q30 0 78 10q44 8 64 8q28 0 46.5 -7.5t35.5 -22.5v246q0 87 -79 87q-34 0 -64.5 -18.5t-48.5 -49.5t-18 -65q0 -20 7.5 -34.5t19.5 -20.5v9q2 22 16.5 35.5t38.5 13.5q26 0 42 -17t16 -42
q0 -32 -22 -51.5t-65 -19.5q-55 0 -89.5 33.5t-34.5 92.5q0 55 27 101t73.5 72.5t101.5 26.5q47 0 83 -20.5t54 -60.5q53 78 151 78q65 0 107 -34t42 -95q0 -69 -64 -109q72 -30 72 -114q0 -38 -17 -69.5zM544.5 534q-39.5 -43 -39.5 -129q0 -90 40.5 -135t102.5 -45
q38 0 58 20t20 53q0 34 -22 53.5t-66 19.5q-19 0 -30.5 7t-11.5 26q0 34 42 34q39 1 59.5 19.5t20.5 51.5q0 30 -20 49t-58 19q-56 0 -95.5 -43zM654 159h-5q-44 0 -81.5 16.5t-62.5 46.5v-160l149 -79v176zM433 -95v195h-1v11q-127 -50 -214 -101z" />
    <glyph glyph-name="AE" unicode="&#xc6;" horiz-adv-x="618" 
d="M645.5 633.5q8.5 -8.5 8.5 -22.5v-2q0 -15 -8.5 -23t-22.5 -8h-388v-341q0 -34 23 -48t64 -14q66 0 110.5 44t44.5 118q0 46 -16 68.5t-43 23.5q2 -10 2 -15q0 -24 -15 -39.5t-41 -15.5t-42 15t-16 43q0 35 29 56t71 21q63 0 103.5 -40t40.5 -118q0 -50 -18 -94
q16 -26 25 -59.5t9 -67.5q0 -102 -63 -162.5t-179 -60.5q-118 0 -194.5 66.5t-109.5 183.5q-3 15 -3 19q0 17 11.5 26t28.5 9q24 0 33 -29q29 -105 91 -155t144 -50q84 0 125.5 40.5t41.5 113.5q0 27 -9 52q-30 -30 -72.5 -46.5t-93.5 -16.5q-69 0 -114 33.5t-45 98.5v341
h-169q-31 0 -31 31v2q0 14 8 22.5t23 8.5h486q2 22 2 30q0 46 -20.5 66.5t-70.5 20.5q-25 0 -73 -2q-40 -3 -95 -3q-68 0 -104.5 31.5t-36.5 91.5q0 50 37 50q20 0 28.5 -9.5t9.5 -35.5q0 -35 22.5 -48t68.5 -13q26 0 78 2q56 2 88 2q70 0 106 -37.5t36 -108.5q0 -20 -3 -37
h75q14 0 22.5 -8.5z" />
    <glyph glyph-name="Ccedilla" unicode="&#xc7;" horiz-adv-x="1088" 
d="M1116 633.5q8 -8.5 8 -22.5v-2q0 -31 -31 -31h-327v-195q0 -24 10.5 -34.5t32.5 -10.5q24 0 47 11t52 31q21 14 33 20.5t22 6.5q36 0 59.5 -48.5t23.5 -104.5q0 -65 -26 -121.5t-82.5 -91.5t-142.5 -35q-90 0 -154.5 40.5t-95.5 108.5q-64 -86 -203 -86
q-145 0 -221.5 94.5t-80.5 258.5q0 18 10 28.5t29 10.5q16 0 25.5 -8.5t9.5 -24.5q5 -149 65.5 -219t162.5 -70q83 0 128 43t45 110q0 48 -16 71q-36 -28 -70.5 -45t-77.5 -17q-46 0 -75.5 25.5t-29.5 78.5v173h-257q-31 0 -31 31v2q0 14 8 22.5t23 8.5h1104q15 0 23 -8.5z
M722 293.5q-32 25.5 -32 81.5v203h-368v-165q0 -42 36 -42q25 0 45 10t47 28q22 15 35.5 22t27.5 7q35 0 54.5 -47t19.5 -99q0 -97 55 -157t152 -60q92 0 136.5 52.5t44.5 127.5q0 43 -20 77q-38 -29 -72 -46.5t-79 -17.5q-50 0 -82 25.5z" />
    <glyph glyph-name="Egrave" unicode="&#xc8;" horiz-adv-x="847" 
d="M875 633.5q8 -8.5 8 -22.5v-2q0 -31 -31 -31h-379v-437q0 -65 76 -65q54 0 94.5 29t62 76.5t21.5 100.5q0 50 -18.5 76t-48.5 27q2 -10 2 -15q0 -26 -16 -42t-42 -16q-28 0 -44.5 15.5t-16.5 44.5q0 38 29 59.5t73 21.5q42 0 77.5 -19.5t57 -58.5t21.5 -94
q0 -72 -29.5 -134.5t-86.5 -101t-136 -38.5q-68 0 -110.5 34t-42.5 100v284q0 70 -41 110.5t-107 40.5q-62 0 -98.5 -37t-36.5 -99q0 -47 21 -76.5t56 -38.5v7q0 26 17.5 42.5t42.5 16.5q26 0 43.5 -18t17.5 -44q0 -34 -25 -55t-66 -21q-50 0 -91.5 22t-66 64t-24.5 101
q0 64 27 110.5t74 70.5t104 24q53 0 93 -18.5t60 -43.5v29q0 30 29 30h293q3 21 3 44q0 46 -20.5 66.5t-71.5 20.5q-25 0 -75 -2q-43 -3 -99 -3q-68 0 -104.5 31.5t-36.5 91.5q0 51 37 51q20 0 28.5 -10t9.5 -36q0 -35 22.5 -47.5t68.5 -12.5q25 0 81 2q58 2 91 2
q71 0 106.5 -37.5t35.5 -109.5q0 -27 -4 -51h62q15 0 23 -8.5z" />
    <glyph glyph-name="Eacute" unicode="&#xc9;" horiz-adv-x="751" 
d="M779 633.5q8 -8.5 8 -22.5v-2q0 -31 -31 -31h-217l47 -75q65 -104 90 -163.5t25 -113.5q0 -98 -54.5 -159t-158.5 -61q-72 0 -123.5 31.5t-78 87.5t-26.5 127q0 29 7 39t23 14q48 10 67 47.5t19 86.5q0 67 -37.5 107t-105.5 40q-58 0 -91.5 -32t-33.5 -84
q0 -30 12.5 -51.5t35.5 -30.5q-1 3 -1 9q0 25 16.5 41t41.5 16q26 0 43.5 -17t17.5 -43q0 -35 -22.5 -55.5t-66.5 -20.5q-68 0 -109.5 42t-41.5 112q0 81 53 132t146 51q65 0 113.5 -28.5t74.5 -77t26 -108.5q0 -55 -25 -98q64 45 64 139q0 47 -22 84q-21 33 -29 47
q-43 74 -64 121.5t-21 86.5q0 59 34.5 91t88.5 32q49 0 49 -35q0 -13 -5 -21.5t-16 -9.5q-6 -1 -21 -1q-24 -1 -40 -16t-16 -44q0 -53 62 -153l14 -22h256q15 0 23 -8.5zM609.5 318.5q-18.5 44.5 -58.5 111.5l-9 14h-3q-6 -88 -55 -136.5t-147 -65.5v-11q0 -72 42 -114
t109 -42q68 0 104 42t36 109q0 48 -18.5 92.5z" />
    <glyph glyph-name="Ecircumflex" unicode="&#xca;" horiz-adv-x="771" 
d="M798 633.5q8 -8.5 8 -22.5v-2q0 -15 -8 -23t-22 -8h-305v-270q0 -22 9 -32t28 -10q23 0 42.5 11.5t43.5 32.5q18 15 30 22.5t23 7.5q26 0 46.5 -25.5t32 -63t11.5 -71.5q0 -61 -26.5 -112t-80.5 -82t-134 -31q-107 0 -177 56t-102 158q-6 14 -6 27q0 17 10 27.5t29 10.5
q14 0 21 -8.5t11 -23.5q47 -178 216 -178q57 0 94.5 23t55.5 58.5t18 73.5q0 52 -23 86q-34 -35 -66.5 -52.5t-74.5 -17.5q-49 0 -78 26.5t-29 79.5v144q-6 61 -46 96t-101 35t-98 -35.5t-37 -92.5q0 -46 20.5 -73t56.5 -36q-1 3 -1 9q0 26 17.5 42t42.5 16q26 0 43.5 -17.5
t17.5 -43.5q0 -34 -25 -55t-66 -21q-78 0 -129.5 47.5t-51.5 132.5q0 61 27 105t74 67.5t104 23.5q52 0 91.5 -18t60.5 -43v28q0 14 7.5 22t21.5 8h352q14 0 22 -8.5z" />
    <glyph glyph-name="Edieresis" unicode="&#xcb;" horiz-adv-x="598" 
d="M626 633.5q8 -8.5 8 -22.5v-2q0 -31 -31 -31h-614q-31 0 -31 31v2q0 14 8 22.5t23 8.5h614q15 0 23 -8.5zM544 184q16 -31 16 -76q0 -75 -51.5 -125.5t-153.5 -50.5q-95 0 -163 48.5t-105.5 135t-43.5 200.5q-1 17 8.5 30t30.5 13q34 0 35 -39q8 -159 72 -239t167 -80
q65 0 98.5 31t33.5 81q0 25 -10 45.5t-27 32.5q-22 -25 -56 -25q-29 0 -48.5 17t-19.5 46t18.5 47t49.5 18q29 0 46 -17q16 16 26.5 41t10.5 51q0 44 -31 69t-82 25q-39 0 -67 -17t-37 -47h1q25 0 41.5 -15t16.5 -39t-16 -40t-44 -16q-35 0 -54.5 24t-19.5 64q0 69 48 111
t127 42q86 0 137.5 -43.5t51.5 -116.5q0 -38 -14 -69t-38 -60q30 -26 46 -57z" />
    <glyph glyph-name="Igrave" unicode="&#xcc;" horiz-adv-x="808" 
d="M835 633.5q8 -8.5 8 -22.5v-2q0 -15 -8 -23t-22 -8h-91v-615q0 -17 -10 -27t-27 -10h-2q-18 0 -28.5 10t-10.5 27v56l-531 163q-31 10 -31 33q0 16 9 28t26 12q5 0 29 -4q57 -10 106 -10q121 0 181.5 51.5t60.5 144.5q0 39 -12 70t-33 50q-4 -7 -14 -26.5t-20 -36.5
q-11 -17 -23 -25.5t-32 -8.5t-33 10.5t-21 32.5q-14 40 -37.5 61t-63.5 21q-44 0 -67.5 -29.5t-23.5 -78.5q0 -33 12.5 -58t35.5 -35q0 25 17 41t41 16q26 0 43.5 -17t17.5 -45q0 -31 -23 -50.5t-65 -19.5q-43 0 -78 21t-55.5 59.5t-20.5 88.5q0 78 44 127t120 49
q55 0 96 -29t61 -82l37 72q10 18 18 25.5t19 7.5q27 0 59 -29t53.5 -77t21.5 -103q0 -90 -47 -160.5t-163 -94.5l286 -88v604q0 18 10.5 28t28.5 10h2q17 0 27 -10t10 -28v-58h91q14 0 22 -8.5z" />
    <glyph glyph-name="Iacute" unicode="&#xcd;" 
d="M-143 177.5q49 -52.5 49 -145.5q0 -98 -58 -159.5t-168 -61.5q-252 0 -273 336q-2 43 38 43q19 1 28 -9.5t9 -26.5q4 -130 52.5 -202.5t145.5 -72.5q72 0 112 41t40 114q0 63 -29 95.5t-77 32.5q-29 0 -49 -13t-27 -35q3 1 8 1q25 0 42 -16t17 -41q0 -26 -16 -42t-43 -16
q-40 0 -60.5 26.5t-20.5 66.5q0 64 41 100.5t106 36.5q84 0 133 -52.5z" />
    <glyph glyph-name="Icircumflex" unicode="&#xce;" horiz-adv-x="612" 
d="M639.5 633.5q8.5 -8.5 8.5 -22.5v-2q0 -15 -8.5 -23t-22.5 -8h-628q-31 0 -31 31v2q0 14 8 22.5t23 8.5h628q14 0 22.5 -8.5zM529 357v-361q0 -40 -36 -40q-23 0 -30.5 11.5t-11.5 34.5q-3 21 -9 34.5t-22.5 23t-48.5 9.5q-30 0 -75 -9q-21 -4 -45.5 -7.5t-47.5 -3.5
q-70 0 -117.5 39t-53.5 117q-5 49 37 49q28 0 35 -35q6 -52 31.5 -75t73.5 -23q26 0 52 4t31 5q47 9 78 9q53 0 83 -29v264q0 91 -88 91q-60 0 -98 -36t-38 -94q0 -26 10 -43.5t28 -22.5q-1 2 -1 8q0 24 15.5 39.5t40.5 15.5q27 0 44 -17.5t17 -44.5q0 -32 -23 -51.5
t-64 -19.5q-62 0 -100.5 35.5t-38.5 100.5q0 62 27.5 106.5t75 67.5t106.5 23q161 0 163 -175z" />
    <glyph glyph-name="Idieresis" unicode="&#xcf;" horiz-adv-x="749" 
d="M776 633.5q8 -8.5 8 -22.5v-2q0 -31 -31 -31h-600v-81q0 -86 -4 -134l5 -2q43 46 78.5 77t75.5 54q22 12 42 12q26 0 43.5 -19t17.5 -47v-73q0 -63 -6 -141l4 -2q90 96 172 141q22 11 44 11q25 0 41 -15.5t16 -40.5q0 -7 -4 -33q-6 -32 -9.5 -71t-3.5 -110v-91
q0 -17 -9.5 -27t-26.5 -10h-2q-17 0 -27 10t-10 27v92q0 128 16 188q-60 -39 -162 -142q-33 -33 -64 -33q-21 0 -33.5 12t-12.5 36v97q0 102 2 162q-64 -42 -149 -133q-19 -18 -33 -27t-32 -9q-22 0 -34 12.5t-12 36.5v273h-87q-31 0 -31 31v2q0 14 8 22.5t23 8.5h764
q15 0 23 -8.5z" />
    <glyph glyph-name="Eth" unicode="&#xd0;" horiz-adv-x="772" 
d="M800 633.5q8 -8.5 8 -22.5v-2q0 -31 -31 -31h-330v-187q0 -46 40 -46q21 0 41.5 10.5t49.5 30.5q24 16 36 22.5t23 6.5q42 0 66.5 -51.5t24.5 -116.5q0 -62 -28 -117t-88.5 -90t-152.5 -35q-109 0 -183.5 56.5t-108.5 150.5q-3 8 -3 17q0 16 11 25t28 9q12 0 19 -7
t13 -21q30 -77 87 -119t138 -42q64 0 108.5 25t66 65t21.5 83q0 27 -6.5 53t-18.5 43q-29 -27 -68.5 -47.5t-84.5 -20.5q-64 0 -86.5 38t-22.5 102v40q-5 60 -41.5 94.5t-96.5 34.5q-57 0 -89.5 -29t-32.5 -82q0 -40 19.5 -68t51.5 -38v5q0 25 16 40t42 15q27 0 43.5 -15.5
t16.5 -41.5q0 -32 -25.5 -52t-67.5 -20q-48 0 -86.5 21.5t-61 62t-22.5 93.5q0 80 51 128t139 48q46 0 86 -15.5t60 -41.5v19q1 14 9 21.5t22 7.5h375q15 0 23 -8.5z" />
    <glyph glyph-name="Ntilde" unicode="&#xd1;" horiz-adv-x="502" 
d="M78 286q-34 0 -34 34v2q0 16 9 25t25 9h346q16 0 25 -9t9 -25v-2q0 -34 -34 -34h-346z" />
    <glyph glyph-name="Ograve" unicode="&#xd2;" horiz-adv-x="455" 
d="M148 606q25 -2 40.5 -16t15.5 -40t-16.5 -43.5t-43.5 -17.5q-29 0 -49 21t-20 59q0 52 26 89.5t65 60.5q8 4 14 4q10 0 17 -8t7 -19q0 -10 -10 -17q-46 -32 -46 -73zM360.5 590q15.5 -14 15.5 -40t-16.5 -43.5t-44.5 -17.5q-29 0 -48.5 21t-19.5 59q0 52 26 89.5t65 60.5
q8 4 13 4q11 0 18 -8t7 -19q0 -9 -11 -17q-45 -32 -45 -73q25 -2 40.5 -16z" />
    <glyph glyph-name="Oacute" unicode="&#xd3;" horiz-adv-x="455" 
d="M188.5 703q19.5 -21 19.5 -60q0 -51 -26.5 -88.5t-64.5 -60.5q-5 -4 -14 -4q-10 0 -17 8t-7 19q0 9 11 16q45 35 45 73v1q-25 2 -40.5 15.5t-15.5 40.5q0 26 16.5 43.5t43.5 17.5q30 0 49.5 -21zM359.5 703q19.5 -21 19.5 -60q0 -51 -26 -89t-65 -60q-5 -4 -13 -4
q-11 0 -18 8t-7 19q0 8 11 16q45 33 45 73v1q-25 2 -40.5 16t-15.5 40t16.5 43.5t44.5 17.5q29 0 48.5 -21z" />
    <glyph glyph-name="Ocircumflex" unicode="&#xd4;" horiz-adv-x="237" 
d="M158.5 590q15.5 -14 15.5 -40t-16.5 -43.5t-43.5 -17.5q-29 0 -49 21t-20 59q0 52 26 89.5t65 60.5q8 4 14 4q10 0 17 -8t7 -19q0 -10 -10 -17q-46 -32 -46 -73q25 -2 40.5 -16z" />
    <glyph glyph-name="Otilde" unicode="&#xd5;" horiz-adv-x="283" 
d="M182.5 702q19.5 -21 19.5 -59q0 -52 -26 -89t-65 -61q-8 -4 -13 -4q-11 0 -18 8t-7 19q0 9 11 17q45 33 45 73v1q-25 2 -40.5 15.5t-15.5 39.5t16.5 43.5t44.5 17.5q29 0 48.5 -21z" />
    <glyph glyph-name="Odieresis" unicode="&#xd6;" 
d="M-94.5 -121.5q-8.5 -10.5 -28.5 -10.5q-22 0 -29 11.5t-11 36.5q-4 23 -10 37t-23.5 24t-50.5 10q-28 0 -84 -10q-24 -4 -50 -7.5t-50 -3.5q-73 0 -115.5 41.5t-52.5 118.5q-2 19 6 33.5t32 14.5q29 0 35 -34q7 -54 31 -78t72 -24q32 0 90 10t85 10q53 0 86 -30l1 136
q0 17 9.5 26.5t27.5 9.5q17 0 27.5 -10t10.5 -26v-255q0 -20 -8.5 -30.5z" />
    <glyph glyph-name="multiply" unicode="&#xd7;" horiz-adv-x="711" 
d="M738 633.5q8 -8.5 8 -22.5v-2q0 -31 -31 -31h-560v-49q0 -80 -4 -128l5 -3q34 21 82.5 44.5t95.5 42.5q12 4 28 9t28 5q26 0 42.5 -17t16.5 -43q0 -11 -4 -43q-6 -42 -7 -62q27 10 92 30q30 10 56 10q22 0 40.5 -17t18.5 -39q0 -11 -4 -43q-13 -71 -13 -189v-61
q0 -17 -9.5 -26.5t-25.5 -9.5h-2q-17 0 -27 9.5t-10 26.5v61q0 142 18 214q-49 -12 -137 -45v-15v-263q0 -41 -41 -41q-11 0 -23.5 4t-24.5 9l-227 111q-22 11 -32.5 25t-10.5 38q0 25 11.5 41.5t35.5 29.5q114 60 239 111q4 81 14 122q-74 -30 -185 -91q-21 -12 -35 -17.5
t-29 -5.5q-47 0 -47 44v221h-91q-31 0 -31 31v2q0 14 8 22.5t23 8.5h726q15 0 23 -8.5zM361 20v206q-117 -50 -215 -101z" />
    <glyph glyph-name="Oslash" unicode="&#xd8;" horiz-adv-x="508" 
d="M535 633.5q8 -8.5 8 -22.5v-2q0 -31 -31 -31h-358v-57q0 -32 -3 -116l-1 -21l2 -1q53 32 129 68t105 36q25 0 42.5 -15.5t17.5 -40.5q0 -15 -5 -38q-6 -32 -9.5 -66.5t-3.5 -98.5v-273q0 -41 -43 -41q-21 0 -57 16l-222 110q-20 9 -30.5 23.5t-10.5 38.5q0 44 38 67
q107 68 253 124q4 77 16 120q-78 -31 -192 -99q-17 -10 -29.5 -14.5t-29.5 -4.5q-46 0 -46 44v239h-86q-31 0 -31 31v2q0 14 8 22.5t23 8.5h523q15 0 23 -8.5zM355 215q-132 -55 -222 -111l222 -105v216z" />
    <glyph glyph-name="Ugrave" unicode="&#xd9;" horiz-adv-x="772" 
d="M799.5 633.5q8.5 -8.5 8.5 -22.5v-2q0 -15 -8.5 -23t-22.5 -8h-91v-547q0 -20 -8 -29t-25 -9t-29.5 9t-28.5 28q-35 42 -77 69.5t-83 33.5v-18q0 -32 -15.5 -52t-46.5 -20q-30 0 -48.5 18t-18.5 49q0 29 14 50t38 32q1 141 19 200q-81 -42 -197 -162q-14 -15 -28 -22.5
t-32 -7.5q-20 0 -32 11t-12 33v334h-87q-31 0 -31 31v2q0 14 8 22.5t23 8.5h788q14 0 22.5 -8.5zM610 265v313h-457v-126q0 -94 -4 -142l3 -1q47 51 103.5 91.5t107.5 63.5q11 3 21 3q6 0 18 -2q22 -4 35 -21t13 -38q0 -9 -4 -37q-5 -34 -8 -68.5t-4 -97.5q48 -5 96.5 -29.5
t85.5 -63.5l2 1q-8 85 -8 154z" />
    <glyph glyph-name="Uacute" unicode="&#xda;" horiz-adv-x="628" 
d="M656 633.5q8 -8.5 8 -22.5v-2q0 -31 -31 -31h-218l51 -78q66 -99 91.5 -160.5t25.5 -118.5q0 -97 -54.5 -157.5t-157.5 -60.5q-73 0 -124.5 31t-78 85.5t-26.5 123.5q0 51 37 57q78 9 125 43q-69 84 -146 84q-18 0 -29 -4q18 -16 18 -41t-16.5 -41t-43.5 -16
q-29 0 -47.5 18.5t-18.5 49.5q0 49 37.5 76t94.5 27q114 0 197 -98q18 36 18 80q0 26 -13 62q-5 7 -25 38h-341q-31 0 -31 31v2q0 14 8 22.5t23 8.5h302q-32 53 -46.5 85.5t-14.5 67.5q0 61 34 93t88 32q49 0 49 -35q0 -28 -21 -31q-4 -1 -9 -0.5t-12 -0.5q-24 0 -40 -15
t-16 -44q0 -31 13.5 -58t48.5 -81l8 -13h260q15 0 23 -8.5zM491.5 317q-18.5 44 -59.5 109l-8 14h-4q-6 -88 -55 -138t-146 -67v-9q0 -71 41.5 -112.5t109.5 -41.5q69 0 104.5 42.5t35.5 109.5q0 49 -18.5 93z" />
    <glyph glyph-name="Ucircumflex" unicode="&#xdb;" horiz-adv-x="824" 
d="M858 633.5q8 -8.5 8 -22.5v-2q0 -15 -8 -23t-22 -8h-384v-197q0 -22 9 -32.5t28 -10.5q25 0 46.5 11t49.5 32q21 15 33.5 22t24.5 7q29 0 49.5 -24.5t31 -61t10.5 -70.5q0 -65 -26 -121.5t-83 -91.5t-144 -35q-269 0 -310 286q-1 19 10 29t26 10q29 0 37 -36
q17 -106 74 -163t164 -57q90 0 134.5 52t44.5 129q0 49 -22 85q-33 -31 -70.5 -52t-84.5 -21q-74 0 -98 53q-57 56 -116.5 95.5t-110.5 39.5q-12 0 -30 -2q21 -18 21 -43q0 -26 -16.5 -42t-43.5 -16q-29 0 -48 18.5t-19 48.5q0 48 35.5 77t96.5 29q45 0 107 -27.5t114 -69.5
v149h-387q-15 0 -23.5 8t-8.5 23v2q0 14 8.5 22.5t23.5 8.5h847q14 0 22 -8.5z" />
    <glyph glyph-name="Udieresis" unicode="&#xdc;" horiz-adv-x="714" 
d="M741 633.5q8 -8.5 8 -22.5v-2q0 -31 -31 -31h-277v-214q64 23 107 36q27 6 40 6q6 0 18 -2q21 -3 33 -18t12 -33q0 -10 -4 -38q-12 -74 -12 -192v-49q0 -17 -9.5 -27t-26.5 -10h-2q-17 0 -28 10t-11 27v49q0 143 21 211q-52 -16 -138 -50v-281q0 -42 -40 -42
q-23 0 -59 18l-228 111q-40 20 -40 57q0 45 35 63q122 65 218 107q-57 95 -150 95q-20 0 -31 -4q16 -16 16 -39q0 -25 -17 -41t-43 -16q-29 0 -47.5 18t-18.5 48q0 50 38 76.5t99 26.5q54 0 105.5 -24.5t87.5 -79.5l5 2q-8 60 -8 142v57h-374q-31 0 -31 31v2q0 14 8 22.5
t23 8.5h729q15 0 23 -8.5zM365 45v208q-98 -41 -218 -103z" />
    <glyph glyph-name="Yacute" unicode="&#xdd;" horiz-adv-x="710" 
d="M737 633.5q8 -8.5 8 -22.5v-2q0 -31 -31 -31h-90v-547q0 -17 -9.5 -27t-26.5 -10h-2q-17 0 -28 10t-11 27v253q0 32 -12.5 49.5t-36.5 17.5q-28 0 -46 -22t-41 -67q-20 -39 -36 -63.5t-42.5 -42t-63.5 -17.5t-65.5 17t-53.5 51q-8 11 -8 26t10 25t25 10q10 0 17 -4.5
t15 -15.5q28 -39 60 -39q19 0 34 12t29 35q-51 73 -99 118.5t-101 45.5q-11 0 -20 -3q19 -16 19 -42q0 -25 -16 -41t-43 -16q-29 0 -48 19t-19 51q0 47 33 74.5t85 27.5q135 0 243 -169q8 16 13 24q-24 65 -60.5 110t-79.5 68q-21 13 -29.5 25t-8.5 30h-229q-31 0 -31 31v2
q0 14 8 22.5t23 8.5h742q15 0 23 -8.5zM547 578h-261q96 -66 144 -174q29 17 60 17q36 0 57 -21v178z" />
    <glyph glyph-name="Thorn" unicode="&#xde;" horiz-adv-x="941" 
d="M969 633.5q8 -8.5 8 -22.5v-2q0 -31 -31 -31h-378v-437q0 -65 76 -65q49 0 90 29.5t64.5 78t23.5 103.5q0 45 -18.5 70t-48.5 27q2 -8 2 -14q0 -26 -16 -42t-41 -16q-27 0 -44 15.5t-17 43.5q0 39 28 60.5t72 21.5q67 0 112 -44.5t45 -127.5q0 -69 -32.5 -132.5
t-90 -102.5t-129.5 -39q-68 0 -110.5 34t-42.5 100v300l-270 -218q-12 -10 -26 -10t-25 11t-11 25q0 16 18 32l73 58q-29 48 -59 65.5t-75 17.5q-9 0 -19 -1t-21 -1q-19 0 -30 12t-11 33q0 25 14 51q35 66 93 101.5t130 35.5q69 0 123 -33t92 -90l4 4v78q0 14 8 22t22 8h299
q3 21 3 44q0 46 -20 66.5t-71 20.5q-25 0 -69 -2q-41 -3 -97 -3q-69 0 -106 31.5t-37 91.5q0 51 37 51q19 0 28 -10t10 -36q0 -35 22 -47.5t68 -12.5q27 0 81 2t86 2q70 0 106 -38t36 -109q0 -21 -5 -51h54q15 0 23 -8.5zM227 463q41 -24 76 -80l131 105q-67 97 -161 97
q-51 0 -92 -27t-65 -72q6 1 18 1q52 0 93 -24z" />
    <glyph glyph-name="germandbls" unicode="&#xdf;" horiz-adv-x="705" 
d="M732.5 633.5q8.5 -8.5 8.5 -22.5v-2q0 -15 -8.5 -23t-22.5 -8h-149v-264q48 -22 75 -69.5t27 -113.5q0 -104 -60 -168t-171 -64t-183 67.5t-95 188.5q-2 12 -2 19q0 18 11 27.5t30 9.5q27 0 34 -34q16 -97 65.5 -153t139.5 -56q74 0 115.5 45t41.5 119q0 65 -31.5 97.5
t-78.5 32.5q-27 0 -49.5 -13.5t-31.5 -33.5q3 1 8 1q26 0 42 -16t16 -42t-16 -41.5t-43 -15.5q-38 0 -58 23.5t-20 65.5q0 65 43.5 103t107.5 38h9v123l-244 -191q-15 -11 -27 -11q-14 0 -25 11t-11 25q0 17 18 31l48 38q-26 41 -54.5 59t-66.5 18q-10 0 -21.5 -0.5
t-25.5 0.5q-16 2 -27.5 14t-11.5 31q0 25 18 57q36 61 91.5 93.5t123.5 32.5t121 -32.5t89 -89.5l5 4v156q0 18 9.5 28t26.5 10h2q17 0 26.5 -10t9.5 -28v-58h149q14 0 22.5 -8.5zM225 474.5q40 -23.5 75 -76.5l131 102q-64 94 -157 94q-52 0 -92.5 -26t-64.5 -71l19 1
q49 0 89 -23.5z" />
    <glyph glyph-name="agrave" unicode="&#xe0;" horiz-adv-x="583" 
d="M611 633.5q8 -8.5 8 -22.5v-2q0 -31 -31 -31h-90v-623q0 -17 -9.5 -27t-26.5 -10h-2q-17 0 -26.5 10t-9.5 27v142q0 89 -40 140.5t-119 51.5q-46 0 -81.5 -21t-53.5 -60l2 -2q29 8 56 8q61 0 96 -31t35 -83q0 -72 -56 -132q-17 -20 -35 -20q-15 0 -27.5 10.5t-12.5 25.5
q0 8 4 15t13 17q39 46 39 83q0 24 -15.5 37t-44.5 13q-16 0 -40 -4q-22 -4 -34 -4q-28 0 -43 15t-15 39q0 25 11 45q27 55 71 83.5t98 34.5q12 22 12 47q0 26 -15 39t-48 13q-12 0 -42 -5q-18 -5 -33 -5q-26 0 -40 14.5t-14 39.5q0 22 9 40q27 61 79.5 89.5t115.5 28.5
q115 0 168 -69v110q0 18 9.5 28t26.5 10h2q17 0 26.5 -10t9.5 -28v-58h90q15 0 23 -8.5zM424 397q0 91 -40 141.5t-121 50.5q-95 0 -132 -72l2 -2q24 7 55 7q61 0 96 -30t35 -84q0 -28 -10 -54q78 -14 115 -66v109z" />
    <glyph glyph-name="aacute" unicode="&#xe1;" horiz-adv-x="814" 
d="M841 633.5q8 -8.5 8 -22.5v-2q0 -31 -31 -31h-90v-541q0 -37 -35 -37q-18 0 -28.5 8.5t-28.5 30.5q-32 38 -68 63t-83 36v-16q0 -31 -15.5 -51.5t-46.5 -20.5t-49 18t-18 49q0 29 14 50t38 33v177q0 97 -43.5 149t-118.5 52q-46 0 -81 -20.5t-53 -59.5l2 -2q29 8 55 8
q64 0 98.5 -33.5t34.5 -88.5q0 -53 -34 -108t-93 -101q-14 -11 -29 -11t-26.5 11t-11.5 26q0 16 16 28q48 37 75.5 78t27.5 75q0 28 -16.5 42.5t-47.5 14.5q-17 0 -41 -6q-4 -1 -14 -3t-20 -2q-25 0 -42 16.5t-17 42.5q0 14 6 32q31 69 87 100.5t121 31.5q50 0 93.5 -18.5
t71.5 -51.5v121q0 18 10.5 28t27.5 10h2q17 0 27 -10t10 -28v-58h333q15 0 23 -8.5zM651 273v305h-166v-368q45 -6 92 -30.5t79 -59.5l4 2q-9 72 -9 151z" />
    <glyph glyph-name="acircumflex" unicode="&#xe2;" horiz-adv-x="819" 
d="M846.5 633.5q8.5 -8.5 8.5 -22.5v-2q0 -15 -8.5 -23t-22.5 -8h-452v-75q45 -43 116.5 -65.5t144.5 -22.5q27 0 46.5 1.5t28.5 1.5q18 0 28.5 -3t20.5 -14q12 -15 12 -35q0 -11 -3.5 -24.5t-4.5 -17.5q-11 -34 -17.5 -77.5t-6.5 -121.5v-179q0 -18 -9.5 -27.5t-26.5 -9.5
h-2q-37 0 -37 37v180q0 148 28 220q-12 -1 -51 -1q-64 0 -138 17.5t-129 56.5v-165q0 -22 7.5 -30.5t26.5 -8.5q23 0 40 6t38 17q3 1 13 6t19 7.5t16 2.5q29 0 46 -38t17 -82q0 -81 -51 -136t-159 -55q-116 0 -184 64t-86 174q-1 5 -1 15q0 37 38 37q16 0 23 -9t10 -25
q17 -96 67 -141t133 -45q71 0 104.5 34.5t33.5 88.5q0 13 -3 26t-6 18q-59 -32 -117 -32q-81 0 -98 70l-226 114q-35 17 -35 58q0 38 34 56q111 61 224 99v33h-307q-31 0 -31 31v2q0 14 8 22.5t23 8.5h835q14 0 22.5 -8.5zM296 471q-109 -43 -187 -82l187 -94v176z" />
    <glyph glyph-name="atilde" unicode="&#xe3;" horiz-adv-x="757" 
d="M785 633.5q8 -8.5 8 -22.5v-2q0 -31 -31 -31h-375v-152q0 -93 -4 -143l3 -1q49 53 107.5 97t108.5 68q18 6 30 6q6 0 16 -2q21 -4 34 -18t13 -34q0 -13 -5 -38q-15 -80 -15 -202v-128q0 -17 -9.5 -27t-26.5 -10h-2q-17 0 -27 10t-10 27v129q0 142 18 216
q-39 -23 -91.5 -66.5t-106.5 -100.5q-19 -19 -36.5 -29t-42.5 -10q-32 0 -73 22l-198 106q-36 19 -36 59q0 22 9.5 37t28.5 26q111 65 238 112v46h-321q-31 0 -31 31v2q0 14 8 22.5t23 8.5h773q15 0 23 -8.5zM310 251v204q-99 -36 -201 -97z" />
    <glyph glyph-name="adieresis" unicode="&#xe4;" horiz-adv-x="693" 
d="M721 633.5q8 -8.5 8 -22.5v-2q0 -31 -31 -31h-280v-239q108 43 145 43q31 0 48 -16.5t17 -44.5q0 -9 -4 -39q-12 -79 -12 -189v-47q0 -17 -9.5 -26.5t-26.5 -9.5h-2q-17 0 -26.5 9.5t-9.5 26.5v47q0 153 18 214q-50 -13 -138 -48v-281q0 -20 -11.5 -29.5t-29.5 -9.5
q-20 0 -52 14l-223 109q-23 11 -34.5 25t-11.5 38q0 25 11.5 41t35.5 28l88 45l-91 45q-44 21 -44 62q0 24 12 40t34 28q128 73 242 120v44h-355q-31 0 -31 31v2q0 14 8 22.5t23 8.5h709q15 0 23 -8.5zM344 309v148q-99 -43 -215 -110l144 -70q17 9 71 32zM344 229
q-109 -46 -217 -102l217 -106v208z" />
    <glyph glyph-name="aring" unicode="&#xe5;" horiz-adv-x="591" 
d="M619 633.5q8 -8.5 8 -22.5v-2q0 -31 -31 -31h-607q-31 0 -31 31v2q0 14 8 22.5t23 8.5h607q15 0 23 -8.5zM496 463.5q9 -11.5 9 -29.5v-403q0 -19 -8 -29.5t-27 -10.5q-23 0 -30.5 12t-11.5 37q-5 32 -18 48.5t-53 16.5q-28 0 -76 -10q-5 -1 -31.5 -6t-57.5 -5
q-67 0 -110.5 38.5t-54.5 113.5q-1 3 -1 10q0 17 8.5 28t29.5 11q16 0 24 -9.5t12 -26.5q8 -47 31 -69.5t67 -22.5q27 0 77 10q6 1 29 5t46 4q50 0 81 -31v201q-53 -62 -148 -62q-75 0 -122.5 40t-47.5 107q0 38 20.5 62t52.5 24q28 0 46 -17t18 -41t-16 -40t-42 -17
q9 -22 31.5 -35.5t58.5 -13.5q50 0 79.5 22t52.5 61q12 20 23 29.5t29 9.5q21 0 30 -11.5z" />
    <glyph glyph-name="ae" unicode="&#xe6;" horiz-adv-x="276" 
d="M303 633.5q8 -8.5 8 -22.5v-2q0 -31 -31 -31h-378q-31 0 -31 31v2q0 14 8 22.5t23 8.5h378q15 0 23 -8.5zM195.5 434.5q40.5 -44.5 40.5 -116.5q0 -80 -47 -128.5t-124 -48.5q-70 0 -120 38t-71 114l39 124q0 -99 36.5 -153.5t111.5 -54.5q49 0 75.5 30.5t26.5 81.5
q0 40 -19 65.5t-54 26.5q10 -13 10 -33q0 -25 -16 -42t-42 -17q-28 0 -45.5 18t-17.5 48q0 42 30 67t78 25q68 0 108.5 -44.5z" />
    <glyph glyph-name="ccedilla" unicode="&#xe7;" horiz-adv-x="978" 
d="M1005 633.5q8 -8.5 8 -22.5v-2q0 -15 -8 -23t-22 -8h-495q30 -34 30 -91q0 -34 -13 -61.5t-38 -45.5l23 -20q14 -12 21.5 -25t7.5 -31q0 -22 -8.5 -35.5t-25.5 -24.5l-100 -66l229 -107v365q0 36 26 48.5t66 12.5q105 0 167.5 -51t62.5 -143q0 -62 -28 -99t-76 -37
q-29 0 -49 15.5t-20 44.5q0 25 17 42t43 17q21 0 36 -12q4 13 4 36q0 52 -40.5 85t-110.5 33q-16 0 -24 -1v-393q0 -46 -43 -46q-21 0 -62 18l-246 115q-16 7 -25 19.5t-9 33.5q0 35 29 53l114 77l-62 49q-7 -1 -22 -1q-96 0 -190 45q-25 -30 -69 -30q-36 0 -56.5 16
t-20.5 42t20.5 43.5t56.5 17.5q11 0 25 -2q-2 26 -14 51t-30 43h-95q-31 0 -31 31v2q0 14 8 22.5t23 8.5h994q14 0 22 -8.5zM423 555.5q-21 22.5 -65 22.5h-188q27 -42 27 -98q0 -14 -1 -21q86 -39 157 -39q91 0 91 80q0 33 -21 55.5z" />
    <glyph glyph-name="egrave" unicode="&#xe8;" horiz-adv-x="541" 
d="M567 633.5q8 -8.5 8 -22.5v-2q0 -31 -31 -31h-90v-311q0 -17 -9.5 -27t-26.5 -10h-2q-18 0 -27.5 10t-9.5 27v139q0 179 -143 179q-59 0 -93 -33.5t-34 -91.5q0 -41 18.5 -68t51.5 -35v7q0 25 17 41t42 16t43 -16.5t18 -42.5q0 -34 -25 -54.5t-69 -20.5q-47 0 -86 21
t-61.5 60.5t-22.5 92.5q0 90 54.5 141t141.5 51q55 0 92.5 -18t55.5 -41v108q0 17 10 26.5t26 9.5h2q17 0 27 -9.5t10 -26.5v-60h90q15 0 23 -8.5z" />
    <glyph glyph-name="eacute" unicode="&#xe9;" horiz-adv-x="842" 
d="M870 633.5q8 -8.5 8 -22.5v-2q0 -31 -31 -31h-254v-342q68 -2 120 -28t80.5 -69.5t28.5 -96.5t-25 -85.5t-70 -32.5q-30 0 -49.5 14.5t-19.5 42.5q0 25 16 40.5t41 15.5q19 0 35 -11q1 5 1 18q0 52 -43.5 85.5t-114.5 36.5v-263q0 -48 -40 -48q-14 0 -29 5.5t-36 16.5
l-227 118q-37 19 -37 56q0 20 7 35t23 27q126 99 265 119v114q0 49 -18.5 76.5t-53.5 27.5q-63 0 -71 -95q-3 -17 -11 -26t-26 -9q-19 0 -27 9.5t-11 25.5q-12 95 -98 95q-43 0 -69.5 -28.5t-26.5 -80.5q0 -50 22.5 -77t57.5 -33q-1 4 -1 10q0 24 15.5 39.5t40.5 15.5
q26 0 43 -15.5t17 -41.5q0 -33 -27 -53t-71 -20q-48 0 -86.5 21.5t-61 61.5t-22.5 93q0 77 46 125.5t122 48.5q38 0 74 -16t59 -49q20 35 49.5 50t57.5 15q49 0 77 -30v92h-530q-31 0 -31 31v2q0 14 8 22.5t23 8.5h858q15 0 23 -8.5zM519 -56v216q-55 -10 -111.5 -36.5
t-106.5 -68.5z" />
    <glyph glyph-name="ecircumflex" unicode="&#xea;" horiz-adv-x="690" 
d="M717 633.5q8 -8.5 8 -22.5v-2q0 -15 -8 -23t-22 -8h-91v-727q0 -18 -9.5 -28t-27.5 -10h-2q-17 0 -26.5 10t-9.5 28v158q0 90 -44 141t-118 51q-46 0 -81 -21.5t-53 -61.5l1 -2q29 9 58 9q60 0 95.5 -30.5t35.5 -81.5q0 -76 -73 -153q-9 -9 -17 -14t-18 -5q-15 0 -27 11
t-12 25q0 16 17 33q55 55 55 101q0 24 -17 37t-46 13q-12 0 -42 -5q-17 -5 -32 -5q-27 0 -43.5 14.5t-16.5 38.5q0 22 8 40q5 13 14 27q-57 12 -94 56.5t-37 110.5q0 81 45.5 129t123.5 48q38 0 73.5 -16.5t57.5 -49.5q20 34 50 50t58 16q46 0 79 -31v94h-540q-31 0 -31 31
v2q0 14 8 22.5t23 8.5h706q14 0 22 -8.5zM529 333q0 112 -72 112q-63 0 -72 -92q-5 -32 -39 -32t-39 32q-5 45 -30 68.5t-66 23.5q-43 0 -69 -27t-26 -80q0 -50 28.5 -76.5t66.5 -26.5q18 0 30 4q54 32 123 32q52 0 94.5 -20.5t70.5 -59.5v142z" />
    <glyph glyph-name="edieresis" unicode="&#xeb;" horiz-adv-x="990" 
d="M1017 633.5q8 -8.5 8 -22.5v-2q0 -15 -8 -23t-22 -8h-378v-436q0 -65 76 -65q54 0 94 29t61.5 76t21.5 100q0 50 -19 76t-48 26q2 -8 2 -14q0 -26 -16 -42t-42 -16q-27 0 -44.5 16t-17.5 44q0 38 29.5 59.5t73.5 21.5q42 0 77.5 -19.5t57 -58.5t21.5 -94
q0 -72 -29.5 -134.5t-86 -101t-135.5 -38.5q-68 0 -111 34t-43 100v168q0 53 -19 82t-54 29q-64 0 -72 -97q-3 -17 -11 -26.5t-26 -9.5q-33 0 -39 36q-5 48 -31.5 72.5t-68.5 24.5q-43 0 -70 -28.5t-27 -83.5q0 -53 22.5 -81t58.5 -34q-1 4 -1 11q0 25 16.5 41t41.5 16
q26 0 44 -17t18 -43q0 -34 -28 -54.5t-74 -20.5q-49 0 -88.5 22.5t-62.5 64t-23 95.5q0 80 47 130t125 50q39 0 75.5 -16t59.5 -49q20 35 50 50t58 15q47 0 79 -30v120h-550q-31 0 -31 31v2q0 14 8 22.5t23 8.5h871q4 28 4 44q0 46 -20.5 66.5t-71.5 20.5q-25 0 -73 -2
q-40 -3 -95 -3q-68 0 -104.5 31.5t-36.5 91.5q0 51 37 51q19 0 28 -10t10 -36q0 -35 22.5 -47.5t68.5 -12.5q24 0 78 2q56 2 89 2q69 0 105 -37.5t36 -109.5q0 -27 -4 -51h62q14 0 22 -8.5z" />
    <glyph glyph-name="igrave" unicode="&#xec;" horiz-adv-x="928" 
d="M956 633.5q8 -8.5 8 -22.5v-2q0 -31 -31 -31h-329v-194q0 -46 38 -46q24 0 45 10.5t52 31.5q36 27 53 27q45 0 68.5 -48t23.5 -105q0 -66 -26 -122.5t-82.5 -91.5t-142.5 -35q-190 0 -269 170q-7 11 -7 23q0 15 11 25t27 10q20 0 32 -24q30 -68 81 -101t126 -33
q90 0 134.5 52.5t44.5 127.5q0 48 -21 85q-77 -72 -154 -72q-48 0 -79 26.5t-31 77.5v9q-4 35 -22.5 52.5t-47.5 17.5q-66 0 -73 -101q-1 -16 -10 -25.5t-27 -9.5q-34 0 -38 35q-4 46 -30 73.5t-69 27.5t-69.5 -28t-26.5 -83q0 -52 22.5 -80t57.5 -34q-1 4 -1 12
q0 25 15.5 40.5t40.5 15.5q26 0 43.5 -16.5t17.5 -42.5q0 -34 -27.5 -54t-73.5 -20q-74 0 -121.5 49t-47.5 130q0 79 46 128.5t123 49.5q38 0 74 -16t59 -49q20 35 50 50t57 15q46 0 78 -30v90h-539q-31 0 -31 31v2q0 14 8 22.5t23 8.5h944q15 0 23 -8.5z" />
    <glyph glyph-name="iacute" unicode="&#xed;" horiz-adv-x="699" 
d="M726 633.5q8 -8.5 8 -22.5v-2q0 -15 -8 -23t-22 -8h-91v-705q0 -17 -9.5 -26.5t-26.5 -9.5h-2q-16 0 -26 9.5t-10 26.5v192l-263 -188q-10 -7 -23 -7q-15 0 -25.5 10.5t-10.5 25.5q0 16 14 26l64 47q-28 38 -60 50t-84 12q-27 0 -43.5 13t-16.5 38q0 16 12 42
q16 31 46 59q-45 18 -71.5 56.5t-26.5 93.5q0 79 45.5 125.5t121.5 46.5q41 0 77.5 -16.5t57.5 -49.5q20 34 50 50t58 16q45 0 78 -31v94h-550q-31 0 -31 31v2q0 14 8 22.5t23 8.5h715q14 0 22 -8.5zM247 248q39 11 77 11q65 0 118.5 -27.5t91.5 -79.5l5 3v187
q0 52 -19.5 77.5t-53.5 25.5q-29 0 -46.5 -21t-22.5 -68q-4 -35 -38 -35t-40 36q-7 45 -32.5 66.5t-64.5 21.5q-43 0 -69.5 -26t-26.5 -76q0 -47 27 -72.5t62 -25.5q19 0 32 3zM277 83q39 -20 73 -65l129 94q-32 40 -70 59.5t-86 19.5q-51 0 -91 -23t-61 -64h13
q54 -1 93 -21z" />
    <glyph glyph-name="icircumflex" unicode="&#xee;" horiz-adv-x="1101" 
d="M1128.5 633.5q8.5 -8.5 8.5 -22.5v-2q0 -15 -8.5 -23t-22.5 -8h-543v-109q0 -33 11 -57.5t40 -53.5q27 -29 27 -56q0 -22 -8 -34.5t-24 -23.5l-100 -67l228 -106v365q0 36 26 48.5t66 12.5q105 0 167.5 -51t62.5 -143q0 -62 -28 -99t-76 -37q-29 0 -49 15.5t-20 44.5
q0 25 17 42t43 17q21 0 36 -12q4 13 4 36q0 52 -40.5 85t-110.5 33q-16 0 -24 -1v-394q0 -22 -11 -34t-32 -12q-19 0 -63 19l-246 116q-18 8 -26 19.5t-8 32.5q0 35 31 54l112 75q-30 27 -46.5 49t-24.5 46q-13 29 -25.5 40.5t-34.5 11.5q-30 0 -44 -23t-18 -71
q-6 -36 -36 -36q-19 0 -27 9.5t-11 26.5q-6 47 -32.5 70.5t-66.5 23.5q-42 0 -66.5 -29.5t-24.5 -85.5q0 -48 21 -75.5t57 -32.5q-1 3 -1 9q0 24 16 40t40 16q27 0 43.5 -17t16.5 -43q0 -35 -25.5 -54t-71.5 -19q-75 0 -122 49t-47 127q0 80 43.5 130.5t119.5 50.5
q38 0 73.5 -16.5t58.5 -49.5q17 36 42.5 51t51.5 15q39 0 61 -24v86h-499q-31 0 -31 31v2q0 14 8 22.5t23 8.5h1117q14 0 22.5 -8.5z" />
    <glyph glyph-name="idieresis" unicode="&#xef;" horiz-adv-x="701" 
d="M661 181q0 -54 -26.5 -101t-82.5 -75.5t-141 -28.5q-120 0 -208.5 60.5t-127.5 165.5q-9 18 -9 31q0 16 12.5 27t29.5 11q13 0 21 -8.5t15 -24.5q35 -91 104.5 -142t162.5 -51q59 0 98.5 20t59 52t19.5 70q0 52 -38 81q-19 -25 -54 -25q-29 0 -49 17.5t-20 48.5
q0 30 19 48.5t50 18.5q24 0 42 -13q18 17 30 44.5t12 56.5q0 34 -15 58.5t-41 37.5q-14 -35 -32 -68q-12 -22 -22.5 -30.5t-26.5 -8.5q-17 0 -27.5 8t-16.5 28q-11 42 -31.5 65.5t-45.5 23.5q-19 0 -33.5 -13.5t-29.5 -44.5q45 -37 72.5 -80t27.5 -73q0 -19 -11.5 -30.5
t-27.5 -11.5q-65 0 -123 138h-4q-57 -138 -120 -138q-17 0 -27.5 11t-10.5 31q0 32 27 75.5t72 79.5q-16 31 -40.5 43.5t-69.5 12.5h-35q-31 0 -31 31v2q0 14 8 22.5t23 8.5h35q65 0 103 -18t69 -74q27 51 57.5 74t69.5 23t69 -25t50 -69q10 16 30 59q8 17 15 23.5t18 6.5
q24 0 65 -24q38 -24 60.5 -63.5t22.5 -88.5q0 -37 -15 -75t-43 -68q66 -54 66 -142z" />
    <glyph glyph-name="eth" unicode="&#xf0;" horiz-adv-x="842" 
d="M869 633.5q8 -8.5 8 -22.5v-2q0 -15 -8 -23t-22 -8h-344q0 -42 16.5 -70t63.5 -45l97 -34q49 -17 74.5 -37.5t34 -44t8.5 -57.5q0 -60 -32.5 -124t-88 -106.5t-121.5 -42.5q-55 0 -89.5 29.5t-34.5 88.5v443h-61q-35 0 -66 -19.5t-49 -51.5q46 -36 75.5 -83.5t29.5 -79.5
q0 -19 -11 -30.5t-28 -11.5q-33 0 -66.5 41t-60.5 107h-5q-26 -66 -59 -107t-67 -41q-17 0 -28 11.5t-11 30.5q0 32 30.5 80.5t76.5 84.5q-18 33 -43 51t-67 18h-32q-31 0 -31 31v2q0 14 8 22.5t23 8.5h32q60 0 100.5 -24t71.5 -82q55 106 177 106h477q14 0 22 -8.5z
M507 428v-287q0 -30 12.5 -43t39.5 -13q39 0 77 32.5t62 80.5t24 91q0 26 -11.5 42.5t-41.5 27.5l-97 33q-47 17 -65 36z" />
    <glyph glyph-name="ntilde" unicode="&#xf1;" horiz-adv-x="924" 
d="M951.5 633.5q8.5 -8.5 8.5 -22.5v-2q0 -15 -8.5 -23t-22.5 -8h-427q4 -29 26.5 -45.5t78.5 -34.5q44 -15 62 -26q26 4 42 4q78 0 122 -44.5t44 -127.5q0 -105 -72 -166t-208 -64v-4q10 -3 43.5 -14t65.5 -26l130 -58q25 -12 25 -31q0 -16 -8.5 -27.5t-23.5 -11.5
q-13 0 -23 5l-349 156q-24 11 -24 34q0 20 11 32t27 12q8 0 24 -2q26 -4 67 -4q105 0 172.5 40t67.5 128q0 54 -24.5 78.5t-64.5 25.5q1 -4 1 -14q0 -36 -21.5 -78t-62.5 -71.5t-97 -29.5q-46 0 -75.5 25t-29.5 77v262h-58q-35 0 -66 -19.5t-49 -51.5q46 -36 75.5 -83.5
t29.5 -79.5q0 -19 -11 -30.5t-28 -11.5q-33 0 -66.5 41t-60.5 107h-5q-26 -66 -59 -107t-67 -41q-17 0 -28 11.5t-11 30.5q0 32 30.5 80t76.5 84q-17 34 -42 52t-68 18h-32q-31 0 -31 31v2q0 14 8 22.5t23 8.5h32q61 0 100.5 -23.5t71.5 -82.5q57 106 177 106h559
q14 0 22.5 -8.5zM502 318q0 -19 8 -27.5t27 -8.5q28 0 52 18t38 43.5t14 45.5q0 19 -14.5 28.5t-52.5 23.5q-53 20 -72 40v-163z" />
    <glyph glyph-name="ograve" unicode="&#xf2;" horiz-adv-x="802" 
d="M732.5 332.5q22.5 -34.5 22.5 -77.5q0 -65 -40 -104.5t-106 -39.5q-48 0 -87 18.5t-65 51.5v-151q0 -17 -9.5 -26.5t-26.5 -9.5h-2q-16 0 -26 10t-10 26v55l-289 135q-32 15 -32 52q0 19 6.5 33t20.5 26l118 95l-123 91q-16 11 -23.5 25t-7.5 34v2h-64q-31 0 -31 31v2
q0 14 8 22.5t23 8.5h437q31 0 31 -31v-38q27 33 64 50.5t77 17.5q66 0 107 -37t41 -102q0 -37 -17.5 -69.5t-51.5 -53.5q33 -12 55.5 -46.5zM115 578l70 -50l198 -143v193h-268zM659.5 202.5q20.5 23.5 20.5 59.5q0 39 -24 60.5t-68 21.5q-41 0 -41 37q0 19 11 26.5t30 7.5
q43 0 63 23.5t20 58.5t-21 55.5t-58 20.5q-59 0 -96 -52t-37 -141q0 -95 37.5 -148t101.5 -53q41 0 61.5 23.5zM383 160v141l-115 83l-131 -106z" />
    <glyph glyph-name="oacute" unicode="&#xf3;" horiz-adv-x="534" 
d="M561 633.5q8 -8.5 8 -22.5v-2q0 -15 -8 -23t-22 -8h-114q45 -48 45 -122q0 -54 -22.5 -94t-62.5 -63q-29 -17 -91 -38q-55 -20 -87 -35.5t-55 -42t-23 -65.5q0 -52 43 -76.5t107 -24.5q72 0 106.5 26.5t34.5 70.5q0 5 -2 13q-14 -25 -46 -25q-26 0 -43.5 15t-17.5 43
q0 31 21 48.5t54 17.5q45 0 75 -32t30 -82q0 -76 -55 -121t-157 -45q-100 0 -163 45t-63 125q0 115 127 169q-52 20 -83 63.5t-31 107.5q0 73 44 122h-121q-31 0 -31 31v2q0 14 8 22.5t23 8.5h416q3 20 3 38q0 46 -20.5 66.5t-70.5 20.5q-31 0 -60 -3q-42 -4 -83 -4
q-69 0 -105 31t-36 92q0 50 37 50q19 0 28 -10t9 -35q1 -36 22.5 -48.5t67.5 -12.5q37 0 70 3q10 0 31.5 1.5t41.5 1.5q70 0 105.5 -37.5t35.5 -109.5q0 -11 -3 -44h61q14 0 22 -8.5zM396 456q0 53 -36 89t-93 36q-48 0 -81 -27l198 -156q12 26 12 58zM175 365.5
q35 -33.5 92 -33.5q48 0 80 23l-196 153q-11 -25 -11 -52q0 -57 35 -90.5z" />
    <glyph glyph-name="ocircumflex" unicode="&#xf4;" horiz-adv-x="626" 
d="M654 633.5q8 -8.5 8 -22.5v-2q0 -31 -31 -31h-239l63 -77q69 -84 94.5 -147.5t25.5 -127.5q0 -97 -54.5 -158t-157.5 -61q-109 0 -169 67.5t-60 177.5q0 22 1 33q-44 23 -70 67.5t-26 102.5q0 75 46 123h-96q-31 0 -31 31v2q0 14 8 22.5t23 8.5h265q-29 42 -41 78.5
t-12 74.5q0 61 34 93t88 32q50 0 50 -35q0 -28 -21 -31q-4 -1 -9 -0.5t-13 -0.5q-24 0 -40 -15t-16 -44q0 -35 17 -74t48 -78h292q15 0 23 -8.5zM151 551l196 -155q12 26 12 59q0 53 -35 90t-90 37q-49 0 -83 -31zM110 455q0 -58 34.5 -93.5t89.5 -35.5q46 0 77 25l-192 153
q-9 -22 -9 -49zM424 429l-2 3h-4q-6 -90 -59.5 -131t-135.5 -41h-11q-1 -7 -1 -30q0 -71 42 -112.5t110 -41.5t103.5 41.5t35.5 108.5q0 107 -78 203z" />
    <glyph glyph-name="otilde" unicode="&#xf5;" horiz-adv-x="942" 
d="M970 633.5q8 -8.5 8 -22.5v-2q0 -31 -31 -31h-615l-18 2q38 -21 58.5 -53t20.5 -72q0 -22 -8 -51q-3 -12 -9 -24l77 -67q14 -12 22 -25t8 -31q0 -25 -8 -36.5t-26 -23.5l-99 -67l228 -106v408q0 61 92 61q105 0 168 -51t63 -143q0 -62 -28 -99t-76 -37q-29 0 -49 15.5
t-20 44.5q0 25 17 42t43 17q21 0 36 -12q4 13 4 36q0 52 -40.5 85t-110.5 33q-16 0 -24 -1v-436q0 -22 -11 -34t-32 -12q-22 0 -62 18l-247 115q-35 17 -35 53q0 34 31 53l114 77l-81 67q-39 -27 -89 -27q-30 0 -59 10q-53 18 -82 53.5t-29 84.5q0 25 7 50q14 52 55 83h-144
q-31 0 -31 31v2q0 14 8 22.5t23 8.5h958q15 0 23 -8.5zM342 453q0 43 -31.5 75t-82.5 32q-30 0 -57 -17l161 -136q3 7 7 23q3 12 3 23zM236 344q34 0 59 18l-162 136q-6 -16 -8 -24q-3 -13 -3 -25q0 -38 23.5 -65.5t63.5 -36.5q14 -3 27 -3z" />
    <glyph glyph-name="odieresis" unicode="&#xf6;" horiz-adv-x="807" 
d="M834 633.5q8 -8.5 8 -22.5v-2q0 -31 -31 -31h-90v-616q0 -25 -12 -36.5t-37 -11.5q-21 0 -65 14l-376 128q-29 10 -29 33q0 6 1 10q6 31 33 31q8 0 32 -6q3 -1 24.5 -5.5t50.5 -4.5q80 0 117 32.5t37 87.5q0 36 -18 68q-18 -56 -64 -96.5t-118 -40.5q-66 0 -103 29
t-37 76q0 30 16 47.5t44 17.5q26 0 41.5 -15.5t15.5 -38.5q0 -28 -21 -44q19 -7 42 -7q49 0 81.5 35.5t47.5 83.5h-5q-51 0 -88.5 22t-59.5 62q-35 -69 -114 -69q-42 0 -74.5 23t-49.5 61q-5 9 -5 21q0 23 21 27q5 4 13 4q11 0 22 -11q3 -5 15 -22.5t26 -26t32 -8.5
q43 0 58.5 41t17.5 105h-244q-31 0 -31 31v2q0 14 8 22.5t23 8.5h579q15 0 23 -8.5t8 -22.5v-2q0 -31 -31 -31h-30q28 -33 28 -88q0 -35 -12.5 -64t-37.5 -49q23 -29 37.5 -67t14.5 -82q0 -56 -30.5 -101t-101.5 -61v-4l211 -72v710q0 38 36 38h2q17 0 26.5 -10t9.5 -28v-58
h90q15 0 23 -8.5zM473.5 439q17.5 23 17.5 60q0 35 -18 57t-59 22h-113q4 -75 33 -118.5t84 -43.5q38 0 55.5 23z" />
    <glyph glyph-name="divide" unicode="&#xf7;" horiz-adv-x="861" 
d="M888 633.5q8 -8.5 8 -22.5v-2q0 -31 -31 -31h-359v-440q0 -66 76 -66q55 0 95.5 29t61.5 76.5t21 100.5q0 50 -19 75.5t-49 26.5q2 -10 2 -15q0 -25 -15.5 -41t-42.5 -16t-44 16t-17 44q0 37 29.5 59t72.5 22q42 0 78 -19.5t57.5 -59t21.5 -95.5q0 -71 -29.5 -133
t-87 -100.5t-137.5 -38.5q-67 0 -109 35t-42 99v173q-4 23 -17 35.5t-33 12.5q-28 0 -45.5 -21.5t-39.5 -65.5q-21 -40 -37 -64t-42.5 -41.5t-64.5 -17.5q-37 0 -65.5 16.5t-52.5 50.5q-8 13 -8 26q0 15 10 25t24 10q10 0 17.5 -4.5t15.5 -14.5q27 -40 59 -40q24 0 41 20.5
t40 64.5q3 6 11 21t15 26q-23 63 -59.5 107t-78.5 67q-22 13 -30 24.5t-8 30.5h-92q-31 0 -31 31v2q0 14 8 22.5t23 8.5h742q4 28 4 44q0 46 -20.5 66.5t-71.5 20.5q-27 0 -41 -2q-13 -3 -57 -3q-68 0 -104.5 31.5t-36.5 91.5q0 51 37 51q19 0 28 -10t10 -36
q0 -35 22.5 -47.5t68.5 -12.5q26 0 44 2q20 2 52 2q71 0 106.5 -37.5t35.5 -109.5q0 -27 -4 -51h61q15 0 23 -8.5zM431 578h-265q93 -63 143 -170q27 19 63 19q38 0 59 -21v172z" />
    <glyph glyph-name="oslash" unicode="&#xf8;" 
d="M-86 122v-444q0 -17 -10 -27t-27 -10h-2q-17 0 -27 10t-10 27v167q-4 44 -19.5 66.5t-40.5 22.5q-28 0 -45.5 -25.5t-21.5 -72.5q-2 -33 -37 -33q-32 0 -38 33q-14 98 -82 98q-39 0 -62 -30t-23 -79q0 -46 16 -73t44 -34q-1 3 -1 10q0 25 16 40t40 15q26 0 42.5 -16.5
t16.5 -42.5q0 -33 -25.5 -52.5t-65.5 -19.5q-72 0 -114 48t-42 125q0 78 42 128t112 50q36 0 70 -17t50 -45q16 30 43.5 46t54.5 16q44 0 70 -26v145h76z" />
    <glyph glyph-name="ugrave" unicode="&#xf9;" horiz-adv-x="978" 
d="M1005 633.5q8 -8.5 8 -22.5v-2q0 -15 -8 -23t-22 -8h-495q30 -34 30 -91q0 -34 -13 -61.5t-38 -45.5l23 -20q14 -12 21.5 -25t7.5 -31q0 -22 -8.5 -35.5t-25.5 -24.5l-100 -66l229 -107v365q0 36 26 48.5t66 12.5q105 0 167.5 -51t62.5 -143q0 -62 -28 -99t-76 -37
q-29 0 -49 15.5t-20 44.5q0 25 17 42t43 17q21 0 36 -12q4 13 4 36q0 52 -40.5 85t-110.5 33q-16 0 -24 -1v-393q0 -46 -43 -46q-21 0 -62 18l-246 115q-16 7 -25 19.5t-9 33.5q0 35 29 53l114 77l-62 49q-7 -1 -22 -1q-96 0 -190 45q-25 -30 -69 -30q-36 0 -56.5 16
t-20.5 42t20.5 43.5t56.5 17.5q11 0 25 -2q-2 26 -14 51t-30 43h-95q-31 0 -31 31v2q0 14 8 22.5t23 8.5h994q14 0 22 -8.5zM423 555.5q-21 22.5 -65 22.5h-188q27 -42 27 -98q0 -14 -1 -21q86 -39 157 -39q91 0 91 80q0 33 -21 55.5z" />
    <glyph glyph-name="uacute" unicode="&#xfa;" horiz-adv-x="654" 
d="M681 633.5q8 -8.5 8 -22.5v-2q0 -31 -31 -31h-90v-547q0 -17 -10 -27t-28 -10h-2q-17 0 -27 10t-10 27v411l-271 -220q-12 -10 -26 -10q-13 0 -24.5 11.5t-11.5 24.5q0 16 18 32l73 58q-27 44 -55 63.5t-67 19.5q-16 0 -28 -2t-19 -2q-19 0 -32 15t-13 35q0 27 16 53
q37 65 93 99t128 34q68 0 122.5 -33t92.5 -90l4 4v166q0 18 10 28t27 10h2q18 0 28 -10t10 -28v-58h90q15 0 23 -8.5zM227 463q41 -24 76 -81l131 106q-70 97 -160 97q-52 0 -92.5 -27t-65.5 -72q6 1 19 1q51 0 92 -24z" />
    <glyph glyph-name="ucircumflex" unicode="&#xfb;" horiz-adv-x="637" 
d="M652 633.5q8 -8.5 8 -22.5v-2q0 -31 -31 -31h-640q-31 0 -31 31v2q0 14 8 22.5t23 8.5h640q15 0 23 -8.5zM566 -27q0 -5 -2 -13q-4 -10 -12 -16t-19 -6q-7 0 -15 3l-401 153q-11 4 -17.5 14t-6.5 21q0 16 10 27t24 11q4 0 42.5 -2.5t68.5 -2.5q71 0 125 20t83.5 56
t29.5 84q0 32 -12.5 60.5t-35.5 47.5q-12 -23 -24 -41q-11 -18 -26 -28.5t-28 -10.5q-17 0 -29 8t-16 21q-9 32 -31.5 52.5t-49.5 20.5q-34 0 -55 -22.5t-21 -59.5q0 -46 28 -68q3 21 19 33.5t40 12.5t39 -16t15 -42q0 -28 -21 -45.5t-54 -17.5q-61 0 -98 39t-37 103
q0 65 39 105.5t103 40.5q42 0 77 -22.5t53 -61.5q13 20 30 55q7 12 16.5 19.5t17.5 7.5q15 0 28 -10q46 -25 74 -75.5t28 -107.5q0 -63 -34 -110.5t-97 -74t-147 -28.5v-2q69 -20 105 -33l171 -67q23 -8 23 -32z" />
    <glyph glyph-name="udieresis" unicode="&#xfc;" horiz-adv-x="642" 
d="M669 633.5q8 -8.5 8 -22.5v-2q0 -31 -31 -31h-525q26 -34 45 -75q22 5 43 5q57 0 99.5 -26t62.5 -71l108 49q26 10 43 10q25 0 43 -17q17 -17 17 -43q0 -16 -5 -41q-14 -68 -14 -187v-66q0 -16 -9.5 -26t-26.5 -10h-2q-17 0 -26.5 9.5t-9.5 26.5v66q0 125 15 209
q-72 -32 -118 -54v-4q0 -73 -46.5 -123.5t-141.5 -59.5v-4q7 -3 35 -17.5t64 -37.5l67 -45q20 -12 20 -32q0 -14 -9 -24t-24 -10t-27 8l-240 151q-23 14 -23 37q0 18 11 29t29 11q6 0 22 -2q20 -4 48 -4q59 0 99.5 30.5t40.5 92.5q0 49 -27.5 78.5t-76.5 29.5q-9 0 -19 -2
q4 -26 4 -41q0 -39 -16.5 -60t-45.5 -21q-27 0 -45 17.5t-18 50.5q0 27 10.5 50t30.5 40q-39 64 -83 103h-36q-31 0 -31 31v2q0 14 8 22.5t23 8.5h657q15 0 23 -8.5z" />
    <glyph glyph-name="yacute" unicode="&#xfd;" horiz-adv-x="724" 
d="M751 633.5q8 -8.5 8 -22.5v-2q0 -15 -8 -23t-22 -8h-616q26 -37 44 -75q23 5 44 5q58 0 100.5 -27t61.5 -75q26 49 64.5 75t94.5 26q73 0 116.5 -46t43.5 -125q0 -73 -40.5 -117.5t-103.5 -44.5q-45 0 -70 21.5t-25 54.5q0 25 16 43t43 18q26 0 42.5 -16.5t16.5 -41.5v-5
q23 11 36 34t13 56q0 46 -22 72.5t-67 26.5q-33 0 -56 -16t-38 -40t-36 -68q-17 -37 -34 -66q-43 -84 -166 -97v-4q7 -3 34.5 -17.5t63.5 -37.5l69 -46q20 -12 20 -30q0 -15 -9.5 -26t-24.5 -11q-12 0 -26 8l-245 155q-23 15 -23 38q0 17 10.5 28t27.5 11q12 0 24 -3
q30 -5 48 -5q62 0 102.5 30.5t40.5 93.5q0 49 -27.5 78t-76.5 29q-8 0 -20 -2q5 -23 5 -41q0 -39 -17 -60t-45 -21q-27 0 -45 17.5t-18 50.5q0 56 42 90q-22 36 -40.5 57t-43.5 46h-28q-31 0 -31 31v2q0 14 8 22.5t23 8.5h740q14 0 22 -8.5z" />
    <glyph glyph-name="thorn" unicode="&#xfe;" horiz-adv-x="829" 
d="M856 633.5q8 -8.5 8 -22.5v-2q0 -15 -8 -23t-22 -8h-284v-109h17q54 0 113 8q18 3 32 3q21 0 36.5 -13t18.5 -29q5 -12 3 -29q-1 -5 -7.5 -33.5t-10.5 -72.5t-4 -96v-98q0 -17 -10 -27t-27 -10h-2q-18 0 -27.5 10t-9.5 27v98q0 128 21 200q-51 -8 -121 -8h-22v-373
q0 -16 -9 -24.5t-25 -8.5q-18 0 -28.5 8t-28.5 27q-80 85 -162 105q-26 -47 -79 -47q-28 0 -47 14t-19 40q0 33 24.5 49.5t65.5 18.5q1 4 1 11q0 33 -20.5 58.5t-56.5 37.5q-25 -19 -61 -19q-31 0 -50.5 13t-19.5 38q0 26 20 40t50 14q16 0 34 -6q12 19 12 49q0 58 -62 87
q-21 10 -31 20t-10 27h-59q-31 0 -31 31v2q0 14 8 22.5t23 8.5h845q14 0 22 -8.5zM472 578h-322q69 -43 152.5 -68.5t169.5 -35.5v104zM472 249v155q-135 13 -249 64q2 -16 2 -26q0 -34 -14 -70q47 -23 76 -63.5t29 -95.5v-14q42 -10 85.5 -35t73.5 -58l2 1q-5 80 -5 142z
" />
    <glyph glyph-name="ydieresis" unicode="&#xff;" horiz-adv-x="902" 
d="M929 633.5q8 -8.5 8 -22.5v-2q0 -31 -31 -31h-289v-179q35 7 65 7q89 0 135 -43.5t46 -115.5q0 -62 -27 -103t-78 -41q-32 0 -52.5 16t-20.5 46q0 27 16 42.5t43 15.5q24 0 42 -16q5 15 5 37q0 44 -28 67t-75 23q-27 0 -71 -8v-288q0 -41 -39 -41q-15 0 -28.5 7t-31.5 19
q-54 39 -113 68.5t-115 42.5q-27 -46 -79 -46q-28 0 -46.5 14.5t-18.5 39.5q0 32 25.5 50t65.5 20v8q0 32 -21.5 60t-56.5 41q-22 -12 -52 -12t-49.5 13t-19.5 37q0 27 19.5 41t49.5 14q19 0 35 -6q13 20 13 48q0 53 -61 76q-23 9 -34.5 17.5t-11.5 28.5h-59q-31 0 -31 31v2
q0 14 8 22.5t23 8.5h917q15 0 23 -8.5zM540 252v58q-32 -4 -54 -4q-70 0 -116.5 34t-46.5 110v128h-171q74 -43 74 -126q0 -40 -17 -77q44 -25 72 -66t28 -93v-13q58 -12 123 -44t112 -69l4 2q-8 72 -8 160zM540 578h-140v-128q0 -41 22.5 -57t64.5 -16q25 0 53 5v196z" />
    <glyph glyph-name="OE" unicode="&#x152;" horiz-adv-x="890" 
d="M917 633.5q8 -8.5 8 -22.5v-2q0 -15 -8 -23t-22 -8h-906q-31 0 -31 31v2q0 14 8 22.5t23 8.5h906q14 0 22 -8.5zM803 450q48 -45 48 -127q0 -74 -40.5 -118.5t-105.5 -44.5q-46 0 -75.5 23.5t-29.5 62.5q0 29 17 47t44 18t44.5 -16.5t17.5 -42.5q0 -15 -8 -28
q30 9 46 36.5t16 63.5q0 48 -27 74.5t-70 26.5q-75 0 -113 -63t-38 -160v-206q0 -40 -36 -40q-23 0 -30.5 11.5t-11.5 34.5q-3 21 -9 34.5t-22.5 23t-48.5 9.5q-30 0 -75 -9q-21 -4 -45.5 -7.5t-47.5 -3.5q-70 0 -117.5 39t-53.5 117q-5 49 37 49q28 0 35 -35
q6 -52 31.5 -75t73.5 -23q26 0 52 4t31 5q47 9 78 9q53 0 83 -29v264q0 91 -88 91q-60 0 -98 -36t-38 -94q0 -26 10 -43.5t28 -22.5q-1 2 -1 8q0 24 15.5 39.5t40.5 15.5q27 0 44 -17.5t17 -44.5q0 -32 -23 -51.5t-64 -19.5q-62 0 -100.5 35.5t-38.5 100.5q0 62 27.5 106.5
t75 67.5t106.5 23q62 0 105 -30.5t54 -89.5q26 41 66 62t91 21q73 0 121 -45z" />
    <glyph glyph-name="oe" unicode="&#x153;" 
d="M-86 150v-294q0 -49 -41 -49q-19 0 -31.5 10.5t-29.5 34.5q-45 68 -85 94.5t-81 26.5q-18 0 -30 -4q20 -15 20 -41t-15.5 -42t-42.5 -16q-30 0 -49 19.5t-19 52.5q0 46 36.5 73.5t95.5 27.5q55 0 108 -28t93 -88l2 1q-7 75 -7 149v73h76z" />
    <glyph glyph-name="Scaron" unicode="&#x160;" horiz-adv-x="248" 
d="M276 633.5q8 -8.5 8 -22.5v-2q0 -31 -31 -31h-90v-547q0 -17 -10.5 -27t-27.5 -10h-2q-17 0 -27 10t-10 27v547h-97q-31 0 -31 31v2q0 14 8 22.5t23 8.5h98v46q0 32 -5.5 50t-23 27t-51.5 9q-22 0 -62 -2q-36 -2 -56 -2q-63 0 -96 30.5t-33 90.5q0 51 37 51
q20 0 28.5 -10t9.5 -34q1 -36 18 -48t60 -12q24 0 62 2l58 1q130 0 130 -145v-54h90q15 0 23 -8.5z" />
    <glyph glyph-name="scaron" unicode="&#x161;" horiz-adv-x="594" 
d="M621.5 633.5q8.5 -8.5 8.5 -22.5v-2q0 -15 -8.5 -23t-22.5 -8h-85q13 -16 22 -39.5t9 -52.5q0 -60 -34.5 -98.5t-108.5 -38.5q-43 0 -75.5 15t-74.5 43q-35 22 -54 31.5t-41 9.5h-6q14 -16 14 -37q0 -25 -16 -40.5t-41 -15.5q-29 0 -47.5 19t-18.5 50q0 48 30 70.5
t72 22.5q40 0 71.5 -13.5t73.5 -40.5q35 -22 59 -33t51 -11q37 0 54.5 22t17.5 57t-19 57.5t-60 22.5h-403q-31 0 -31 31v2q0 14 8 22.5t23 8.5h610q14 0 22.5 -8.5z" />
    <glyph glyph-name="Ydieresis" unicode="&#x178;" horiz-adv-x="519" 
d="M546 633.5q8 -8.5 8 -22.5v-2q0 -31 -31 -31h-90v-547q0 -17 -10 -27t-27 -10h-2q-17 0 -27.5 10t-10.5 27v55l-281 164q-33 20 -33 59t30 61q64 46 127.5 78.5t109 49.5t49.5 17v63h-369q-31 0 -31 31v2q0 14 8 22.5t23 8.5h534q15 0 23 -8.5zM358 171v270
q-45 -15 -110.5 -47.5t-132.5 -82.5z" />
    <glyph glyph-name="florin" unicode="&#x192;" horiz-adv-x="209" 
d="M236 633.5q8 -8.5 8 -22.5v-2q0 -15 -8 -23t-22 -8h-249q-31 0 -31 31v2q0 14 8 22.5t23 8.5h249q14 0 22 -8.5zM132 453q17 -17 17 -43q0 -16 -5 -41q-14 -68 -14 -187v-66q0 -17 -9.5 -26.5t-26.5 -9.5h-2q-16 0 -26 10t-10 26v66q0 139 17 211l-175 -82l-11 76l159 73
q26 10 43 10q25 0 43 -17z" />
    <glyph glyph-name="circumflex" unicode="&#x2c6;" horiz-adv-x="347" 
d="M374 633.5q8 -8.5 8 -22.5v-2q0 -31 -31 -31h-103q-38 -44 -62.5 -81.5t-42 -94.5t-17.5 -135q0 -60 17.5 -110t51.5 -71q7 17 21.5 27t33.5 10q28 0 44.5 -17.5t16.5 -41.5q0 -28 -19.5 -46t-54.5 -18q-48 0 -91 31.5t-69 92.5t-26 144q0 102 28 175t75 135h-165
q-31 0 -31 31v2q0 14 8 22.5t23 8.5h217q20 25 30.5 43.5t10.5 36.5q0 27 -16 38.5t-47 11.5q-20 0 -48 -2l-46 -1q-63 0 -99.5 27.5t-36.5 95.5q0 50 37 50q19 0 27.5 -10.5t9.5 -36.5q0 -32 17 -45.5t57 -13.5q14 0 46 2l44 1q68 0 99.5 -30.5t31.5 -83.5q0 -41 -25 -83
h53q15 0 23 -8.5z" />
    <glyph glyph-name="tilde" unicode="&#x2dc;" horiz-adv-x="528" 
d="M556 633.5q8 -8.5 8 -22.5v-2q0 -31 -31 -31h-380v-151q0 -80 -5 -143l4 -1q49 53 110 99.5t111 68.5q15 6 30 6q21 0 35 -11t18.5 -22.5t4.5 -24.5q0 -14 -5 -37q-7 -36 -11 -79.5t-4 -123.5v-128q0 -17 -9.5 -27t-26.5 -10h-2q-17 0 -27 10t-10 27v129q0 146 22 219
q-42 -24 -97.5 -69.5t-114.5 -108.5q-14 -14 -26 -21t-28 -7q-22 0 -34 12.5t-12 36.5v356h-87q-31 0 -31 31v2q0 14 8 22.5t23 8.5h544q15 0 23 -8.5z" />
    <glyph glyph-name="uni03BC" unicode="&#x3bc;" horiz-adv-x="608" 
d="M636 633.5q8 -8.5 8 -22.5v-2q0 -31 -31 -31h-624q-31 0 -31 31v2q0 14 8 22.5t23 8.5h624q15 0 23 -8.5zM477.5 493q45.5 -39 45.5 -119v-373q0 -40 -37 -40q-23 0 -31 11.5t-13 34.5q-4 20 -9.5 32.5t-20 21t-42.5 8.5q-24 0 -76 -10q-58 -12 -96 -12q-66 0 -111 37
t-54 112q-2 20 6 34.5t32 14.5q27 0 35 -34q6 -47 29.5 -69.5t68.5 -22.5q27 0 81 10t80 10q55 0 82 -28v263q0 45 -21 68t-67 23q-59 0 -98.5 -36t-39.5 -94q0 -24 10 -41t27 -23v8q0 23 16 38.5t41 15.5q27 0 43.5 -17t16.5 -44q0 -32 -23.5 -52t-66.5 -20q-62 0 -99 36
t-37 100q0 62 28 106.5t75.5 67t106.5 22.5q73 0 118.5 -39z" />
    <glyph glyph-name="uni0986" unicode="&#x986;" horiz-adv-x="1042" 
 />
    <glyph glyph-name="uni09A5" unicode="&#x9a5;" horiz-adv-x="612" 
d="M639 633.5q8 -8.5 8 -22.5v-2q0 -31 -31 -31h-90v-547q0 -17 -10 -27t-27 -10h-2q-17 0 -27 10t-10 27v55l-382 183q-21 11 -21 32q0 6 1 10q9 34 44 31q36 -6 59 -6q65 0 108 33.5t43 101.5q0 51 -26.5 79.5t-73.5 28.5q-28 0 -48.5 -10.5t-28.5 -29.5q5 1 17 1
q22 -1 37 -17t15 -39q0 -25 -17.5 -41t-45.5 -16q-35 0 -57 22.5t-22 61.5q0 36 17.5 66.5t51.5 49.5t81 19q79 0 127 -48.5t48 -125.5q0 -69 -39 -124.5t-138 -68.5v-4q10 -3 48.5 -17.5t85.5 -37.5l116 -55v535q0 18 10 28t27 10h2q17 0 27 -10t10 -28v-58h90
q15 0 23 -8.5z" />
    <glyph glyph-name="uni09B0" unicode="&#x9b0;" horiz-adv-x="523" 
d="M550 633.5q8 -8.5 8 -22.5v-2q0 -31 -31 -31h-90v-547q0 -17 -9.5 -27t-27.5 -10h-2q-17 0 -26.5 10t-9.5 27v55l-285 165q-16 10 -23.5 24t-7.5 34q0 40 29 60q64 47 127.5 79.5t109.5 49.5t50 17v63h-373q-31 0 -31 31v2q0 14 8 22.5t23 8.5h538q15 0 23 -8.5zM362 170
v271q-45 -15 -110.5 -47.5t-132.5 -82.5zM201 89q17 -17 17 -41q0 -23 -17 -39.5t-42 -16.5t-41.5 16t-16.5 40t16.5 41t41.5 17t42 -17z" />
    <glyph glyph-name="uni09C3" unicode="&#x9c3;" 
d="M-9 -210q0 -15 -9 -26.5t-24 -11.5q-10 0 -26 7l-176 87q-18 9 -26.5 22.5t-8.5 34.5q0 22 6.5 36.5t23.5 27.5l97 71v63q0 34 32 34h2q32 0 32 -34v-60q0 -25 -5.5 -38.5t-21.5 -25.5l-95 -69l177 -88q22 -10 22 -30z" />
    <glyph glyph-name="uni09CB" unicode="&#x9cb;" horiz-adv-x="1228" 
d="M1256.5 633.5q8.5 -8.5 8.5 -22.5v-2q0 -15 -8.5 -23t-23.5 -8h-90v-547q0 -17 -10 -27t-28 -10h-2q-17 0 -27 10t-10 27v457q0 46 -14.5 68t-54.5 22h-28q-31 0 -31 31v2q0 14 8 22.5t23 8.5h29q30 0 48 -14t34 -47l5 2q0 1 -8 23t-8 73v23q0 17 9.5 26.5t26.5 9.5h2
q17 0 26.5 -9.5t9.5 -26.5v-60h90q15 0 23.5 -8.5zM296.5 105q16.5 -17 16.5 -41q0 -27 -19.5 -45.5t-54.5 -18.5q-48 0 -90.5 31.5t-69.5 96t-27 158.5q0 102 29.5 177.5t71.5 114.5h-164q-31 0 -31 31v2q0 14 8 22.5t23 8.5h364q15 0 23 -8.5t8 -22.5v-2q0 -31 -31 -31
h-57q-42 0 -81 -37.5t-63.5 -104t-24.5 -148.5q0 -74 17.5 -128t52.5 -75q7 17 22.5 27t33.5 10q27 0 43.5 -17zM598 530.5q-13 13.5 -13 33.5t13 34t34 14t35 -14t14 -34t-13.5 -33.5t-35.5 -13.5q-21 0 -34 13.5zM472 490.5q-13 13.5 -13 33.5q0 21 13 35t34 14t34.5 -14
t13.5 -35q0 -20 -13.5 -33.5t-34.5 -13.5t-34 13.5zM746 470.5q-13 13.5 -13 33.5q0 21 13 35t34 14q20 0 33 -13t15 -32q3 1 10 1q21 0 34.5 -14t13.5 -34t-13.5 -33.5t-34.5 -13.5t-33.5 12.5t-14.5 31.5q-3 -1 -10 -1q-21 0 -34 13.5zM376 472.5q13 13.5 34 13.5
q22 0 35.5 -13.5t13.5 -34.5q0 -20 -13.5 -33.5t-35.5 -13.5q-21 0 -34 13.5t-13 33.5q0 21 13 34.5zM927.5 351q13.5 -14 13.5 -34t-13 -33.5t-35 -13.5q-21 0 -34 13.5t-13 33.5t13 34t34 14t34.5 -14zM411.5 281.5q-13.5 -13.5 -34.5 -13.5t-34 13.5t-13 33.5
q0 21 13 34.5t34 13.5t34.5 -14t13.5 -34t-13.5 -33.5zM890.5 227q13.5 -14 13.5 -34t-13 -33.5t-35 -13.5q-21 0 -34 13.5t-13 33.5t13 34t34 14t34.5 -14zM447.5 226q13.5 -14 13.5 -34t-13.5 -33.5t-34.5 -13.5t-34 13.5t-13 33.5q0 21 13 34.5t34 13.5t34.5 -14z
M543.5 138q13.5 -14 13.5 -34t-13.5 -33.5t-34.5 -13.5t-34 13.5t-13 33.5q0 21 13 34.5t34 13.5t34.5 -14zM793.5 138q13.5 -14 13.5 -34t-13.5 -33.5t-34.5 -13.5t-34 13.5t-13 33.5q0 21 13 34.5t34 13.5t34.5 -14zM669 102q14 -14 14 -34t-13.5 -34t-35.5 -14
q-21 0 -34 13.5t-13 34.5q0 20 13 34t34 14t35 -14z" />
    <glyph glyph-name="uni09CC" unicode="&#x9cc;" horiz-adv-x="1228" 
d="M1256 633.5q8 -8.5 8 -22.5v-2q0 -31 -31 -31h-90v-547q0 -17 -10 -27t-28 -10h-2q-17 0 -27 10t-10 27v547h-97q-31 0 -31 31v2q0 14 8 22.5t23 8.5h98v46q0 32 -5.5 50t-23 27t-51.5 9q-22 0 -62 -2q-36 -2 -56 -2q-128 0 -128 121q0 24 7.5 37.5t28.5 13.5
q20 0 28.5 -10t9.5 -34q1 -36 18 -48t60 -12q24 0 62 2l58 1q130 0 130 -145v-54h90q15 0 23 -8.5zM296.5 105q16.5 -17 16.5 -41q0 -27 -19.5 -45.5t-54.5 -18.5q-48 0 -90.5 31.5t-69.5 96t-27 158.5q0 102 29.5 177.5t71.5 114.5h-164q-31 0 -31 31v2q0 14 8 22.5t23 8.5
h364q14 0 22.5 -8.5t8.5 -22.5v-2q0 -15 -8.5 -23t-22.5 -8h-57q-42 0 -81 -37.5t-63.5 -104t-24.5 -148.5q0 -74 17.5 -128t52.5 -75q7 17 22.5 27t33.5 10q27 0 43.5 -17zM598 530.5q-13 13.5 -13 33.5t13 34t34 14t35 -14t14 -34t-13.5 -33.5t-35.5 -13.5q-21 0 -34 13.5
zM472 490.5q-13 13.5 -13 33.5q0 21 13 35t34 14t34.5 -14t13.5 -35q0 -20 -13.5 -33.5t-34.5 -13.5t-34 13.5zM780 457q-21 0 -34 13.5t-13 33.5q0 21 13 35t34 14q20 0 33 -13t15 -32q3 1 10 1q21 0 34.5 -14t13.5 -34t-13.5 -33.5t-34.5 -13.5t-33.5 12.5t-14.5 31.5
q-3 -1 -10 -1zM376 472.5q13 13.5 34 13.5q22 0 35.5 -13.5t13.5 -34.5q0 -20 -13.5 -33.5t-35.5 -13.5q-21 0 -34 13.5t-13 33.5q0 21 13 34.5zM927.5 351q13.5 -14 13.5 -34t-13 -33.5t-35 -13.5q-21 0 -34 13.5t-13 33.5t13 34t34 14t34.5 -14zM411.5 281.5
q-13.5 -13.5 -34.5 -13.5t-34 13.5t-13 33.5q0 21 13 34.5t34 13.5t34.5 -14t13.5 -34t-13.5 -33.5zM890.5 227q13.5 -14 13.5 -34t-13 -33.5t-35 -13.5q-21 0 -34 13.5t-13 33.5t13 34t34 14t34.5 -14zM447.5 226q13.5 -14 13.5 -34t-13.5 -33.5t-34.5 -13.5t-34 13.5
t-13 33.5q0 21 13 34.5t34 13.5t34.5 -14zM543.5 138q13.5 -14 13.5 -34t-13.5 -33.5t-34.5 -13.5t-34 13.5t-13 33.5q0 21 13 34.5t34 13.5t34.5 -14zM793.5 138q13.5 -14 13.5 -34t-13.5 -33.5t-34.5 -13.5t-34 13.5t-13 33.5q0 21 13 34.5t34 13.5t34.5 -14zM669 102
q14 -14 14 -34t-13.5 -34t-35.5 -14q-21 0 -34 13.5t-13 34.5q0 20 13 34t34 14t35 -14z" />
    <glyph glyph-name="bn_danda" unicode="&#x9e4;" horiz-adv-x="325" 
d="M172 4q-10 10 -10 27v566q0 17 10 27t28 10h2q17 0 27 -10t10 -27v-566q0 -17 -10 -27t-27 -10h-2q-18 0 -28 10z" />
    <glyph glyph-name="uni09F0" unicode="&#x9f0;" horiz-adv-x="532" 
d="M559 633.5q8 -8.5 8 -22.5v-2q0 -31 -31 -31h-90v-547q0 -17 -9.5 -27t-26.5 -10h-2q-17 0 -26.5 10t-9.5 27v53l-288 160q-38 20 -38 65q0 44 38 69q79 56 157.5 91t130.5 49v60h-383q-31 0 -31 31v2q0 14 8 22.5t23 8.5h547q15 0 23 -8.5zM423 290l-51 28v128
q-57 -17 -132 -56l-36 20l-41 -39l21 -12q-31 -17 -75 -49l263 -144v88l50 -28zM372 318v-64l-188 105q23 14 56 31z" />
    <glyph glyph-name="uni09F1" unicode="&#x9f1;" horiz-adv-x="523" 
d="M550 633.5q8 -8.5 8 -22.5v-2q0 -31 -31 -31h-90v-547q0 -17 -10 -27t-27 -10h-2q-17 0 -26.5 10t-9.5 27v55l-283 164q-33 20 -33 59q0 40 30 61q64 46 127.5 78.5t109 49.5t49.5 17v63h-373q-31 0 -31 31v2q0 14 8 22.5t23 8.5h538q15 0 23 -8.5zM362 170v271
q-45 -15 -110.5 -47.5t-133.5 -82.5zM267 35q0 -13 -8.5 -24.5t-20.5 -11.5q-8 0 -18 5l-124 72q-15 8 -15 24q0 14 9 25t21 11q10 0 17 -6l125 -72q14 -9 14 -23z" />
    <glyph glyph-name="uni200C" unicode="&#x200c;" 
d="M-24 794h51v-1140h-51v1140z" />
    <glyph glyph-name="uni200D" unicode="&#x200d;" 
d="M36 665l104 -95l-41 -39l-74 74v-951h-51v950l-74 -73l-42 39l104 95l-104 96l41 38l101 -99l100 99l40 -38z" />
    <glyph glyph-name="endash" unicode="&#x2013;" 
d="M66 -212q0 -15 -10 -25t-25 -10q-11 0 -19 5t-16 17q-42 54 -91 86q-4 -80 -49.5 -124.5t-120.5 -44.5q-42 0 -74.5 19t-50 50.5t-17.5 68.5q0 66 45.5 106t117.5 40q80 0 158 -41.5t139 -115.5q13 -19 13 -31zM-188.5 -207q25.5 35 22.5 103q-36 13 -76 13
q-44 0 -68.5 -20.5t-24.5 -55.5q0 -30 19.5 -52.5t52.5 -22.5q49 0 74.5 35z" />
    <glyph glyph-name="emdash" unicode="&#x2014;" horiz-adv-x="2" 
d="M-87.5 358.5q51.5 -53.5 51.5 -147.5q0 -105 -59 -169t-170 -64q-113 0 -188.5 73t-94.5 203l-1 15q0 37 39 37q18 0 25.5 -10.5t10.5 -27.5q17 -101 68.5 -161t140.5 -60q73 0 114 45.5t41 119.5q0 65 -31 99t-79 34q-27 0 -48.5 -13t-29.5 -34h5q25 0 42 -16t17 -41
q0 -26 -16.5 -42.5t-43.5 -16.5q-37 0 -57.5 25.5t-20.5 67.5q0 64 43 100.5t108 36.5q82 0 133.5 -53.5z" />
    <glyph glyph-name="quoteleft" unicode="&#x2018;" 
d="M-56.5 101.5q14.5 -29.5 14.5 -61.5q0 -74 -50.5 -119t-144.5 -45q-144 0 -223 103.5t-93 279.5q-2 17 7.5 30.5t31.5 13.5q32 0 34 -38q9 -163 73.5 -241.5t171.5 -78.5q58 0 90 25.5t32 71.5q0 44 -34 64q-20 -26 -56 -26q-28 0 -46.5 16.5t-18.5 46.5t17.5 47.5
t47.5 17.5q32 0 50 -20q30 32 30 75t-28.5 65t-78.5 22q-38 0 -64.5 -14.5t-35.5 -42.5q26 0 42.5 -15t16.5 -40t-15 -40.5t-43 -15.5q-36 0 -56.5 24t-20.5 64q0 68 46.5 107.5t126.5 39.5q82 0 132 -40.5t50 -112.5q0 -32 -13 -61.5t-34 -51.5q27 -20 41.5 -49.5z" />
    <glyph glyph-name="quoteright" unicode="&#x2019;" 
d="M-20 -36q0 -14 -9.5 -26t-24.5 -12q-8 0 -24 6l-292 158q-9 4 -15.5 12.5t-6.5 19.5q0 16 9.5 28t25.5 12q11 0 28 -5q38 -12 81 -12q55 0 90 25.5t35 80.5q0 43 -28 69.5t-74 26.5q-26 0 -45 -8.5t-29 -21.5q18 -5 30 -20t12 -33q0 -24 -15.5 -40t-41.5 -16
q-31 0 -50 20.5t-19 54.5q0 40 22 69.5t56.5 45t72.5 15.5q86 0 135 -45t49 -119q0 -68 -42.5 -111t-126.5 -50v-4q0 1 33 -12.5t72 -34.5l71 -43q21 -11 21 -30z" />
    <glyph glyph-name="quotesinglbase" unicode="&#x201a;" 
d="M80 -200q0 -14 -9.5 -24.5t-24.5 -10.5q-7 0 -14.5 4t-13.5 9l-62 56q-33 -40 -73 -61t-99 -21q-72 0 -114.5 37t-42.5 98q0 70 47.5 108.5t127.5 40.5q30 0 46 -1v66q0 34 32 34h2q32 0 32 -34v-65q0 -31 -7 -43.5t-23.5 -16t-57.5 -3.5q-125 0 -125 -83q0 -33 22 -51.5
t62 -18.5q70 0 118 52l14 16q12 14 19 20t18 6q10 0 17 -4t16 -12.5t15 -13.5l62 -56q16 -12 16 -28z" />
    <glyph glyph-name="quotedblleft" unicode="&#x201c;" horiz-adv-x="276" 
d="M303 633.5q8 -8.5 8 -22.5v-2q0 -31 -31 -31h-378q-31 0 -31 31v2q0 14 8 22.5t23 8.5h378q15 0 23 -8.5zM195.5 434.5q40.5 -44.5 40.5 -116.5q0 -80 -47 -128.5t-124 -48.5q-70 0 -120 38t-71 114l39 124q0 -99 36.5 -153.5t111.5 -54.5q49 0 75.5 30.5t26.5 81.5
q0 40 -19 65.5t-54 26.5q10 -13 10 -33q0 -25 -16 -42t-42 -17q-28 0 -45.5 18t-17.5 48q0 42 30 67t78 25q68 0 108.5 -44.5z" />
    <glyph glyph-name="quotedblright" unicode="&#x201d;" horiz-adv-x="460" 
d="M487 633.5q8 -8.5 8 -22.5v-2q0 -31 -31 -31h-315q3 -26 19 -41.5t57 -31.5l80 -30q48 -19 72.5 -39t32 -42t7.5 -53q0 -51 -29 -101t-79 -81.5t-109 -31.5q-55 0 -89.5 29t-34.5 89v333h-87q-31 0 -31 31v2q0 14 8 22.5t23 8.5h475q15 0 23 -8.5zM151 248
q0 -28 12.5 -40.5t38.5 -12.5q33 0 66 21.5t54 55t21 66.5q0 25 -11.5 41t-40.5 27l-77 30q-46 17 -63 36v-224z" />
    <glyph glyph-name="quotedblbase" unicode="&#x201e;" 
d="M-211 -286q0 -15 -9 -26.5t-24 -11.5q-10 0 -26 7l-184 85q-18 9 -26.5 22t-8.5 34q0 24 6.5 38t24.5 26l96 65v74q0 16 10.5 25.5t27.5 9.5h2q17 0 26.5 -9.5t9.5 -25.5v-64q0 -26 -5.5 -40t-21.5 -24l-104 -70l184 -86q22 -8 22 -29z" />
    <glyph glyph-name="dagger" unicode="&#x2020;" horiz-adv-x="347" 
d="M79 468.5q27 79.5 78 126.5t121 47h74q14 0 22.5 -8.5t8.5 -22.5v-2q0 -15 -8.5 -23t-22.5 -8h-55q-51 0 -89.5 -36.5t-59.5 -101t-21 -145.5q0 -78 18 -134.5t52 -76.5q5 17 20 28t34 11q28 0 44.5 -17.5t16.5 -41.5q0 -27 -19 -45.5t-55 -18.5q-48 0 -90.5 33t-69 99.5
t-26.5 161.5t27 174.5z" />
    <glyph glyph-name="daggerdbl" unicode="&#x2021;" horiz-adv-x="348" 
d="M359.5 633.5q8.5 -8.5 8.5 -22.5v-2q0 -15 -8.5 -23t-22.5 -8h-37q-45 0 -85 -37t-64 -101.5t-24 -144.5q0 -77 17.5 -132t51.5 -78q7 18 22 28t33 10q28 0 44.5 -17.5t16.5 -41.5q0 -27 -19 -45.5t-55 -18.5q-48 0 -90.5 33t-69 99.5t-26.5 161.5t29 169.5t73 114.5
h-143q-15 0 -23.5 8t-8.5 23v2q0 14 8.5 22.5t23.5 8.5h326q14 0 22.5 -8.5z" />
    <glyph glyph-name="bullet" unicode="&#x2022;" horiz-adv-x="583" 
d="M536 296q0 -52 -22.5 -96t-70 -71t-120.5 -27q-131 0 -205 85.5t-85 229.5q-2 40 36 40q31 0 33 -33q13 -124 69 -188t151 -64q72 0 108.5 35.5t36.5 89.5q0 15 -3 26t-7 16q-34 -22 -68 -35.5t-77 -13.5q-49 0 -78 26t-29 76v61q-38 21 -65.5 54t-42.5 71h-108
q-31 0 -31 31v2q0 14 8 22.5t23 8.5h129q19 0 27 -9t19 -33q16 -42 41 -67q1 59 33 92t90 33q61 0 96.5 -31.5t35.5 -84.5q0 -50 -35 -83t-109 -33q-21 0 -41 3v-32q0 -22 10.5 -31t31.5 -9q29 0 54.5 9.5t55.5 26.5q14 8 26.5 14t21.5 6q24 0 40 -29q21 -37 21 -88z
M288.5 579.5q-13.5 -18.5 -13.5 -53.5v-33q22 -5 42 -5q41 0 58.5 17t17.5 39q0 25 -15.5 39.5t-44.5 14.5q-31 0 -44.5 -18.5z" />
    <glyph glyph-name="ellipsis" unicode="&#x2026;" 
d="M-216 -253q0 -15 -8.5 -26.5t-24.5 -11.5q-12 0 -26 8l-175 85q-19 9 -27.5 22t-8.5 34q0 23 7 37.5t24 26.5l93 65v95q0 17 9.5 26.5t26.5 9.5h2q17 0 27.5 -10t10.5 -26v-85q0 -26 -6.5 -40t-22.5 -25l-99 -68l176 -87q22 -9 22 -30z" />
    <glyph glyph-name="perthousand" unicode="&#x2030;" horiz-adv-x="328" 
d="M360 633.5q8 -8.5 8 -22.5v-2q0 -31 -31 -31h-102l-18 -24q-33 -46 -53 -81t-35 -86.5t-15 -116.5q0 -61 19.5 -112t54.5 -73q7 17 22 27.5t34 10.5q28 0 44.5 -17.5t16.5 -41.5q0 -28 -18.5 -46t-55.5 -18q-48 0 -92 31t-72 92t-28 147q0 68 17 124t39.5 95.5t56.5 88.5
h-147q-31 0 -31 31v2q0 14 8 22.5t23 8.5h194q17 21 25 37.5t8 35.5q0 26 -17.5 39.5t-43.5 13.5q-25 0 -52.5 7.5t-45.5 20.5q-7 6 -11 17t-2 20q3 13 11.5 19t17.5 6t17 -3t15 -8q22 -16 54 -16q55 0 91 -31t36 -82q0 -37 -23 -76h58q15 0 23 -8.5z" />
    <glyph glyph-name="guilsinglleft" unicode="&#x2039;" 
d="M-114 301q55 -25 86 -68.5t31 -97.5q0 -53 -24.5 -85.5t-70.5 -32.5q-30 0 -49 14.5t-19 42.5q0 26 16 41t41 15q20 0 34 -11q1 6 1 18q0 51 -43 85t-114 38v-264q0 -49 -43 -49q-22 0 -61 21l-225 119q-37 19 -37 58q0 22 7 36.5t23 27.5q147 117 324 117q68 0 123 -25z
M-299 34v220q-56 -10 -113 -37t-106 -69z" />
    <glyph glyph-name="guilsinglright" unicode="&#x203a;" horiz-adv-x="289" 
d="M540 633.5q8 -8.5 8 -22.5v-2q0 -31 -31 -31h-66v-386l-74 -78q-21 121 -78 200t-140 79q-17 0 -31 -3q21 -16 21 -43q0 -25 -16 -41.5t-43 -16.5q-29 0 -48 18.5t-19 48.5q0 48 35.5 77.5t96.5 29.5q74 0 133.5 -41.5t94.5 -119.5l3 1q-12 72 -12 160v115h-385
q-31 0 -31 31v2q0 14 8 22.5t23 8.5h528q15 0 23 -8.5z" />
    <glyph glyph-name="uni20A8" unicode="&#x20a8;" horiz-adv-x="506" 
d="M302 578v-4q18 -11 33.5 -33t23.5 -56h61q31 0 31 -31v-2q0 -31 -31 -31h-58q-8 -82 -67.5 -122.5t-142.5 -44.5l169 -197q15 -16 15 -31q0 -12 -10 -22t-24 -10q-16 0 -35 22l-182 213q-10 13 -15 23t-5 24q0 17 8.5 27t23.5 10h31q72 0 112.5 28.5t48.5 79.5h-194
q-31 0 -31 31v2q0 31 31 31h191q-11 46 -48 69.5t-96 23.5h-47q-31 0 -31 31v2q0 31 31 31h325q31 0 31 -31v-2q0 -31 -31 -31h-118z" />
    <glyph glyph-name="Euro" unicode="&#x20ac;" horiz-adv-x="551" 
d="M501.5 76q8.5 -11 8.5 -27q0 -27 -54 -44q-31 -10 -79 -10q-99 0 -165.5 59.5t-89.5 163.5h-58q-14 0 -21.5 7.5t-7.5 21.5v2q0 14 8 21.5t21 7.5h50q-2 26 -2 41q0 19 2 51h-50q-13 0 -21 8t-8 21v2q0 14 7.5 21.5t21.5 7.5h59q22 101 86 159t161 58q31 0 68 -9
q28 -7 47 -18.5t19 -26.5q0 -13 -8 -25t-21 -12q-7 0 -23 7q-3 1 -11 4.5t-15 4.5q-22 6 -53 6q-67 0 -111.5 -37.5t-63.5 -110.5h160q14 0 21.5 -7.5t7.5 -21.5v-2q0 -13 -7.5 -21t-21.5 -8h-170q-2 -32 -2 -50q0 -16 2 -42h170q14 0 21.5 -7.5t7.5 -21.5v-2
q0 -14 -7.5 -21.5t-21.5 -7.5h-160q20 -76 68.5 -115.5t114.5 -39.5q29 0 53 8l20 8q16 8 24 8q15 0 23.5 -11z" />
    <glyph glyph-name="trademark" unicode="&#x2122;" horiz-adv-x="515" 
d="M542 633.5q8 -8.5 8 -22.5v-2q0 -31 -31 -31h-366v-93q0 -78 -4 -122l3 -2q47 44 112 87q52 38 102 61q10 6 26 6q21 0 36 -12q14 -10 19 -20.5t5 -24.5q0 -13 -5 -38q-7 -31 -11 -68.5t-5 -103.5q0 -28 -7 -39.5t-28 -11.5h-2q-21 0 -28.5 12t-7.5 39q0 120 21 192
q-79 -40 -179 -134q-24 -21 -41 -28t-37 -7q-21 0 -33.5 11t-12.5 33v263h-87q-31 0 -31 31v2q0 14 8 22.5t23 8.5h530q15 0 23 -8.5z" />
    <glyph glyph-name="estimated" unicode="&#x212e;" horiz-adv-x="669" 
d="M195 25.5q-66 35.5 -102 100t-36 147.5q0 81 35.5 145t101 100.5t150.5 36.5q83 0 143.5 -34t92.5 -95.5t32 -141.5q0 -14 -5 -20.5t-18 -6.5h-390v-179q63 -44 150 -44q64 0 116 24.5t84 70.5q8 11 17 11q10 0 17 -6t7 -16q0 -7 -4 -12q-38 -57 -99 -86.5t-140 -29.5
q-86 0 -152 35.5zM479 300v173q-25 17 -59.5 27.5t-74.5 10.5q-42 0 -80.5 -11.5t-65.5 -32.5v-167h280z" />
    <glyph glyph-name="minus" unicode="&#x2212;" 
d="M-86 -141q0 -17 -10 -26.5t-27 -9.5h-2q-17 0 -27 10t-10 26v177q-4 39 -19.5 59t-39.5 20q-28 0 -45.5 -25.5t-21.5 -71.5q-2 -15 -9.5 -24t-27.5 -9q-32 0 -38 33q-14 97 -82 97q-39 0 -62 -30t-23 -78q0 -46 16 -73.5t44 -34.5q-1 3 -1 10q0 26 15.5 41t40.5 15
q26 0 42.5 -16.5t16.5 -42.5q0 -33 -25.5 -52.5t-66.5 -19.5q-72 0 -113.5 48t-41.5 124q0 79 41.5 128.5t112.5 49.5q36 0 70 -17t50 -45q15 30 42.5 46.5t55.5 16.5q40 0 69 -25v143h75z" />
    <glyph glyph-name="infinity" unicode="&#x221e;" horiz-adv-x="823" 
d="M129 168.5q-41 24.5 -62 65t-21 88.5q0 47 20.5 87.5t60 65.5t95.5 25q63 0 105 -30.5t81 -85.5q38 55 81 85.5t107 30.5q56 0 96 -25t61 -65.5t21 -87.5q0 -48 -21 -88.5t-60.5 -65t-93.5 -24.5q-65 0 -108 30t-81 85q-36 -54 -78.5 -84.5t-106.5 -30.5q-55 0 -96 24.5z
M303 238.5q32 28.5 66 83.5q-35 55 -66.5 83.5t-78.5 28.5q-51 0 -78 -32.5t-27 -79.5t27 -79.5t79 -32.5q46 0 78 28.5zM675 242.5q27 32.5 27 79.5q0 46 -27.5 79t-78.5 33q-48 0 -80.5 -28.5t-66.5 -83.5q34 -55 67 -83.5t80 -28.5q52 0 79 32.5z" />
    <glyph glyph-name="approxequal" unicode="&#x2248;" horiz-adv-x="537" 
d="M464 306q3 0 7 1t8 0q-12 -70 -74 -79q-23 -1 -42.5 5.5t-47.5 18.5q-22 10 -37 15.5t-30 4.5q-21 -4 -33.5 -14t-24.5 -27q-10 -14 -19 -21t-23 -7q-22 0 -37.5 10t-32.5 25q-2 1 -6 1q-3 0 -7 -1.5t-7 -0.5q8 54 51 73q-11 6 -20 14t-11 10q-2 1 -6 1q-3 0 -7 -1.5
t-7 -0.5q5 32 24 53.5t53 26.5q22 1 39 -4.5t44 -17.5q22 -11 38 -16.5t35 -4.5q21 4 33 14t24 26q9 14 17.5 21t22.5 7q22 0 39 -10.5t32 -25.5h5q3 0 7 1t8 0q-10 -56 -50 -72q13 -8 30 -25h5zM323 287.5q11 9.5 24 26.5l14 16q-11 3 -45 18q-23 11 -38 16t-30 4
q-21 -4 -33.5 -14t-24.5 -26q-6 -9 -13 -16q12 -3 42 -17q24 -11 39 -16.5t33 -4.5q21 4 32 13.5z" />
    <glyph glyph-name="notequal" unicode="&#x2260;" horiz-adv-x="510" 
d="M330 398l-85 -154h200q16 0 25 -9t9 -25v-2q0 -16 -9 -25t-25 -9h-239l-50 -90q-12 -23 -28 -23q-11 0 -20 7.5t-10 18.5q0 8 6 20l37 67h-76q-16 0 -25 9t-9 25v2q0 16 9 25t25 9h115l85 154h-200q-34 0 -34 34v2q0 16 9 24.5t25 8.5h238l50 90q7 12 13.5 17.5t15.5 5.5
q11 0 20 -7.5t9 -18.5t-6 -20l-37 -67h77q16 0 25 -8.5t9 -24.5v-2q0 -16 -9 -25t-25 -9h-115z" />
    <glyph glyph-name="lessequal" unicode="&#x2264;" horiz-adv-x="508" 
d="M421 225l-353 104q-36 9 -36 46v2q0 37 36 47l353 103q16 4 24 4q13 0 22 -8.5t9 -27.5q0 -14 -9 -20.5t-26 -11.5l-112 -31q-62 -17 -127 -33t-89 -21v-4q24 -5 83.5 -19.5t132.5 -34.5l112 -31q17 -5 26 -11.5t9 -20.5q0 -19 -9 -27.5t-22 -8.5q-8 0 -24 4zM32 138v2
q0 33 32 33h378q16 0 25 -8.5t9 -24.5v-2q0 -16 -9 -24.5t-25 -8.5h-378q-32 0 -32 33z" />
    <glyph glyph-name="greaterequal" unicode="&#x2265;" horiz-adv-x="508" 
d="M41 229.5q-9 8.5 -9 27.5q0 14 8.5 20.5t25.5 11.5l113 31q73 20 132.5 34.5t83.5 19.5v4q-25 5 -85 20t-132 34l-112 31q-17 5 -25.5 11.5t-8.5 20.5q0 19 9 27.5t22 8.5q8 0 24 -4l353 -103q36 -10 36 -47v-2q0 -37 -36 -46l-353 -104q-16 -4 -24 -4q-13 0 -22 8.5z
M32 138v2q0 33 33 33h378q16 0 24.5 -8.5t8.5 -24.5v-2q0 -16 -8.5 -24.5t-24.5 -8.5h-378q-33 0 -33 33z" />
    <glyph glyph-name="w.alt" horiz-adv-x="248" 
d="M621 888q0 -9 -6 -20q-8 -15 -25 -15q-11 0 -23 6q-73 41 -137 61.5t-115 20.5q-79 0 -115.5 -36t-36.5 -112v-151h90q15 0 23 -8.5t8 -22.5v-2q0 -31 -31 -31h-90v-547q0 -17 -10.5 -27t-27.5 -10h-2q-17 0 -27 10t-10 27v547h-97q-31 0 -31 31v2q0 14 8 22.5t23 8.5h97
v151q0 109 60 162.5t165 53.5q65 0 139 -22.5t150 -68.5q21 -11 21 -30z" />
    <glyph glyph-name="uni09A5.halant" horiz-adv-x="612" 
d="M460 4q-10 10 -10 27v55l-382 183q-21 11 -21 32q0 6 1 10q9 34 44 31q36 -6 59 -6q65 0 108 33.5t43 101.5q0 51 -26.5 79.5t-73.5 28.5q-28 0 -48.5 -10.5t-28.5 -29.5q5 1 17 1q22 -1 37 -17t15 -39q0 -25 -17.5 -41t-45.5 -16q-35 0 -57 22.5t-22 61.5
q0 36 17.5 66.5t51.5 49.5t81 19q79 0 127 -48.5t48 -125.5q0 -69 -39 -124.5t-138 -68.5v-4q10 -3 48.5 -17.5t85.5 -37.5l116 -55v535q0 18 10 28t27 10h2q17 0 27 -10t10 -28v-58h90q15 0 23 -8.5t8 -22.5v-2q0 -31 -31 -31h-90v-547q0 -17 -10 -27t-27 -10h-2
q-17 0 -27 10zM682 -238q0 -11 -8 -21q-12 -15 -25 -15q-10 0 -21 9l-162 131q-12 9 -12 23q0 12 9 23q10 13 24 13q13 0 23 -9l159 -130q13 -10 13 -24z" />
    <glyph glyph-name="uni09B0.halant" horiz-adv-x="523" 
d="M371.5 4q-9.5 10 -9.5 27v55l-285 165q-16 10 -23.5 24t-7.5 34q0 40 29 60q64 47 127.5 79.5t109.5 49.5t50 17v63h-373q-31 0 -31 31v2q0 14 8 22.5t23 8.5h538q15 0 23 -8.5t8 -22.5v-2q0 -31 -31 -31h-90v-547q0 -17 -9.5 -27t-27.5 -10h-2q-17 0 -26.5 10zM362 170
v271q-45 -15 -110.5 -47.5t-132.5 -82.5zM201 89q17 -17 17 -41q0 -23 -17 -39.5t-42 -16.5t-41.5 16t-16.5 40t16.5 41t41.5 17t42 -17zM593 -239q0 -10 -8 -20q-10 -15 -25 -15q-10 0 -21 8l-163 132q-11 8 -11 22q0 12 9 23q11 14 24 14q12 0 22 -9l160 -130
q13 -10 13 -25z" />
    <glyph glyph-name="uni09B0.u" horiz-adv-x="796" 
d="M823.5 633.5q8.5 -8.5 8.5 -22.5v-2q0 -15 -8.5 -23t-22.5 -8h-368v-164q0 -99 36 -151.5t111 -52.5q49 0 76 30t27 81q0 41 -19.5 66t-54.5 26q10 -15 10 -33q0 -25 -16 -41.5t-42 -16.5q-28 0 -46 17.5t-18 47.5q0 42 30.5 67t78.5 25q67 0 108.5 -44.5t41.5 -115.5
q0 -80 -47.5 -129t-125.5 -49q-47 0 -86 18.5t-66 54.5l-5 -3q1 -3 2.5 -17t3 -43t1.5 -69v-51q0 -17 -9.5 -27t-27.5 -10h-2q-17 0 -26.5 10t-9.5 27v55l-283 164q-33 20 -33 59q0 40 30 61q64 46 127.5 78.5t109 49.5t49.5 17v63h-369q-31 0 -31 31v2q0 14 8 22.5t23 8.5
h812q14 0 22.5 -8.5zM358 171v270q-45 -15 -110.5 -47.5t-132.5 -82.5zM197 89q17 -17 17 -41q0 -23 -17 -39.5t-42 -16.5t-41.5 16t-16.5 40t16.5 41t41.5 17t42 -17z" />
    <glyph glyph-name="uni09B0.uu" horiz-adv-x="709" 
 />
    <glyph glyph-name="uni09F0.halant" horiz-adv-x="532" 
d="M381.5 4q-9.5 10 -9.5 27v53l-288 160q-38 20 -38 65q0 44 38 69q79 56 157.5 91t130.5 49v60h-383q-31 0 -31 31v2q0 14 8 22.5t23 8.5h547q15 0 23 -8.5t8 -22.5v-2q0 -31 -31 -31h-90v-547q0 -17 -9.5 -27t-26.5 -10h-2q-17 0 -26.5 10zM372 166v88l50 -28l1 64
l-51 28v128q-57 -17 -132 -56l-36 20l-41 -39l21 -12q-31 -17 -75 -49zM372 254l-188 105q23 14 56 31l132 -72v-64zM606 -238q0 -11 -8 -21q-11 -15 -25 -15q-8 0 -21 8l-162 132q-12 9 -12 23q0 13 9 22q11 14 25 14q12 0 22 -9l159 -130q13 -10 13 -24z" />
    <glyph glyph-name="uni09F0.half" horiz-adv-x="504" 
d="M531.5 633.5q8.5 -8.5 8.5 -22.5v-2q0 -15 -8.5 -23t-22.5 -8h-91v-366q0 -50 -47 -50q-27 0 -63 18l-221 109q-20 10 -29.5 23.5t-9.5 37.5q0 23 10 39t29 29q132 79 258 128v32h-356q-31 0 -31 31v2q0 14 8 22.5t23 8.5h520q14 0 22.5 -8.5zM233 418l112 -55v106
q-57 -24 -112 -51zM345 239v70l-165 81l-67 -38z" />
    <glyph glyph-name="uni09F0.u" horiz-adv-x="808" 
d="M835 633.5q8 -8.5 8 -22.5v-2q0 -15 -8 -23t-22 -8h-369v-161q0 -99 36.5 -153t111.5 -54q49 0 75.5 30t26.5 81q0 41 -19.5 66t-54.5 26q11 -14 11 -33q0 -25 -16 -41.5t-43 -16.5t-45 18t-18 47q0 42 30.5 67t77.5 25q68 0 109.5 -44t41.5 -116q0 -80 -48 -129
t-125 -49q-47 0 -86.5 18.5t-66.5 54.5l-4 -3q1 -8 3.5 -41.5t2.5 -88.5v-50q0 -17 -9.5 -27t-26.5 -10h-2q-17 0 -27 10t-10 27v54l-290 160q-18 10 -26.5 25.5t-8.5 38.5q0 45 35 68q83 57 163 92t128 49v60h-381q-31 0 -31 31v2q0 14 8 22.5t23 8.5h824q14 0 22 -8.5z
M405 294l1 3l-36 20v129q-57 -16 -133 -56l-35 20l-42 -39l21 -12q-31 -18 -74 -49l263 -145v89l51 -29v25q-11 24 -16 44zM370 317v-63l-189 105q19 11 56 31z" />
    <glyph glyph-name="uni09F0.uu" horiz-adv-x="718" 
 />
    <glyph glyph-name="uni09F1.halant" horiz-adv-x="523" 
d="M371.5 4q-9.5 10 -9.5 27v55l-283 164q-33 20 -33 59q0 40 30 61q64 46 127.5 78.5t109 49.5t49.5 17v63h-373q-31 0 -31 31v2q0 14 8 22.5t23 8.5h538q15 0 23 -8.5t8 -22.5v-2q0 -31 -31 -31h-90v-547q0 -17 -10 -27t-27 -10h-2q-17 0 -26.5 10zM362 170v271
q-45 -15 -110.5 -47.5t-133.5 -82.5zM267 35q0 -13 -8.5 -24.5t-20.5 -11.5q-8 0 -18 5l-124 72q-15 8 -15 24q0 14 9 25t21 11q10 0 17 -6l125 -72q14 -9 14 -23zM594 -239q0 -10 -8 -20q-10 -15 -25 -15q-10 0 -21 8l-163 132q-11 8 -11 22q0 12 9 23q11 14 24 14
q12 0 22 -9l160 -130q13 -10 13 -25z" />
    <glyph glyph-name="uni09F1.half" horiz-adv-x="506" 
d="M533 633.5q8 -8.5 8 -22.5v-2q0 -31 -31 -31h-91v-366q0 -50 -45 -50q-17 0 -31.5 4.5t-36.5 15.5l-215 106q-42 19 -42 62q0 22 9.5 37t27.5 27q111 68 259 129v35h-356q-31 0 -31 31v2q0 14 8 22.5t23 8.5h521q15 0 23 -8.5zM345 244v219q-121 -52 -221 -111zM252 128
q0 -15 -9 -28t-23 -13q-11 0 -22 7l-97 47q-17 9 -17 27q0 16 9.5 26.5t22.5 10.5q7 0 23 -7l96 -45q17 -8 17 -25z" />
    <glyph glyph-name="uni09F1.u" horiz-adv-x="796" 
d="M824 633.5q8 -8.5 8 -22.5v-2q0 -31 -31 -31h-368v-161q0 -99 36.5 -153t110.5 -54q49 0 76 30t27 81q0 41 -19.5 66t-54.5 26q10 -15 10 -33q0 -25 -16 -41.5t-42 -16.5q-28 0 -46 17.5t-18 47.5q0 42 30.5 67t78.5 25q67 0 108.5 -44.5t41.5 -115.5q0 -80 -47.5 -129
t-125.5 -49q-98 0 -152 72l-5 -3q1 -8 4 -42t3 -90v-47q0 -17 -10 -27t-27 -10h-2q-17 0 -26.5 10t-9.5 27v55l-283 164q-33 20 -33 59q0 40 30 61q64 46 127.5 78.5t109 49.5t49.5 17v63h-369q-31 0 -31 31v2q0 14 8 22.5t23 8.5h812q15 0 23 -8.5zM358 170v271
q-45 -15 -110.5 -47.5t-132.5 -82.5zM263 35q0 -13 -8.5 -24.5t-20.5 -11.5q-8 0 -18 5l-124 72q-15 8 -15 24q0 14 9 25t21 11q9 0 17 -6l125 -72q14 -9 14 -23z" />
    <glyph glyph-name="uni09F1.uu" horiz-adv-x="709" 
 />
    <glyph glyph-name="quotedblbase.alt" 
d="M-264 -286q0 -15 -8.5 -26.5t-24.5 -11.5q-9 0 -25 7l-184 85q-18 9 -26.5 22t-8.5 34q0 24 6.5 38t23.5 26l96 64v106q0 16 10.5 26t27.5 10h3q16 0 26 -9.5t10 -26.5v-95q0 -25 -6 -39.5t-21 -24.5l-105 -69l185 -87q21 -8 21 -29z" />
    <glyph glyph-name="ITF" horiz-adv-x="1658" 
d="M152 634h196v-634h-196v634zM388 634h196v-185h-196v185zM624 634h196v-634h-196v634zM860 634h196v-185h-196v185zM1096 634h196v-634h-196v634zM1332 634h196v-185h-196v185zM1332 409h196v-185h-196v185z" />
    <glyph glyph-name="chandrareph_null" 
 />
    <glyph glyph-name="bn_matra.aa.short" horiz-adv-x="248" 
d="M96 4q-10 10 -10 27v457q0 46 -14.5 68t-54.5 22h-28q-31 0 -31 31v2q0 14 8 22.5t23 8.5h29q30 0 48 -14t34 -47l5 2q0 1 -8 23t-8 73v23q0 17 9.5 26.5t25.5 9.5h3q17 0 26.5 -9.5t9.5 -26.5v-60h33q15 0 23.5 -8.5t8.5 -22.5v-2q0 -15 -8.5 -23t-23.5 -8h-33v-547
q0 -17 -10.5 -27t-27.5 -10h-2q-17 0 -27 10z" />
    <glyph glyph-name="bn_matra.i.short" horiz-adv-x="248" 
 />
    <glyph glyph-name="bn_matra.i.chandrabindu" horiz-adv-x="248" 
d="M679.5 979q-16.5 16 -16.5 40t16.5 40t39.5 16t39.5 -16t16.5 -40t-16.5 -40t-39.5 -16t-39.5 16zM912 991.5q12 -9.5 12 -25.5q0 -7 -5 -19q-24 -53 -75 -85.5t-124 -32.5t-124 32.5t-76 85.5q-5 12 -5 19q0 16 12 25.5t27 9.5q21 0 32 -24q41 -82 134 -82q94 0 133 82
q13 24 32 24q15 0 27 -9.5zM641 781q0 -9 -6 -20q-9 -16 -25 -16q-12 0 -23 7q-81 48 -146.5 72t-131.5 24q-74 0 -110 -34.5t-36 -104.5v-67h90q15 0 23 -8.5t8 -22.5v-2q0 -31 -31 -31h-90v-547q0 -17 -10.5 -27t-27.5 -10h-2q-17 0 -27 10t-10 27v547h-97q-31 0 -31 31v2
q0 14 8 22.5t23 8.5h97v67q0 104 57.5 156t161.5 52q76 0 153 -28t162 -79q21 -11 21 -29z" />
    <glyph glyph-name="bn_matra.i.reph" horiz-adv-x="248" 
d="M882.5 881q9.5 -10 9.5 -24q0 -17 -16 -29l-192 -129q-16 -10 -28 -10q-8 0 -15 3t-13 8q-97 84 -169 122.5t-153 38.5q-74 0 -108.5 -34.5t-34.5 -105.5v-79h90q15 0 23 -8.5t8 -22.5v-2q0 -31 -31 -31h-90v-547q0 -17 -10.5 -27t-27.5 -10h-2q-17 0 -27 10t-10 27v547
h-97q-31 0 -31 31v2q0 14 8 22.5t23 8.5h97v79q0 101 57 154.5t160 53.5q93 0 183.5 -45.5t166.5 -116.5l184 117q10 7 21 7q15 0 24.5 -10z" />
    <glyph glyph-name="bn_matra.ii.short" horiz-adv-x="248" 
d="M96 4q-10 10 -10 27v547h-97q-31 0 -31 31v2q0 14 8 22.5t23 8.5h97v9q0 87 -49 146.5t-132.5 88t-189.5 28.5q-68 0 -104.5 -15t-36.5 -44q0 -22 19.5 -31t66.5 -9q24 0 60 2t62 2q66 0 99 -28.5t33 -89.5v-70q0 -18 -9.5 -28t-27.5 -10h-2q-17 0 -27.5 10t-10.5 28v67
q0 35 -14.5 46t-47.5 11q-20 0 -52 -2q-27 -3 -67 -3q-155 0 -155 104q0 65 58 95t155 30q118 0 220.5 -36t165.5 -110t63 -182v-9h33q15 0 23 -8.5t8 -22.5v-2q0 -31 -31 -31h-33v-547q0 -17 -10.5 -27t-27.5 -10h-2q-17 0 -27 10z" />
    <glyph glyph-name="bn_matra.ii.alt" horiz-adv-x="248" 
d="M96 4q-10 10 -10 27v547h-97q-31 0 -31 31v2q0 14 8 22.5t23 8.5h97v9q0 87 -49 146.5t-132.5 88t-189.5 28.5q-68 0 -104.5 -15t-36.5 -44q0 -22 19.5 -31t66.5 -9q24 0 60 2t62 2q66 0 99 -28.5t33 -89.5v-70q0 -18 -9.5 -28t-27.5 -10h-2q-17 0 -27.5 10t-10.5 28v67
q0 35 -14.5 46t-47.5 11q-20 0 -52 -2q-27 -3 -67 -3q-155 0 -155 104q0 65 58 95t155 30q118 0 220.5 -36t165.5 -110t63 -182v-9h90q15 0 23 -8.5t8 -22.5v-2q0 -31 -31 -31h-90v-547q0 -17 -10.5 -27t-27.5 -10h-2q-17 0 -27 10z" />
    <glyph glyph-name="bn_matra.ii.alt.short" horiz-adv-x="248" 
d="M96 4q-10 10 -10 27v547h-97q-31 0 -31 31v2q0 14 8 22.5t23 8.5h97v9q0 87 -49 146.5t-132.5 88t-189.5 28.5q-68 0 -104.5 -15t-36.5 -44q0 -22 19.5 -31t66.5 -9q24 0 60 2t62 2q66 0 99 -28.5t33 -89.5v-70q0 -18 -9.5 -28t-27.5 -10h-2q-17 0 -27.5 10t-10.5 28v67
q0 35 -14.5 46t-47.5 11q-20 0 -52 -2q-27 -3 -67 -3q-155 0 -155 104q0 65 58 95t155 30q118 0 220.5 -36t165.5 -110t63 -182v-9h33q15 0 23 -8.5t8 -22.5v-2q0 -31 -31 -31h-33v-547q0 -17 -10.5 -27t-27.5 -10h-2q-17 0 -27 10z" />
    <glyph glyph-name="bn_matra.ii.reph" horiz-adv-x="248" 
d="M276 633.5q8 -8.5 8 -22.5v-2q0 -31 -31 -31h-90v-547q0 -17 -10.5 -27t-27.5 -10h-2q-17 0 -27 10t-10 27v547h-97q-31 0 -31 31v2q0 14 8 22.5t23 8.5h97v9q0 101 -66 165l-113 -66q7 -20 7 -49v-70q0 -18 -9.5 -28t-27.5 -10h-2q-17 0 -27.5 10t-10.5 28v67
q0 35 -14.5 46t-47.5 11q-20 0 -52 -2q-27 -3 -67 -3q-155 0 -155 104q0 65 58 95t155 30q88 0 168 -20.5t142 -60.5l119 67q14 7 23 7q14 0 23 -10t9 -24q0 -18 -20 -30l-96 -56q81 -83 81 -201v-9h90q15 0 23 -8.5zM-41 861q-96 53 -244 53q-68 0 -104.5 -15t-36.5 -44
q0 -22 19.5 -31t66.5 -9q24 0 60 2t62 2q49 0 77 -14z" />
    <glyph glyph-name="bn_matra.ii.reph.short" horiz-adv-x="248" 
d="M219 633.5q8 -8.5 8 -22.5v-2q0 -31 -31 -31h-33v-547q0 -17 -10.5 -27t-27.5 -10h-2q-17 0 -27 10t-10 27v547h-97q-31 0 -31 31v2q0 14 8 22.5t23 8.5h97v9q0 101 -66 165l-113 -66q7 -20 7 -49v-70q0 -18 -9.5 -28t-27.5 -10h-2q-17 0 -27.5 10t-10.5 28v67
q0 35 -14.5 46t-47.5 11q-20 0 -52 -2q-27 -3 -67 -3q-155 0 -155 104q0 65 58 95t155 30q88 0 168 -20.5t142 -60.5l119 67q14 7 23 7q14 0 23 -10t9 -24q0 -18 -20 -30l-96 -56q81 -83 81 -201v-9h33q15 0 23 -8.5zM-41 861q-96 53 -244 53q-68 0 -104.5 -15t-36.5 -44
q0 -22 19.5 -31t66.5 -9q24 0 60 2t62 2q49 0 77 -14z" />
    <glyph glyph-name="bn_matra.e.short" horiz-adv-x="347" 
d="M295.5 105.5q16.5 -17.5 16.5 -41.5q0 -28 -19 -46t-55 -18q-48 0 -90.5 33t-69 99.5t-26.5 161.5t30.5 170.5t73.5 113.5h-167q-31 0 -31 31v2q0 14 8 22.5t23 8.5h283q30 0 30 -27v-2q0 -13 -6.5 -21.5t-21.5 -16.5q-70 -32 -108.5 -102.5t-38.5 -177.5
q0 -75 17.5 -131t51.5 -79q7 18 22 28t33 10q28 0 44.5 -17.5z" />
    <glyph glyph-name="bn_matra.e.init.short" horiz-adv-x="347" 
 />
    <glyph glyph-name="bn_matra.ai.init" horiz-adv-x="346" 
d="M374 633.5q8 -8.5 8 -22.5v-2q0 -31 -31 -31h-104q-37 -43 -61.5 -81t-42 -95.5t-17.5 -134.5q0 -60 17.5 -110t50.5 -72q7 17 22 27.5t34 10.5q28 0 44.5 -17.5t16.5 -41.5q0 -27 -19 -45.5t-55 -18.5q-48 0 -91 31.5t-69 92.5t-26 144q0 86 21 152t49 109.5t70 94.5
q29 35 42.5 56.5t13.5 41.5q0 27 -16 38.5t-48 11.5q-19 0 -51 -2l-48 -1q-130 0 -130 123q0 50 37 50q19 0 27.5 -10.5t9.5 -36.5q0 -32 15.5 -45.5t51.5 -13.5q19 0 53 2l44 1q66 0 98 -30t32 -84q0 -41 -25 -83h54q15 0 23 -8.5z" />
    <glyph glyph-name="bn_matra.ai.init.short" horiz-adv-x="347" 
 />
    <glyph glyph-name="bn_aulengthmark.short" horiz-adv-x="248" 
d="M219 633.5q8 -8.5 8 -22.5v-2q0 -15 -8 -23t-22 -8h-34v-547q0 -17 -10.5 -27t-27.5 -10h-2q-17 0 -27 10t-10 27v547h-97q-31 0 -31 31v2q0 14 8 22.5t23 8.5h98v46q0 32 -5.5 50t-23 27t-51.5 9q-22 0 -62 -2q-36 -2 -56 -2q-63 0 -96 30.5t-33 90.5q0 51 37 51
q20 0 28.5 -10t9.5 -34q1 -36 18 -48t60 -12q24 0 62 2l58 1q130 0 130 -145v-54h34q14 0 22 -8.5z" />
    <glyph glyph-name="bn_aulengthmark.alt" horiz-adv-x="248" 
d="M276 633.5q8 -8.5 8 -22.5v-2q0 -31 -31 -31h-90v-547q0 -17 -10.5 -27t-27.5 -10h-2q-17 0 -27 10t-10 27v547h-97q-31 0 -31 31v2q0 14 8 22.5t23 8.5h98v59q0 32 -5.5 50.5t-23 27.5t-51.5 9q-32 0 -62 -3q-36 -2 -56 -2q-63 0 -96 30.5t-33 90.5q0 51 37 51
q20 0 28.5 -10t9.5 -34q1 -36 18 -48t60 -12q24 0 62 2l58 1q130 0 130 -145v-67h90q15 0 23 -8.5z" />
    <glyph glyph-name="bn_aulengthmark.alt.short" horiz-adv-x="248" 
d="M219 633.5q8 -8.5 8 -22.5v-2q0 -15 -8 -23t-22 -8h-34v-547q0 -17 -10.5 -27t-27.5 -10h-2q-17 0 -27 10t-10 27v547h-97q-31 0 -31 31v2q0 14 8 22.5t23 8.5h98v59q0 32 -5.5 50.5t-23 27.5t-51.5 9q-32 0 -62 -3q-36 -2 -56 -2q-63 0 -96 30.5t-33 90.5q0 51 37 51
q20 0 28.5 -10t9.5 -34q1 -36 18 -48t60 -12q24 0 62 2l58 1q130 0 130 -145v-67h34q14 0 22 -8.5z" />
    <glyph glyph-name="bn_reph.short" 
d="M-146.5 696.5q-9.5 10.5 -9.5 25.5q0 17 17 29l114 79q12 7 22 7q15 0 24.5 -10t9.5 -25q0 -18 -16 -28l-113 -80q-13 -8 -24 -8q-15 0 -24.5 10.5z" />
    <glyph glyph-name="bn_reph.alt" 
d="M-163 726q0 23 17 34l211 145q15 10 26 10q15 0 24.5 -10t9.5 -25q0 -17 -16 -28l-272 -189v63z" />
    <glyph glyph-name="bn_reph.alt.short" 
d="M-163 726q0 23 16 33l119 82q11 8 25 8t23.5 -10t9.5 -24q0 -18 -16 -29l-177 -123v63z" />
    <glyph glyph-name="bn_na.nukta" horiz-adv-x="550" 
d="M578 633.5q8 -8.5 8 -22.5v-2q0 -31 -31 -31h-90v-548q0 -36 -35 -36q-33 0 -38 35q-10 84 -40 155t-77.5 114t-107.5 43q-19 0 -31 -4q22 -15 22 -42q0 -26 -16.5 -42t-43.5 -16q-29 0 -48 18.5t-19 48.5q0 48 35.5 77.5t96.5 29.5q74 0 135.5 -42t97.5 -121l3 1
q-11 81 -11 161v168h-399q-31 0 -31 31v2q0 14 8 22.5t23 8.5h566q15 0 23 -8.5zM245 95q17 -17 17 -41q0 -23 -17 -39.5t-42 -16.5t-41.5 16t-16.5 40t16.5 41t41.5 17t42 -17z" />
    <glyph glyph-name="bn_ka.halant" horiz-adv-x="710" 
d="M738 633.5q8 -8.5 8 -22.5v-2q0 -31 -31 -31h-290v-63q77 -2 132 -32.5t83.5 -78t28.5 -101.5q0 -59 -26 -95.5t-74 -36.5q-29 0 -48.5 15t-19.5 44q0 26 16 42.5t42 16.5q20 0 37 -12q2 16 2 26q0 60 -47.5 99.5t-125.5 42.5v-414q0 -17 -10 -27t-28 -10h-2
q-17 0 -27 10t-10 27v53l-273 171q-31 18 -31 58q0 21 6.5 35t20.5 26q130 113 277 136v68h-359q-31 0 -31 31v2q0 14 8 22.5t23 8.5h726q15 0 23 -8.5zM348 168v270q-60 -13 -120 -45t-111 -79zM582 -238q0 -11 -8 -21q-10 -15 -25 -15q-8 0 -21 8l-162 132q-12 9 -12 23
q0 13 9 22q11 14 25 14q12 0 22 -9l159 -130q13 -10 13 -24z" />
    <glyph glyph-name="bn_kha.halant" horiz-adv-x="624" 
d="M471 4q-10 10 -10 27v55l-392 187q-24 11 -24 34q0 18 9.5 31t27.5 13q7 0 24 -2.5t36 -2.5q84 0 126 32t42 94q0 38 -19 69q-18 -45 -46.5 -69t-76.5 -24q-61 0 -97.5 34.5t-36.5 85.5q0 39 20 59t51 20q25 0 42 -16.5t17 -40.5q0 -22 -12.5 -37t-32.5 -20
q16 -21 48 -21q29 0 44 19t28 55q11 29 20 42.5t26 13.5q29 0 54 -36q21 -28 33 -64t12 -73q0 -71 -43 -122t-146 -62v-4q0 1 43 -15t95 -40l128 -61v535q0 18 10 28t27 10h2q18 0 28 -10t10 -28v-58h90q15 0 23 -8.5t8 -22.5v-2q0 -31 -31 -31h-90v-547q0 -17 -10 -27
t-28 -10h-2q-17 0 -27 10zM696 -239q0 -10 -8 -20q-12 -15 -25 -15q-10 0 -21 8l-163 132q-12 9 -12 23q0 13 9 22q12 14 25 14q12 0 22 -9l160 -130q13 -10 13 -25z" />
    <glyph glyph-name="bn_ga.halant" horiz-adv-x="572" 
d="M419.5 4q-10.5 10 -10.5 27v346q0 95 -42.5 148t-118.5 53q-45 0 -80.5 -20.5t-54.5 -59.5l2 -2q29 8 55 8q64 0 98.5 -33.5t34.5 -89.5q0 -51 -32.5 -104.5t-93.5 -102.5q-14 -11 -30 -11q-15 0 -26 11t-11 26t16 28q51 40 76.5 79t25.5 73q0 28 -16.5 42.5t-47.5 14.5
q-23 0 -45 -6q-15 -5 -30 -5q-23 0 -38 15.5t-15 41.5q0 35 20 67q33 51 82.5 75t106.5 24q50 0 92 -18.5t72 -53.5v123q0 18 10.5 28t27.5 10h2q17 0 27 -10t10 -28v-58h91q14 0 22.5 -8.5t8.5 -22.5v-2q0 -15 -8.5 -23t-22.5 -8h-91v-547q0 -17 -10 -27t-27 -10h-2
q-17 0 -27.5 10zM642 -238q0 -11 -8 -21q-12 -15 -26 -15q-8 0 -21 8l-162 132q-12 9 -12 23q0 13 9 22q12 14 25 14q12 0 22 -9l160 -130q13 -10 13 -24z" />
    <glyph glyph-name="bn_gha.halant" horiz-adv-x="565" 
d="M413 4q-10 10 -10 27v55l-316 131q-32 15 -32 49q0 21 8 34t24 23l69 42v4q-51 12 -78 43.5t-27 73.5q0 31 10.5 54.5t25.5 37.5h-98q-31 0 -31 31v2q0 14 8 22.5t23 8.5h581q14 0 22 -8.5t8 -22.5v-2q0 -15 -8 -23t-22 -8h-91v-547q0 -17 -10 -27t-27 -10h-2
q-17 0 -27 10zM403 164v414h-191q-34 0 -59.5 -23.5t-25.5 -62.5q0 -38 24 -57t59 -19q17 0 29.5 4.5t24 11t15.5 8.5q10 5 20 5q15 0 24 -10t9 -25q0 -20 -19 -32l-170 -106zM639 -238q0 -11 -8 -21q-12 -15 -26 -15q-8 0 -21 8l-162 132q-12 9 -12 23q0 13 9 22
q12 14 25 14q12 0 22 -9l160 -130q13 -10 13 -24z" />
    <glyph glyph-name="bn_nga.halant" horiz-adv-x="665" 
d="M588.5 359q18.5 -21 29.5 -55t11 -71q0 -63 -28 -114.5t-85.5 -82.5t-143.5 -31q-102 0 -174 47.5t-110.5 130t-45.5 186.5q0 20 10.5 29.5t26.5 9.5q33 0 37 -36q11 -141 78 -219.5t178 -78.5q62 0 103.5 22t61.5 58t20 78q0 23 -5 42.5t-13 29.5q-38 -33 -85 -56.5
t-95 -23.5q-50 0 -82.5 27t-32.5 79v85q-50 26 -85.5 70t-53.5 93h-116q-31 0 -31 31v2q0 14 8 22.5t23 8.5h144q17 0 24 -9t20 -42q25 -66 67 -99v19q0 65 39 101t101 36q66 0 109.5 -35t43.5 -95q0 -63 -48 -97t-126 -34q-23 0 -42 3v-57q0 -22 11 -31t33 -9
q25 0 48.5 10.5t51.5 28.5q9 6 16 11t12 8q20 15 32 22t24 7q21 0 39.5 -21zM321 456q17 -4 42 -4q48 0 74 17.5t26 51.5q0 28 -20.5 45t-52.5 17q-31 0 -50 -18.5t-19 -53.5v-55zM564 -231q0 -10 -8 -21q-12 -14 -25 -14q-9 0 -22 8l-162 132q-12 9 -12 23q0 13 9 22
q11 14 25 14q12 0 22 -9l159 -131q14 -11 14 -24z" />
    <glyph glyph-name="bn_ca.halant" horiz-adv-x="497" 
d="M524.5 633.5q8.5 -8.5 8.5 -22.5v-2q0 -15 -8.5 -23t-22.5 -8h-344q0 -42 16.5 -70t63.5 -45l97 -34q50 -17 75.5 -37.5t33.5 -43.5t8 -57q0 -60 -32 -124t-87.5 -107t-121.5 -43q-56 0 -90.5 29.5t-34.5 88.5v443h-97q-31 0 -31 31v2q0 14 8 22.5t23 8.5h513
q14 0 22.5 -8.5zM162 429v-288q0 -30 12.5 -43t39.5 -13q39 0 77 32.5t62 80.5t24 91q0 26 -11.5 42.5t-41.5 27.5l-97 33q-47 16 -65 37zM400 -223q0 -10 -8 -21q-11 -14 -24 -14q-9 0 -22 8l-162 132q-12 9 -12 23q0 13 9 22q11 14 25 14q12 0 22 -9l159 -131
q13 -10 13 -24z" />
    <glyph glyph-name="bn_cha.halant" horiz-adv-x="572" 
 />
    <glyph glyph-name="bn_ja.halant" horiz-adv-x="825" 
d="M663 169q0 157 31 229l-28 -1q-96 2 -163.5 48.5t-94.5 132.5h-2q-43 -36 -75.5 -88t-32.5 -96q0 -30 18 -43.5t54 -13.5q27 0 47 5.5t46 15.5q27 12 42 12q21 0 36.5 -17t24.5 -45q12 -39 12 -76q0 -56 -24 -103.5t-75.5 -77t-130.5 -29.5q-97 0 -164.5 48.5t-103 132
t-40.5 190.5q-1 20 9.5 30.5t27.5 10.5q34 0 36 -35q7 -143 68 -225.5t168 -82.5q77 0 116.5 41t39.5 101q0 37 -15 67q-58 -33 -127 -33q-65 0 -103.5 31t-38.5 89q0 50 24 100t59 91h-315q-31 0 -31 31v2q0 14 8 22.5t23 8.5h841q15 0 23 -8.5t8 -22.5v-2q0 -31 -31 -31
h-342q17 -56 66.5 -84.5t112.5 -28.5q20 0 31 1t21 1q25 0 39 -18q12 -13 12 -34q0 -14 -8 -40q-11 -37 -18.5 -81.5t-7.5 -125.5v-162q0 -17 -9.5 -26.5t-26.5 -9.5h-2q-17 0 -26 9.5t-9 26.5v163zM892 -256q0 -10 -8 -20q-12 -15 -25 -15q-10 0 -21 9l-163 131
q-11 8 -11 23q0 12 9 23q10 13 24 13q12 0 22 -9l160 -130q13 -10 13 -25z" />
    <glyph glyph-name="bn_jha.halant" horiz-adv-x="745" 
d="M773 633.5q8 -8.5 8 -22.5v-2q0 -31 -31 -31h-88v-400q0 -26 -13.5 -40.5t-37.5 -14.5q-16 0 -28.5 5t-33.5 18l-116 72v-187q0 -17 -10 -27t-27 -10h-2q-17 0 -26.5 10t-9.5 27v55l-285 165q-32 19 -32 58t30 60q135 98 287 146v63h-369q-31 0 -31 31v2q0 14 8 22.5
t23 8.5h416q28 0 28 -26v-315l154 -96v496q0 17 9.5 27t26.5 10h2q17 0 27 -10t10 -27v-59h88q15 0 23 -8.5zM358 169v270q-45 -15 -110 -47t-132 -82zM594 -241q0 -10 -8 -20q-12 -15 -25 -15q-10 0 -21 9l-163 131q-11 8 -11 23q0 12 9 23q10 13 24 13q11 0 23 -9
l159 -130q13 -10 13 -25z" />
    <glyph glyph-name="bn_nya.halant" horiz-adv-x="862" 
d="M796.5 327.5q22.5 -35.5 22.5 -78.5q0 -65 -39.5 -104t-106.5 -39q-47 0 -85.5 18t-64.5 51v-137q0 -20 -8.5 -30t-27.5 -10q-24 0 -31 11.5t-10 36.5q-2 21 -7 34.5t-20.5 23t-46.5 9.5q-23 0 -79 -10q-24 -4 -50 -7.5t-49 -3.5q-67 0 -112.5 38t-54.5 118l-1 10
q0 15 8 26t26 13q32 5 39 -34q7 -53 31 -76t69 -23q28 0 86 10q8 1 34 5t47 4q54 0 81 -31v334q0 44 -20.5 68t-61.5 24q-38 0 -72.5 -20t-55 -54t-20.5 -75q0 -29 11.5 -48t30.5 -25v7q0 24 16 39t41 15q27 0 43.5 -17t16.5 -44q0 -32 -23 -52t-64 -20q-63 0 -103.5 38.5
t-40.5 107.5q0 64 30.5 113t80.5 75.5t109 26.5q55 0 93.5 -22.5t54.5 -68.5q26 38 65.5 59.5t83.5 21.5q67 0 108 -37t41 -101q0 -37 -18 -68.5t-52 -53.5q33 -12 55.5 -47.5zM723.5 197.5q20.5 23.5 20.5 59.5q0 38 -24 60t-67 22q-19 0 -30.5 7.5t-11.5 28.5q0 20 11 27
t31 7q42 0 62 23.5t20 58.5t-21 56t-57 21q-59 0 -96 -52.5t-37 -141.5q0 -95 37 -147.5t101 -52.5q41 0 61.5 23.5zM677 -241q0 -10 -8 -20q-11 -14 -25 -14q-10 0 -21 8l-163 132q-12 9 -12 22q0 10 9 23q12 13 25 13q11 0 22 -8l160 -131q13 -10 13 -25z" />
    <glyph glyph-name="bn_tta.halant" horiz-adv-x="536" 
d="M564 633.5q8 -8.5 8 -22.5v-2q0 -31 -31 -31h-378v-441q0 -61 73 -61q50 0 91.5 30t65 79t23.5 103q0 46 -18.5 70.5t-48.5 26.5q2 -10 2 -15q0 -26 -15.5 -42t-40.5 -16q-28 0 -44.5 15.5t-16.5 44.5q0 38 28 60t71 22q67 0 112 -44.5t45 -127.5q0 -69 -32.5 -132.5
t-90.5 -103t-131 -39.5q-66 0 -108 33t-42 97v441h-97q-31 0 -31 31v2q0 14 8 22.5t23 8.5h430q3 21 3 44q0 46 -20.5 66.5t-70.5 20.5q-25 0 -71 -2q-41 -3 -94 -3q-68 0 -104.5 31.5t-36.5 91.5q0 51 37 51q20 0 29 -10t9 -36q1 -35 23 -47.5t69 -12.5q25 0 75 2
q54 2 87 2q69 0 105 -37.5t36 -109.5q0 -27 -4 -51h50q15 0 23 -8.5zM429 -232q0 -11 -8 -21q-12 -15 -25 -15q-10 0 -21 8l-162 132q-12 9 -12 23q0 13 9 23q10 13 24 13q13 0 23 -9l159 -130q13 -10 13 -24z" />
    <glyph glyph-name="bn_ttha.halant" horiz-adv-x="534" 
d="M561.5 633.5q8.5 -8.5 8.5 -22.5v-2q0 -15 -8.5 -23t-22.5 -8h-216l47 -75q66 -103 92 -163t26 -114q0 -98 -55.5 -158.5t-157.5 -60.5q-72 0 -123.5 30.5t-78.5 85t-27 124.5q0 26 8 41t29 16q95 7 142.5 55.5t47.5 120.5q0 28 -6 46t-19 40q-2 4 -8 12h-251
q-31 0 -31 31v2q0 14 8 22.5t23 8.5h213q-34 59 -50.5 99.5t-16.5 77.5q0 59 33.5 92t89.5 33q49 0 49 -35q0 -13 -5 -21.5t-16 -9.5q-9 -1 -22 -1q-25 -1 -40.5 -15.5t-15.5 -44.5q0 -32 15.5 -69t45.5 -84l14 -22h256q14 0 22.5 -8.5zM396.5 319q-18.5 43 -59.5 111l-9 14
h-4q-5 -90 -55 -141t-146 -65v-7q0 -73 41.5 -114.5t109.5 -41.5q69 0 105 42.5t36 109.5q0 49 -18.5 92zM467 -233q0 -10 -8 -21q-12 -14 -25 -14q-9 0 -22 8l-162 132q-12 9 -12 23q0 13 9 22q12 14 25 14q12 0 22 -9l160 -131q13 -10 13 -24z" />
    <glyph glyph-name="bn_dda.halant" horiz-adv-x="651" 
d="M678.5 633.5q8.5 -8.5 8.5 -22.5v-2q0 -15 -8.5 -23t-22.5 -8h-327v-197q0 -43 36 -43q25 0 46 11t50 31q20 15 33 22.5t26 7.5q29 0 49.5 -24.5t31 -61t10.5 -70.5q0 -65 -26 -121.5t-83 -91.5t-145 -35q-107 0 -177 53.5t-103.5 141.5t-35.5 193q-1 19 10 28.5t26 9.5
t25.5 -9t11.5 -26q6 -159 67.5 -240.5t176.5 -81.5q91 0 135.5 52t44.5 129q0 46 -22 85q-78 -73 -156 -73q-50 0 -78.5 26.5t-28.5 80.5v203h-264q-31 0 -31 31v2q0 14 8 22.5t23 8.5h667q14 0 22.5 -8.5zM546 -231q0 -10 -8 -21q-11 -14 -25 -14q-10 0 -21 8l-163 132
q-11 8 -11 22q0 12 9 23q11 14 24 14q11 0 23 -9l159 -131q13 -10 13 -24z" />
    <glyph glyph-name="bn_rra.halant" horiz-adv-x="651" 
d="M678.5 633.5q8.5 -8.5 8.5 -22.5v-2q0 -15 -8.5 -23t-22.5 -8h-327v-197q0 -43 36 -43q25 0 46 11t50 31q20 15 33 22.5t26 7.5q29 0 49.5 -24.5t31 -61t10.5 -70.5q0 -65 -26 -121.5t-83 -91.5t-145 -35q-107 0 -177 53.5t-103.5 141.5t-35.5 193q-1 19 10 28.5t26 9.5
t25.5 -9t11.5 -26q6 -159 67.5 -240.5t176.5 -81.5q91 0 135.5 52t44.5 129q0 46 -22 85q-78 -73 -156 -73q-50 0 -78.5 26.5t-28.5 80.5v203h-264q-31 0 -31 31v2q0 14 8 22.5t23 8.5h667q14 0 22.5 -8.5zM389 -159.5q-17 -16.5 -42 -16.5t-41.5 16.5t-16.5 39.5
q0 25 16.5 41.5t41.5 16.5t42 -16.5t17 -41.5q0 -23 -17 -39.5zM537 -401q0 -10 -8 -20q-12 -14 -25 -14q-9 0 -22 8l-162 131q-12 9 -12 23q0 12 9 23q12 13 25 13q11 0 22 -8l160 -131q13 -10 13 -25z" />
    <glyph glyph-name="bn_ddha.halant" horiz-adv-x="536" 
d="M563 633.5q8 -8.5 8 -22.5v-2q0 -15 -8 -23t-22 -8h-378v-441q0 -61 73 -61q50 0 91.5 30t65 79t23.5 103q0 46 -18.5 70.5t-48.5 26.5q2 -10 2 -15q0 -26 -15.5 -42t-40.5 -16q-28 0 -44.5 15.5t-16.5 44.5q0 38 27.5 60t71.5 22q67 0 112 -44.5t45 -127.5
q0 -69 -32.5 -132.5t-90.5 -103t-131 -39.5q-66 0 -108 33t-42 97v441h-97q-31 0 -31 31v2q0 14 8 22.5t23 8.5h552q14 0 22 -8.5zM425 -230q0 -11 -8 -21q-11 -14 -24 -14q-9 0 -22 8l-162 132q-12 9 -12 23q0 11 9 22q11 14 25 14q11 0 22 -9l159 -131q13 -10 13 -24z" />
    <glyph glyph-name="bn_rha.halant" horiz-adv-x="536" 
d="M563 633.5q8 -8.5 8 -22.5v-2q0 -15 -8 -23t-22 -8h-378v-441q0 -61 73 -61q50 0 91.5 30t65 79t23.5 103q0 46 -18.5 70.5t-48.5 26.5q2 -10 2 -15q0 -26 -15.5 -42t-40.5 -16q-28 0 -44.5 15.5t-16.5 44.5q0 38 27.5 60t71.5 22q67 0 112 -44.5t45 -127.5
q0 -69 -32.5 -132.5t-90.5 -103t-131 -39.5q-66 0 -108 33t-42 97v441h-97q-31 0 -31 31v2q0 14 8 22.5t23 8.5h552q14 0 22 -8.5zM269.5 -157.5q-17.5 -16.5 -42.5 -16.5q-24 0 -40.5 16.5t-16.5 39.5q0 24 16.5 41t40.5 17q25 0 42.5 -17t17.5 -41q0 -23 -17.5 -39.5z
M420 -406q0 -10 -8 -20q-12 -15 -25 -15q-10 0 -21 9l-163 131q-11 8 -11 23q0 12 9 23q10 13 25 13q9 0 22 -8l159 -131q13 -10 13 -25z" />
    <glyph glyph-name="bn_nna.halant" horiz-adv-x="557" 
d="M405 4q-10 10 -10 27v364q0 94 -41 138.5t-108 44.5q-62 0 -98.5 -37t-36.5 -99q0 -48 21.5 -77.5t57.5 -39.5q-1 3 -1 9q0 25 17 41t42 16t43 -17.5t18 -43.5q0 -35 -24.5 -55.5t-69.5 -20.5q-49 0 -90 22.5t-65.5 65.5t-24.5 100q0 64 27.5 110t75 70t104.5 24
q55 0 93.5 -19.5t59.5 -44.5v118q0 18 10 28t27 10h2q18 0 28 -10t10 -28v-58h90q15 0 23 -8.5t8 -22.5v-2q0 -31 -31 -31h-90v-547q0 -17 -10 -27t-28 -10h-2q-17 0 -27 10zM627 -238q0 -11 -8 -21q-12 -15 -25 -15q-9 0 -21 9l-162 131q-12 9 -12 23q0 13 9 23
q10 13 24 13q13 0 23 -9l159 -130q13 -10 13 -24z" />
    <glyph glyph-name="bn_ta.halant" horiz-adv-x="623" 
 />
    <glyph glyph-name="bn_da.halant" horiz-adv-x="528" 
d="M366 160q0 146 22 219q-42 -24 -97.5 -69.5t-114.5 -108.5q-14 -14 -26 -21t-28 -7q-22 0 -34 12.5t-12 36.5v356h-87q-31 0 -31 31v2q0 14 8 22.5t23 8.5h544q15 0 23 -8.5t8 -22.5v-2q0 -31 -31 -31h-380v-151q0 -80 -5 -143l4 -1q49 53 110 99.5t111 68.5q15 6 30 6
q21 0 35 -11t18.5 -22.5t4.5 -24.5q0 -14 -5 -37q-7 -36 -11 -79.5t-4 -123.5v-128q0 -17 -9.5 -27t-26.5 -10h-2q-17 0 -27 10t-10 27v129zM597 -239q0 -11 -8 -21q-12 -14 -25 -14q-9 0 -22 8l-162 132q-12 9 -12 23q0 11 9 22q12 13 25 13q11 0 22 -8l160 -131
q13 -10 13 -24z" />
    <glyph glyph-name="bn_dha.halant" horiz-adv-x="569" 
d="M409 31v55l-311 132q-35 15 -35 53q0 36 33 53l61 31v4q-50 16 -76 52.5t-26 84.5t21.5 82.5t56.5 51.5t76 17q60 0 94 -28t34 -67q0 -26 -15.5 -43t-43.5 -17q-26 0 -42.5 15.5t-16.5 40.5q0 18 9 31q-4 1 -11 1q-40 0 -63.5 -22.5t-23.5 -62.5q0 -41 27 -64.5t67 -23.5
q22 0 40.5 6.5t47.5 21.5l95 49v128q0 16 5.5 23t19.5 7h142q15 0 23 -8.5t8 -22.5v-2q0 -31 -31 -31h-90v-547q0 -18 -9.5 -27.5t-26.5 -9.5h-2q-37 0 -37 37zM409 161v245l-259 -133zM641 -238q0 -11 -8 -21q-11 -15 -25 -15q-10 0 -21 8l-162 132q-12 9 -12 23q0 13 9 22
q11 14 24 14q11 0 23 -9l159 -130q13 -10 13 -24z" />
    <glyph glyph-name="bn_na.halant" horiz-adv-x="550" 
d="M392 29q-10 84 -40 155t-77.5 114t-107.5 43q-19 0 -31 -4q22 -15 22 -42q0 -26 -16.5 -42t-43.5 -16q-29 0 -48 18.5t-19 48.5q0 48 35.5 77.5t96.5 29.5q74 0 135.5 -42t97.5 -121l3 1q-11 81 -11 161v168h-399q-31 0 -31 31v2q0 14 8 22.5t23 8.5h566q15 0 23 -8.5
t8 -22.5v-2q0 -31 -31 -31h-90v-548q0 -36 -35 -36q-33 0 -38 35zM628 -238q0 -11 -8 -21q-12 -15 -26 -15q-8 0 -21 8l-162 132q-12 9 -12 23q0 13 9 22q12 14 25 14q12 0 22 -9l160 -130q13 -10 13 -24z" />
    <glyph glyph-name="bn_na.nukta.halant" horiz-adv-x="550" 
d="M392 29q-10 84 -40 155t-77.5 114t-107.5 43q-19 0 -31 -4q22 -15 22 -42q0 -26 -16.5 -42t-43.5 -16q-29 0 -48 18.5t-19 48.5q0 48 35.5 77.5t96.5 29.5q74 0 135.5 -42t97.5 -121l3 1q-11 81 -11 161v168h-399q-31 0 -31 31v2q0 14 8 22.5t23 8.5h566q15 0 23 -8.5
t8 -22.5v-2q0 -31 -31 -31h-90v-548q0 -36 -35 -36q-33 0 -38 35zM245 95q17 -17 17 -41q0 -23 -17 -39.5t-42 -16.5t-41.5 16t-16.5 40t16.5 41t41.5 17t42 -17zM628 -238q0 -11 -8 -21q-12 -15 -26 -15q-8 0 -21 8l-162 132q-12 9 -12 23q0 13 9 22q12 14 25 14
q12 0 22 -9l160 -130q13 -10 13 -24z" />
    <glyph glyph-name="bn_pa.halant" horiz-adv-x="654" 
d="M501 4q-10 10 -10 27v411l-271 -220q-12 -10 -26 -10q-13 0 -24.5 11.5t-11.5 24.5q0 16 18 32l73 58q-27 44 -55 63.5t-67 19.5q-16 0 -28 -2t-19 -2q-19 0 -32 15t-13 35q0 27 16 53q37 65 93 99t128 34q68 0 122.5 -33t92.5 -90l4 4v166q0 18 10 28t27 10h2
q18 0 28 -10t10 -28v-58h90q15 0 23 -8.5t8 -22.5v-2q0 -31 -31 -31h-90v-547q0 -17 -10 -27t-28 -10h-2q-17 0 -27 10zM227 463q41 -24 76 -81l131 106q-70 97 -160 97q-52 0 -92.5 -27t-65.5 -72q6 1 19 1q51 0 92 -24zM725 -239q0 -10 -8 -20q-11 -15 -25 -15
q-10 0 -21 8l-163 132q-11 8 -11 22q0 12 9 23q11 14 24 14q12 0 22 -9l160 -130q13 -10 13 -25z" />
    <glyph glyph-name="bn_pha.halant" horiz-adv-x="734" 
 />
    <glyph glyph-name="bn_ba.halant" horiz-adv-x="519" 
d="M367.5 4q-9.5 10 -9.5 27v55l-283 164q-33 20 -33 59t30 61q64 46 127.5 78.5t109 49.5t49.5 17v63h-369q-31 0 -31 31v2q0 14 8 22.5t23 8.5h534q15 0 23 -8.5t8 -22.5v-2q0 -31 -31 -31h-90v-547q0 -17 -10 -27t-27 -10h-2q-17 0 -26.5 10zM358 171v270
q-45 -15 -110.5 -47.5t-132.5 -82.5zM588 -239q0 -10 -8 -20q-12 -15 -26 -15q-8 0 -21 8l-162 132q-12 9 -12 23q0 13 9 22q12 14 25 14q12 0 22 -9l159 -130q14 -11 14 -25z" />
    <glyph glyph-name="bn_bha.halant" horiz-adv-x="645" 
d="M673 633.5q8 -8.5 8 -22.5v-2q0 -31 -31 -31h-661q-31 0 -31 31v2q0 14 8 22.5t23 8.5h661q15 0 23 -8.5zM571 394q30 -57 30 -121q0 -66 -27.5 -121t-84 -88.5t-139.5 -33.5q-142 0 -222.5 101.5t-88.5 280.5q-1 18 9.5 28.5t26.5 10.5q37 0 38 -33q7 -162 71 -241
t166 -79q90 0 134 50t44 125q0 28 -6.5 51.5t-16.5 38.5q-52 -91 -145 -91q-59 0 -97.5 35.5t-38.5 97.5q0 40 21 65.5t55 25.5q26 0 43 -16.5t17 -40.5q0 -25 -16 -41.5t-43 -16.5h-2q14 -41 63 -41q41 0 73 40l13 17q18 24 30.5 35t30.5 11q37 0 62 -49zM535 -216
q0 -10 -8 -20q-11 -14 -25 -14q-10 0 -21 8l-163 132q-11 8 -11 22q0 12 9 23q10 13 24 13q11 0 22 -8l160 -131q13 -10 13 -25z" />
    <glyph glyph-name="bn_ma.halant" horiz-adv-x="550" 
d="M399 4q-10 10 -10 27v61q-32 47 -76.5 86t-93.5 59q-33 -30 -81 -30q-42 0 -64.5 15.5t-22.5 44.5q0 30 23 48.5t62 18.5q24 0 53 -8q12 26 12 55q0 54 -36 94.5t-97 58.5q-16 6 -25 15t-9 29h-45q-31 0 -31 31v2q0 14 8 22.5t23 8.5h565q15 0 23 -8.5t8 -22.5v-2
q0 -31 -31 -31h-90v-547q0 -17 -9.5 -27t-26.5 -10h-2q-17 0 -27 10zM334.5 249q35.5 -28 58.5 -56l4 2q-8 101 -8 173v210h-242q60 -32 93 -83.5t33 -117.5q0 -42 -14 -79q40 -21 75.5 -49zM620 -239q0 -10 -8 -20q-12 -15 -26 -15q-8 0 -21 8l-162 132q-12 9 -12 23
q0 13 9 22q12 14 25 14q12 0 22 -9l159 -130q14 -11 14 -25z" />
    <glyph glyph-name="bn_ya.halant" horiz-adv-x="531" 
d="M380 4q-10 10 -10 26v56l-273 131q-17 9 -24.5 21.5t-7.5 31.5q0 39 28 62l112 88l-127 96q-17 12 -24.5 26t-7.5 34v2h-57q-31 0 -31 31v2q0 14 8 22.5t23 8.5h547q14 0 22.5 -8.5t8.5 -22.5v-2q0 -15 -8.5 -23t-22.5 -8h-91v-548q0 -17 -10 -26.5t-27 -9.5h-2
q-16 0 -26 10zM370 165v413h-252l140 -108q12 -10 18 -21t6 -27q0 -33 -24 -51l-117 -95zM600 -239q0 -10 -8 -20q-10 -15 -25 -15q-10 0 -21 8l-163 132q-12 9 -12 23q0 13 9 22q12 14 25 14q12 0 22 -9l160 -130q13 -10 13 -25z" />
    <glyph glyph-name="bn_yya.halant" horiz-adv-x="531" 
d="M380 4q-10 10 -10 26v56l-273 131q-17 9 -24.5 21.5t-7.5 31.5q0 39 28 62l112 88l-127 96q-17 12 -24.5 26t-7.5 34v2h-57q-31 0 -31 31v2q0 14 8 22.5t23 8.5h547q14 0 22.5 -8.5t8.5 -22.5v-2q0 -15 -8.5 -23t-22.5 -8h-91v-548q0 -17 -10 -26.5t-27 -9.5h-2
q-16 0 -26 10zM370 165v413h-252l140 -108q12 -10 18 -21t6 -27q0 -33 -24 -51l-117 -95zM195 93.5q17 -16.5 17 -40.5t-17 -40.5t-43 -16.5q-24 0 -41 17t-17 40q0 24 16.5 40.5t41.5 16.5q26 0 43 -16.5zM600 -239q0 -10 -8 -20q-10 -15 -25 -15q-10 0 -21 8l-163 132
q-11 8 -11 22q0 12 9 23q11 14 24 14q11 0 23 -9l159 -130q13 -10 13 -25z" />
    <glyph glyph-name="bn_la.halant" horiz-adv-x="701" 
d="M540 306q0 55 -19.5 85t-53.5 30q-31 0 -49.5 -25t-22.5 -71q-3 -17 -11 -26t-26 -9t-26 9t-12 26q-7 47 -33.5 71.5t-67.5 24.5q-44 0 -71 -28.5t-27 -84.5q0 -52 22.5 -80.5t59.5 -34.5q-1 4 -1 11q0 25 16 41t43 16t43.5 -17.5t16.5 -44.5q0 -35 -27.5 -54t-73.5 -19
q-77 0 -125.5 50t-48.5 132q0 80 47 130t125 50q39 0 75.5 -16t59.5 -49q20 35 50 50t58 15q47 0 79 -30v120h-551q-31 0 -31 31v2q0 14 8 22.5t23 8.5h717q15 0 23 -8.5t8 -22.5v-2q0 -31 -31 -31h-90v-547q0 -17 -10 -27t-27 -10h-2q-17 0 -27 10t-10 27v275zM769 -239
q0 -10 -8 -20q-13 -15 -26 -15q-9 0 -21 9l-162 131q-12 9 -12 23q0 12 9 23q12 13 25 13q12 0 22 -9l160 -130q13 -10 13 -25z" />
    <glyph glyph-name="bn_sha.halant" horiz-adv-x="590" 
 />
    <glyph glyph-name="bn_ssa.halant" horiz-adv-x="538" 
d="M387.5 3.5q-9.5 9.5 -9.5 26.5v55l-289 135q-32 15 -32 52q0 19 6.5 33t21.5 26l118 95l-123 91q-17 11 -24.5 25t-7.5 34v2h-59q-31 0 -31 31v2q0 14 8 22.5t23 8.5h554q15 0 23 -8.5t8 -22.5v-2q0 -31 -31 -31h-90v-548q0 -17 -10 -26.5t-27 -9.5h-2q-17 0 -26.5 9.5z
M110 578l132 -95l5 -4l131 -94v193h-268zM378 160v141l-116 83l-130 -106zM610 -239q0 -10 -8 -20q-12 -15 -26 -15q-8 0 -21 8l-162 132q-12 9 -12 23q0 13 9 22q12 14 25 14q12 0 22 -9l159 -130q14 -11 14 -25z" />
    <glyph glyph-name="bn_sa.halant" horiz-adv-x="591" 
d="M440.5 4q-9.5 10 -9.5 27v259q0 32 -13.5 50t-38.5 18q-28 0 -45.5 -21.5t-39.5 -65.5q-21 -40 -37 -64t-42.5 -41.5t-64.5 -17.5q-37 0 -65.5 16.5t-52.5 50.5q-8 13 -8 26q0 15 10 25t24 10q10 0 17.5 -4.5t15.5 -14.5q27 -40 59 -40q24 0 41 20.5t40 64.5q3 6 11 21
t15 26q-23 63 -59.5 107t-78.5 67q-22 13 -30 24.5t-8 30.5h-92q-31 0 -31 31v2q0 14 8 22.5t23 8.5h607q15 0 23 -8.5t8 -22.5v-2q0 -31 -31 -31h-90v-547q0 -17 -10 -27t-27 -10h-2q-17 0 -26.5 10zM431 406v172h-265q95 -64 142 -171q30 20 64 20q38 0 59 -21zM661 -238
q0 -11 -8 -21q-10 -15 -25 -15q-8 0 -21 8l-162 132q-12 9 -12 23q0 13 9 22q11 14 25 14q12 0 22 -9l159 -130q13 -10 13 -24z" />
    <glyph glyph-name="bn_ha.halant" horiz-adv-x="437" 
d="M465 633.5q8 -8.5 8 -22.5v-2q0 -31 -31 -31h-321q26 -34 45 -75q22 5 43 5q80 0 128.5 -48.5t48.5 -126.5q0 -73 -46.5 -123.5t-141.5 -59.5v-4q7 -3 35 -17.5t64 -37.5l68 -45q20 -12 20 -32q0 -15 -9 -25t-24 -10q-13 0 -27 8l-241 152q-23 14 -23 37q0 18 11 29
t29 11q6 0 22 -2q20 -4 48 -4q59 0 99.5 30.5t40.5 92.5q0 49 -27.5 78.5t-76.5 29.5q-9 0 -19 -2q4 -26 4 -41q0 -39 -16.5 -60t-45.5 -21q-27 0 -45 17.5t-18 50.5q0 27 10.5 50t30.5 40q-39 64 -83 103h-36q-31 0 -31 31v2q0 14 8 22.5t23 8.5h453q15 0 23 -8.5z
M388 -185q0 -11 -8 -21q-12 -15 -26 -15q-9 0 -20 8l-162 132q-12 9 -12 23q0 12 9 23q10 13 24 13q13 0 23 -9l159 -130q13 -10 13 -24z" />
    <glyph glyph-name="bn_ka.half" horiz-adv-x="690" 
d="M717 633.5q8 -8.5 8 -22.5v-2q0 -31 -31 -31h-283v-51q67 -3 118.5 -29t80 -69.5t28.5 -95.5q0 -53 -24 -86t-70 -33q-29 0 -48.5 14.5t-19.5 42.5q0 26 16 41.5t41 15.5q20 0 34 -11q1 6 1 18q0 52 -42.5 85.5t-114.5 37.5v-255q0 -24 -13 -36t-36 -12q-17 0 -31.5 5
t-35.5 17l-216 112q-37 19 -37 58q0 40 30 63q122 96 264 113v55h-347q-31 0 -31 31v2q0 14 8 22.5t23 8.5h705q15 0 23 -8.5zM336 238v215q-56 -10 -112.5 -36t-106.5 -67z" />
    <glyph glyph-name="bn_kha.half" horiz-adv-x="616" 
d="M643.5 633.5q8.5 -8.5 8.5 -22.5v-2q0 -15 -8.5 -23t-22.5 -8h-91v-366q0 -24 -13.5 -35.5t-36.5 -11.5q-15 0 -33 5t-39 12l-337 127q-27 10 -27 37q0 17 10 29.5t28 12.5q6 0 28 -4q30 -6 55 -6q151 0 151 116q0 33 -17 59q-16 -47 -50 -73t-86 -26q-61 0 -98 33
t-37 85q0 35 18.5 57.5t49.5 22.5q27 0 42.5 -16t15.5 -39q0 -24 -13.5 -39t-37.5 -17q8 -10 23 -16t34 -6q35 0 51.5 19t29.5 53q12 28 21.5 40.5t28.5 12.5q31 0 57 -33q40 -53 40 -120q0 -150 -166 -168v-4q5 -1 23.5 -4.5t49.5 -12.5t67 -23l94 -37v458q0 18 9.5 28
t26.5 10h2q17 0 26.5 -10t9.5 -28v-58h91q14 0 22.5 -8.5z" />
    <glyph glyph-name="bn_ga.half" horiz-adv-x="558" 
 />
    <glyph glyph-name="bn_gha.half" horiz-adv-x="570" 
d="M598 633.5q8 -8.5 8 -22.5v-2q0 -31 -31 -31h-96v-374q0 -28 -14.5 -43t-40.5 -15q-14 0 -30.5 4t-34.5 10l-265 85q-31 9 -31 48q0 34 27 49l68 37v4q-51 12 -77 41.5t-26 71.5q0 52 32 82h-98q-31 0 -31 31v2q0 14 8 22.5t23 8.5h586q15 0 23 -8.5zM404 578h-190
q-36 0 -60 -19.5t-24 -58.5q0 -36 23.5 -52.5t57.5 -16.5q37 0 75 21q13 5 19 5q14 0 23 -11.5t9 -26.5q0 -18 -20 -30l-163 -91l250 -78v358z" />
    <glyph glyph-name="bn_cha.half" horiz-adv-x="570" 
 />
    <glyph glyph-name="bn_ja.half" horiz-adv-x="746" 
d="M774 633.5q8 -8.5 8 -22.5v-2q0 -31 -31 -31h-315q38 -64 153 -64l43 1q30 0 45 -14t15 -38q0 -13 -9 -40q-12 -39 -19 -82.5t-7 -125.5v-95q0 -16 -9 -25.5t-26 -9.5h-2q-16 0 -25.5 9.5t-9.5 25.5v99q0 144 29 228q-5 -1 -21 -1q-84 0 -145.5 33t-91.5 99h-5
q-35 -29 -61 -69t-26 -72q0 -44 57 -44q28 0 48.5 5t42.5 14q2 1 15 5.5t24 4.5q27 0 47 -39.5t20 -88.5q0 -80 -52 -130t-151 -50q-77 0 -138 35.5t-99 109t-43 181.5q-2 42 39 42q18 0 25 -10t9 -26q8 -142 65 -202.5t142 -60.5q64 0 98 31t34 80q0 17 -2.5 28.5
t-8.5 25.5q-53 -23 -113 -23q-65 0 -100 27.5t-35 79.5q0 73 64 146h-263q-31 0 -31 31v2q0 14 8 22.5t23 8.5h762q15 0 23 -8.5z" />
    <glyph glyph-name="bn_jha.half" horiz-adv-x="719" 
 />
    <glyph glyph-name="bn_nya.half" horiz-adv-x="843" 
d="M800 291q0 -56 -36 -94t-113 -38q-43 0 -80.5 16.5t-62.5 46.5v-95q0 -39 -34 -39q-21 0 -27.5 11.5t-10.5 36.5q-3 22 -8.5 36t-21.5 24t-47 10q-24 0 -74 -8q-5 -1 -32 -5t-54 -4q-63 0 -109 36t-57 119q-3 21 7 33t29 12q17 0 24.5 -8t10.5 -24q10 -56 37 -77t68 -21
q32 0 80 10q44 8 64 8q28 0 46.5 -7.5t35.5 -22.5v246q0 87 -79 87q-35 0 -65 -18.5t-48 -50t-18 -66.5q0 -20 7.5 -33.5t19.5 -19.5q-1 3 -1 9q2 22 17 35.5t38 13.5q26 0 42 -17t16 -42q0 -32 -22 -51.5t-64 -19.5q-56 0 -89.5 33t-33.5 93q0 55 27.5 101t73.5 72.5
t100 26.5q46 0 82.5 -21t54.5 -61q52 79 151 79q65 0 107 -34t42 -95q0 -73 -64 -108q71 -31 71 -115zM709.5 245q19.5 20 19.5 53q0 34 -22 53t-67 19q-41 0 -41 34q0 18 11.5 27t29.5 9q40 0 60.5 18t20.5 51q0 30 -20 49t-59 19q-55 0 -95 -43t-40 -129q0 -90 41 -135
t102 -45q40 0 59.5 20z" />
    <glyph glyph-name="bn_tta.half" horiz-adv-x="518" 
d="M546 633.5q8 -8.5 8 -22.5v-2q0 -31 -31 -31h-363v-277q0 -39 26 -57t71 -18q64 0 103 39t39 101q0 36 -14 54t-37 20q2 -10 2 -15q0 -24 -16 -40t-42 -16q-25 0 -41 15.5t-16 41.5q0 38 28 59t71 21q62 0 99.5 -36.5t37.5 -104.5q0 -57 -26 -103t-76 -72.5t-118 -26.5
q-74 0 -120 34.5t-46 103.5v277h-96q-31 0 -31 31v2q0 14 8 22.5t23 8.5h416q3 21 3 44q0 46 -20 66.5t-71 20.5q-25 0 -67 -2q-36 -3 -89 -3q-68 0 -104.5 31.5t-36.5 91.5q0 51 37 51q20 0 28.5 -10t9.5 -36q1 -35 23 -47.5t68 -12.5q26 0 74 2q50 2 80 2q70 0 106 -38
t36 -109q0 -21 -5 -51h46q15 0 23 -8.5z" />
    <glyph glyph-name="bn_ttha.half" horiz-adv-x="531" 
 />
    <glyph glyph-name="bn_dda.half" horiz-adv-x="627" 
d="M655 633.5q8 -8.5 8 -22.5v-2q0 -31 -31 -31h-315v-133q0 -23 9.5 -32.5t29.5 -9.5q25 0 46.5 11t48.5 30q20 14 32 20.5t23 6.5q34 0 55 -47t21 -100q0 -92 -62 -150t-183 -58q-136 0 -210.5 85.5t-83.5 237.5q-1 18 9.5 28.5t29.5 10.5q32 0 35 -33q9 -136 66.5 -199
t154.5 -63q83 0 127.5 38.5t44.5 102.5q0 43 -17 72q-74 -63 -146 -63q-46 0 -76 25t-30 78v142h-252q-31 0 -31 31v2q0 14 8 22.5t23 8.5h643q15 0 23 -8.5z" />
    <glyph glyph-name="bn_rra.half" horiz-adv-x="627" 
d="M655 633.5q8 -8.5 8 -22.5v-2q0 -31 -31 -31h-315v-133q0 -23 9.5 -32.5t29.5 -9.5q25 0 46.5 11t48.5 30q20 14 32 20.5t23 6.5q34 0 55 -47t21 -100q0 -92 -62 -150t-183 -58q-136 0 -210.5 85.5t-83.5 237.5q-1 18 9.5 28.5t29.5 10.5q32 0 35 -33q9 -136 66.5 -199
t154.5 -63q83 0 127.5 38.5t44.5 102.5q0 43 -17 72q-74 -63 -146 -63q-46 0 -76 25t-30 78v142h-252q-31 0 -31 31v2q0 14 8 22.5t23 8.5h643q15 0 23 -8.5zM376.5 29.5q17.5 -16.5 17.5 -40.5t-17.5 -40.5t-42.5 -16.5q-24 0 -40.5 16.5t-16.5 40.5t16.5 40.5t40.5 16.5
q25 0 42.5 -16.5z" />
    <glyph glyph-name="bn_ddha.half" horiz-adv-x="518" 
d="M546 633.5q8 -8.5 8 -22.5v-2q0 -31 -31 -31h-364v-277q0 -39 26.5 -57t71.5 -18q64 0 103 39t39 101q0 35 -14 53.5t-37 20.5q2 -10 2 -15q0 -24 -16 -40t-42 -16q-25 0 -41.5 15.5t-16.5 41.5q0 38 28 59t71 21q62 0 100 -36.5t38 -104.5q0 -57 -26 -103t-76 -72.5
t-118 -26.5q-74 0 -120.5 34.5t-46.5 103.5v277h-95q-31 0 -31 31v2q0 14 8 22.5t23 8.5h534q15 0 23 -8.5z" />
    <glyph glyph-name="bn_rha.half" horiz-adv-x="519" 
d="M546 633.5q8 -8.5 8 -22.5v-2q0 -31 -31 -31h-364v-277q0 -39 26.5 -57t71.5 -18q64 0 103 39t39 101q0 35 -14 53.5t-37 20.5q2 -10 2 -15q0 -24 -16 -40t-42 -16q-25 0 -41.5 15.5t-16.5 41.5q0 38 28 59t71 21q62 0 100 -36.5t38 -104.5q0 -57 -26 -103t-76 -72.5
t-118 -26.5q-74 0 -120.5 34.5t-46.5 103.5v277h-95q-31 0 -31 31v2q0 14 8 22.5t23 8.5h534q15 0 23 -8.5zM282 89q17 -17 17 -41q0 -23 -17 -39.5t-42 -16.5t-41.5 16.5t-16.5 39.5q0 24 16.5 41t41.5 17t42 -17z" />
    <glyph glyph-name="bn_ta.half" horiz-adv-x="589" 
d="M616.5 633.5q8.5 -8.5 8.5 -22.5v-2q0 -15 -8.5 -23t-22.5 -8h-605q-31 0 -31 31v2q0 14 8 22.5t23 8.5h605q14 0 22.5 -8.5zM490 471.5q49 -52.5 49 -146.5q0 -102 -57.5 -161t-168.5 -59q-135 0 -200.5 90t-71.5 246q-3 43 39 43q18 0 26.5 -10.5t9.5 -26.5
q4 -130 52 -202t146 -72q72 0 111.5 41t39.5 114q0 63 -28.5 95t-77.5 32q-28 0 -48 -12.5t-27 -33.5h7q25 0 42 -16t17 -41q0 -26 -16 -42t-43 -16q-39 0 -60 26.5t-21 66.5q0 64 41.5 100.5t105.5 36.5q84 0 133 -52.5z" />
    <glyph glyph-name="bn_dha.half" horiz-adv-x="547" 
d="M575 633.5q8 -8.5 8 -22.5v-2q0 -31 -31 -31h-90v-399q0 -45 -49 -45q-26 0 -61 13l-263 100q-36 14 -36 50q0 21 7.5 34t25.5 22l52 27v4q-95 32 -95 127q0 68 44 106.5t108 38.5q61 0 94 -26.5t33 -64.5q0 -25 -15.5 -41.5t-43.5 -16.5q-24 0 -40 15.5t-16 39.5
q0 14 7 28q-4 1 -11 1q-39 0 -63 -22t-24 -60q0 -40 25 -58.5t63 -18.5q23 0 46.5 8.5t58.5 24.5l78 40v106q0 14 8.5 22.5t22.5 8.5h134q15 0 23 -8.5zM387 210v218l-246 -124z" />
    <glyph glyph-name="bn_na.nukta.half" horiz-adv-x="594" 
 />
    <glyph glyph-name="bn_pha.half" horiz-adv-x="755" 
d="M782.5 633.5q8.5 -8.5 8.5 -22.5v-2q0 -15 -8.5 -23t-22.5 -8h-618l107 -67q21 -13 31 -28t10 -35q0 -22 -7.5 -37.5t-26.5 -27.5l-105 -66l241 -87v226q0 35 26.5 47t70.5 12q57 0 105.5 -19.5t79 -61t30.5 -103.5q0 -58 -27.5 -94.5t-74.5 -36.5q-27 0 -46.5 15
t-19.5 42q0 25 16.5 41t41.5 16q20 0 36 -11q2 16 2 28q0 51 -36 82t-102 31l-27 -1v-245q0 -46 -47 -46q-26 0 -64 13l-238 87q-22 8 -32.5 22t-10.5 37q0 41 35 63l112 70l-121 75q-17 11 -26 24.5t-9 34.5h-77q-31 0 -31 31v2q0 14 8 22.5t23 8.5h771q14 0 22.5 -8.5z
" />
    <glyph glyph-name="bn_ba.half" horiz-adv-x="504" 
d="M531.5 633.5q8.5 -8.5 8.5 -22.5v-2q0 -15 -8.5 -23t-22.5 -8h-91v-366q0 -24 -12 -36.5t-33 -12.5q-18 0 -33.5 4.5t-36.5 15.5l-213 105q-42 18 -42 62q0 22 9.5 37t27.5 27q111 68 259 129v35h-355q-31 0 -31 31v2q0 14 8 22.5t23 8.5h520q14 0 22.5 -8.5zM344 245
v218q-121 -52 -221 -111z" />
    <glyph glyph-name="bn_bha.half" horiz-adv-x="611" 
d="M638.5 633.5q8.5 -8.5 8.5 -22.5v-2q0 -15 -8.5 -23t-22.5 -8h-627q-31 0 -31 31v2q0 14 8 22.5t23 8.5h627q14 0 22.5 -8.5zM505.5 496.5q15.5 -15.5 29.5 -41.5q15 -27 23 -61t8 -63q0 -103 -59.5 -166.5t-176.5 -63.5q-135 0 -209.5 95.5t-83.5 253.5q-1 17 7 31.5
t29 15.5q20 0 28.5 -11t8.5 -27q7 -143 64 -216t159 -73q79 0 119 44.5t40 115.5q0 46 -23 87q-17 -39 -50 -66.5t-88 -27.5q-53 0 -90 32t-37 86q0 36 19 58.5t51 22.5q26 0 43 -16t17 -41q0 -23 -13 -38.5t-36 -17.5q15 -20 46 -20q33 0 52.5 21t37.5 58q12 23 23 33.5
t27 10.5q19 0 34.5 -15.5z" />
    <glyph glyph-name="bn_ya.half" horiz-adv-x="548" 
d="M576 633.5q8 -8.5 8 -22.5v-2q0 -31 -31 -31h-90v-375q0 -22 -13 -34t-34 -12q-27 0 -63 12l-237 87q-43 16 -43 58q0 21 7.5 36t25.5 27l112 69l-124 74q-33 19 -33 58h-72q-31 0 -31 31v2q0 14 8 22.5t23 8.5h564q15 0 23 -8.5zM387 578h-248l111 -69
q19 -12 28.5 -26.5t9.5 -35.5t-7 -35.5t-24 -25.5l-105 -65l235 -87v344z" />
    <glyph glyph-name="bn_yya.half" horiz-adv-x="548" 
d="M576 633.5q8 -8.5 8 -22.5v-2q0 -31 -31 -31h-90v-375q0 -22 -13 -34t-34 -12q-27 0 -63 12l-237 87q-43 16 -43 58q0 21 7.5 36t25.5 27l112 69l-124 74q-33 19 -33 58h-72q-31 0 -31 31v2q0 14 8 22.5t23 8.5h564q15 0 23 -8.5zM387 578h-248l111 -69
q19 -12 28.5 -26.5t9.5 -35.5t-7 -35.5t-24 -25.5l-105 -65l235 -87v344zM207 154.5q17 -16.5 17 -40.5q0 -23 -17 -39.5t-42 -16.5t-41.5 16.5t-16.5 39.5q0 24 16.5 40.5t41.5 16.5t42 -16.5z" />
    <glyph glyph-name="bn_la.half" horiz-adv-x="688" 
 />
    <glyph glyph-name="bn_sha.half" horiz-adv-x="575" 
 />
    <glyph glyph-name="bn_ssa.half" horiz-adv-x="508" 
d="M535.5 633.5q8.5 -8.5 8.5 -22.5v-2q0 -15 -8.5 -23t-22.5 -8h-106q47 -50 47 -127q0 -59 -27 -103t-73.5 -67.5t-103.5 -23.5t-102.5 23.5t-72 67.5t-26.5 103q0 77 45 127h-105q-31 0 -31 31v2q0 14 8 22.5t23 8.5h524q14 0 22.5 -8.5zM381 379l-15 12q14 28 14 61
q0 53 -36 89.5t-94 36.5q-44 0 -75 -23l-25 22l-41 -42l28 -24q-14 -28 -14 -59q0 -56 35.5 -91.5t91.5 -35.5q46 0 77 22l12 -10zM327 347l-190 164q14 27 38 44l191 -164q-14 -28 -39 -44z" />
    <glyph glyph-name="bn_ha.half" horiz-adv-x="471" 
d="M499 633.5q8 -8.5 8 -22.5v-2q0 -31 -31 -31h-349q25 -30 41 -61q25 5 48 5q78 0 128 -40.5t50 -114.5q0 -64 -39.5 -105t-113.5 -51v-4q8 -2 36 -10.5t64 -22.5l63 -25q13 -6 19.5 -12.5t6.5 -17.5q0 -15 -8 -28t-23 -13q-9 0 -22 5l-279 114q-15 6 -22 14t-7 20
q0 18 9.5 29.5t26.5 11.5q8 0 26.5 -3t51.5 -3q68 0 102 26.5t34 75.5q0 44 -30 65.5t-75 21.5q-11 0 -23 -2q3 -16 3 -35q0 -40 -16.5 -61t-44.5 -21q-27 0 -44.5 17t-17.5 50q0 28 11 51t32 38q-20 28 -38.5 47.5t-29.5 28t-14 10.5h-43q-31 0 -31 31v2q0 14 8 22.5
t23 8.5h487q15 0 23 -8.5z" />
    <glyph glyph-name="bn_ss_ka" horiz-adv-x="674" 
d="M701 633.5q8 -8.5 8 -22.5v-2q0 -15 -8 -23t-22 -8h-227q48 -50 48 -129q0 -76 -45 -127q83 -14 134 -65.5t51 -121.5q0 -53 -25 -85.5t-70 -32.5q-29 0 -48.5 15t-19.5 42q0 26 16 41t41 15q20 0 34 -11q1 6 1 18q0 51 -43.5 85.5t-113.5 38.5v-265q0 -49 -43 -49
q-12 0 -26 5.5t-35 16.5l-225 118q-38 22 -38 59q0 22 7 36.5t23 27.5q56 44 118 72q-45 22 -70.5 65t-25.5 102q0 80 46 129h-154q-31 0 -31 31v2q0 14 8 22.5t23 8.5h690q14 0 22 -8.5zM181 504q-11 -27 -11 -54q0 -57 35.5 -93t91.5 -36q48 0 82 26l8 -6l41 43l-13 10
q11 27 11 56q0 53 -36 90.5t-93 37.5q-47 0 -80 -27l-27 21l-40 -44zM379 347l-198 157q12 28 36 47l198 -157q-12 -28 -36 -47zM337 34v221q-55 -11 -111.5 -38t-106.5 -69z" />
    <glyph glyph-name="bn_s_ka" horiz-adv-x="676" 
 />
    <glyph glyph-name="bn_ng_kha" horiz-adv-x="751" 
d="M779 633.5q8 -8.5 8 -22.5v-2q0 -31 -31 -31h-90v-775q0 -55 -59 -55q-24 0 -62 12l-359 123q-29 8 -29 33q0 6 1 10q6 32 33 32q11 0 28 -5q36 -9 76 -9q75 0 111 33.5t36 85.5q0 38 -19 69q-18 -57 -63 -97.5t-118 -40.5q-65 0 -102.5 28.5t-37.5 76.5q0 30 16 47
t43 17q26 0 42 -15.5t16 -38.5q0 -28 -20 -43q15 -6 39 -6q46 0 76.5 30t47.5 75q-21 -4 -50 -4q-125 0 -194.5 77.5t-78.5 204.5q-2 19 7 31t28 12q31 0 33 -35q11 -110 62.5 -166t142.5 -56q68 0 104 31t36 76q0 18 -6 32q-33 -22 -67.5 -35t-77.5 -13q-52 0 -82.5 25.5
t-30.5 76.5v52q-64 33 -101 104h-98q-31 0 -31 31v2q0 14 8 22.5t23 8.5h111q22 0 31 -9.5t25 -39.5q15 -28 32 -44q2 48 34 80.5t92 32.5q59 0 93.5 -31.5t34.5 -75.5q0 -55 -38.5 -81t-100.5 -26q-24 0 -45 3v-24q0 -22 11.5 -31t36.5 -9q26 0 48.5 8.5t54.5 25.5
q4 2 15.5 8t19.5 8.5t14 2.5q26 0 43 -32.5t17 -73.5q0 -37 -14.5 -70.5t-43.5 -57.5q23 -30 38 -67.5t15 -78.5q0 -57 -30.5 -103t-101.5 -62v-4l210 -72v881q0 18 9.5 28t26.5 10h2q18 0 27.5 -10t9.5 -28v-58h90q15 0 23 -8.5zM258 514q26 -4 43 -4q74 0 74 47
q0 20 -15.5 32.5t-44.5 12.5q-25 0 -41 -17t-16 -47v-24z" />
    <glyph glyph-name="bn_dd_ga" horiz-adv-x="1071" 
d="M1098 633.5q8 -8.5 8 -22.5v-2q0 -31 -31 -31h-90v-547q0 -17 -10 -27t-28 -10h-2q-17 0 -27 10t-10 27v346q0 97 -44 149t-123 52q-49 0 -87 -23.5t-56 -64.5l3 -3q30 8 58 8q65 0 104 -34.5t39 -92.5q0 -39 -19 -81t-57 -82q-17 -19 -37 -19q-14 0 -25.5 10.5
t-11.5 24.5q0 16 17 33q56 59 56 113q0 30 -19 46t-52 16q-50 0 -89 -26q13 -21 20 -51.5t7 -61.5q0 -63 -26.5 -114.5t-82.5 -82t-139 -30.5q-144 0 -221.5 95.5t-82.5 258.5q-1 17 9.5 27.5t29.5 10.5q15 0 24.5 -8.5t10.5 -24.5q6 -148 66.5 -218.5t163.5 -70.5
q85 0 130 45t45 114q0 48 -16 71q-38 -29 -72 -46.5t-78 -17.5q-46 0 -76 26t-30 80v173h-258q-31 0 -31 31v2q0 14 8 22.5t23 8.5h698q22 5 54 5q55 0 97.5 -20t69.5 -57v130q0 18 10 28t27 10h2q18 0 28 -10t10 -28v-58h90q15 0 23 -8.5zM403.5 379.5q19.5 9.5 51.5 30.5
q20 14 31.5 20.5t22.5 7.5q19 93 70 147l-1 2q0 -1 -43 -5t-110 -4h-102v-166q0 -42 37 -42q24 0 43.5 9.5z" />
    <glyph glyph-name="bn_d_ga" horiz-adv-x="956" 
d="M983.5 633.5q8.5 -8.5 8.5 -22.5v-2q0 -15 -8.5 -23t-22.5 -8h-91v-547q0 -17 -10 -27t-27 -10h-2q-17 0 -27 10t-10 27v347q0 98 -44 150t-124 52q-49 0 -85 -23t-53 -65l3 -3q27 9 54 9q64 0 103.5 -35t39.5 -94q0 -41 -20.5 -84.5t-60.5 -84.5q-21 -19 -36 -19
t-26.5 10.5t-11.5 24.5q0 17 17 34q61 62 61 118q0 31 -19 47t-52 16q-47 0 -83 -23q-22 -88 -22 -249v-89q0 -17 -9.5 -27t-26.5 -10h-2q-17 0 -27 10t-10 27v90q0 142 17 216q-38 -23 -90.5 -67.5t-109.5 -105.5q-26 -28 -56 -28q-45 0 -45 47v356h-87q-31 0 -31 31v2
q0 14 8 22.5t23 8.5h576q29 7 62 7q55 0 97.5 -20t69.5 -57v128q0 18 10 28t27 10h2q17 0 27 -10t10 -28v-58h91q14 0 22.5 -8.5zM272.5 393q66.5 49 127.5 76q20 73 63 116l-1 2q0 -1 -47.5 -5t-115.5 -4h-146v-102q0 -115 -7 -192l4 -2q56 62 122.5 111z" />
    <glyph glyph-name="bn_rr_ga" horiz-adv-x="1071" 
d="M1098 633.5q8 -8.5 8 -22.5v-2q0 -31 -31 -31h-90v-547q0 -17 -10 -27t-28 -10h-2q-17 0 -27 10t-10 27v346q0 97 -44 149t-123 52q-49 0 -87.5 -23.5t-55.5 -64.5l3 -3q30 8 58 8q65 0 104 -34.5t39 -92.5q0 -41 -21 -84.5t-62 -85.5q-12 -14 -30 -14q-15 0 -26.5 10.5
t-11.5 25.5q0 17 13 30q61 62 61 117q0 30 -19 46t-52 16q-50 0 -89 -26q13 -21 20 -51.5t7 -61.5q0 -63 -26.5 -114.5t-82.5 -82t-139 -30.5q-146 0 -222.5 96t-81.5 258q-1 17 9.5 27.5t29.5 10.5q15 0 24.5 -8.5t10.5 -24.5q6 -148 66.5 -218.5t163.5 -70.5q85 0 130 45
t45 114q0 48 -16 71q-38 -29 -72 -46.5t-78 -17.5q-46 0 -76 26t-30 80v173h-258q-31 0 -31 31v2q0 14 8 22.5t23 8.5h699q23 5 53 5q55 0 97.5 -20t69.5 -57v130q0 18 10 28t27 10h2q18 0 28 -10t10 -28v-58h90q15 0 23 -8.5zM403.5 380q20.5 10 49.5 29q20 14 32 21t24 8
q18 91 70 147l-1 2q0 -1 -43 -5t-110 -4h-102v-166q0 -42 36 -42q24 0 44.5 10zM378.5 -32q15.5 -15 15.5 -36t-15.5 -35.5t-37.5 -14.5q-21 0 -35.5 14.5t-14.5 35.5t14.5 36t35.5 15q22 0 37.5 -15z" />
    <glyph glyph-name="bn_ng_gha" horiz-adv-x="1070" 
 />
    <glyph glyph-name="bn_d_gha" horiz-adv-x="953" 
d="M980 633.5q8 -8.5 8 -22.5v-2q0 -31 -31 -31h-90v-547q0 -17 -10 -27t-27 -10h-2q-17 0 -27 10t-10 27v55l-359 151q-1 -22 -1 -78v-79q0 -17 -10 -27t-27 -10h-2q-17 0 -26.5 10t-9.5 27v80q0 156 14 224q-33 -20 -77 -59.5t-109 -106.5q-15 -15 -29.5 -22.5t-32.5 -7.5
q-46 0 -46 50v340h-87q-31 0 -31 31v2q0 14 8 22.5t23 8.5h968q15 0 23 -8.5zM424.5 443q17.5 -17 17.5 -45q0 -8 -2 -38q-4 -27 -5 -58l114 66v4q-45 11 -69.5 42t-24.5 72q0 31 10.5 54.5t25.5 37.5h-338v-144q0 -42 -4 -142l3 -2q100 110 186 158q22 12 41 12
q28 0 45.5 -17zM791 578h-176q-37 0 -61 -23t-24 -66q0 -35 21 -52.5t55 -17.5q30 0 72 23q9 6 20 6q14 0 23 -11.5t9 -25.5q0 -19 -18 -30l-184 -107l263 -111v415z" />
    <glyph glyph-name="bn_l_gha" horiz-adv-x="1009" 
d="M1037 633.5q8 -8.5 8 -22.5v-2q0 -31 -31 -31h-91v-547q0 -17 -9.5 -27t-26.5 -10h-2q-17 0 -27 10t-10 27v55l-316 123q-33 12 -33 49q0 20 7.5 33t22.5 22l72 44v4q-64 15 -91 59q-22 26 -53 26q-30 0 -47 -23t-22 -71q-2 -16 -11 -26t-26 -10q-32 0 -38 36
q-6 46 -34.5 69.5t-66.5 23.5q-43 0 -69.5 -30t-26.5 -85q0 -47 22 -75t58 -33q-1 4 -1 12q0 24 15.5 40t39.5 16q27 0 43 -15.5t16 -41.5q0 -35 -26 -55t-72 -20q-76 0 -122.5 48t-46.5 125q0 81 45.5 132t122.5 51q39 0 76 -17t59 -52q17 38 44.5 53.5t54.5 15.5
q28 0 51 -16q5 49 38 80h-544q-31 0 -31 31v2q0 14 8 22.5t23 8.5h1025q15 0 23 -8.5zM847 578h-188q-37 0 -63.5 -24.5t-26.5 -65.5q0 -39 25.5 -58.5t59.5 -19.5q20 0 35 5.5t38 19.5q8 5 19 5q15 0 24 -10.5t9 -25.5q0 -19 -18 -30l-175 -109l261 -101v414z" />
    <glyph glyph-name="bn_c_ca" horiz-adv-x="816" 
d="M843 633.5q8 -8.5 8 -22.5v-2q0 -31 -31 -31h-344q0 -43 16 -70.5t64 -44.5l97 -34q50 -17 75.5 -37.5t33.5 -43.5t8 -57q0 -60 -32 -124t-88 -107t-122 -43q-55 0 -89.5 29.5t-34.5 88.5v137q-23 -62 -78.5 -105.5t-122.5 -43.5q-56 0 -92 29t-36 89v337h-86
q-31 0 -31 31v2q0 14 8 22.5t23 8.5h831q15 0 23 -8.5zM404 578h-258q3 -27 19.5 -43t58.5 -32l80 -31q80 -30 100 -69v175zM268.5 213q32.5 22 53 56t20.5 67q0 25 -11.5 41t-40.5 27l-78 30q-43 17 -63 36v-224q0 -55 55 -55q32 0 64.5 22zM480 429v-288q0 -30 12 -43
t39 -13q39 0 77.5 32.5t62.5 80.5t24 91q0 26 -11.5 42.5t-41.5 27.5l-97 33q-47 16 -65 37z" />
    <glyph glyph-name="bn_c_cha" horiz-adv-x="897" 
 />
    <glyph glyph-name="bn_n_ja" horiz-adv-x="833" 
d="M860.5 633.5q8.5 -8.5 8.5 -22.5v-2q0 -15 -8.5 -23t-22.5 -8h-456v-54q46 -41 116.5 -62t143.5 -21q27 0 51 2q8 1 21 1q18 0 29.5 -4t22.5 -15q7 -8 10 -16.5t3 -20.5t-7 -37q-11 -34 -17.5 -78t-6.5 -122v-146q0 -17 -9.5 -26.5t-26.5 -9.5h-2q-17 0 -27 9.5t-10 26.5
v147q0 147 28 222q-21 -3 -54 -3q-64 0 -137.5 17.5t-127.5 56.5v-133q0 -23 7.5 -31t25.5 -8q23 0 39.5 5.5t42.5 17.5q16 8 26 12t21 4q28 0 44.5 -38.5t16.5 -81.5q0 -81 -50.5 -136t-158.5 -55q-122 0 -192 75.5t-82 202.5q-5 41 34 43q33 3 38 -35q12 -107 64 -162
t137 -55q71 0 105 35t34 89q0 13 -3 25t-6 18q-62 -32 -118 -32q-48 0 -74.5 26t-26.5 79v1q-35 75 -78 107.5t-86 32.5q-10 0 -14 -1q18 -16 18 -40t-16 -39.5t-42 -15.5q-28 0 -46.5 18t-18.5 46q0 46 33 73t86 27q101 0 168 -86l4 1q-8 66 -8 142v2h-317q-31 0 -31 31v2
q0 14 8 22.5t23 8.5h849q14 0 22.5 -8.5z" />
    <glyph glyph-name="bn_c_nya" horiz-adv-x="1030" 
d="M1057 633.5q8 -8.5 8 -22.5v-2q0 -15 -8 -23t-22 -8h-887q2 -27 18.5 -43t58.5 -32l79 -30q54 -20 80 -46q26 37 69.5 57.5t95.5 20.5q48 0 84.5 -21.5t52.5 -61.5q26 43 65 62t82 19q64 0 101.5 -34t37.5 -90q0 -77 -62 -109q32 -13 51 -42.5t19 -69.5q0 -58 -36 -94
t-100 -36q-46 0 -83.5 16.5t-61.5 46.5v-101q0 -38 -31 -38q-20 0 -27.5 11t-12.5 33q-7 31 -22.5 48t-58.5 17q-21 0 -69 -8q-56 -10 -90 -10q-111 0 -151 82q-16 -3 -33 -3q-56 0 -92 29t-36 88v339h-87q-31 0 -31 31v2q0 14 8 22.5t23 8.5h1046q14 0 22 -8.5zM150 243
q0 -55 56 -55q34 0 66.5 23t53 57.5t20.5 67.5q0 26 -12.5 42t-42.5 27l-77 30q-50 21 -64 37v-229zM306 151q26 -42 91 -42q26 0 78 10q6 1 29 5t41 4q26 0 45.5 -7.5t37.5 -22.5v256q0 86 -83 86q-53 0 -91 -36t-38 -90q0 -21 7.5 -37.5t21.5 -24.5q-1 3 -1 11
q0 24 15.5 39t40.5 15q27 0 42.5 -16t15.5 -42q0 -31 -22 -50t-63 -19q-60 0 -92 35q-30 -45 -75 -74zM735.5 392.5q-35.5 -45.5 -35.5 -123.5q0 -84 35.5 -130.5t98.5 -46.5q37 0 56.5 20t19.5 52q0 35 -21.5 53.5t-63.5 18.5q-20 0 -30 7.5t-10 24.5q0 33 40 33
q41 0 59 20t18 52q0 30 -21 47.5t-53 17.5q-57 0 -92.5 -45.5z" />
    <glyph glyph-name="bn_n_tta" horiz-adv-x="824" 
d="M852 633.5q8 -8.5 8 -22.5v-2q0 -31 -31 -31h-378v-436q0 -66 76 -66q54 0 94.5 29t62 76.5t21.5 100.5q0 50 -19 76t-49 26q2 -8 2 -14q0 -26 -15.5 -42t-42.5 -16t-44 16t-17 44q0 38 29 59.5t73 21.5q42 0 77.5 -19.5t57 -59t21.5 -95.5q0 -71 -29 -133t-86.5 -100.5
t-138.5 -38.5q-62 0 -103 31t-46 89q-23 116 -79 191t-137 75q-17 0 -31 -3q21 -16 21 -43q0 -25 -16 -41.5t-43 -16.5q-29 0 -48 18.5t-19 48.5q0 48 35.5 77.5t96.5 29.5q74 0 133.5 -41.5t94.5 -119.5l3 1q-12 72 -12 160v115h-385q-31 0 -31 31v2q0 14 8 22.5t23 8.5
h706q4 28 4 44q0 46 -21 66.5t-72 20.5q-26 0 -74 -2q-41 -3 -95 -3q-68 0 -104.5 31.5t-36.5 91.5q0 51 37 51q19 0 28 -10t10 -36q0 -35 22.5 -47.5t68.5 -12.5q25 0 77 2q58 2 91 2q70 0 106 -37.5t36 -109.5q0 -21 -5 -51h62q15 0 23 -8.5z" />
    <glyph glyph-name="bn_s_tta" horiz-adv-x="619" 
 />
    <glyph glyph-name="bn_b_dda" horiz-adv-x="662" 
d="M688 633.5q8 -8.5 8 -22.5v-2q0 -15 -8 -23t-22 -8h-298v-277q0 -35 32 -35q22 0 40.5 11t43.5 32q19 16 30.5 23.5t22.5 7.5q26 0 46.5 -25.5t32 -63t11.5 -71.5q0 -61 -26.5 -112t-80.5 -82t-134 -31q-109 0 -180 58t-101 166q-4 14 -4 23q0 17 10 27t29 10
q14 0 21 -8.5t11 -22.5q21 -92 77 -138t139 -46q57 0 94.5 23t55.5 58.5t18 73.5q0 52 -23 86q-34 -35 -66.5 -52.5t-74.5 -17.5q-46 0 -100 27l-205 106q-20 10 -30 24.5t-10 37.5q0 25 10 40.5t31 26.5q108 57 206 91v30h-305q-31 0 -31 31v2q0 14 8 22.5t23 8.5h677
q14 0 22 -8.5zM294 300v174q-65 -25 -181 -84z" />
    <glyph glyph-name="bn_b_ddha" horiz-adv-x="787" 
d="M814 633.5q8 -8.5 8 -22.5v-2q0 -31 -31 -31h-379v-441q0 -61 74 -61q54 0 95 29.5t62.5 77.5t21.5 101q0 47 -18.5 72.5t-46.5 26.5l1 -13q0 -26 -16.5 -42t-42.5 -16q-27 0 -43.5 15.5t-16.5 44.5q0 38 29 60t72 22q70 0 114 -44t44 -128q0 -71 -30 -134t-87.5 -102
t-137.5 -39q-66 0 -108.5 33t-42.5 97v7l-266 135q-36 18 -36 60q0 38 34 61q126 79 268 128v50h-346q-31 0 -31 31v2q0 14 8 22.5t23 8.5h802q15 0 23 -8.5zM335 227v224q-119 -41 -229 -113z" />
    <glyph glyph-name="bn_h_nna" horiz-adv-x="498" 
d="M524 633.5q8 -8.5 8 -22.5v-2q0 -31 -31 -31h-353q22 -25 41 -61q25 5 49 5q78 0 128 -40.5t50 -114.5q0 -63 -39.5 -104t-113.5 -51v-4q8 -2 36 -10.5t64 -22.5l104 -42q14 -6 21 -13t7 -19q0 -15 -8.5 -27t-23.5 -12q-14 0 -26 6l-12 5v-326q0 -17 -9.5 -26.5
t-26.5 -9.5h-2q-17 0 -26.5 9.5t-9.5 26.5v124q0 81 -37 120.5t-100 39.5q-51 0 -82 -30.5t-31 -79.5q0 -39 17 -63t46 -33v5q0 26 16.5 42.5t42.5 16.5q27 0 43.5 -17t16.5 -44q0 -34 -24 -53.5t-69 -19.5q-71 0 -117 44.5t-46 123.5t51 127.5t131 48.5q49 0 85.5 -17.5
t56.5 -42.5v64l-240 99q-31 11 -31 35q0 16 9.5 26.5t26.5 10.5q6 0 24 -2q33 -5 54 -5q147 0 147 101q0 44 -30 65.5t-75 21.5q-10 0 -24 -2q3 -16 3 -35q0 -39 -16.5 -60.5t-43.5 -21.5t-44.5 17t-17.5 50q0 28 11 51t32 38q-20 28 -38.5 47.5t-29.5 28t-14 10.5h-65
q-31 0 -31 31v2q0 14 8 22.5t23 8.5h512q15 0 23 -8.5z" />
    <glyph glyph-name="bn_n_ta" horiz-adv-x="611" 
 />
    <glyph glyph-name="bn_m_ta" horiz-adv-x="615" 
d="M643 633.5q8 -8.5 8 -22.5v-2q0 -31 -31 -31h-92q31 -37 31 -91q0 -37 -15.5 -66.5t-45.5 -46.5q32 -26 50 -67.5t18 -95.5q0 -105 -59 -169t-170 -64q-116 0 -190 74t-93 206l-1 15q0 37 39 37q19 0 26 -10t10 -28q14 -102 65.5 -163.5t143.5 -61.5q73 0 114 45.5
t41 119.5q0 65 -31 99t-78 34q-28 0 -49.5 -13t-29.5 -34h5q26 0 42.5 -16t16.5 -41q0 -26 -16 -42.5t-43 -16.5q-38 0 -58.5 25.5t-20.5 67.5q0 63 41 99q-32 9 -73 30q-25 -37 -75 -37q-36 0 -55.5 15.5t-19.5 42.5q0 26 20.5 43.5t56.5 17.5q11 0 25 -2q-2 26 -14.5 51
t-30.5 43h-116q-31 0 -31 31v2q0 14 8 22.5t23 8.5h631q15 0 23 -8.5zM399 578h-207q27 -42 27 -98v-13q50 -24 92 -36.5t81 -12.5q92 0 92 80t-85 80z" />
    <glyph glyph-name="bn_l_ta" horiz-adv-x="736" 
 />
    <glyph glyph-name="bn_sh_ta" horiz-adv-x="656" 
 />
    <glyph glyph-name="bn_s_ta" horiz-adv-x="634" 
 />
    <glyph glyph-name="bn_n_tha" horiz-adv-x="567" 
 />
    </font>
</defs>
</svg>
